<svg width="627" height="900" viewBox="0 0 627 900" fill="none" xmlns="http://www.w3.org/2000/svg">
<path opacity="0.5" fill-rule="evenodd" clip-rule="evenodd" d="M754.937 841.895L752.21 842.365C723.903 846.988 695.194 846.318 666.665 840.768C636.812 834.935 609.078 823.63 584.295 807.222C527.881 770.224 490.695 709.998 476.868 632.727C447.772 471.276 308.086 370.501 195.433 289.229L194.414 288.494C143.463 252.086 95.3756 217.483 65.1562 182.864C31.4832 144.499 22.1071 109.352 35.84 72.0087C50.3083 33.0071 78.5322 -1.72721 120.392 -31.4077C153.556 -55.2496 195.219 -75.7053 244.387 -92.6037C323.648 -119.812 396.773 -128.079 405.057 -129.016L405.058 -129.016C405.515 -129.068 405.775 -129.097 405.827 -129.106C455.824 -130.829 502.674 -125.627 544.804 -113.74C584.241 -102.665 620.899 -85.4953 653.454 -62.5117C655.488 -61.0752 657.523 -59.6388 659.309 -58.1596C595.355 -104.836 512.813 -131.97 405.955 -128.362C405.884 -128.35 405.568 -128.313 405.018 -128.248C395.947 -127.187 323.43 -118.699 244.763 -91.9027C167.604 -65.5849 68.9836 -15.6551 36.4213 72.4191C22.8509 109.224 31.979 144.414 65.6093 182.53C96.0767 217.107 143.916 251.753 194.62 288.203C251.427 328.963 315.586 375.349 368.255 430.609C425.596 490.91 460.613 553.453 475.153 621.398C446.473 467.027 312.389 370.478 204.403 292.721L204.403 292.721L204.032 292.453C202.547 291.378 201.064 290.305 199.583 289.234C152.513 255.171 108.129 223.053 79.8005 190.807C47.6235 153.717 38.709 119.767 51.7066 84.082C65.6874 46.6962 92.8425 13.1673 132.89 -15.1796C164.943 -38.0641 204.955 -57.7247 252.183 -74.0335C328.771 -100.138 399.625 -108.3 406.653 -109.11C406.994 -109.149 407.184 -109.171 407.219 -109.177C455.189 -110.806 500.218 -105.801 540.733 -94.4014C578.554 -83.8141 613.845 -67.1741 645.193 -45.2593C656.239 -37.4613 666.873 -29.082 677.141 -19.8734C612.341 -77.3823 525.371 -112.433 407.347 -108.433C407.275 -108.421 406.961 -108.384 406.418 -108.32C397.575 -107.278 327.974 -99.0768 252.559 -73.3324C178.537 -48.0659 83.67 -0.0594546 52.5358 84.4497C39.4955 119.886 48.3673 153.589 80.4588 190.183C109.678 223.443 155.731 256.61 204.4 291.624C258.882 330.742 320.673 375.239 371.222 428.566C423.757 483.989 456.95 541.281 472.013 603.073C441.213 459.827 315.288 369.229 213.607 296.164C166.682 262.382 122.664 230.651 94.4451 198.751C63.311 163.268 54.6528 130.805 67.4109 96.6935C80.6137 60.7183 106.743 28.6427 145.182 1.33868C175.876 -20.5456 214.486 -39.454 259.568 -54.8823C333.111 -79.9666 400.813 -87.809 407.641 -88.6C407.977 -88.6389 408.166 -88.6607 408.201 -88.6667C424.307 -89.1815 440.01 -88.9349 455.297 -87.9274C440.307 -88.8496 424.872 -89.0546 408.987 -88.547C408.87 -88.5268 408.444 -88.4723 407.725 -88.3803L407.723 -88.3801L407.723 -88.38C403.867 -87.8868 391.619 -86.3197 373.652 -83.2234C345.636 -78.3951 303.991 -69.6865 260.355 -54.7625C189.47 -30.5474 98.6047 15.493 68.6506 96.4798C56.1404 130.549 64.7558 162.764 95.5566 197.793C122.649 228.733 165.028 259.433 210.078 292.067C211.54 293.126 213.004 294.187 214.471 295.25L217.612 297.52C269.032 334.674 326.776 376.398 374.436 426.48C425.525 480.284 457.228 535.718 471.622 595.751C443.051 457.226 321.613 369.786 223.635 299.542C222.215 298.512 220.796 297.483 219.381 296.456L219.245 296.358L219.245 296.358C176.217 265.153 135.593 235.691 109.748 206.07C79.9044 172.152 71.7506 141.134 83.9358 108.143C96.6511 73.7833 121.711 42.9131 158.544 16.652C187.878 -4.23206 224.795 -22.5934 268.227 -37.2267C339.019 -61.431 404.497 -68.7337 410.112 -69.36C410.349 -69.3864 410.479 -69.4009 410.499 -69.4044C495.813 -72.1079 569.421 -52.3699 628.922 -10.7977C680.035 25.0714 722.394 78.2782 754.748 147.506C814.097 274.12 830.637 430.833 842.726 545.423C843.127 549.08 843.524 552.708 843.917 556.303C846.592 580.785 849.095 603.689 851.8 623.258C857.619 665.912 846.416 704.606 819.201 734.826C794.74 761.764 759.148 780.407 718.487 787.414L716.007 787.842C664.557 795.943 610.56 784.824 567.926 756.684C522.485 726.787 491.13 680.016 476.68 620.342C507.379 769.858 627.781 821.194 728.18 805.147L730.66 804.719C788.535 794.745 845.613 759.141 864.448 700.108C858.633 718.869 848.797 736.081 835.051 751.242C810.469 778.966 773.184 798.157 730.54 805.506L727.813 805.976C673.883 814.504 617.484 802.778 573.149 773.655C525.25 742.241 492.566 692.667 477.533 629.87C509.216 786.476 635.008 840.115 739.986 823.281L742.465 822.854C822.547 809.053 901.377 747.982 886.996 645.276C883.923 623.479 881.19 597.76 878.282 570.387L878.268 570.254C877.922 566.995 877.573 563.714 877.221 560.413C864.681 441.237 847.924 284.543 793.219 152.707C848.299 284.755 865.037 441.548 877.5 558.289L877.5 558.29L877.717 560.327C878.069 563.625 878.417 566.904 878.763 570.16L878.777 570.293L878.778 570.304C881.686 597.676 884.419 623.394 887.492 645.19C893.994 691.811 881.817 733.737 851.969 766.453C825.908 795.964 787.264 816.155 742.884 823.803L740.156 824.273C683.995 833.186 625.194 820.853 578.867 790.541C527.19 756.551 492.25 702.226 477.425 632.981C507.924 801.599 641.116 859.468 752.082 841.621L754.809 841.151C838.115 826.794 920.073 763.141 905.214 656.177C901.599 630.76 898.37 600.169 895.089 567.801L894.958 566.568C882.109 446.146 865.373 289.302 812.447 154.923C865.908 289.877 882.863 447.272 895.609 565.598L895.833 567.672C896.311 572.05 896.783 576.395 897.251 580.7L897.27 580.872L897.271 580.881C900.251 608.302 903.053 634.085 905.957 656.049C912.759 704.406 899.847 747.99 869.015 782.408C841.595 812.919 801.053 833.947 754.937 841.895ZM780.684 124.394C785.071 133.685 789.245 143.131 793.219 152.707C789.599 144.027 785.812 135.454 781.851 127.006C781.466 126.135 781.077 125.264 780.684 124.394ZM772.354 107.453C775.213 113.038 777.989 118.687 780.684 124.394C778.081 118.636 775.295 112.935 772.354 107.453ZM869.316 634.536C872.689 658.862 870.626 680.745 864.448 700.108C870.703 679.929 872.304 657.959 869.111 634.827C865.839 611.392 862.788 583.324 859.687 553.477C846.991 433.886 829.503 270.188 767.641 137.88C733.739 65.6 689.714 10.1275 636.275 -27.3833C585.35 -63.1586 524.599 -83.3604 455.297 -87.9274C598.204 -79.1364 700.728 -5.1705 767.889 137.837C829.708 269.897 847.197 433.596 859.892 553.187C862.994 583.033 866.044 611.101 869.316 634.536ZM268.398 -36.235C310.094 -50.5692 350.003 -58.9788 376.78 -63.5934C389.87 -65.8493 399.844 -67.1449 405.344 -67.8592C408.386 -68.2543 410.058 -68.4716 410.131 -68.5751C570.585 -73.7606 682.859 -2.98779 753.551 147.967C812.609 274.376 829.397 431.047 841.486 545.636C841.788 548.398 842.087 551.149 842.385 553.884C845.143 579.191 847.761 603.218 850.56 623.472C863.736 717.705 791.456 773.818 718.068 786.465L715.836 786.85C621.066 801.947 508.121 754.623 476.578 616.6C491.069 670.272 520.375 712.607 562.003 740.089C602.85 766.75 654.53 777.757 703.706 769.793L706.186 769.366C745.111 762.657 779.301 744.766 801.95 719.162C828.139 690.395 838.897 653.565 833.129 612.689C830.587 594.086 828.277 572.37 825.803 549.11L825.787 548.967C825.414 545.453 825.036 541.904 824.653 538.325L824.533 537.203L824.533 537.202L824.533 537.202C812.856 428.002 796.89 278.68 740.495 158.132C736.786 150.252 732.943 142.586 728.966 135.136C668.407 20.3168 579.271 -40.0096 458.067 -48.3061C442.975 -49.4184 427.427 -49.6995 411.438 -49.142C411.402 -49.1358 411.21 -49.1139 410.871 -49.0751L410.87 -49.0749L410.868 -49.0748C404.285 -48.3214 342.246 -41.2226 275.322 -18.2805C233.831 -4.237 198.769 13.0387 170.589 33.2133C135.321 58.1836 111.535 87.5577 99.3496 120.549C87.8998 151.882 95.592 181.703 124.144 214.057C149.445 242.843 189.029 271.391 231.101 301.733L233.21 303.254C324.655 368.859 437.337 449.86 467.921 576.938C453.267 523.147 423.48 472.96 377.403 424.437C330.932 375.513 274.373 334.71 224.251 298.67L222.195 297.189C178.073 265.399 136.721 235.605 110.406 205.446C80.8534 171.734 72.7423 140.963 84.765 108.51C113.291 31.0886 200.404 -13.0285 268.398 -36.235ZM412.225 -49.0223C427.988 -49.5564 443.267 -49.3192 458.067 -48.3061C520.107 -43.7336 574.463 -25.1157 620.251 7.03587C663.205 37.1698 699.69 80.2918 728.966 135.136C732.813 142.43 736.545 149.944 740.162 157.679C796.514 277.98 812.481 427.302 824.157 536.502L824.277 537.624C826.951 564.991 829.865 590.785 832.795 612.236C845.493 702.212 776.342 755.743 706.177 767.835L703.946 768.22C613.673 782.79 505.953 737.636 475.585 606.276C489.466 657.171 517.219 697.492 556.824 723.366C595.678 748.838 644.956 759.238 691.901 751.659L694.132 751.274C731.322 744.865 763.614 727.811 786.186 703.242C811.058 675.723 821.329 640.508 815.903 601.616C813.1 580.909 810.443 556.603 807.735 530.518L807.734 530.509C796.653 426.213 781.47 283.313 727.397 168.048C697.641 105.01 659.156 56.4976 612.693 23.9119C558.382 -14.2145 491.442 -32.2933 413.531 -29.5892C413.494 -29.5828 413.304 -29.5609 412.968 -29.5223C406.596 -28.7888 347.704 -22.0099 283.819 -0.0865824C244.516 13.3245 210.856 29.848 184.036 49.0224C150.623 72.907 127.863 100.828 116.165 132.203C104.998 162.211 112.681 190.502 139.738 221.582C163.798 249.059 201.368 276.181 241.415 305.094L243.486 306.589L243.729 306.764C330.689 369.411 437.907 446.653 467.092 567.581C453.03 516.371 424.459 468.487 380.575 422.103C336.525 375.631 282.705 336.899 235.113 302.648L235.113 302.648L234.279 302.048C191.466 271.386 151.184 242.076 125.504 213.057C97.2421 180.908 89.3874 151.626 100.88 120.541C128.226 46.6412 211.337 4.49026 276.194 -17.6649C315.992 -31.1614 354.165 -39.2719 379.703 -43.6729C388.929 -45.263 396.548 -46.4017 402.092 -47.2302L402.093 -47.2303L402.093 -47.2304L402.094 -47.2304L402.094 -47.2305C408.169 -48.1383 411.751 -48.6737 412.225 -49.0223ZM382.83 -24.043C358.285 -19.8129 322.095 -12.0443 283.99 0.905168C222.022 22.0517 142.913 62.2366 116.789 132.862C105.784 162.331 113.425 190.374 140.148 221C164.58 248.703 203.076 276.534 243.854 305.759L244.726 306.387C289.987 338.992 341.461 376.072 383.337 420.35C429.346 468.889 457.367 518.931 469.198 573.4C469.191 573.363 469.185 573.327 469.178 573.29C446.865 449.74 339.602 372.487 253.352 310.505L251.269 308.999L251.269 308.999L251.268 308.999C213.254 281.523 177.44 255.638 154.63 229.482C128.865 199.967 121.685 173.122 132.075 144.524C156.932 76.9255 232.537 38.6212 291.862 18.4406C352.955 -2.58924 409.587 -8.83347 414.823 -9.41081C415.061 -9.43702 415.192 -9.45155 415.214 -9.45526C489.32 -12.0143 553.028 5.08963 604.475 41.4119C648.656 72.6038 685.432 118.603 713.393 178.631C764.706 288.248 779.188 424.126 789.662 523.42C790.073 527.138 790.478 530.822 790.879 534.465C793.152 555.125 795.279 574.455 797.48 591.005C802.607 628.161 792.781 661.512 769.226 687.783C748.176 710.813 717.286 727.115 682.079 733.182L679.848 733.567C635.134 740.762 588.259 730.969 551.396 706.686C510.534 679.898 482.923 637.104 471.042 582.639C471.059 582.732 471.076 582.824 471.092 582.917C495.457 718.369 602.508 764.766 691.482 750.709L693.713 750.325C760.656 738.788 826.429 687.881 814.458 602.121C811.698 581.661 808.998 557.107 806.29 531.022L806.289 531.014C795.208 426.718 780.025 283.817 726.243 168.758C661.705 31.294 559.434 -33.2883 413.454 -28.5547C413.384 -28.5427 413.089 -28.5071 412.583 -28.446C409.501 -28.0744 398.587 -26.7585 382.83 -24.043ZM291.785 19.4751C327.95 7.11534 362.447 -0.106271 385.753 -4.1227C396.237 -5.92947 404.392 -7.0632 409.369 -7.75512L409.369 -7.75518C412.749 -8.22503 414.663 -8.49117 414.846 -8.626C553.713 -13.1549 650.838 48.2295 712.153 178.845C763.466 288.462 777.905 424.092 788.379 523.386C788.79 527.1 789.195 530.78 789.595 534.419L789.596 534.421C791.869 555.085 793.996 574.418 796.197 590.97C807.442 672.516 745.088 721.047 681.37 732.028L679.386 732.37C595.751 745.775 495.681 702.792 470.806 577.805C482.805 626.736 508.694 665.256 545.925 689.757C580.754 712.604 625.269 722.037 667.751 715.227L669.735 714.885C703.206 709.117 732.736 693.816 752.76 672.238C775.247 647.173 784.337 615.481 779.552 580.308C777.096 563.327 774.938 543.044 772.669 521.726L772.378 518.995L772.085 516.237L771.877 514.298C761.824 420.465 748.102 292.381 699.636 189.171C672.974 132.238 638.361 88.4194 596.258 58.9119C547.427 24.4366 486.907 8.05954 416.606 10.4735C416.584 10.4772 416.459 10.4916 416.234 10.5175L416.23 10.5179L416.23 10.5179C411.241 11.0906 357.776 17.228 299.658 37.0105C243.718 56.0971 171.867 92.478 148.189 156.555C138.287 183.536 145.005 209.185 169.48 237.135C190.589 261.45 223.638 285.357 258.78 310.777L258.781 310.777L261.194 312.523L263.132 313.925C343.403 371.668 443.164 443.593 466.575 557.397C454.519 508.157 428.124 462.426 386.303 418.307C346.073 375.967 297.071 340.5 253.677 309.428C173.531 251.755 110.286 206.233 132.904 144.892C157.556 77.5839 232.956 39.5703 291.785 19.4751ZM388.88 15.507C366.814 19.3098 334.052 26.2323 299.829 38.0022C244.137 57.0461 172.491 93.1364 149.018 156.922C127.624 214.989 187.671 258.254 263.705 312.805C338.922 366.909 431.132 433.378 462.156 534.982C435.445 434.758 345.595 369.907 272.664 317.389C237.699 292.268 204.769 268.583 184.081 244.831C160.898 218.446 154.393 194.036 164.013 168.38C186.263 107.869 254.361 73.411 307.411 55.333C364.795 35.7421 417.707 30.1976 418.246 30.3601C484.743 28.0912 541.783 43.536 588.246 76.1217C628.024 103.988 660.97 145.541 686.042 199.173C731.958 297.338 744.863 418.68 754.32 507.596L754.423 508.559C756.695 530.634 759.045 551.674 761.54 569.115C766.274 602.51 757.38 632.381 736.168 655.951C717.05 676.861 689.417 691.325 657.682 696.794L655.698 697.136C615.448 703.562 573.582 694.693 540.207 672.872C507.471 651.411 484.184 618.535 471.922 577.18C498.676 688.203 590.505 726.282 667.538 713.987L669.521 713.645C729.769 703.262 788.994 657.314 778.227 580.026C775.856 563.632 773.796 544.358 771.591 523.719L771.565 523.477C771.299 520.989 771.031 518.481 770.76 515.955L770.539 513.898C760.488 420.079 746.799 292.304 698.353 189.137C640.218 65.1222 547.992 6.97854 416.486 11.2601C416.302 11.3954 414.457 11.6488 411.219 12.0936C406.478 12.7447 398.75 13.806 388.88 15.507ZM307.872 56.53C340.198 45.5977 371.224 38.9743 392.051 35.3852C407.67 32.6933 417.673 31.48 417.964 31.6853C542.605 27.5656 629.684 82.5114 684.597 199.678C730.47 297.595 743.376 418.936 752.832 507.851L752.935 508.815C753.648 515.052 754.328 521.213 754.993 527.237L754.994 527.245C756.677 542.497 758.264 556.87 760.052 569.372C770.34 642.402 714.245 685.769 657.22 695.597L655.485 695.896C582.689 707.46 495.818 671.52 470.507 566.217C482.137 605.193 504.048 635.959 534.779 656.191C566.163 676.824 605.874 685.043 643.645 679.044L645.381 678.745C675.381 673.575 701.611 659.863 719.369 639.953C739.308 617.88 747.671 589.377 743.279 557.965C741.617 546.2 740.178 532.699 738.649 518.357L738.648 518.354L738.647 518.336L738.644 518.309L738.638 518.254C738.032 512.576 737.413 506.766 736.76 500.88C727.9 416.881 715.769 302.043 672.199 209.218C648.385 158.432 617.396 119.35 579.944 93.1259C536.096 62.3871 482.288 47.9172 419.595 50.0411C419.59 50.0421 419.577 50.0438 419.558 50.0462C419.533 50.0492 419.497 50.0535 419.449 50.0589C419.388 50.0659 419.308 50.0749 419.21 50.086C414.447 50.6235 366.652 56.0182 315.164 73.6551C265.003 90.7245 200.907 123.216 179.88 180.453C160.358 233.091 214.301 272.046 282.487 321.057C351.586 370.668 436.941 431.952 461.551 527.336C432.444 430.902 345.039 367.966 273.644 316.558L273.528 316.474C201.563 264.796 144.961 223.745 165.133 168.953C187.426 108.689 254.822 74.608 307.872 56.53ZM394.93 55.0577C375.343 58.4332 346.01 64.5096 315.42 75.1428C265.756 92.1267 202.112 124.285 181 181.026C161.969 232.502 214.727 270.597 281.758 318.997L283.06 319.937C351.392 368.995 435.281 429.415 461.377 522.796C439.713 430.877 358.283 372.142 292.31 324.726L292.201 324.648C228.136 278.547 177.5 242.109 195.746 192.526C215.593 138.811 275.689 108.286 322.711 92.2679C371.154 75.652 415.795 70.5763 420.36 70.0573L420.362 70.0571L420.522 70.0389L420.611 70.0286L420.687 70.0197L420.718 70.0158L420.733 70.0138L420.74 70.0127C479.627 68.0339 530.247 81.7769 571.436 110.421C606.606 135.251 635.885 171.82 658.152 219.553C698.783 306.347 710.334 413.844 718.782 492.462L718.893 493.492C719.106 495.485 719.317 497.467 719.528 499.437L719.539 499.544L719.539 499.548L719.54 499.551C721.388 516.868 723.132 533.212 725.061 547.063C734.358 612.861 684.154 651.894 633.079 660.696L631.344 660.995C595.804 666.609 558.495 658.997 529.104 639.553C499.011 619.825 478.122 589.401 467.574 550.956C489.814 653.738 573.383 688.874 642.893 677.642L644.628 677.343C698.43 668.071 751.105 627.08 741.544 558.265C739.219 541.815 737.083 522.014 735.025 501.179C726.165 417.18 714.033 302.342 670.507 209.765C618.774 99.1991 536.593 47.494 419.313 51.3663C419.231 51.4825 417.693 51.6862 414.926 52.0529L414.925 52.053L414.924 52.0531C410.773 52.6031 403.854 53.5197 394.93 55.0577ZM323.464 93.6701C352.156 83.8746 379.753 78.0973 398.101 74.9355C409.553 72.9618 417.743 71.9105 420.366 71.5738C420.867 71.5096 421.164 71.4713 421.244 71.4576C531.163 67.8327 608.488 116.545 656.998 220.263C697.317 306.806 708.834 413.986 717.28 492.591L717.405 493.748L717.564 495.236L717.756 497.037L718.04 499.694L718.051 499.801C719.899 517.12 721.644 533.466 723.574 547.32C732.657 611.878 683.111 650.286 632.78 658.96L631.293 659.217C567.119 669.543 490.597 638.057 467.998 545.733C478.292 579.146 497.385 605.529 523.924 622.83C551.281 640.837 586.23 648.09 619.538 642.86L621.026 642.604C668.877 634.358 715.704 597.949 706.929 536.657C704.946 522.191 702.99 504.913 701.11 486.599L700.921 484.827C693.089 411.279 682.427 311.17 644.438 230.341C623.47 185.703 596.106 151.358 563.261 128.169C524.894 101.081 477.506 88.3129 422.422 90.1467C422.132 89.9415 378.23 94.4437 330.755 110.795C286.87 125.762 230.528 154.364 212.152 204.762C195.127 251.074 242.283 285.05 302.284 328.282L302.381 328.352C362.827 371.848 437.003 425.232 459.168 507.96C432.784 423.497 356.134 368.404 293.336 323.273L292.551 322.708C229.387 277.248 179.505 241.348 197.362 193.014C217.047 139.837 276.689 109.645 323.464 93.6701ZM213.477 205.044C241.31 129.529 355.112 102.513 402.22 94.3942C412.327 92.6525 419.404 91.7862 421.783 91.495C422.264 91.4362 422.552 91.4008 422.636 91.3864C525.732 88.1714 597.868 133.438 643.198 230.555C681.196 311.815 691.93 412.576 699.781 486.278L699.781 486.279L699.785 486.317C701.707 504.878 703.664 522.157 705.646 536.623C714.003 596.966 667.834 632.75 620.727 640.869L619.239 641.125C560.886 650.467 491.477 622.681 468.357 541.475C478.375 569.081 495.26 591.119 517.958 605.987C543.571 622.763 576.117 629.409 607.195 624.564L608.682 624.308C653.31 616.616 697.256 582.747 689.164 525.422C687.665 515.642 686.464 504.458 685.184 492.525L685.182 492.509C684.705 488.058 684.216 483.503 683.696 478.878C676.494 410.422 666.378 316.172 630.844 240.344C611.466 199.005 586.017 166.883 555.249 145.379C519.498 120.138 475.341 108.344 424.062 110.033C424.019 110.041 423.839 110.062 423.531 110.099C413.261 111.335 260.104 129.762 228.018 216.835C212.002 260.188 256.021 291.919 311.956 332.063C365.409 370.584 430.64 417.597 454.5 488.563C426.812 415.921 358.923 367.069 303.159 326.941L303.053 326.865C243.637 284.046 196.778 250.277 213.477 205.044ZM229.634 217.323C255.552 146.988 361.258 121.878 405.142 114.315C414.579 112.689 421.019 111.929 423.241 111.666L423.242 111.666C423.705 111.611 423.985 111.578 424.071 111.564C519.764 108.348 586.796 150.665 629.151 240.891C664.643 316.471 674.716 410.473 681.918 478.929C682.026 479.889 682.133 480.847 682.24 481.802C682.354 482.816 682.467 483.827 682.58 484.835L682.58 484.836L682.58 484.838C684.247 499.71 685.828 513.814 687.429 525.721C695.307 581.806 652.31 615.257 608.426 622.82L606.938 623.076C550.937 631.99 483.876 604.207 464.638 522.737C473.511 551.359 489.844 574.105 512.736 589.016C536.647 604.809 566.587 611.138 595.39 606.429L596.629 606.216C638.034 599.08 678.56 567.587 670.904 514.272C669.466 503.33 668.081 490.418 666.615 476.762L666.591 476.534L666.287 473.705C666.189 472.79 666.09 471.872 665.991 470.951C659.396 407.497 650.271 320.479 617.208 250.097C599.086 211.606 575.594 181.955 547.152 162.092C514.059 138.946 473.092 127.88 425.617 129.424C425.572 129.431 425.394 129.453 425.089 129.49L425.085 129.49C415.211 130.68 273.728 147.739 244.048 228.37C229.255 268.448 270.076 297.922 321.942 335.193L322.448 335.558C374.572 373.182 438.44 419.282 457.201 490.969C434.245 417.989 367.844 370.142 313.496 330.98L312.982 330.61L312.864 330.525C257.814 290.788 214.159 259.278 229.634 217.323ZM408.065 134.236C367.404 141.243 269.547 164.49 245.749 229.353C231.529 268.312 271.768 297.375 323.01 333.987C371.412 368.73 430.1 411.069 453.776 474.444C434.213 412.948 378.001 372.538 331.945 339.429L331.559 339.152L331.302 338.967C283.916 304.861 246.206 277.719 259.957 240.691C287.351 166.533 418.017 150.697 426.615 149.655C426.869 149.624 427.016 149.606 427.052 149.6C508.271 146.837 567.583 184.356 603.203 260.68C633.356 325.091 641.845 404.609 648.073 462.942L648.074 462.943L648.166 463.811C649.653 478.362 651.259 492.127 652.729 503.618C659.907 552.675 622.51 581.587 584.576 588.124L583.336 588.338C556.765 592.662 529.185 586.692 507.308 572.336C487.66 559.466 473.259 540.434 464.675 516.523C483.877 588.354 544.25 612.974 595.091 604.694C636.085 598.14 676.697 567.142 669.459 514.776C667.819 502.294 665.999 487.289 664.546 471.456L664.334 469.484C657.512 406.249 648.241 320.304 615.848 251.098C576.715 167.72 514.539 128.396 425.959 131.407C425.802 131.434 425.38 131.496 424.713 131.593L424.711 131.593L424.709 131.593C422.207 131.957 416.28 132.82 408.065 134.236ZM261.616 241.426C283.746 181.701 373.507 160.36 410.945 153.908C418.829 152.549 424.462 151.918 426.542 151.685C427.013 151.632 427.302 151.6 427.394 151.584C508.903 149.025 565.891 184.904 601.843 261.681C631.911 325.597 640.401 405.113 646.629 463.446L646.721 464.315L646.838 465.462L647.078 467.811L647.078 467.813C648.429 481.074 649.704 493.595 651.284 504.122C657.957 551.735 621.467 579.979 584.277 586.389L583.037 586.602C535.712 594.029 479.448 571.07 462.479 503.686C481.207 558.163 530.074 576.89 571.283 570.246L572.275 570.075C606.985 564.093 641.21 537.516 635.255 492.588C634.209 485.517 633.347 477.48 632.428 468.914L632.428 468.912L632.427 468.912C631.988 464.811 631.535 460.59 631.043 456.295C625.455 403.134 617.441 329.967 589.899 270.888C557.212 201.207 503.046 166.885 428.94 169.444C428.903 169.45 428.756 169.468 428.504 169.499L428.504 169.499C420.3 170.496 301.308 184.963 276.32 252.678C263.791 286.435 298.02 311.116 341.34 342.352L341.588 342.53L342.622 343.28C385.564 374.406 438.116 412.497 454.414 470.97C433.682 410.592 378.213 370.497 332.585 337.699L332.326 337.512C285.523 303.817 248.395 277.087 261.616 241.426ZM414.115 173.786C380.148 179.64 297.988 199.16 278.021 253.662C266.022 286.052 299.67 310.321 342.408 341.145L342.656 341.324C382.993 370.367 431.625 405.43 451.81 457.635C435.485 407.139 389.245 373.74 351.205 346.489C313.334 319.316 280.694 295.836 291.981 265.042C314.631 203.586 422.758 190.553 429.775 189.707C429.98 189.683 430.099 189.668 430.127 189.663C497.162 187.557 546.139 218.433 575.895 281.471C600.923 334.856 607.989 401.038 613.012 449.445C613.146 450.676 613.278 451.898 613.41 453.112L613.426 453.266L613.432 453.314L613.432 453.316L613.432 453.319C614.577 463.893 615.647 473.783 616.874 482.224C622.514 522.356 591.709 546.557 560.221 551.983L559.23 552.154C522.538 558.029 479.299 541.947 461.612 494.909C477.695 554.855 528.397 575.369 570.984 568.511C605.284 563.11 639.347 537.071 633.066 493.22C632.02 486.15 631.158 478.114 630.239 469.548L630.239 469.547C629.799 465.446 629.346 461.223 628.854 456.927C623.266 403.766 615.543 330.804 588.044 271.973C555.314 202.044 503.182 169.159 429.077 171.718C428.29 171.598 422.793 172.29 414.115 173.786ZM294.093 265.444C312.187 216.371 386.251 198.757 416.995 193.458C423.063 192.412 427.416 191.812 429.46 191.53L429.464 191.529L429.466 191.529L429.467 191.529L429.47 191.528C430.093 191.442 430.5 191.386 430.674 191.356C583.476 186.213 601.136 350.903 611.439 449.206C611.575 450.456 611.71 451.698 611.843 452.93L611.856 453.045L611.859 453.081L611.86 453.085C613.004 463.657 614.074 473.545 615.301 481.985C620.77 521.125 590.581 544.454 560.085 549.709L559.093 549.88C521.72 555.853 477.328 538.55 461.576 487.689C478.533 526.11 515.462 539.097 546.929 534.106L547.92 533.935C576.185 529.064 604.109 507.401 598.657 471.322C598.381 468.873 598.085 466.301 597.776 463.623L597.776 463.621C597.012 456.987 596.172 449.7 595.393 442.014C590.728 398.651 584.363 339.497 562.096 291.763C535.768 235.283 491.937 207.605 431.767 209.55C431.737 209.555 431.619 209.569 431.415 209.594C424.787 210.395 328.34 222.061 308.096 277.072C297.783 304.635 327.226 325.857 361.028 350.158C392.669 372.866 430.828 400.332 447.604 440.797C427.534 398.493 386.931 369.196 353.028 344.733L352.642 344.454C313.898 316.665 283.293 294.622 294.093 265.444ZM419.917 213.379C392.397 218.122 326.181 233.873 310.002 277.765C300.468 303.917 327.585 323.498 362.259 348.413L363.152 349.059L363.153 349.06C395.669 372.579 434.777 400.865 450.937 443.085C438.88 402.099 401.664 375.332 371.271 353.472L371.013 353.287C340.99 331.655 315.326 313.1 324.125 288.607C341.965 240.034 426.754 229.739 432.969 228.984L432.971 228.984L432.974 228.984C433.173 228.959 433.29 228.945 433.321 228.94C486.379 227.2 525.063 251.68 548.458 301.517C568.132 343.385 573.627 395.546 577.638 433.62L577.688 434.087C578.158 438.056 578.564 441.902 578.951 445.581C579.492 450.715 579.999 455.523 580.601 459.881C585.412 492.241 560.866 511.279 535.824 515.595L535.08 515.723C506.393 520.224 472.691 507.903 458.449 471.709C471.189 520.737 512.197 537.565 546.835 532.079L547.579 531.951C574.851 527.251 601.663 506.546 596.673 471.664C595.523 463.576 594.552 453.83 593.552 443.792L593.409 442.356C584.114 354.347 568.497 207.432 431.904 211.824C431.613 211.619 427.107 212.14 419.917 213.379ZM326.074 289.547C340.38 251.084 398.499 237.239 422.797 233.051C425.312 232.618 427.467 232.288 429.153 232.031L429.154 232.031L429.154 232.031C431.623 231.653 433.088 231.429 433.21 231.257C553.373 227.124 567.138 356.466 575.386 433.963L575.414 434.224C576.293 443.774 577.336 452.785 578.37 460.266C582.719 491.429 558.788 509.595 534.448 513.534C503.941 518.548 467.656 503.478 456.578 459.893C469.147 491.015 498.122 501.703 523.027 497.632L523.771 497.503C545.341 493.786 566.758 477.33 562.717 449.433C562.024 444.225 561.381 438.352 560.682 431.962L560.681 431.957C560.568 430.921 560.453 429.871 560.336 428.808C560.276 428.259 560.215 427.708 560.153 427.153C556.745 394.04 551.781 348.941 534.745 312.305C514.529 269.069 480.743 247.83 434.799 249.365C431.533 249.672 356.093 257.823 340.077 301.176C332.299 322.314 354.416 338.3 380.178 356.919L380.631 357.247C406.588 375.77 438.356 398.577 449.336 433.135C434.578 396.67 400.315 371.95 371.997 351.586C341.682 329.748 317.762 312.425 326.074 289.547ZM425.967 252.929C405.141 256.518 354.622 268.544 342.479 301.783C335.143 321.429 356.113 336.452 382.315 355.169L382.566 355.349C405.639 371.988 433.094 391.785 446.923 420.314C436.486 393.812 411.498 375.716 390.925 360.817L390.659 360.625C368.526 344.781 349.59 331.194 356.397 312.916C369.266 278.013 427.444 270.201 435.747 269.087C435.989 269.054 436.189 269.027 436.344 269.006C436.478 268.987 436.579 268.972 436.644 268.961C526.506 265.984 536.673 362.013 542.739 419.431C543.299 425.053 543.964 430.331 544.54 434.904L544.54 434.905C544.684 436.048 544.822 437.148 544.952 438.198C548.062 462.171 530.065 476.25 511.47 479.455L510.974 479.54C490.899 482.789 467.47 474.634 456.164 450.974C466.142 487.18 497.067 499.569 522.891 495.357L523.634 495.229C544.213 491.683 564.476 475.936 560.938 449.484C560.205 443.967 559.496 437.523 558.738 430.636L558.733 430.588L558.712 430.399L558.691 430.208C558.573 429.134 558.453 428.049 558.332 426.956L558.304 426.694C551.108 359.738 539.094 247.967 435.389 251.306L425.967 252.929ZM358.346 313.856C368.821 285.755 411.244 275.636 428.847 272.602C432.454 271.98 435.118 271.688 436.137 271.576L436.14 271.576L436.141 271.576L436.141 271.576L436.141 271.576C436.381 271.55 436.528 271.534 436.576 271.526C524.164 268.685 534.365 363.432 540.26 419.859C540.847 425.746 541.547 431.255 542.166 436.12C542.238 436.681 542.308 437.233 542.377 437.777C542.424 438.146 542.47 438.512 542.515 438.873C545.617 461.315 528.235 474.523 510.589 477.309C488.382 480.893 462.053 469.944 454.062 438.395C463.361 456.879 482.165 464.128 498.921 461.448L499.417 461.363C514.541 458.756 529.366 447.011 526.777 427.543C526.302 424.789 525.967 421.718 525.608 418.42L525.608 418.419L525.608 418.418L525.608 418.416C525.385 416.372 525.153 414.24 524.871 412.043L524.87 412.032C519.812 364.906 511.393 286.459 437.788 288.932C437.715 288.945 437.587 288.963 437.407 288.987C437.306 289.001 437.188 289.017 437.054 289.035L437.053 289.035C430.249 289.947 382.566 296.339 372.016 325.031C366.432 340.035 382.17 351.365 400.234 364.335C417.216 376.514 437.971 391.522 446.392 413.479C434.567 389.495 411.371 372.808 391.89 358.881L391.494 358.593C369.507 342.639 352.269 330.13 358.346 313.856ZM374.461 325.886C382.815 303.257 417.389 295.001 431.769 292.522L431.77 292.522C435.489 291.881 437.72 291.497 438.01 291.702C509.346 289.365 517.505 366.337 522.392 412.47C523.127 418.215 523.776 423.465 524.298 427.97C526.878 445.907 513.121 456.448 498.989 458.883L498.493 458.969C479.608 461.968 456.97 452.083 451.765 423.365C446.627 395.001 422.552 377.49 402.916 363.207C402.499 362.903 402.084 362.601 401.671 362.301L400.612 361.528C383.296 348.886 369.709 338.966 374.461 325.886Z" fill="url(#paint0_linear)"/>
<defs>
<linearGradient id="paint0_linear" x1="26.1785" y1="108.511" x2="774.457" y2="43.7627" gradientUnits="userSpaceOnUse">
<stop stop-color="#FFD110"/>
<stop offset="0.286458" stop-color="#109BFF"/>
<stop offset="0.420739"/>
<stop offset="0.591812" stop-color="#011A00"/>
<stop offset="0.920015" stop-color="#04DA00"/>
</linearGradient>
</defs>
</svg>
