<svg width="320" height="510" viewBox="0 0 320 510" fill="none" xmlns="http://www.w3.org/2000/svg">
<path opacity="0.5" fill-rule="evenodd" clip-rule="evenodd" d="M264.559 568.149L263.303 567.636C250.34 562.214 238.554 554.498 228.083 544.81C217.132 534.662 208.454 522.799 202.301 509.59C188.205 479.668 188.018 445.12 201.888 409.574C230.784 335.25 198.21 257.369 171.94 194.561L171.702 193.993C159.732 165.731 148.495 138.956 144.705 116.806C140.427 92.2112 145.45 75.2427 160.656 63.3541C176.589 50.9699 197.167 43.9151 222.139 42.4841C242.008 41.2152 264.555 43.549 289.324 49.2992C329.245 58.5822 361.799 74.11 365.487 75.8692L365.487 75.8692C365.691 75.9664 365.806 76.0215 365.83 76.0313C387.09 88.2734 405.279 102.565 419.805 118.398C433.416 133.198 444.321 149.799 452.04 167.742L452.041 167.743C452.523 168.864 453.005 169.985 453.374 171.06C438.596 135.18 411.114 102.568 365.695 76.3722C365.662 76.3589 365.521 76.2922 365.275 76.1763C361.228 74.2651 328.871 58.986 289.303 49.6866C250.483 40.5799 196.728 35.6796 160.794 63.6745C145.793 75.3825 140.655 92.3043 144.978 116.785C148.883 138.983 160.005 165.71 171.862 193.926C185.166 225.506 200.102 261.318 207.999 297.824C216.562 337.628 215.256 372.574 204.05 404.449C231.324 333.16 200.009 258.476 174.789 198.329L174.702 198.123L173.667 195.639L173.667 195.638L173.667 195.638C162.717 169.351 152.392 144.565 148.786 123.886C144.807 100.206 149.719 83.8526 164.197 72.4594C179.516 60.6173 199.343 53.7842 223.222 52.4352C242.384 51.2744 264.042 53.5095 287.854 59.0007C326.381 68.0474 357.962 83.0307 361.095 84.5169C361.247 84.5889 361.332 84.6292 361.348 84.6357C381.739 96.3916 399.221 110.13 413.198 125.343C426.259 139.523 436.729 155.55 444.218 172.738C446.837 178.826 449.137 185.048 451.074 191.517C438.696 150.938 411.381 113.903 361.212 84.9766C361.179 84.9631 361.039 84.8971 360.796 84.7827C356.849 82.9224 325.779 68.2801 287.832 59.3882C250.586 50.6596 198.883 45.9362 164.449 72.8264C150.016 84.1059 145.149 100.346 149.218 123.799C152.938 145.128 163.692 170.781 175.066 197.875C187.818 228.173 202.249 262.591 209.754 297.747C217.552 334.28 216.824 366.576 207.404 396.036C230.957 328.805 201.531 258.706 177.747 202.139C166.786 176.006 156.515 151.474 152.866 130.967C148.914 108.222 153.555 92.5499 167.533 81.7453C182.17 70.2851 201.2 63.7874 224.145 62.4533C242.487 61.3539 263.37 63.5368 286.064 68.8362C323.064 77.5161 353.251 91.8145 356.296 93.2567L356.296 93.2569C356.446 93.3277 356.53 93.3675 356.546 93.374C363.384 97.3344 369.861 101.505 375.972 105.883C369.963 101.618 363.587 97.5334 356.843 93.6274C356.789 93.6054 356.597 93.5173 356.274 93.3689L356.274 93.3688C354.543 92.5739 349.044 90.0483 340.775 86.6737C327.881 81.4115 308.325 74.2232 286.361 69.0896C250.689 60.7391 201.151 56.2392 168.104 81.9782C154.239 92.8293 149.644 108.388 153.572 130.859C156.996 150.677 166.846 174.357 177.318 199.53C177.658 200.346 177.998 201.164 178.339 201.984L179.07 203.737L179.07 203.737C191.047 232.43 204.496 264.651 211.622 297.717C219.231 333.215 218.352 364.363 209.093 392.928C232.39 328.221 204.026 260.581 181.065 206.135C180.725 205.315 180.385 204.497 180.046 203.68C170.053 179.623 160.619 156.909 157.38 137.96C153.568 116.197 158.051 101.253 171.507 90.7634C185.531 79.8452 203.809 73.5691 225.82 72.25C243.341 71.2121 263.38 73.1827 285.185 78.3834C320.816 86.7145 349.94 100.66 352.438 101.856L352.504 101.887C352.567 101.918 352.603 101.935 352.61 101.938C388.827 122.925 414.468 150.163 428.687 182.777C440.862 210.859 444.987 243.844 440.875 280.863C433.428 348.616 400.506 417.726 376.432 468.259C375.67 469.876 374.913 471.481 374.163 473.07C369.059 483.889 364.283 494.012 360.438 502.807C352.026 521.959 337.532 535.062 318.521 540.511C301.491 545.316 281.932 543.805 263.218 536.168L262.077 535.702C238.592 525.722 218.929 507.131 208.322 484.444C196.991 460.3 195.815 432.825 204.959 404.394C179.756 474.2 216.86 526.637 262.75 546.015L263.891 546.48C290.528 557.351 323.343 557.413 346.183 537.875C338.995 544.128 330.527 548.699 320.951 551.408C303.671 556.507 283.268 554.784 263.642 546.775L262.386 546.262C237.76 535.816 217.251 516.352 206.185 492.817C194.219 467.414 193.199 438.443 202.887 408.575C176.307 481.56 215.067 536.338 263.06 556.575L264.201 557.041C301.059 572.082 349.402 567.246 369.503 521.035C373.761 511.222 379.156 499.875 384.899 487.798C385.433 486.675 385.97 485.546 386.509 484.411L386.99 483.398C412.042 430.851 444.868 361.692 455.576 292.983C444.97 361.877 412.111 431.072 387.646 482.592L387.218 483.491C386.536 484.927 385.858 486.355 385.183 487.772L385.128 487.89C379.385 499.967 373.989 511.315 369.731 521.128C360.596 542.098 344.875 556.285 324.133 562.084C305.783 567.539 284.56 565.878 264.135 557.542L262.88 557.029C237.227 546.164 215.871 525.826 204.278 501.284C191.39 473.832 190.64 442.305 202.058 409.819C171.921 487.473 212.691 545.925 263.439 567.295L264.694 567.808C303.035 583.455 353.337 578.361 374.321 530.265C379.272 518.814 385.698 505.324 392.554 491.084L392.813 490.54C418.052 437.398 450.926 368.182 463.02 298.882C451.002 368.558 418.081 438.058 393.331 490.307L392.897 491.224C391.972 493.183 391.054 495.127 390.144 497.052L390.142 497.056C384.417 509.173 379.034 520.565 374.663 530.405C365.212 552.17 348.762 566.853 327.179 573.101C308.009 578.617 285.783 576.81 264.559 568.149ZM457.548 278.023C457.015 283.003 456.354 287.992 455.576 292.983C456.273 288.455 456.874 283.927 457.37 279.406C457.431 278.946 457.49 278.485 457.548 278.023ZM458.382 268.857C458.154 271.908 457.875 274.964 457.548 278.023C457.926 274.967 458.214 271.887 458.382 268.857ZM364.868 512.011C360.093 522.948 353.674 531.466 346.183 537.875C353.914 531.148 360.162 522.475 364.709 512.078C369.299 501.537 375.159 489.136 381.449 475.986C406.542 423.227 440.842 350.981 448.689 280.222C452.932 241.539 448.689 207.185 435.962 177.822C423.842 149.828 403.673 125.73 375.972 105.883C433.254 146.549 457.162 203.711 448.804 280.269C441.002 350.914 406.701 423.16 381.609 475.919C375.318 489.069 369.458 501.469 364.868 512.011ZM285.005 78.8379C306.011 83.7126 324.767 90.5749 337.091 95.6043C343.116 98.063 347.599 100.112 350.071 101.241C351.438 101.866 352.19 102.209 352.246 102.185C420.387 141.616 449.166 199.984 440.259 280.744C432.743 348.336 399.936 417.494 375.861 468.027C375.58 468.622 375.3 469.216 375.02 469.809L374.508 470.893L374.246 471.447L374.165 471.621L374.142 471.668L374.141 471.67L374.135 471.683L374.131 471.691C368.854 482.867 363.845 493.477 359.868 502.574C341.417 544.969 297.061 549.451 263.285 535.667L262.258 535.248C218.953 516.935 183.937 468.092 205.866 402.823C198.265 428.781 199.715 453.888 210.071 476.044C220.309 497.657 239.036 515.601 261.539 525.049L262.68 525.514C280.595 532.826 299.379 534.284 315.316 529.562C333.53 524.448 347.366 512 355.348 493.598C359.014 485.245 363.568 475.665 368.445 465.404L368.447 465.401L369.548 463.083C369.934 462.273 370.32 461.458 370.709 460.64L370.944 460.145C393.821 411.949 425.104 346.044 432.24 281.566C432.697 277.346 433.044 273.18 433.28 269.069C437.228 205.88 415.431 157.828 367.061 122.991C361.058 118.62 354.655 114.475 347.854 110.562C347.845 110.559 347.817 110.546 347.77 110.523L347.6 110.443C344.667 109.048 317.027 95.9097 283.327 88.0587C262.481 83.117 243.49 81.1781 226.629 82.2215C205.598 83.4121 188.23 89.3995 174.775 99.8892C162.047 109.883 157.675 124.212 161.347 144.994C164.571 163.457 173.805 185.523 183.619 208.975L184.11 210.151C205.528 260.985 231.881 323.692 212.332 384.185C219.896 358.135 220.241 329.655 213.377 297.641C206.452 265.362 193.262 233.829 181.543 205.933L181.063 204.788L181.063 204.788L181.063 204.787L181.063 204.787C170.764 180.205 161.111 157.166 157.813 137.872C154.069 116.269 158.508 101.439 171.759 91.1303C203.306 66.4961 250.792 70.819 285.005 78.8379ZM348.151 110.816C354.852 114.679 361.155 118.736 367.061 122.991C391.737 140.957 409.645 162.743 420.546 187.907C430.78 211.503 435.02 238.796 433.28 269.069C433.029 273.082 432.675 277.156 432.217 281.292C425.125 345.657 393.842 411.561 370.965 459.758L370.73 460.253C364.892 472.266 359.553 483.691 355.324 493.324C337.756 533.833 295.358 538.058 263.066 524.879L262.039 524.46C220.743 507.096 187.353 460.508 208.072 398.304C200.926 422.952 202.241 446.821 212.162 467.785C221.873 488.389 239.753 505.46 261.229 514.489L262.256 514.908C279.373 521.893 297.153 523.206 312.795 518.892C330.144 513.953 343.366 502.047 350.986 484.554C355.079 475.262 360.147 464.519 365.646 453.027L365.648 453.023C387.527 407.009 417.505 343.964 424.266 282.274C427.888 248.488 424.184 218.448 413.111 192.93C400.178 163.086 376.892 138.262 343.759 119.193C343.75 119.189 343.722 119.177 343.677 119.155L343.507 119.075C340.667 117.727 314.419 105.271 282.244 97.7865C262.469 93.1502 244.254 91.2634 228.213 92.2454C208.231 93.4677 191.659 99.1197 178.817 109.067C166.543 118.586 162.557 132.28 165.93 152.147C168.97 169.747 177.726 190.701 187.06 213.038L187.543 214.193L187.599 214.328L187.599 214.328C207.9 262.774 232.929 322.505 214.368 380.088C221.519 355.262 221.784 328.054 215.291 297.498C208.751 266.86 196.176 236.893 185.057 210.394L185.057 210.393L185.056 210.393L185.056 210.393L184.862 209.929C174.821 186.152 165.491 163.59 162.167 144.932C158.564 124.311 162.732 110.163 175.414 100.282C205.576 76.7991 250.896 80.8986 283.534 88.5394C303.537 93.2687 321.495 99.8051 333.248 104.602C337.495 106.335 340.958 107.838 343.477 108.932C346.238 110.131 347.866 110.837 348.151 110.816ZM329.564 113.532C318.267 108.922 301.222 102.758 282.063 98.241C250.884 90.9318 207.73 87.0559 178.91 109.501C166.841 118.84 162.899 132.42 166.248 152.013C169.386 169.803 178.348 191.29 187.906 213.945L188.11 214.431C198.677 239.646 210.694 268.322 216.886 297.488C223.716 329.485 222.675 357.443 213.768 383.038C213.773 383.023 213.779 383.009 213.784 382.995C235.877 326.106 210.831 266.357 190.656 218.369L190.171 217.207C181.319 195.991 172.98 176.004 170.124 159.274C166.892 140.389 170.721 127.423 182.313 118.286C209.837 96.7646 251.054 100.51 280.887 107.534C311.672 114.665 336.843 126.757 339.171 127.875L339.297 127.935C339.309 127.941 339.319 127.946 339.327 127.949C339.336 127.954 339.342 127.956 339.345 127.957C370.857 146.101 393.044 169.684 405.243 198.039C415.719 222.39 419.35 250.947 415.745 283.022C409.269 341.662 380.783 401.621 359.922 445.408C359.154 447.041 358.392 448.66 357.638 450.26L357.624 450.291C353.322 459.427 349.297 467.974 346.009 475.39C338.706 492.089 326.142 503.338 309.658 508.102C295.041 512.174 278.036 510.913 261.832 504.301L260.805 503.881C240.356 495.272 223.322 479.075 214.138 459.478C203.927 437.812 203.298 412.958 212.183 387.353C212.167 387.393 212.152 387.433 212.136 387.473C187.874 449.816 220.671 496.748 261.296 513.987L262.323 514.407C293.132 526.98 333.456 522.965 350.257 484.388C354.304 475.21 359.417 464.353 364.916 452.862L364.918 452.858C386.797 406.844 416.775 343.799 423.605 282.268C431.648 208.683 405.462 155.469 343.464 119.601C343.432 119.588 343.3 119.526 343.073 119.42C341.696 118.775 336.816 116.492 329.564 113.532ZM280.592 107.942C298.793 112.201 314.994 118.152 325.721 122.529C330.545 124.498 334.23 126.143 336.478 127.146L336.478 127.146L336.479 127.146C338.006 127.828 338.87 128.214 338.981 128.205C397.964 162.314 422.819 212.873 415.175 282.79C408.699 341.429 380.258 401.274 359.396 445.062C358.629 446.694 357.868 448.31 357.115 449.909L357.099 449.942L357.099 449.943L357.099 449.944C352.797 459.08 348.772 467.627 345.484 475.044C329.452 511.689 291.156 515.607 261.83 503.639L260.917 503.267C222.68 487.14 191.922 443.429 213.317 385.279C205.883 408.631 206.879 431.275 216.161 451.058C224.862 469.534 241.004 484.97 260.427 493.161L261.339 493.533C276.744 499.82 292.929 501.143 306.75 497.406C322.482 492.864 334.319 482.11 341.261 466.32C344.552 458.66 348.805 449.71 353.276 440.304C353.658 439.5 354.042 438.693 354.427 437.882L354.833 437.027L354.833 437.026C374.482 395.607 401.305 339.069 407.339 283.818C410.698 253.359 407.414 226.264 397.376 203.149C385.797 176.235 364.753 153.779 334.862 136.562C334.852 136.558 334.797 136.531 334.697 136.484L334.694 136.483C332.471 135.427 308.646 124.112 279.417 117.236C251.271 110.636 212.106 107.068 185.968 127.438C174.99 136.033 171.272 148.384 174.365 166.287C176.979 181.815 184.67 200.267 192.848 219.888L192.848 219.889L192.869 219.939C193.199 220.73 193.529 221.523 193.861 222.318C212.623 267.005 235.899 322.609 216.735 375.753C224.225 352.259 224.85 326.501 218.64 297.412C212.642 269.473 201.244 242.105 191.065 218.008C172.338 173.385 157.563 138.166 182.565 118.653C209.93 97.1987 250.987 101.011 280.592 107.942ZM322.037 131.46C311.881 127.315 296.479 121.69 279.236 117.69C251.205 111.137 212.199 107.502 186.22 127.805C162.559 146.281 176.576 179.737 194.384 222.004C211.963 263.87 233.478 315.252 220.595 365.316C234.923 316.941 213.98 266.839 196.95 226.221C188.77 206.77 181.072 188.44 178.49 173.254C175.538 156.332 179.03 144.55 189.554 136.43C214.191 117.164 251.305 120.556 277.99 126.824C306.866 133.589 330.31 145.006 330.493 145.213C358.763 161.505 378.594 182.673 389.667 208.192C399.154 230.026 402.319 255.751 399.136 284.433C393.322 336.936 367.872 390.474 349.223 429.704L349.223 429.705L349.021 430.13C344.36 439.85 339.993 449.162 336.602 457.023C330.09 472.064 318.798 482.116 303.977 486.369C290.703 490.065 275.521 488.888 260.915 482.927L260.002 482.554C241.607 474.783 226.425 460.266 218.068 442.592C209.888 425.235 208.54 405.605 213.936 385.324C196.881 438.177 225.45 477.719 260.652 492.593L261.565 492.965C289.294 504.282 325.631 500.621 340.781 465.86C343.958 458.464 347.996 449.957 352.321 440.847L352.322 440.845L353.048 439.316L353.469 438.429L353.946 437.422L354.377 436.514C374.024 395.101 400.782 338.7 406.813 283.471C414.106 217.109 390.467 169.16 334.613 136.856C334.502 136.864 333.669 136.491 332.207 135.836C330.067 134.877 326.579 133.314 322.037 131.46ZM277.879 127.439C294.118 131.293 308.722 136.592 318.307 140.504C325.496 143.438 329.97 145.528 330.039 145.688C382.994 176.28 405.301 221.572 398.406 284.267C392.637 336.657 367.187 390.194 348.539 429.425L348.336 429.85C347.055 432.601 345.78 435.313 344.532 437.964L344.527 437.976L344.524 437.982L344.517 437.996L344.513 438.005C341.339 444.751 338.349 451.108 335.917 456.744C321.65 489.619 287.272 493.023 261.027 482.312L260.228 481.986C226.971 467.906 199.922 430.525 216.138 380.402C211.077 399.542 212.386 417.95 220.046 434.286C227.874 450.952 242.325 464.642 259.579 471.948L260.378 472.274C274.185 477.908 288.592 479.033 301.045 475.399C314.956 471.435 325.68 461.811 331.83 447.68C334.127 442.382 336.957 436.424 339.964 430.094C341.161 427.575 342.386 424.996 343.616 422.377C361.265 385.335 385.385 334.688 390.82 285.001C393.803 257.823 390.826 233.627 381.89 213.075C371.438 188.998 352.704 169.07 326.056 153.704C326.045 153.699 325.987 153.672 325.884 153.623C323.764 152.611 302.489 142.458 276.565 136.412C251.339 130.476 216.392 127.307 193.095 145.535C171.593 162.251 184.163 192.342 200.11 230.284C216.286 268.714 236.267 316.187 222.278 362.024C234.661 314.587 214.245 265.9 197.569 226.131L197.542 226.066C180.699 186.042 167.555 154.395 189.874 136.957C214.467 117.805 251.193 121.171 277.879 127.439ZM314.509 149.388C305.495 145.709 291.735 140.622 276.294 137.094C251.297 131.251 216.622 128.062 193.416 146.063C172.414 162.424 184.709 191.853 200.329 229.243L200.633 229.969C216.628 267.966 236.214 314.692 223.365 360.079C237.688 316.445 218.697 271.053 203.268 234.346L203.243 234.286C188.273 198.616 176.441 170.423 196.636 154.641C218.546 137.564 251.328 140.508 274.98 146.067C299.376 151.746 319.257 161.213 321.289 162.181L321.29 162.182L321.37 162.22C321.421 162.244 321.451 162.258 321.459 162.261C346.486 176.702 364.076 195.503 373.953 218.024C382.292 237.408 385.196 260.121 382.344 285.636C377.217 332.067 354.72 379.526 338.267 414.236L338.267 414.236L338.052 414.691C337.627 415.586 337.204 416.477 336.784 417.361L336.783 417.363L336.782 417.366C333.153 425.007 329.727 432.22 327.012 438.449C314.17 468.076 283.346 471.213 259.839 461.62L259.041 461.294C242.813 454.407 229.209 441.591 221.908 425.933C214.388 409.976 213.417 391.98 218.788 373.346C201.944 421.622 227.821 457.808 259.622 471.173L260.42 471.499C285.182 481.604 317.532 478.297 331.031 447.354C334.242 439.947 338.382 431.203 342.818 422.051C360.466 385.009 384.586 334.362 389.976 284.789C396.519 225.648 375.428 182.966 325.602 154.179C325.538 154.206 324.846 153.892 323.601 153.326L323.6 153.326C321.732 152.478 318.617 151.064 314.509 149.388ZM274.937 146.842C289.375 150.224 302.336 154.986 310.78 158.432C316.05 160.582 319.727 162.269 320.906 162.81L320.906 162.81L320.906 162.81L320.907 162.81L320.907 162.81L320.907 162.81L320.91 162.812L320.918 162.816C321.019 162.862 321.101 162.9 321.164 162.928C321.236 162.961 321.282 162.982 321.302 162.99C368 189.972 387.828 230.158 381.683 285.631C376.49 331.877 354.06 379.197 337.61 413.9L337.367 414.411L336.667 415.887L336.098 417.084L336.097 417.087C332.468 424.728 329.043 431.94 326.328 438.17C313.711 467.228 283.32 470.278 260.156 460.824L259.471 460.545C230.122 448.188 206.252 415.336 220.293 371.291C216.092 387.779 217.342 403.64 223.999 417.673C230.818 432.21 243.53 444.266 258.731 450.734L259.415 451.013C281.438 460.001 310.189 457.074 322.104 429.446C324.953 422.949 328.528 415.294 332.397 407.232L332.769 406.45C348.19 373.997 369.181 329.824 373.892 286.546C376.499 262.648 373.828 241.35 366.04 223.247C356.943 202.101 340.451 184.54 317.045 171.026C316.976 170.866 297.549 161.353 273.624 155.815C251.545 150.635 220.815 147.867 200.36 163.953C181.505 178.698 192.513 204.971 206.519 238.402L206.541 238.456C220.665 272.11 237.995 313.412 226.211 353.376C236.679 311.601 218.753 268.951 204.065 234.011L203.881 233.574C189.124 198.403 177.47 170.627 197.185 155.261C218.891 138.365 251.399 141.33 274.937 146.842ZM200.84 164.413C231.615 140.388 285.872 158.7 307.552 167.548C312.204 169.447 315.371 170.922 316.436 171.418L316.436 171.418L316.439 171.419C316.55 171.471 316.639 171.512 316.703 171.542C316.762 171.569 316.801 171.587 316.819 171.594C360.571 196.978 379.114 234.394 373.322 286.313C368.504 329.772 347.378 374.233 331.925 406.755L331.917 406.772C328.002 414.948 324.428 422.602 321.579 429.1C309.73 456.226 281.412 459.066 259.732 450.218L259.047 449.938C232.372 438.683 210.525 409.205 221.523 369.624C218.683 383.639 220.118 397.129 225.793 409.16C232.198 422.736 244.064 433.918 258.238 439.967L258.922 440.246C279.462 448.628 306.368 446.005 317.56 420.196C319.42 415.762 321.761 410.825 324.259 405.557C325.192 403.59 326.146 401.576 327.106 399.526C341.496 369.343 361.226 327.734 365.69 287.161C368.121 265.04 365.682 245.158 358.332 228.29C349.854 208.585 334.461 192.266 312.676 179.677C312.656 179.669 312.576 179.632 312.44 179.568L312.438 179.567C307.847 177.417 239.382 145.354 203.9 173.058C186.217 186.841 196.489 211.373 209.586 242.472C222.061 272.256 237.284 308.603 229.196 344.139C236.115 306.918 220.253 269.121 207.224 238.074L207.199 238.015C193.332 204.907 182.395 178.797 200.84 164.413ZM204.449 173.678C233.11 151.3 283.511 168.303 303.709 176.546C308.052 178.318 310.927 179.673 311.919 180.14C312.126 180.237 312.251 180.296 312.291 180.312C352.96 203.778 370.127 238.651 364.846 286.948C360.427 327.409 340.743 368.903 326.352 399.086C325.987 399.868 325.622 400.646 325.26 401.419L325.128 401.7C322.044 408.285 319.119 414.529 316.761 419.87C305.795 445.111 279.391 447.807 259.193 439.564L258.509 439.285C232.923 428.462 212.053 399.594 224.734 360.911C221.16 375.048 222.184 388.688 227.929 400.786C233.875 413.515 244.736 423.891 257.928 429.406L258.498 429.639C277.554 437.416 302.432 434.89 312.787 410.852C314.968 405.953 317.671 400.253 320.53 394.225L320.53 394.224C320.933 393.375 321.338 392.52 321.746 391.659C335.119 363.702 353.424 325.343 357.533 287.662C359.764 267.044 357.513 248.691 350.713 233.105C342.811 214.956 328.561 199.763 308.398 188.1C308.377 188.092 308.298 188.055 308.162 187.992L308.159 187.99C303.745 185.924 240.489 156.32 207.646 181.983C191.304 194.728 200.817 217.497 212.949 246.354L213.067 246.636L213.067 246.636L213.067 246.636C225.217 275.704 240.104 311.32 229.709 345.833C238.685 309.698 223.187 272.704 210.502 242.423L210.502 242.423L210.382 242.137L210.355 242.071C197.523 211.369 187.347 187.024 204.449 173.678ZM299.865 185.543C281.152 177.906 234.492 162.166 208.104 182.83C192.286 195.261 201.661 217.71 213.701 246.132C225.033 273.048 238.722 305.774 232.477 338.128C239.958 307.617 226.811 276.331 216.04 250.698L215.949 250.484L215.889 250.34C204.819 223.954 196.009 202.955 211.142 191.202C241.389 167.624 299.829 194.931 303.674 196.728L303.675 196.728L303.675 196.729C303.788 196.781 303.854 196.812 303.87 196.819C338.397 216.72 353.567 247.609 349.013 288.411C345.208 322.867 328.544 357.96 316.319 383.704L316.137 384.087C313.06 390.491 310.232 396.601 307.925 401.735C298.452 423.888 275.534 426.157 258.075 419.032L257.504 418.799C245.34 413.703 235.37 404.087 229.907 392.48C224.992 382.063 223.83 370.457 226.331 358.339C216.076 393.031 234.966 418.862 258.244 428.611C276.982 436.522 301.769 434.223 312.057 410.686C314.545 405.098 317.599 398.419 321.016 391.493L321.429 390.622C334.651 362.697 352.622 324.744 356.713 287.723C361.596 243.094 345.691 210.716 308.036 189.01C307.964 188.98 307.772 188.896 307.469 188.763C306.335 188.266 303.647 187.086 299.865 185.543ZM211.646 191.936C236.034 172.964 278.837 187.395 296.068 194.427C299.696 195.908 302.203 197.106 303.128 197.549C303.338 197.649 303.466 197.711 303.509 197.728C338.104 217.79 352.723 247.397 348.192 288.472C344.478 322.702 327.814 357.794 315.589 383.537L315.407 383.921C315.16 384.436 314.913 384.95 314.667 385.46C311.861 391.296 309.212 396.806 307.195 401.57C297.879 422.994 275.508 425.222 258.391 418.237L257.821 418.004C236.225 408.813 218.625 384.737 228.676 352.467C222.637 379.854 238.231 400.263 257.08 408.193L257.537 408.379C273.512 414.899 294.517 412.773 303.45 392.645C304.81 389.45 306.492 385.903 308.285 382.122L308.286 382.121L308.286 382.12L308.288 382.116L308.29 382.112L308.294 382.104C309.15 380.299 310.031 378.44 310.915 376.541C322.093 353.103 337.342 320.76 340.879 289.186C344.967 251.892 331.128 223.66 299.616 205.516C299.599 205.509 299.533 205.479 299.42 205.426C295.75 203.713 242.519 178.864 214.911 200.4C201.118 211.117 209.104 230.196 219.21 254.342L219.268 254.48L219.508 255.058C229.485 279.06 241.695 308.434 233.628 336.845C240.332 306.497 227.416 275.538 216.746 250.148L216.685 250.004C205.753 223.939 197.081 203.261 211.646 191.936ZM292.339 203.471C276.706 197.091 237.53 183.877 215.37 201.248C202.145 211.537 209.993 230.295 219.961 254.119L220.019 254.258C229.44 276.723 240.786 303.827 235.932 330.652C241.959 305.534 231.186 279.738 222.267 258.609C213.398 237.556 205.769 219.386 218.293 209.573C243.337 190.02 291.679 212.646 294.816 214.115L294.91 214.159C294.932 214.169 294.948 214.176 294.959 214.181C294.966 214.184 294.971 214.186 294.973 214.188C323.426 230.686 335.98 256.149 332.358 289.935C329.221 318.503 315.351 347.71 305.146 369.036L304.702 369.975L304.338 370.745L304.337 370.746C302.128 375.417 300.061 379.785 298.428 383.595C290.582 401.657 271.605 403.686 257.113 397.772L256.656 397.586C239.884 390.508 225.962 372.653 230.544 348.613C222.015 377.577 237.919 399.199 257.397 407.397C273.053 414.051 293.854 412.106 302.378 392.34C303.738 389.144 305.421 385.596 307.214 381.815L307.216 381.811L307.218 381.806L307.221 381.799C308.078 379.993 308.959 378.135 309.843 376.235C321.02 352.797 336.338 320.615 339.831 289.154C343.964 251.747 330.607 224.636 299.095 206.492C298.798 206.239 296.332 205.101 292.339 203.471ZM219.07 210.286C239.071 194.675 274.391 206.58 288.54 212.355C291.336 213.496 293.302 214.375 294.224 214.788L294.225 214.788C294.507 214.914 294.691 214.997 294.771 215.03C359.714 252.495 325.233 325.196 304.552 368.529C304.375 368.904 304.198 369.277 304.023 369.648L303.746 370.232L303.742 370.241C301.533 374.911 299.467 379.279 297.833 383.089C290.168 400.696 271.669 402.524 257.634 396.796L257.177 396.61C240.095 389.396 226.003 370.736 232.364 345.615C229.665 365.902 241.746 380.844 256.119 386.932L256.575 387.119C269.583 392.428 286.715 390.702 293.61 374.365C294.118 373.281 294.648 372.14 295.2 370.951L295.2 370.95L295.201 370.95L295.201 370.949C296.567 368.008 298.068 364.777 299.696 361.396C308.769 342.25 321.145 316.132 323.997 290.617C327.38 260.432 316.157 237.625 290.605 222.839C290.591 222.833 290.538 222.808 290.447 222.766C287.483 221.38 244.353 201.214 221.948 218.725C210.651 227.454 217.522 243.862 225.426 262.672C232.835 280.264 241.75 301.514 238.457 322.6C240.845 299.9 231.378 277.26 223.472 258.355L223.382 258.14C214.306 236.606 207.16 219.558 219.07 210.286ZM284.697 221.352C272.031 216.183 240.453 205.541 222.566 219.505C211.952 227.853 218.271 242.979 226.382 262.27L226.59 262.768C234.157 280.922 243.258 302.755 239.264 324.406C244.653 304.328 235.954 283.614 228.85 266.697L228.79 266.554C221.781 249.826 215.807 235.501 225.693 227.649C245.462 212.179 283.388 229.891 286.169 231.189C286.259 231.231 286.312 231.256 286.326 231.262C308.865 244.29 318.756 264.44 315.84 291.117C313.398 313.534 302.436 336.535 294.434 353.324L294.336 353.529C293.524 355.292 292.716 356.988 291.943 358.609L291.942 358.611C290.863 360.875 289.853 362.995 288.997 364.954C282.78 379.587 267.721 381.101 256.196 376.398L255.854 376.258C242.763 370.687 231.858 356.859 235.12 338.197C227.972 361.778 240.776 379.364 256.594 386.07L256.936 386.21C269.488 391.332 285.914 389.715 292.697 373.993C294.273 370.349 296.344 366.066 298.478 361.655L298.783 361.024C317.269 322.21 348.086 257.391 290.084 223.815C290.015 223.655 288.006 222.703 284.697 221.352ZM226.266 228.543C241.994 216.34 269.716 225.672 280.899 230.236C282.056 230.708 283.037 231.13 283.805 231.461C284.93 231.944 285.597 232.231 285.691 232.192C336.785 261.618 309.661 318.688 293.409 352.882L293.354 352.997C291.295 357.175 289.44 361.173 287.97 364.535C281.865 378.553 267.284 379.866 256.146 375.189C242.167 369.358 230.884 353.722 237.343 332.821C234.671 348.953 244.023 360.882 255.43 365.651L255.772 365.791C265.7 369.843 278.8 368.585 284.203 355.998C285.238 353.664 286.462 351.068 287.794 348.243L287.794 348.242C288.122 347.548 288.456 346.839 288.795 346.118C295.787 331.537 305.176 311.596 307.388 292.027C309.952 268.904 301.277 251.364 281.753 240.094C280.315 239.375 246.827 223.199 229.144 236.982C220.535 243.71 225.685 256.054 231.684 270.431L231.789 270.684C237.894 285.073 245.331 302.739 241.124 319.88C244.242 300.972 236.252 281.867 229.631 266.105C222.554 249.217 216.993 235.853 226.266 228.543ZM277.17 239.28C267.585 235.368 243.491 227.252 229.99 237.855C221.944 244.081 226.861 255.729 233.019 270.261L233.077 270.4C238.46 283.262 244.865 298.565 243.377 313.95C245.762 300.283 239.953 286.322 235.17 274.829L235.17 274.829L235.108 274.68C229.915 262.391 225.48 251.864 232.958 246.067C247.184 234.964 273.397 246.807 277.138 248.498C277.266 248.555 277.368 248.601 277.442 248.634C277.486 248.654 277.52 248.668 277.544 248.678C315.724 270.731 295.564 313.088 283.504 338.411C282.309 340.883 281.245 343.238 280.323 345.279C280.093 345.79 279.871 346.28 279.659 346.748C274.864 357.47 263.792 358.631 255.234 355.138L255.006 355.045C245.82 351.187 238.134 341.743 239.436 329.026C234.395 346.588 244.127 359.726 255.951 364.675L256.293 364.815C265.764 368.68 278.203 367.417 283.449 355.558C284.545 353.086 285.887 350.237 287.321 347.191C287.574 346.655 287.829 346.112 288.087 345.564L288.142 345.449C302.153 315.887 325.543 266.54 281.506 241.049L277.17 239.28ZM233.531 246.961C245.032 238.051 265.27 244.858 273.372 248.164C275.034 248.842 276.218 249.412 276.67 249.629L276.67 249.63L276.748 249.667C276.809 249.696 276.848 249.715 276.864 249.721C314.062 271.242 294.242 313.077 282.363 337.946C281.112 340.533 280.005 342.993 279.027 345.165L279.027 345.166L279.026 345.167L279.022 345.176C278.834 345.593 278.651 346 278.473 346.396C274.063 356.483 263.469 357.442 255.413 354.022C245.254 349.751 237.07 338.4 241.756 323.279C240.934 333.334 246.923 341.205 254.582 344.438L254.81 344.531C261.771 347.372 270.929 346.354 274.796 337.631C275.298 336.368 275.939 335.012 276.627 333.554L276.627 333.554L276.627 333.553L276.628 333.552C277.054 332.649 277.499 331.707 277.94 330.725L277.942 330.721C287.807 309.916 304.229 275.284 272.947 257.236C272.894 257.214 272.782 257.163 272.616 257.088L272.615 257.088C269.55 255.702 248.067 245.99 236.385 255.125C230.248 259.885 233.925 268.65 238.152 278.696C242.131 288.133 246.962 299.718 244.892 310.982C246.059 297.998 240.638 285.085 236.063 274.277L235.971 274.056C230.867 261.759 226.866 252.118 233.531 246.961ZM237.186 256.113C246.414 248.917 262.91 254.46 269.528 257.161L269.529 257.161L269.529 257.161L269.529 257.161C271.24 257.86 272.267 258.279 272.336 258.439C302.638 275.956 286.483 309.91 276.799 330.26C275.645 332.827 274.582 335.166 273.655 337.165C270.173 345.253 261.766 346.049 255.262 343.395L255.034 343.301C246.407 339.649 239.49 329.694 244.618 316.466C249.683 303.402 244.105 289.92 239.556 278.923L239.268 278.226L239.023 277.632C235.023 267.916 231.884 260.292 237.186 256.113Z" fill="url(#paint0_linear)"/>
<defs>
<linearGradient id="paint0_linear" x1="147.044" y1="76.7902" x2="437.788" y2="238.703" gradientUnits="userSpaceOnUse">
<stop stop-color="#FFD110"/>
<stop offset="0.286458" stop-color="#109BFF"/>
<stop offset="0.420739"/>
<stop offset="0.497746" stop-color="#000D00"/>
<stop offset="0.591812" stop-color="#011A00"/>
<stop offset="0.920015" stop-color="#04DA00"/>
</linearGradient>
</defs>
</svg>
