<svg width="765" height="759" viewBox="0 0 765 759" fill="none" xmlns="http://www.w3.org/2000/svg">
<g opacity="0.33">
<path d="M550.837 305.876C487.191 288.822 522.621 83.9657 394.208 49.5574C345.725 36.5665 298.767 80.0326 288.321 119.019C281.541 144.322 293.507 181.278 283.463 218.765C263.173 294.488 124.915 214.451 95.8366 322.975C79.3636 384.453 116.044 449.728 164.901 462.819C198.97 471.948 247.448 455.005 272.906 461.826C309.409 471.607 272.819 543.766 269.117 565.073C260.3 615.947 302.985 673.789 351.467 686.78C416.984 704.336 438.311 612.015 450.013 568.343C494.811 401.153 596.557 543.325 634.374 402.188C642.008 373.698 648.272 301.649 609.337 291.217C586.312 285.047 586.778 315.506 550.837 305.876Z" stroke="url(#paint0_linear)" stroke-miterlimit="10"/>
<path d="M610.117 286.805C588.042 280.087 588.335 309.696 554.042 299.905C492.707 282.465 525.767 84.2058 401.284 50.8508C376.014 44.0795 353.277 54.0584 332.384 66.1386C311.204 78.5435 293.973 96.4263 286.691 115.368C277.404 138.794 288.298 175.262 277.929 212.461C274.528 224.406 268.323 232.587 260.086 238.617C216.041 271.212 123.591 231.373 99.0326 323.028C82.1578 386.006 112.396 451.362 158.979 465.451C191.3 475.116 238.5 461.446 265.492 469.281C281.677 474.02 283.987 490.107 281.837 508.616C279.043 531.773 268.715 558.336 267.724 569.521C262.907 617.449 305.176 669.354 354.22 682.496C418.615 699.75 440.954 614.13 453.839 572.784C468.367 526.052 487.378 503.022 507.435 490.316C554.348 460.498 607.136 499.352 631.731 400.073C633.754 391.776 635.744 379.854 636.813 366.881C639.301 339.624 637.698 309.664 622.079 293.827C618.701 290.712 614.747 288.247 610.117 286.805Z" stroke="url(#paint1_linear)" stroke-miterlimit="10"/>
<path d="M610.574 282.106C589.686 274.701 589.755 303.648 556.923 293.645C498.085 275.871 528.726 84.3958 408.361 52.1443C381.218 44.8714 358.664 57.9125 335.338 69.3407C313.336 80.3201 294.439 93.9394 284.824 111.854C273.268 133.266 282.901 169.195 271.921 206.431C268.519 218.377 262.127 226.508 254.352 233.062C210.102 269.419 126.888 231.051 102.128 323.456C84.8517 387.933 108.835 453.421 153.008 468.27C183.579 478.471 229.501 468.075 257.84 476.873C273.925 481.987 276.997 497.475 275.984 515.485C274.751 538.056 266.186 563.283 266.195 573.732C265.802 618.626 307.692 665.207 357.111 678.449C420.569 695.452 443.872 616.72 457.802 577.462C473.462 533.243 493.61 509.714 513.658 494.795C559.466 460.865 606.565 496.989 629.037 398.146C630.973 389.424 632.964 377.502 634.082 364.342C636.822 336.148 636.753 307.201 622.098 290.015C618.82 286.525 615.153 283.735 610.574 282.106Z" stroke="url(#paint2_linear)" stroke-miterlimit="10"/>
<path d="M611.218 277.457C591.654 269.604 591.412 297.462 559.991 287.436C503.464 269.276 531.871 84.636 415.251 53.3876C386.049 45.5629 363.864 61.7166 338.105 72.4927C315.281 82.0465 294.717 91.4024 282.819 108.102C269.232 127.363 277.317 163.078 265.826 199.976C262.237 211.872 255.845 220.003 248.394 226.845C204.175 266.827 129.723 230.204 104.763 323.358C87.0842 389.334 104.762 455.142 146.337 470.702C175.297 481.676 219.803 474.316 249.439 484.265C265.474 489.566 269.208 504.83 269.382 522.153C269.523 544.088 262.908 568.029 263.916 577.742C267.761 619.552 309.372 660.434 359.165 673.776C421.687 690.529 445.817 618.446 460.929 581.514C477.909 539.859 498.957 515.968 519.046 498.65C563.748 460.606 604.972 493.951 625.695 395.643C627.494 386.683 629.348 374.524 630.754 361.039C633.882 332.145 635.11 304.35 621.518 285.44C618.988 282.151 615.372 279.173 611.218 277.457Z" stroke="url(#paint3_linear)" stroke-miterlimit="10"/>
<path d="M611.674 272.758C593.247 264.405 592.832 291.414 563.009 281.414C508.792 262.869 534.83 84.826 422.141 54.6309C390.879 46.2546 369.202 65.7582 340.872 75.6447C317.413 83.8232 295.046 88.678 280.765 104.539C265.333 121.698 271.547 156.912 259.817 193.947C256.041 205.792 249.787 214.161 242.472 221.241C197.998 265.172 132.782 230.019 107.671 323.735C89.5908 391.211 101.014 457.151 140.128 473.658C167.339 485.168 210.567 481.082 241.737 492.045C257.671 497.721 262.118 512.573 263.241 529.347C264.757 550.646 260.091 573.301 262.049 582.464C270.181 621.004 311.413 656.561 361.58 670.003C422.979 686.455 448.072 621.26 464.418 586.466C482.667 547.562 504.527 522.884 524.744 503.592C568.478 461.672 603.876 492.05 622.664 394.228C624.513 385.081 626.042 372.634 627.686 359.012C631.727 328.956 634.201 302.499 621.486 281.816C619.107 277.964 615.779 274.661 611.674 272.758Z" stroke="url(#paint4_linear)" stroke-miterlimit="10"/>
<path d="M612.268 268.297C595.165 259.496 594.201 285.554 566.027 275.393C514.307 256.513 537.976 85.0665 429.217 55.9248C396.084 47.0468 374.726 69.8503 343.825 78.8472C319.92 85.7004 295.936 86.1044 279.135 100.888C262.045 115.996 266.387 150.708 254.096 187.593C250.183 199.201 243.878 207.757 236.838 215.312C192.295 263.242 135.992 229.272 110.68 323.738C92.1976 392.714 97.3658 458.785 134.019 476.24C159.669 488.336 201.431 487.473 233.897 499.588C249.781 505.451 254.89 520.078 257.2 536.166C260.278 556.879 257.374 578.199 260.332 586.625C272.751 621.894 313.604 652.126 364.146 665.669C424.609 681.87 450.478 623.512 468.056 590.857C487.387 554.653 510.384 529.476 530.83 507.834C573.596 462.04 602.794 489.349 619.883 391.876C621.595 382.491 623.175 369.857 624.869 356.047C628.873 325.38 632.831 300.124 621.13 277.904C619.226 273.777 616.185 270.15 612.268 268.297Z" stroke="url(#paint5_linear)" stroke-miterlimit="10"/>
<path d="M612.912 263.648C597.083 254.585 595.809 279.556 569.282 269.234C519.686 249.918 541.122 85.3066 436.294 57.2181C401.102 47.7884 380.438 73.9922 346.78 82.0492C322.376 87.7646 296.827 83.5302 277.267 97.3739C258.658 110.669 260.941 144.829 248.275 181.613C244.363 193.221 238.057 201.777 231.341 209.62C186.73 261.55 139.476 229 114.013 324.028C95.129 394.503 93.992 460.894 128.234 479.11C152.323 491.792 192.619 494.152 226.62 507.28C242.403 513.518 248.275 527.546 251.672 543.323C256.073 563.586 255.169 583.433 259.127 591.123C275.509 622.834 316.307 648.029 367.411 661.722C426.751 677.622 453.533 626.339 472.394 595.635C492.857 561.944 516.941 536.456 537.377 512.602C579.313 463.169 602.36 487.224 617.701 390.287C619.276 380.664 620.719 367.792 622.7 353.658C627.143 322.103 632.535 298.236 621.71 274.242C619.345 269.59 616.541 265.826 612.912 263.648Z" stroke="url(#paint6_linear)" stroke-miterlimit="10"/>
<path d="M613.368 258.949C597.261 252.423 597.229 273.508 572.163 262.975C524.877 243.273 544.08 85.4967 442.996 58.4115C405.932 48.4802 385.725 78.2214 349.409 84.9637C324.458 89.7288 297.58 80.7188 275.126 93.3851C255.046 104.679 255.083 138.237 242.043 174.921C237.943 186.479 231.588 195.222 225.196 203.353C180.516 259.282 142.124 228.102 116.51 323.693C97.2245 395.668 89.6454 462.141 121.614 481.354C143.904 494.759 183.022 500.018 218.319 514.297C234.24 520.773 240.586 534.527 245.17 549.616C251.133 569.294 251.804 587.755 256.899 594.946C277.006 623.235 318.038 643.069 369.516 656.862C427.919 672.512 455.478 628.066 475.384 599.449C496.93 568.46 522.338 542.522 542.627 516.218C583.782 462.961 600.442 483.898 614.222 387.547C615.71 377.499 617.153 364.627 619.185 350.306C624.065 317.864 630.654 295.522 620.943 269.617C619.413 265.591 616.56 262.014 613.368 258.949Z" stroke="url(#paint7_linear)" stroke-miterlimit="10"/>
<path d="M614.012 254.3C598.89 247.838 598.699 267.273 575.181 256.953C530.205 236.866 547.038 85.6867 450.073 59.7049C410.95 49.2219 391.386 82.5507 352.363 88.1659C327.101 91.8433 298.794 78.4326 273.259 89.8713C251.846 99.4014 249.636 132.358 236.272 168.754C232.035 180.074 225.817 189.055 219.562 197.424C174.95 257.59 145.47 227.593 119.656 323.933C99.9684 397.407 86.1343 464.012 115.692 483.986C136.42 497.977 174.261 506.509 210.667 521.889C226.537 528.552 233.546 542.082 239.317 556.485C246.654 575.527 249.274 592.702 255.369 599.157C279.015 623.974 320.416 638.684 372.269 652.578C429.736 667.976 458.021 630.555 479.21 603.89C501.838 575.6 528.382 549.164 548.713 520.461C589.037 463.565 599.36 481.197 611.578 385.432C612.93 375.147 614.235 362.037 616.555 347.391C621.874 314.062 629.658 293.247 621.111 265.242C619.532 261.404 616.728 257.639 614.012 254.3Z" stroke="url(#paint8_linear)" stroke-miterlimit="10"/>
<path d="M614.469 249.601C600.384 243.014 600.119 261.224 578.249 250.744C535.583 230.272 550.185 85.9268 456.963 60.9482C415.781 49.9134 396.861 86.8299 355.13 91.3178C329.321 94.0448 299.772 76.2836 271.392 86.3575C248.782 94.3617 244.24 126.291 230.264 162.725C225.84 173.995 219.758 183.213 213.64 191.819C169.285 256.273 148.392 227.17 122.377 324.261C102.288 399.234 82.1489 466.158 109.296 486.892C128.276 501.419 164.888 513.038 202.778 529.619C218.598 536.469 226.456 549.825 233.176 563.679C242.075 582.134 246.27 597.924 253.69 603.929C280.823 625.463 322.458 634.811 374.871 648.855C431.216 663.953 460.277 633.369 482.886 608.892C506.358 583.441 534.464 556.419 554.599 525.453C594.092 464.92 598.078 479.246 608.547 384.017C609.761 373.494 611.117 360.197 613.487 345.363C619.244 311.148 628.038 291.808 620.792 261.942C619.464 257.167 617.135 253.128 614.469 249.601Z" stroke="url(#paint9_linear)" stroke-miterlimit="10"/>
<path d="M615.062 245.14C601.963 238.616 601.538 255.176 581.267 244.722C540.724 223.814 553.092 86.3044 463.989 62.4293C420.935 50.8929 402.608 91.5845 358.034 94.7075C331.863 96.5344 300.885 74.3724 269.524 82.8439C245.531 89.2721 238.792 120.412 224.305 156.508C219.881 167.778 213.612 176.946 207.956 186.077C163.669 254.768 151.688 226.848 125.522 324.501C105.031 400.974 78.6373 468.03 103.137 489.661C120.504 504.962 155.701 519.616 194.938 537.161C210.708 544.199 219.228 557.33 226.948 570.448C237.408 588.317 243.129 602.908 251.785 608.04C282.22 626.239 324.461 630.326 377.249 644.47C432.658 659.317 462.258 635.708 486.337 613.232C510.704 590.431 540.134 562.96 560.31 529.595C599.159 465.474 596.433 476.395 605.579 381.615C606.656 370.854 607.875 357.32 610.482 342.349C616.628 307.433 626.668 289.432 620.536 257.655C619.582 252.98 617.491 248.804 615.062 245.14Z" stroke="url(#paint10_linear)" stroke-miterlimit="10"/>
<path d="M615.706 240.491C603.643 233.843 603.146 249.179 584.335 238.513C545.965 216.982 556.289 86.3573 470.929 63.4853C425.816 51.3972 408.083 95.8638 360.664 97.6221C333.945 98.4985 301.675 72.1735 267.332 79.0425C242.093 84.1323 233.072 114.058 218.16 150.241C213.599 161.273 207.467 170.679 201.947 180.048C157.916 253.026 154.474 226.188 128.157 324.403C107.264 402.376 74.5649 469.751 96.6536 492.143C112.273 507.98 146.241 525.72 186.912 544.653C202.581 552.066 212.051 564.648 220.67 577.404C232.692 594.687 239.988 607.892 249.831 612.338C283.654 627.628 326.466 625.841 379.628 640.086C433.914 654.631 464.239 638.047 489.789 617.572C515 597.609 545.942 569.74 566.159 533.974C604.227 466.028 594.927 473.782 602.698 379.638C603.638 368.64 604.908 354.917 607.615 339.572C614.199 303.769 625.248 287.243 620.418 253.606C619.701 248.793 617.66 244.429 615.706 240.491Z" stroke="url(#paint11_linear)" stroke-miterlimit="10"/>
<path d="M616.163 235.792C605.273 229.258 604.429 242.893 587.403 232.304C551.207 210.15 559.247 86.5474 477.819 64.7286C430.834 52.139 413.644 100.568 363.431 100.774C336.301 100.938 302.79 70.2621 265.516 75.3413C238.893 78.8551 227.725 107.804 212.252 143.836C207.504 154.818 201.509 164.462 196.126 174.069C152.538 251.384 157.633 225.629 131.116 324.593C109.821 404.065 70.867 471.573 90.4947 494.912C104.502 511.523 137.105 532.111 179.073 552.195C194.879 559.846 204.823 572.153 214.63 584.223C228.213 600.92 237.034 612.926 248.065 616.686C285.088 629.017 328.607 621.593 382.144 635.938C435.494 650.233 466.221 640.386 493.378 622.15C519.347 604.6 551.987 576.382 571.82 538.304C609.245 466.77 593.233 471.118 599.443 377.56C600.246 366.324 601.379 352.365 604.324 336.882C611.346 300.192 623.216 285.092 619.874 249.643C619.582 244.744 618.016 240.105 616.163 235.792Z" stroke="url(#paint12_linear)" stroke-miterlimit="10"/>
<path d="M616.807 231.143C606.954 224.485 606.086 236.708 590.422 226.283C556.398 203.506 562.393 86.7874 484.896 66.022C435.851 52.8806 419.205 105.272 366.435 103.789C338.758 103.002 303.904 68.3507 263.699 71.64C235.78 74.0028 222.142 101.688 206.482 137.669C201.733 148.651 195.739 158.295 190.442 168.327C147.297 249.979 160.793 225.069 134.074 324.783C112.378 405.755 67.1188 473.582 84.386 497.494C96.832 514.69 128.02 538.315 171.234 559.738C186.99 567.575 197.783 579.708 208.59 591.041C223.734 607.153 234.08 617.961 246.348 620.846C286.946 630.318 330.799 617.158 384.71 631.603C437.124 645.648 468.203 642.725 497.017 626.54C523.694 611.59 558.032 583.024 577.719 542.496C614.5 467.375 591.777 468.317 596.612 375.395C597.142 363.684 598.462 349.775 601.457 334.104C608.917 296.528 621.797 282.903 619.943 245.644C619.701 240.557 618.185 235.731 616.807 231.143Z" stroke="url(#paint13_linear)" stroke-miterlimit="10"/>
<path d="M617.212 226.631C608.346 220.037 607.369 230.422 593.439 220.261C561.589 196.861 565.301 87.165 491.735 67.4529C440.631 53.7598 424.715 110.164 369.151 107.128C341.063 105.629 304.73 66.7642 261.644 68.0762C232.291 69.0504 216.558 95.5709 200.336 131.402C195.4 142.334 189.542 152.215 184.433 162.297C141.731 248.287 163.765 224.459 136.896 324.736C114.798 407.207 63.2329 475.353 78.0895 500.026C88.7366 517.945 118.747 544.468 163.444 567.092C179.15 575.118 190.656 586.839 202.549 597.86C219.255 613.386 231.126 622.995 244.581 625.194C288.516 631.944 332.94 612.91 387.226 627.456C438.516 641.199 470.184 645.064 500.605 631.118C528.04 618.581 563.976 590.041 583.704 547.113C619.842 468.404 590.22 465.891 593.918 373.468C594.311 361.52 595.493 347.372 598.776 331.377C606.675 292.914 620.376 280.715 620.011 241.644C619.819 236.37 618.591 231.219 617.212 226.631Z" stroke="url(#paint14_linear)" stroke-miterlimit="10"/>
<path d="M617.856 221.982C610.026 215.264 609.026 224.237 596.507 214.052C566.643 189.979 568.497 87.2179 498.862 68.5592C445.886 54.3645 430.276 114.868 372.155 110.143C343.469 107.881 305.844 64.853 259.827 64.3753C229.04 63.9608 211.161 89.5046 194.565 125.236C189.492 135.93 183.772 146.049 178.937 156.606C136.864 246.983 167.061 224.137 140.041 324.976C117.542 408.946 59.6718 477.412 72.1177 502.845C81.1531 521.538 109.798 550.91 155.792 574.685C171.448 582.898 183.803 594.445 196.509 604.679C214.963 619.669 228.359 628.08 242.864 629.355C290.374 633.246 335.132 608.475 389.792 623.122C440.146 636.614 472.028 647.166 504.244 635.508C532.249 625.334 570.021 596.683 589.603 551.305C625.334 468.872 588.763 463.09 590.9 371.253C591.156 359.067 592.202 344.683 595.722 328.55C604.246 289.25 618.769 278.476 619.705 237.545C619.751 232.133 618.947 226.895 617.856 221.982Z" stroke="url(#paint15_linear)" stroke-miterlimit="10"/>
<path d="M618.313 217.283C611.469 210.628 610.36 217.764 599.389 207.793C571.748 182.909 571.406 87.5952 505.701 69.9897C450.667 55.2433 435.737 119.947 374.872 113.482C345.826 110.32 306.433 63.4034 257.96 60.8613C225.502 59.1955 205.765 83.4378 188.607 119.018C183.535 129.713 177.764 140.019 173.065 150.813C131.623 245.578 170.171 223.765 142.95 325.354C120.049 410.823 55.8735 479.609 65.9087 505.802C73.1955 525.031 100.799 557.538 148.04 582.652C163.833 591.102 176.713 602.187 190.505 612.11C210.521 626.514 225.392 633.913 241.184 634.127C292.406 635.397 337.223 604.415 392.445 619.212C441.863 632.453 474.197 649.555 507.97 640.323C536.546 632.511 576.153 603.749 595.539 556.11C630.626 470.088 587.106 461.039 588.106 369.701C588.225 357.277 589.321 342.705 592.942 326.198C601.904 286.01 617.249 276.662 619.674 233.92C619.87 227.946 619.117 222.521 618.313 217.283Z" stroke="url(#paint16_linear)" stroke-miterlimit="10"/>
<path d="M618.957 212.635C613.149 205.855 611.88 211.341 602.593 201.821C577.039 175.89 574.551 87.8357 512.591 71.2334C455.684 55.9854 441.06 124.789 377.639 116.635C347.994 112.709 307.259 61.8171 255.905 57.2977C222.014 54.2434 200.13 77.5089 182.411 112.939C177.151 123.583 171.568 133.94 167.007 144.972C126.194 244.124 172.955 223.105 145.534 325.444C122.231 412.413 51.7503 481.518 59.1878 508.421C64.8628 528.423 91.1518 563.592 139.639 590.044C155.381 598.682 169.161 609.405 183.903 618.779C205.531 632.409 222.063 638.848 239.043 638.375C293.84 636.786 338.99 600.067 394.773 615.014C443.068 627.955 475.854 651.606 511.371 644.85C540.755 639.264 581.96 610.529 601.2 560.439C635.644 470.83 585.225 458.325 585.038 367.674C585.02 355.013 585.979 340.203 589.837 323.558C599.237 282.484 615.217 274.511 619.317 230.008C619.751 223.896 619.472 218.197 618.957 212.635Z" stroke="url(#paint17_linear)" stroke-miterlimit="10"/>
<path d="M619.55 208.173C614.729 201.457 613.537 205.156 605.611 195.8C582.381 168.683 577.51 88.0257 519.48 72.4767C460.515 56.6769 446.333 129.818 380.456 119.599C350.213 114.911 307.948 59.9929 253.95 53.3589C218.576 49.1034 194.647 71.0173 176.553 106.347C171.157 116.754 165.659 127.535 161.235 138.805C121.053 242.345 176.165 222.358 148.593 325.259C124.888 413.727 47.915 483.101 53.1289 510.815C57.0051 531.541 82.1162 569.608 132.037 597.449C147.729 606.274 162.17 616.773 178.05 625.648C201.239 638.692 219.296 643.932 237.513 642.586C296.022 638.375 341.368 595.682 397.526 610.73C444.885 623.42 477.986 653.383 515.196 649.291C545.152 646.067 588.192 617.221 607.236 564.869C641.273 471.535 583.718 455.712 582.207 365.509C582.052 352.61 583.061 337.613 586.969 320.781C596.758 279.007 613.61 272.272 619.198 225.958C619.87 219.709 619.691 213.635 619.55 208.173Z" stroke="url(#paint18_linear)" stroke-miterlimit="10"/>
<path d="M620.007 203.474C616.222 196.634 615.108 198.545 608.492 189.541C587.773 161.288 580.468 88.2158 526.557 73.7703C465.532 57.4188 452.032 134.76 383.41 122.801C352.756 117.4 308.962 58.4565 252.27 49.8953C215.275 44.2011 189.387 65.1884 170.732 100.368C165.335 110.774 159.838 121.556 155.688 133.301C116.323 241.278 179.411 222.223 151.688 325.686C127.581 415.654 44.3037 485.348 47.1572 513.635C49.2847 534.896 73.405 575.913 124.385 605.041C140.027 614.054 155.368 624.191 172.197 632.517C196.997 644.787 216.716 649.067 235.933 646.984C298.154 640.152 343.697 591.485 400.229 606.633C446.465 619.022 480.068 655.347 518.785 653.868C549.275 652.395 594.1 623.625 612.998 568.824C646.391 471.902 581.887 452.81 579.24 363.106C578.81 349.733 579.87 334.548 584.015 317.579C594.242 274.918 611.916 269.609 619.043 221.296C619.801 215.472 620.048 209.311 620.007 203.474Z" stroke="url(#paint19_linear)" stroke-miterlimit="10"/>
<path d="M620.651 198.825C617.902 191.861 616.866 191.985 611.748 183.382C593.59 153.807 583.664 88.2686 533.684 74.8764C470.788 58.0233 457.543 139.652 386.414 125.816C355.162 119.652 309.839 56.6825 250.504 46.0068C211.837 39.0612 184.091 58.747 165.062 93.8261C159.478 104.182 154.118 115.201 150.155 126.997C111.607 239.412 182.909 221.151 154.985 325.364C130.476 416.832 40.7564 486.607 41.3362 515.892C41.8521 537.927 64.6072 581.792 116.884 612.071C132.663 621.321 148.529 630.997 166.307 638.774C192.669 650.458 214.101 653.589 234.368 650.582C300.35 640.941 346.089 586.3 402.996 601.548C448.296 613.686 482.452 656.186 522.625 657.509C554.06 658.499 600.433 629.943 619.184 572.691C652.171 472.045 580.532 449.635 576.697 360.617C576.131 347.006 577.24 331.633 581.436 314.477C592.101 270.929 610.41 266.995 619.212 216.922C619.92 211.285 620.404 204.987 620.651 198.825Z" stroke="url(#paint20_linear)" stroke-miterlimit="10"/>
<path d="M621.107 194.126C620.618 186.964 618.623 185.425 614.578 177.31C599.457 146.138 586.573 88.646 540.523 76.3071C475.568 58.9023 462.765 144.868 389.13 129.156C357.23 122.416 310.428 55.2331 248.399 42.6302C208.061 34.4334 178.407 53.0052 158.816 87.9338C153.045 98.24 147.872 109.309 143.996 121.529C106.265 238.382 185.543 221.054 157.418 326.016C132.508 418.983 36.4828 489.078 34.6519 519.123C33.3689 541.882 54.9964 588.457 108.656 620.313C124.435 629.563 140.963 639.014 159.828 646.48C187.802 657.39 210.708 659.51 232.212 655.629C301.957 643.18 347.842 582.752 405.123 598.1C449.488 609.988 484.145 658.85 525.825 662.786C558.118 665.814 606.277 637.334 624.594 577.958C656.938 473.724 578.162 447.995 573.19 359.477C572.487 345.628 573.647 330.068 577.893 312.724C589.184 268.339 608.177 265.594 618.418 213.896C619.851 207.048 621.796 200.538 621.107 194.126Z" stroke="url(#paint21_linear)" stroke-miterlimit="10"/>
<path d="M621.751 189.477C621.824 182.466 620.381 178.865 617.647 171.101C605.936 138.432 589.531 88.8362 547.226 77.5005C480.398 59.5942 467.802 150.035 391.71 132.258C359.212 124.755 310.88 53.5464 246.208 38.829C204.199 29.3808 172.687 46.6511 152.721 81.4794C147 91.5982 141.777 102.855 137.988 115.5C101.311 236.653 188.516 220.444 160.24 325.969C134.928 420.435 32.4105 490.799 28.3561 521.655C25.3245 544.949 45.9612 594.474 100.681 627.618C116.409 637.055 133.786 646.332 153.651 653.061C183.05 663.148 207.805 664.357 230.309 659.74C303.766 644.669 349.847 578.267 407.502 593.716C450.744 605.302 486.141 660.389 529.277 667.126C562.566 672.429 612.135 643.926 630.306 582.1C662.243 474.141 576.281 445.281 570.173 357.262C569.145 343.125 570.355 327.378 574.889 309.709C586.618 264.437 606.246 263.067 618.162 209.609C619.97 202.862 621.728 196.301 621.751 189.477Z" stroke="url(#paint22_linear)" stroke-miterlimit="10"/>
<path d="M622.344 185.016C623.029 177.967 622.463 172.592 620.851 165.129C613.163 130.927 592.677 89.0763 554.302 78.7939C485.416 60.3358 473.262 155.114 394.664 135.46C361.568 127.194 311.706 51.9596 244.527 35.3653C201.085 24.5285 167.427 40.822 146.899 75.4999C140.991 85.5685 136.092 97.1128 132.303 109.758C96.444 235.349 191.624 220.072 163.198 326.159C137.434 422.312 28.4745 492.758 22.1967 524.424C17.3661 548.442 36.8249 600.865 92.9779 635.397C108.844 645.073 126.746 653.887 147.697 660.305C178.657 669.806 205.124 669.867 228.678 664.325C305.897 646.445 352.125 574.257 410.154 589.806C452.46 601.142 488.597 662.453 533.003 671.941C567.149 679.283 618.454 651.043 636.241 586.904C667.909 475.458 574.436 443.18 567.428 355.522C566.264 341.148 567.524 325.213 572.108 307.357C584.276 261.198 604.538 261.203 618.13 205.984C619.902 198.624 621.71 191.877 622.344 185.016Z" stroke="url(#paint23_linear)" stroke-miterlimit="10"/>
<path d="M622.801 180.317C630.517 138.791 602.749 91.1724 561.379 80.0874C490.433 61.0776 478.722 160.193 397.668 138.474C363.974 129.446 312.583 50.1856 242.76 31.4767C184.543 15.8775 142.338 45.3495 126.719 103.641C91.9149 233.533 195.071 219.187 166.445 326.024C140.279 423.677 25.064 494.255 16.3755 526.681C7.98831 557.982 40.3496 639.376 141.995 666.612C281.266 703.929 336.684 564.495 413.058 584.959C454.241 595.994 491.117 663.53 536.979 675.819C572.171 685.249 624.836 657.173 642.665 590.634C678.725 456.057 535.779 430.21 569.629 303.88C582.235 256.834 603.182 258.028 618.4 201.235C620.02 194.438 621.504 187.402 622.801 180.317Z" stroke="url(#paint24_linear)" stroke-miterlimit="10"/>
</g>
<defs>
<linearGradient id="paint0_linear" x1="445.324" y1="63.2121" x2="283.172" y2="668.373" gradientUnits="userSpaceOnUse">
<stop stop-color="#FFD110" stop-opacity="0"/>
<stop offset="0.286458" stop-color="#109BFF"/>
<stop offset="0.614583" stop-color="#FF0469"/>
<stop offset="1" stop-color="#04DA00" stop-opacity="0"/>
</linearGradient>
<linearGradient id="paint1_linear" x1="445.497" y1="62.6558" x2="284.449" y2="663.694" gradientUnits="userSpaceOnUse">
<stop stop-color="#FFD110" stop-opacity="0"/>
<stop offset="0.286458" stop-color="#109BFF"/>
<stop offset="0.614583" stop-color="#FF0469"/>
<stop offset="1" stop-color="#04DA00" stop-opacity="0"/>
</linearGradient>
<linearGradient id="paint2_linear" x1="445.719" y1="62.113" x2="285.726" y2="659.215" gradientUnits="userSpaceOnUse">
<stop stop-color="#FFD110" stop-opacity="0"/>
<stop offset="0.286458" stop-color="#109BFF"/>
<stop offset="0.614583" stop-color="#FF0469"/>
<stop offset="1" stop-color="#04DA00" stop-opacity="0"/>
</linearGradient>
<linearGradient id="paint3_linear" x1="445.323" y1="61.4044" x2="286.485" y2="654.196" gradientUnits="userSpaceOnUse">
<stop stop-color="#FFD110" stop-opacity="0"/>
<stop offset="0.286458" stop-color="#109BFF"/>
<stop offset="0.614583" stop-color="#FF0469"/>
<stop offset="1" stop-color="#04DA00" stop-opacity="0"/>
</linearGradient>
<linearGradient id="paint4_linear" x1="445.475" y1="60.8425" x2="287.591" y2="650.073" gradientUnits="userSpaceOnUse">
<stop stop-color="#FFD110" stop-opacity="0"/>
<stop offset="0.286458" stop-color="#109BFF"/>
<stop offset="0.614583" stop-color="#FF0469"/>
<stop offset="1" stop-color="#04DA00" stop-opacity="0"/>
</linearGradient>
<linearGradient id="paint5_linear" x1="445.699" y1="60.3007" x2="288.92" y2="645.408" gradientUnits="userSpaceOnUse">
<stop stop-color="#FFD110" stop-opacity="0"/>
<stop offset="0.286458" stop-color="#109BFF"/>
<stop offset="0.614583" stop-color="#FF0469"/>
<stop offset="1" stop-color="#04DA00" stop-opacity="0"/>
</linearGradient>
<linearGradient id="paint6_linear" x1="446.608" y1="59.9416" x2="290.884" y2="641.114" gradientUnits="userSpaceOnUse">
<stop stop-color="#FFD110" stop-opacity="0"/>
<stop offset="0.286458" stop-color="#109BFF"/>
<stop offset="0.614583" stop-color="#FF0469"/>
<stop offset="1" stop-color="#04DA00" stop-opacity="0"/>
</linearGradient>
<linearGradient id="paint7_linear" x1="446.443" y1="59.2952" x2="291.924" y2="635.969" gradientUnits="userSpaceOnUse">
<stop stop-color="#FFD110" stop-opacity="0"/>
<stop offset="0.286458" stop-color="#109BFF"/>
<stop offset="0.614583" stop-color="#FF0469"/>
<stop offset="1" stop-color="#04DA00" stop-opacity="0"/>
</linearGradient>
<linearGradient id="paint8_linear" x1="447.379" y1="58.9434" x2="293.964" y2="631.494" gradientUnits="userSpaceOnUse">
<stop stop-color="#FFD110" stop-opacity="0"/>
<stop offset="0.286458" stop-color="#109BFF"/>
<stop offset="0.614583" stop-color="#FF0469"/>
<stop offset="1" stop-color="#04DA00" stop-opacity="0"/>
</linearGradient>
<linearGradient id="paint9_linear" x1="448.485" y1="58.6371" x2="296.006" y2="627.696" gradientUnits="userSpaceOnUse">
<stop stop-color="#FFD110" stop-opacity="0"/>
<stop offset="0.286458" stop-color="#109BFF"/>
<stop offset="0.614583" stop-color="#FF0469"/>
<stop offset="1" stop-color="#04DA00" stop-opacity="0"/>
</linearGradient>
<linearGradient id="paint10_linear" x1="449.674" y1="58.5544" x2="297.739" y2="625.584" gradientUnits="userSpaceOnUse">
<stop stop-color="#FFD110" stop-opacity="0"/>
<stop offset="0.286458" stop-color="#109BFF"/>
<stop offset="0.614583" stop-color="#FF0469"/>
<stop offset="1" stop-color="#04DA00" stop-opacity="0"/>
</linearGradient>
<linearGradient id="paint11_linear" x1="450.678" y1="58.0196" x2="298.253" y2="626.875" gradientUnits="userSpaceOnUse">
<stop stop-color="#FFD110" stop-opacity="0"/>
<stop offset="0.286458" stop-color="#109BFF"/>
<stop offset="0.614583" stop-color="#FF0469"/>
<stop offset="1" stop-color="#04DA00" stop-opacity="0"/>
</linearGradient>
<linearGradient id="paint12_linear" x1="451.793" y1="57.7155" x2="298.376" y2="630.276" gradientUnits="userSpaceOnUse">
<stop stop-color="#FFD110" stop-opacity="0"/>
<stop offset="0.286458" stop-color="#109BFF"/>
<stop offset="0.614583" stop-color="#FF0469"/>
<stop offset="1" stop-color="#04DA00" stop-opacity="0"/>
</linearGradient>
<linearGradient id="paint13_linear" x1="453.045" y1="57.4476" x2="298.371" y2="634.697" gradientUnits="userSpaceOnUse">
<stop stop-color="#FFD110" stop-opacity="0"/>
<stop offset="0.286458" stop-color="#109BFF"/>
<stop offset="0.614583" stop-color="#FF0469"/>
<stop offset="1" stop-color="#04DA00" stop-opacity="0"/>
</linearGradient>
<linearGradient id="paint14_linear" x1="454.234" y1="57.3644" x2="298.211" y2="639.652" gradientUnits="userSpaceOnUse">
<stop stop-color="#FFD110" stop-opacity="0"/>
<stop offset="0.286458" stop-color="#109BFF"/>
<stop offset="0.614583" stop-color="#FF0469"/>
<stop offset="1" stop-color="#04DA00" stop-opacity="0"/>
</linearGradient>
<linearGradient id="paint15_linear" x1="455.629" y1="56.9345" x2="298.123" y2="644.757" gradientUnits="userSpaceOnUse">
<stop stop-color="#FFD110" stop-opacity="0"/>
<stop offset="0.286458" stop-color="#109BFF"/>
<stop offset="0.614583" stop-color="#FF0469"/>
<stop offset="1" stop-color="#04DA00" stop-opacity="0"/>
</linearGradient>
<linearGradient id="paint16_linear" x1="456.845" y1="56.8575" x2="297.69" y2="650.829" gradientUnits="userSpaceOnUse">
<stop stop-color="#FFD110" stop-opacity="0"/>
<stop offset="0.286458" stop-color="#109BFF"/>
<stop offset="0.614583" stop-color="#FF0469"/>
<stop offset="1" stop-color="#04DA00" stop-opacity="0"/>
</linearGradient>
<linearGradient id="paint17_linear" x1="457.629" y1="56.4651" x2="296.849" y2="656.506" gradientUnits="userSpaceOnUse">
<stop stop-color="#FFD110" stop-opacity="0"/>
<stop offset="0.286458" stop-color="#109BFF"/>
<stop offset="0.614583" stop-color="#FF0469"/>
<stop offset="1" stop-color="#04DA00" stop-opacity="0"/>
</linearGradient>
<linearGradient id="paint18_linear" x1="458.798" y1="56.1751" x2="296.297" y2="662.638" gradientUnits="userSpaceOnUse">
<stop stop-color="#FFD110" stop-opacity="0"/>
<stop offset="0.286458" stop-color="#109BFF"/>
<stop offset="0.614583" stop-color="#FF0469"/>
<stop offset="1" stop-color="#04DA00" stop-opacity="0"/>
</linearGradient>
<linearGradient id="paint19_linear" x1="459.842" y1="55.8517" x2="295.532" y2="669.067" gradientUnits="userSpaceOnUse">
<stop stop-color="#FFD110" stop-opacity="0"/>
<stop offset="0.286458" stop-color="#109BFF"/>
<stop offset="0.614583" stop-color="#FF0469"/>
<stop offset="1" stop-color="#04DA00" stop-opacity="0"/>
</linearGradient>
<linearGradient id="paint20_linear" x1="461.085" y1="55.3806" x2="294.952" y2="675.396" gradientUnits="userSpaceOnUse">
<stop stop-color="#FFD110" stop-opacity="0"/>
<stop offset="0.286458" stop-color="#109BFF"/>
<stop offset="0.614583" stop-color="#FF0469"/>
<stop offset="1" stop-color="#04DA00" stop-opacity="0"/>
</linearGradient>
<linearGradient id="paint21_linear" x1="461.733" y1="55.1519" x2="293.405" y2="683.36" gradientUnits="userSpaceOnUse">
<stop stop-color="#FFD110" stop-opacity="0"/>
<stop offset="0.286458" stop-color="#109BFF"/>
<stop offset="0.614583" stop-color="#FF0469"/>
<stop offset="1" stop-color="#04DA00" stop-opacity="0"/>
</linearGradient>
<linearGradient id="paint22_linear" x1="462.497" y1="54.7534" x2="292.138" y2="690.543" gradientUnits="userSpaceOnUse">
<stop stop-color="#FFD110" stop-opacity="0"/>
<stop offset="0.286458" stop-color="#109BFF"/>
<stop offset="0.614583" stop-color="#FF0469"/>
<stop offset="1" stop-color="#04DA00" stop-opacity="0"/>
</linearGradient>
<linearGradient id="paint23_linear" x1="463.053" y1="54.2992" x2="290.422" y2="698.567" gradientUnits="userSpaceOnUse">
<stop stop-color="#FFD110" stop-opacity="0"/>
<stop offset="0.286458" stop-color="#109BFF"/>
<stop offset="0.614583" stop-color="#FF0469"/>
<stop offset="1" stop-color="#04DA00" stop-opacity="0"/>
</linearGradient>
<linearGradient id="paint24_linear" x1="463.305" y1="53.7634" x2="288.598" y2="705.778" gradientUnits="userSpaceOnUse">
<stop stop-color="#FFD110" stop-opacity="0"/>
<stop offset="0.286458" stop-color="#109BFF"/>
<stop offset="0.614583" stop-color="#FF0469"/>
<stop offset="1" stop-color="#04DA00" stop-opacity="0"/>
</linearGradient>
</defs>
</svg>
