<svg width="320" height="597" viewBox="0 0 320 597" fill="none" xmlns="http://www.w3.org/2000/svg">
<g opacity="0.33">
<path d="M207.028 226.833C158.036 213.705 185.309 56.0116 86.4593 29.5249C49.1385 19.5249 12.9914 52.984 4.95012 82.9946C-0.268998 102.473 8.94253 130.92 1.21051 159.777C-14.4082 218.066 -120.835 156.456 -143.219 239.995C-155.9 287.32 -127.664 337.566 -90.0552 347.644C-63.8298 354.671 -26.5125 341.628 -6.91544 346.879C21.1832 354.408 -6.98231 409.955 -9.83263 426.356C-16.6193 465.517 16.238 510.043 53.5588 520.044C103.992 533.557 120.409 462.491 129.417 428.874C163.901 300.175 242.223 409.615 271.334 300.971C277.21 279.04 282.032 223.579 252.06 215.548C234.336 210.799 234.695 234.246 207.028 226.833Z" stroke="url(#paint0_linear)" stroke-width="0.488784" stroke-miterlimit="10"/>
<path d="M252.661 212.153C235.668 206.981 235.893 229.773 209.495 222.236C162.281 208.812 187.73 56.1966 91.9061 30.5207C72.4532 25.3083 54.9508 32.9898 38.8682 42.2888C22.5643 51.8379 9.30043 65.6036 3.69472 80.1841C-3.45387 98.2173 4.93175 126.289 -3.04981 154.924C-5.66815 164.119 -10.4444 170.417 -16.7846 175.058C-50.6894 200.149 -121.855 169.482 -140.76 240.036C-153.75 288.515 -130.473 338.824 -94.6143 349.67C-69.7349 357.109 -33.4017 346.587 -12.6237 352.618C-0.164728 356.266 1.61359 368.65 -0.0417793 382.897C-2.19271 400.723 -10.1426 421.17 -10.9053 429.78C-14.6132 466.674 17.9243 506.629 55.6774 516.745C105.246 530.027 122.443 464.119 132.361 432.292C143.544 396.319 158.179 378.591 173.618 368.81C209.73 345.857 250.365 375.766 269.298 299.343C270.855 292.956 272.387 283.779 273.21 273.793C275.125 252.811 273.892 229.749 261.869 217.558C259.268 215.16 256.224 213.262 252.661 212.153Z" stroke="url(#paint1_linear)" stroke-width="0.488784" stroke-miterlimit="10"/>
<path d="M253.012 208.535C236.933 202.835 236.985 225.117 211.712 217.418C166.421 203.735 190.007 56.3425 97.3532 31.516C76.4593 25.9175 59.0975 35.9563 41.1418 44.7534C24.2052 53.2051 9.65853 63.6889 2.2569 77.479C-6.63842 93.9616 0.777217 121.619 -7.67529 150.282C-10.2936 159.478 -15.214 165.737 -21.1993 170.782C-55.2622 198.769 -119.318 169.234 -138.377 240.365C-151.677 289.998 -133.215 340.409 -99.2117 351.84C-75.6784 359.692 -40.3292 351.689 -18.5145 358.462C-6.13281 362.398 -3.76755 374.321 -4.54781 388.184C-5.49676 405.559 -12.09 424.978 -12.083 433.021C-12.3853 467.58 19.8604 503.437 57.9017 513.63C106.75 526.719 124.688 466.112 135.411 435.892C147.466 401.854 162.976 383.742 178.408 372.258C213.67 346.139 249.926 373.947 267.224 297.859C268.714 291.145 270.247 281.968 271.108 271.838C273.217 250.135 273.164 227.852 261.882 214.623C259.359 211.937 256.537 209.789 253.012 208.535Z" stroke="url(#paint2_linear)" stroke-width="0.488784" stroke-miterlimit="10"/>
<path d="M253.507 204.957C238.447 198.911 238.261 220.356 214.074 212.638C170.561 198.659 192.428 56.5277 102.657 32.4735C80.1777 26.4502 63.1005 38.8849 43.2715 47.1801C25.7023 54.5344 9.87287 61.7363 0.713974 74.5916C-9.7453 89.4181 -3.52111 116.911 -12.3672 145.314C-15.1297 154.471 -20.05 160.73 -25.7858 165.997C-59.8241 196.774 -117.136 168.582 -136.35 240.29C-149.958 291.077 -136.35 341.734 -104.346 353.711C-82.0538 362.159 -47.7941 356.493 -24.9813 364.152C-12.6383 368.233 -9.7634 379.983 -9.62987 393.318C-9.52095 410.203 -14.6135 428.632 -13.8368 436.108C-10.8777 468.293 21.1537 499.763 59.4832 510.033C107.611 522.929 126.186 467.442 137.819 439.012C150.889 406.947 167.091 388.556 182.555 375.225C216.966 345.94 248.699 371.608 264.652 295.933C266.036 289.036 267.463 279.676 268.546 269.296C270.953 247.054 271.899 225.658 261.436 211.102C259.489 208.57 256.705 206.278 253.507 204.957Z" stroke="url(#paint3_linear)" stroke-width="0.488784" stroke-miterlimit="10"/>
<path d="M253.859 201.339C239.674 194.91 239.354 215.7 216.397 208.003C174.662 193.727 194.706 56.6738 107.96 33.4304C83.896 26.9824 67.209 41.9959 45.4013 49.6062C27.3436 55.9018 10.1259 59.6389 -0.867541 71.848C-12.7467 85.0569 -7.96346 112.164 -16.9923 140.672C-19.8989 149.791 -24.7138 156.232 -30.3441 161.683C-64.5792 195.499 -114.781 168.44 -134.111 240.58C-148.028 292.522 -139.235 343.28 -109.126 355.987C-88.1796 364.847 -54.904 361.701 -30.9103 370.141C-18.6446 374.51 -15.2215 385.943 -14.3569 398.855C-13.1901 415.25 -16.782 432.69 -15.2743 439.744C-9.01496 469.411 22.7247 496.781 61.3424 507.129C108.606 519.793 127.922 469.608 140.504 442.824C154.551 412.876 171.379 393.88 186.941 379.029C220.607 346.761 247.855 370.145 262.318 294.844C263.741 287.802 264.919 278.221 266.184 267.735C269.294 244.599 271.199 224.233 261.411 208.312C259.58 205.347 257.018 202.804 253.859 201.339Z" stroke="url(#paint4_linear)" stroke-width="0.488784" stroke-miterlimit="10"/>
<path d="M254.316 197.905C241.151 191.13 240.409 211.189 218.721 203.368C178.908 188.834 197.128 56.859 113.408 34.4264C87.9034 27.5924 71.4624 45.146 47.676 52.0715C29.2739 57.347 10.8121 57.6579 -2.12142 69.0379C-15.2763 80.6678 -11.9341 107.388 -21.3953 135.781C-24.4072 144.717 -29.2608 151.303 -34.6802 157.119C-68.9681 194.014 -112.309 167.865 -131.794 240.583C-146.021 293.678 -142.043 344.539 -113.828 357.975C-94.0833 367.286 -61.9358 366.622 -36.944 375.947C-24.7169 380.46 -20.7842 391.72 -19.0059 404.104C-16.6371 420.048 -18.8724 436.46 -16.595 442.946C-7.03547 470.096 24.4125 493.368 63.3184 503.793C109.861 516.264 129.775 471.341 143.306 446.204C158.186 418.335 175.889 398.955 191.627 382.295C224.548 347.044 247.023 368.066 260.178 293.034C261.496 285.809 262.712 276.084 264.016 265.453C267.099 241.846 270.146 222.405 261.138 205.3C259.672 202.124 257.332 199.332 254.316 197.905Z" stroke="url(#paint5_linear)" stroke-width="0.488784" stroke-miterlimit="10"/>
<path d="M254.811 194.327C242.626 187.35 241.646 206.572 221.226 198.627C183.048 183.758 199.549 57.0439 118.855 35.4221C91.7654 28.1634 75.8586 48.3344 49.9494 54.5365C31.1642 58.9361 11.4969 55.6765 -3.55937 66.3331C-17.8846 76.5669 -16.1274 102.863 -25.8768 131.178C-28.8887 140.114 -33.7423 146.7 -38.9122 152.737C-73.2528 192.712 -109.628 167.655 -129.229 240.806C-143.765 295.056 -144.64 346.162 -118.281 360.184C-99.7386 369.946 -68.7193 371.763 -42.5466 381.869C-30.3969 386.67 -25.8772 397.469 -23.2624 409.613C-19.8744 425.212 -20.5703 440.49 -17.5232 446.409C-4.91314 470.819 26.4927 490.214 65.8309 500.754C111.509 512.994 132.126 473.518 146.644 449.882C162.396 423.948 180.936 404.327 196.667 385.965C228.948 347.913 246.689 366.43 258.498 291.81C259.71 284.403 260.821 274.494 262.346 263.614C265.766 239.324 269.917 220.952 261.584 202.482C259.763 198.901 257.605 196.003 254.811 194.327Z" stroke="url(#paint6_linear)" stroke-width="0.488784" stroke-miterlimit="10"/>
<path d="M255.162 190.709C242.763 185.686 242.738 201.917 223.443 193.808C187.043 178.643 201.826 57.19 124.014 36.3404C95.483 28.6956 79.9277 51.5896 51.9731 56.7797C32.7661 60.4477 12.0761 53.5121 -5.20842 63.2623C-20.6654 71.9558 -20.6373 97.7883 -30.6749 126.027C-33.8309 134.924 -38.7232 141.654 -43.6435 147.913C-78.0368 190.966 -107.591 166.964 -127.307 240.548C-142.153 295.952 -147.987 347.121 -123.378 361.911C-106.22 372.23 -76.1077 376.278 -48.9368 387.27C-36.6817 392.255 -31.7965 402.842 -28.2679 414.458C-23.6779 429.605 -23.1613 443.816 -19.2391 449.352C-3.76117 471.128 27.8239 486.395 67.4503 497.013C112.408 509.06 133.622 474.847 148.945 452.818C165.531 428.963 185.089 408.997 200.708 388.749C232.388 347.753 245.212 363.87 255.819 289.701C256.965 281.966 258.076 272.058 259.639 261.033C263.397 236.06 268.468 218.862 260.993 198.921C259.815 195.822 257.619 193.069 255.162 190.709Z" stroke="url(#paint7_linear)" stroke-width="0.488784" stroke-miterlimit="10"/>
<path d="M255.658 187.131C244.018 182.156 243.87 197.117 225.767 189.173C191.145 173.711 204.104 57.3364 129.462 37.3362C99.3459 29.2666 84.2861 54.9224 54.2473 59.2447C34.8014 62.0755 13.0113 51.7523 -6.64546 60.5576C-23.1286 67.8936 -24.8297 93.2628 -35.1168 121.28C-38.3783 129.994 -43.1651 136.907 -47.98 143.349C-82.3206 189.663 -105.014 166.572 -124.885 240.733C-140.04 297.291 -150.689 348.562 -127.936 363.937C-111.98 374.707 -82.8517 381.275 -54.8268 393.114C-42.6103 398.243 -37.2155 408.658 -32.7731 419.745C-27.1253 434.403 -25.108 447.624 -20.4161 452.593C-2.21435 471.697 29.6554 483.02 69.5699 493.715C113.807 505.568 135.58 476.763 151.891 456.236C169.309 434.46 189.743 414.11 205.393 392.015C236.433 348.218 244.38 361.791 253.785 288.073C254.825 280.156 255.83 270.064 257.615 258.79C261.71 233.134 267.702 217.111 261.123 195.554C259.907 192.599 257.749 189.701 255.658 187.131Z" stroke="url(#paint8_linear)" stroke-width="0.488784" stroke-miterlimit="10"/>
<path d="M256.01 183.513C245.168 178.443 244.964 192.461 228.129 184.393C195.286 168.634 206.526 57.521 134.766 38.293C103.065 29.7988 88.5008 58.2162 56.378 61.6708C36.5103 63.7701 13.7643 50.0979 -8.08208 57.8525C-25.4861 64.014 -28.9831 88.5927 -39.7411 116.638C-43.1467 125.313 -47.8281 132.41 -52.5376 139.034C-86.6813 188.649 -102.764 166.247 -122.79 240.985C-138.254 298.697 -153.757 350.214 -132.859 366.174C-118.249 377.357 -90.0662 386.3 -60.8991 399.064C-48.7213 404.338 -42.6728 414.618 -37.4994 425.283C-30.6496 439.489 -27.4198 451.644 -21.7087 456.267C-0.821821 472.843 31.2272 480.039 71.574 490.849C114.947 502.471 137.317 478.929 154.721 460.087C172.789 440.495 194.425 419.694 209.924 395.857C240.325 349.26 243.393 360.289 251.452 286.983C252.387 278.883 253.43 268.647 255.254 257.229C259.686 230.89 266.455 216.003 260.878 193.013C259.855 189.337 258.063 186.228 256.01 183.513Z" stroke="url(#paint9_linear)" stroke-width="0.488784" stroke-miterlimit="10"/>
<path d="M256.466 180.079C246.383 175.058 246.056 187.805 230.452 179.758C199.243 163.664 208.764 57.8118 140.174 39.4333C107.032 30.5529 92.9248 61.8763 58.6124 64.2803C38.4671 65.6866 14.621 48.6269 -9.52036 55.148C-27.9892 60.0963 -33.1767 84.0674 -44.3284 111.853C-47.734 120.528 -52.5595 127.586 -56.914 134.615C-91.0051 187.491 -100.227 165.999 -120.369 241.17C-136.142 300.037 -156.46 351.655 -137.601 368.306C-124.232 380.084 -97.1383 391.365 -66.9344 404.87C-54.7952 410.288 -48.2371 420.396 -42.2941 430.493C-34.2423 444.249 -29.8386 455.48 -23.1751 459.431C0.252798 473.44 32.7693 476.586 73.4043 487.474C116.057 498.903 138.841 480.729 157.377 463.428C176.134 445.876 198.789 424.73 214.32 399.046C244.225 349.687 242.127 358.094 249.166 285.134C249.996 276.851 250.934 266.433 252.941 254.908C257.672 228.031 265.4 214.174 260.68 189.714C259.946 186.115 258.336 182.9 256.466 180.079Z" stroke="url(#paint10_linear)" stroke-width="0.488784" stroke-miterlimit="10"/>
<path d="M256.962 176.501C247.676 171.384 247.293 183.189 232.813 174.979C203.277 158.405 211.224 57.8527 145.516 40.2464C110.789 30.9413 97.1385 65.1706 60.6366 66.5241C40.0695 67.1988 15.2289 46.9344 -11.2075 52.222C-30.6358 56.14 -37.5806 79.1763 -49.0591 107.029C-52.5701 115.521 -57.2901 122.761 -61.5392 129.974C-95.4335 186.15 -98.0834 165.491 -118.341 241.095C-134.424 301.116 -159.595 352.98 -142.592 370.217C-130.569 382.407 -104.421 396.063 -73.1131 410.638C-61.0513 416.344 -53.7621 426.029 -47.1267 435.848C-37.8729 449.153 -32.2567 459.317 -24.6794 462.74C1.35623 474.51 34.312 473.134 75.2352 484.099C117.023 495.296 140.367 482.53 160.034 466.769C179.441 451.402 203.259 429.949 218.822 402.417C248.126 350.114 240.967 356.083 246.949 283.613C247.673 275.147 248.65 264.584 250.734 252.771C255.802 225.211 264.307 212.49 260.589 186.596C260.037 182.892 258.466 179.533 256.962 176.501Z" stroke="url(#paint11_linear)" stroke-width="0.488784" stroke-miterlimit="10"/>
<path d="M257.314 172.883C248.932 167.854 248.282 178.35 235.176 170.199C207.313 153.145 213.502 57.9989 150.82 41.2034C114.652 31.5122 101.42 68.7917 62.7673 68.9502C41.884 69.0762 16.0873 45.4629 -12.6054 49.3727C-33.0986 52.0775 -41.6952 74.3619 -53.606 102.099C-57.2611 110.552 -61.8757 117.976 -66.0194 125.371C-99.5727 184.886 -95.6505 165.06 -116.063 241.241C-132.455 302.416 -162.441 354.382 -147.332 372.348C-136.549 385.134 -111.452 400.983 -79.1467 416.443C-66.9793 422.332 -59.3247 431.806 -51.7755 441.097C-41.3198 453.95 -34.5297 463.192 -26.0386 466.086C2.46072 475.578 35.9613 469.864 77.1727 480.906C118.24 491.91 141.893 484.33 162.797 470.292C182.788 456.783 207.913 435.061 223.181 405.75C251.989 350.685 239.664 354.032 244.444 282.013C245.062 273.364 245.934 262.618 248.201 250.7C253.606 222.457 262.744 210.834 260.171 183.546C259.947 179.774 258.741 176.204 257.314 172.883Z" stroke="url(#paint12_linear)" stroke-width="0.488784" stroke-miterlimit="10"/>
<path d="M257.81 169.305C250.225 164.18 249.558 173.588 237.499 165.563C211.309 148.03 215.924 58.1835 156.268 42.1988C118.515 32.0829 105.701 72.4127 65.08 71.2707C43.7749 70.6651 16.945 43.9913 -14.004 46.5234C-35.4953 48.3422 -45.9933 69.6532 -58.0482 97.3512C-61.7033 105.805 -66.3179 113.228 -70.3948 120.95C-103.607 183.804 -93.2182 164.629 -113.785 241.387C-130.487 303.717 -165.326 355.928 -152.034 374.335C-142.454 387.573 -118.446 405.758 -85.1809 422.249C-73.0523 428.282 -64.744 437.622 -56.4251 446.346C-44.7674 458.748 -36.8035 467.067 -27.3599 469.289C3.89128 476.58 37.6484 466.45 79.148 477.569C119.495 488.38 143.418 486.131 165.598 473.672C186.134 462.164 212.567 440.174 227.722 408.977C256.035 351.15 238.543 351.876 242.265 280.347C242.673 271.332 243.688 260.625 245.994 248.562C251.737 219.637 261.651 209.149 260.224 180.467C260.038 176.551 258.871 172.836 257.81 169.305Z" stroke="url(#paint13_linear)" stroke-width="0.488784" stroke-miterlimit="10"/>
<path d="M258.122 165.832C251.297 160.756 250.545 168.75 239.822 160.928C215.305 142.916 218.162 58.4744 161.532 43.3005C122.194 32.7599 109.942 76.1785 67.1706 73.8416C45.5492 72.6874 17.5806 42.7703 -15.5861 43.7804C-38.181 44.5303 -50.2922 64.9451 -62.7793 92.5273C-66.5786 100.942 -71.0877 108.549 -75.0205 116.309C-107.892 182.502 -90.9309 164.16 -111.614 241.351C-128.624 304.835 -168.318 357.292 -156.881 376.284C-148.686 390.079 -125.585 410.495 -91.1774 427.911C-79.0874 434.088 -70.2308 443.111 -61.0754 451.595C-48.2158 463.546 -39.078 470.943 -28.7207 472.636C5.09966 477.832 39.2961 463.18 81.0839 474.377C120.566 484.957 144.943 487.931 168.36 477.196C189.479 467.545 217.142 445.576 232.328 412.531C260.146 351.943 237.344 350.008 240.191 278.863C240.493 269.666 241.403 258.776 243.93 246.463C250.01 216.855 260.558 207.464 260.276 177.389C260.129 173.329 259.183 169.364 258.122 165.832Z" stroke="url(#paint14_linear)" stroke-width="0.488784" stroke-miterlimit="10"/>
<path d="M258.618 162.253C252.59 157.082 251.821 163.989 242.184 156.149C219.195 137.618 220.622 58.5151 167.019 44.1521C126.239 33.2254 114.223 79.7998 69.4832 76.1624C47.4013 74.4209 18.4381 41.2992 -16.9848 40.9314C-40.6833 40.6124 -54.4463 60.2753 -67.2217 87.7803C-71.1263 96.0125 -75.53 103.802 -79.2519 111.928C-111.638 181.498 -88.3933 163.912 -109.192 241.536C-126.512 306.174 -171.059 358.877 -161.478 378.455C-154.523 392.844 -132.473 415.454 -97.0677 433.755C-85.0164 440.077 -75.5061 448.966 -65.7251 456.844C-51.5194 468.383 -41.2078 474.857 -30.0421 475.839C6.53013 478.834 40.9831 459.766 83.0591 471.041C121.821 481.427 146.363 489.549 171.161 480.575C192.72 472.743 221.795 450.689 236.869 415.758C264.374 352.303 236.223 347.852 237.868 277.159C238.064 267.778 238.869 256.705 241.579 244.287C248.141 214.034 259.32 205.741 260.041 174.233C260.076 170.067 259.458 166.035 258.618 162.253Z" stroke="url(#paint15_linear)" stroke-width="0.488784" stroke-miterlimit="10"/>
<path d="M258.969 158.636C253.701 153.513 252.847 159.006 244.402 151.33C223.125 132.176 222.861 58.8054 172.284 45.2532C129.92 33.9017 118.427 83.7093 71.5747 78.7327C49.2153 76.2982 18.892 40.1832 -18.4218 38.2263C-43.4067 36.9441 -58.6001 55.6051 -71.8077 82.9943C-75.7124 91.2264 -80.1548 99.1599 -83.7713 107.469C-115.673 180.417 -85.9995 163.625 -106.953 241.826C-124.582 307.618 -173.983 360.568 -166.258 380.73C-160.649 395.533 -139.4 420.556 -103.035 439.888C-90.8782 446.393 -80.9637 454.926 -70.3463 462.564C-54.9386 473.652 -43.4918 479.348 -31.3351 479.512C8.09449 480.49 42.5932 456.641 85.1015 468.031C123.143 478.224 148.033 491.388 174.03 484.281C196.027 478.268 226.516 456.128 241.439 419.456C268.448 353.239 234.947 346.273 235.717 275.963C235.809 266.4 236.652 255.183 239.439 242.476C246.338 211.541 258.151 204.345 260.017 171.442C260.168 166.844 259.588 162.668 258.969 158.636Z" stroke="url(#paint16_linear)" stroke-width="0.488784" stroke-miterlimit="10"/>
<path d="M259.465 155.058C254.994 149.839 254.017 154.062 246.869 146.734C227.198 126.772 225.283 58.9906 177.587 46.2105C133.782 34.473 122.525 87.4365 73.7043 81.1593C50.8844 78.1376 19.5279 38.9621 -20.0036 35.4832C-46.092 33.132 -62.9372 51.0413 -76.5771 78.3146C-80.6259 86.5081 -84.9242 94.4802 -88.4352 102.972C-119.852 179.297 -83.8559 163.118 -104.964 241.895C-122.903 308.842 -177.157 362.037 -171.431 382.747C-167.063 398.144 -146.826 425.216 -109.502 445.578C-97.3839 452.227 -86.777 460.482 -75.4286 467.698C-58.7803 478.19 -46.0542 483.146 -32.9836 482.782C9.19782 481.559 43.9531 453.294 86.8937 464.8C124.07 474.761 149.308 492.967 176.648 487.767C199.267 483.467 230.986 461.347 245.796 422.789C272.31 353.81 233.499 344.184 233.355 274.403C233.341 264.657 234.079 253.256 237.049 240.444C244.285 208.826 256.586 202.689 259.742 168.431C260.076 163.727 259.862 159.339 259.465 155.058Z" stroke="url(#paint17_linear)" stroke-width="0.488784" stroke-miterlimit="10"/>
<path d="M259.921 151.623C256.21 146.453 255.293 149.3 249.192 142.099C231.31 121.225 227.56 59.1367 182.89 47.1675C137.5 35.0053 126.584 91.3076 75.8724 83.4412C52.5922 79.8322 20.0582 37.5578 -21.5082 32.4511C-48.7388 29.1753 -67.1585 46.0441 -81.0866 73.2401C-85.2408 81.2508 -89.4723 89.55 -92.8779 98.2252C-123.809 177.928 -81.3855 162.542 -102.61 241.753C-120.857 309.854 -180.109 363.256 -176.096 384.59C-173.112 400.544 -153.782 429.847 -115.354 451.278C-103.275 458.071 -92.1581 466.153 -79.9346 472.985C-62.0843 483.026 -48.1843 487.06 -34.1613 486.023C10.8775 482.782 45.7839 449.918 89.0126 461.501C125.469 471.27 150.949 494.334 179.593 491.185C202.652 488.703 235.783 466.498 250.442 426.199C276.643 354.353 232.339 342.172 231.176 272.736C231.056 262.807 231.833 251.263 234.842 238.306C242.377 206.149 255.349 200.965 259.651 165.314C260.167 160.504 260.03 155.828 259.921 151.623Z" stroke="url(#paint18_linear)" stroke-width="0.488784" stroke-miterlimit="10"/>
<path d="M260.273 148.006C257.359 142.741 256.502 144.212 251.409 137.28C235.46 115.533 229.837 59.2831 188.337 48.1634C141.362 35.5764 130.97 95.1118 78.1461 85.9063C54.5496 81.7486 20.8382 36.3752 -22.8017 29.785C-51.28 25.4017 -71.2074 41.5572 -85.5678 68.6375C-89.722 76.6482 -93.9535 84.9474 -97.1483 93.9884C-127.451 177.107 -78.8868 162.439 -100.227 242.082C-118.784 311.337 -182.889 364.986 -180.693 386.76C-179.055 403.127 -160.488 434.7 -121.245 457.123C-109.204 464.06 -97.395 471.864 -84.4404 478.273C-65.3495 487.718 -50.1702 491.012 -35.3775 489.409C12.5185 484.15 47.5761 446.687 91.093 458.348C126.685 467.884 152.552 495.847 182.355 494.709C205.825 493.575 240.331 471.428 254.877 429.243C280.583 354.635 230.929 339.939 228.891 270.887C228.561 260.592 229.376 248.904 232.567 235.841C240.44 203.002 254.045 198.915 259.531 161.725C260.114 157.242 260.304 152.499 260.273 148.006Z" stroke="url(#paint19_linear)" stroke-width="0.488784" stroke-miterlimit="10"/>
<path d="M260.768 144.427C258.652 139.067 257.855 139.162 253.915 132.539C239.938 109.774 232.297 59.3238 193.824 49.0148C145.407 36.0417 135.212 98.8773 80.4587 88.227C56.4017 83.482 21.513 35.0096 -24.1618 26.7917C-53.9264 21.4452 -75.2843 36.5988 -89.9329 63.6018C-94.2312 71.5739 -98.3573 80.056 -101.408 89.1356C-131.081 175.67 -76.1947 161.614 -97.6897 241.834C-116.556 312.244 -185.62 365.955 -185.174 388.497C-184.777 405.46 -167.26 439.226 -127.019 462.534C-114.873 469.655 -102.66 477.102 -88.9741 483.089C-68.6812 492.083 -52.184 494.493 -36.583 492.179C14.2091 484.757 49.4177 442.696 93.2228 454.434C128.094 463.777 154.386 496.493 185.311 497.511C209.508 498.273 245.205 476.291 259.64 432.22C285.032 354.745 229.886 337.494 226.934 268.971C226.498 258.493 227.352 246.66 230.582 233.453C238.792 199.931 252.885 196.903 259.661 158.358C260.206 154.019 260.578 149.17 260.768 144.427Z" stroke="url(#paint20_linear)" stroke-width="0.488784" stroke-miterlimit="10"/>
<path d="M261.12 140.81C260.744 135.297 259.208 134.112 256.095 127.865C244.455 103.87 234.537 59.6142 199.089 50.1161C149.088 36.7183 139.233 102.893 82.5505 90.7975C57.9945 85.6095 21.9671 33.8938 -25.7814 24.1924C-56.8322 17.8827 -79.6592 32.1788 -94.7401 59.066C-99.1825 66.9994 -103.164 75.5202 -106.148 84.9269C-135.193 174.877 -74.1662 161.538 -95.8159 242.336C-114.991 313.9 -188.909 367.857 -190.318 390.985C-191.306 408.504 -174.658 444.357 -133.351 468.878C-121.205 475.999 -108.483 483.274 -93.9606 489.021C-72.4271 497.42 -54.7947 499.051 -38.2412 496.064C15.4468 486.481 50.768 439.965 94.8613 451.78C129.012 460.93 155.691 498.543 187.775 501.573C212.633 503.904 249.705 481.981 263.805 436.274C288.702 356.037 228.062 336.232 224.235 268.093C223.694 257.432 224.587 245.455 227.855 232.104C236.547 197.938 251.167 195.824 259.05 156.029C260.154 150.757 261.651 145.746 261.12 140.81Z" stroke="url(#paint21_linear)" stroke-width="0.488784" stroke-miterlimit="10"/>
<path d="M261.616 137.232C261.672 131.834 260.561 129.063 258.456 123.086C249.441 97.9384 236.814 59.7607 204.248 51.0348C152.806 37.2509 143.109 106.87 84.536 93.1855C59.5196 87.4102 22.3148 32.5954 -27.4685 21.2664C-59.8057 13.9934 -84.063 27.2877 -99.4321 54.0976C-103.836 61.8868 -107.856 70.5518 -110.774 80.2857C-139.006 173.547 -71.8784 161.069 -93.6441 242.3C-113.129 315.018 -192.044 369.182 -195.165 392.934C-197.499 410.865 -181.613 448.988 -139.492 474.501C-127.384 481.766 -114.008 488.907 -98.716 494.087C-76.0859 501.852 -57.0301 502.783 -39.707 499.228C16.8383 487.627 52.3106 436.513 96.6921 448.405C129.978 457.324 157.226 499.728 190.432 504.914C216.056 508.996 254.213 487.055 268.201 439.463C292.786 356.359 226.614 334.144 221.912 266.388C221.121 255.506 222.052 243.384 225.542 229.783C234.571 194.934 249.68 193.88 258.853 152.729C260.245 147.535 261.598 142.485 261.616 137.232Z" stroke="url(#paint22_linear)" stroke-width="0.488784" stroke-miterlimit="10"/>
<path d="M262.073 133.797C262.6 128.372 262.164 124.234 260.923 118.489C255.005 92.161 239.235 59.9456 209.696 52.0305C156.668 37.8218 147.313 110.78 86.8099 95.6504C61.333 89.2878 22.9509 31.3741 -28.7619 18.6001C-62.2027 10.2583 -88.1119 22.8006 -103.913 49.4948C-108.461 57.2453 -112.232 66.1319 -115.149 75.8658C-142.753 172.543 -69.4851 160.783 -91.3667 242.446C-111.199 316.462 -195.074 370.69 -199.906 395.065C-203.625 413.554 -188.646 453.908 -145.421 480.49C-133.208 487.938 -119.427 494.723 -103.299 499.663C-79.467 506.977 -59.0932 507.024 -40.9618 502.758C18.4796 488.994 54.0643 433.426 98.734 445.395C131.3 454.121 159.117 501.317 193.299 508.621C219.585 514.272 259.078 492.534 272.77 443.161C297.147 357.373 225.194 332.526 219.8 265.049C218.903 253.984 219.873 241.718 223.402 227.973C232.768 192.441 248.366 192.445 258.829 149.939C260.192 144.273 261.584 139.079 262.073 133.797Z" stroke="url(#paint23_linear)" stroke-width="0.488784" stroke-miterlimit="10"/>
<path d="M262.424 130.18C268.364 98.2148 246.988 61.5592 215.143 53.0263C160.531 38.393 151.516 114.689 89.1226 97.9712C63.1853 91.0213 23.6259 30.0086 -30.1219 15.6069C-74.9356 3.59909 -107.424 26.2859 -119.447 71.1574C-146.239 171.145 -66.8314 160.102 -88.8677 242.342C-109.01 317.513 -197.699 371.842 -204.387 396.803C-210.843 420.898 -185.932 483.553 -107.688 504.518C-0.48121 533.244 42.1784 425.911 100.969 441.664C132.671 450.158 161.057 502.146 196.361 511.606C223.451 518.864 263.991 497.253 277.715 446.033C305.473 342.439 195.437 322.542 221.494 225.296C231.197 189.082 247.322 190 259.036 146.283C260.284 141.05 261.426 135.634 262.424 130.18Z" stroke="url(#paint24_linear)" stroke-width="0.488784" stroke-miterlimit="10"/>
</g>
<defs>
<linearGradient id="paint0_linear" x1="125.807" y1="40.036" x2="0.986567" y2="505.874" gradientUnits="userSpaceOnUse">
<stop stop-color="#FFD110" stop-opacity="0"/>
<stop offset="0.286458" stop-color="#109BFF"/>
<stop offset="0.614583" stop-color="#FF0469"/>
<stop offset="1" stop-color="#04DA00" stop-opacity="0"/>
</linearGradient>
<linearGradient id="paint1_linear" x1="125.939" y1="39.6079" x2="1.96895" y2="502.272" gradientUnits="userSpaceOnUse">
<stop stop-color="#FFD110" stop-opacity="0"/>
<stop offset="0.286458" stop-color="#109BFF"/>
<stop offset="0.614583" stop-color="#FF0469"/>
<stop offset="1" stop-color="#04DA00" stop-opacity="0"/>
</linearGradient>
<linearGradient id="paint2_linear" x1="126.111" y1="39.1898" x2="2.95192" y2="498.824" gradientUnits="userSpaceOnUse">
<stop stop-color="#FFD110" stop-opacity="0"/>
<stop offset="0.286458" stop-color="#109BFF"/>
<stop offset="0.614583" stop-color="#FF0469"/>
<stop offset="1" stop-color="#04DA00" stop-opacity="0"/>
</linearGradient>
<linearGradient id="paint3_linear" x1="125.806" y1="38.6446" x2="3.53595" y2="494.961" gradientUnits="userSpaceOnUse">
<stop stop-color="#FFD110" stop-opacity="0"/>
<stop offset="0.286458" stop-color="#109BFF"/>
<stop offset="0.614583" stop-color="#FF0469"/>
<stop offset="1" stop-color="#04DA00" stop-opacity="0"/>
</linearGradient>
<linearGradient id="paint4_linear" x1="125.922" y1="38.2119" x2="4.38686" y2="491.787" gradientUnits="userSpaceOnUse">
<stop stop-color="#FFD110" stop-opacity="0"/>
<stop offset="0.286458" stop-color="#109BFF"/>
<stop offset="0.614583" stop-color="#FF0469"/>
<stop offset="1" stop-color="#04DA00" stop-opacity="0"/>
</linearGradient>
<linearGradient id="paint5_linear" x1="126.096" y1="37.7949" x2="5.41123" y2="488.196" gradientUnits="userSpaceOnUse">
<stop stop-color="#FFD110" stop-opacity="0"/>
<stop offset="0.286458" stop-color="#109BFF"/>
<stop offset="0.614583" stop-color="#FF0469"/>
<stop offset="1" stop-color="#04DA00" stop-opacity="0"/>
</linearGradient>
<linearGradient id="paint6_linear" x1="126.795" y1="37.5186" x2="6.92205" y2="484.89" gradientUnits="userSpaceOnUse">
<stop stop-color="#FFD110" stop-opacity="0"/>
<stop offset="0.286458" stop-color="#109BFF"/>
<stop offset="0.614583" stop-color="#FF0469"/>
<stop offset="1" stop-color="#04DA00" stop-opacity="0"/>
</linearGradient>
<linearGradient id="paint7_linear" x1="126.667" y1="37.0207" x2="7.72228" y2="480.93" gradientUnits="userSpaceOnUse">
<stop stop-color="#FFD110" stop-opacity="0"/>
<stop offset="0.286458" stop-color="#109BFF"/>
<stop offset="0.614583" stop-color="#FF0469"/>
<stop offset="1" stop-color="#04DA00" stop-opacity="0"/>
</linearGradient>
<linearGradient id="paint8_linear" x1="127.388" y1="36.75" x2="9.29317" y2="477.486" gradientUnits="userSpaceOnUse">
<stop stop-color="#FFD110" stop-opacity="0"/>
<stop offset="0.286458" stop-color="#109BFF"/>
<stop offset="0.614583" stop-color="#FF0469"/>
<stop offset="1" stop-color="#04DA00" stop-opacity="0"/>
</linearGradient>
<linearGradient id="paint9_linear" x1="128.24" y1="36.514" x2="10.8653" y2="474.562" gradientUnits="userSpaceOnUse">
<stop stop-color="#FFD110" stop-opacity="0"/>
<stop offset="0.286458" stop-color="#109BFF"/>
<stop offset="0.614583" stop-color="#FF0469"/>
<stop offset="1" stop-color="#04DA00" stop-opacity="0"/>
</linearGradient>
<linearGradient id="paint10_linear" x1="129.155" y1="36.4505" x2="12.1991" y2="472.936" gradientUnits="userSpaceOnUse">
<stop stop-color="#FFD110" stop-opacity="0"/>
<stop offset="0.286458" stop-color="#109BFF"/>
<stop offset="0.614583" stop-color="#FF0469"/>
<stop offset="1" stop-color="#04DA00" stop-opacity="0"/>
</linearGradient>
<linearGradient id="paint11_linear" x1="129.927" y1="36.0391" x2="12.5946" y2="473.93" gradientUnits="userSpaceOnUse">
<stop stop-color="#FFD110" stop-opacity="0"/>
<stop offset="0.286458" stop-color="#109BFF"/>
<stop offset="0.614583" stop-color="#FF0469"/>
<stop offset="1" stop-color="#04DA00" stop-opacity="0"/>
</linearGradient>
<linearGradient id="paint12_linear" x1="130.787" y1="35.8048" x2="12.69" y2="476.547" gradientUnits="userSpaceOnUse">
<stop stop-color="#FFD110" stop-opacity="0"/>
<stop offset="0.286458" stop-color="#109BFF"/>
<stop offset="0.614583" stop-color="#FF0469"/>
<stop offset="1" stop-color="#04DA00" stop-opacity="0"/>
</linearGradient>
<linearGradient id="paint13_linear" x1="131.75" y1="35.5984" x2="12.6859" y2="479.951" gradientUnits="userSpaceOnUse">
<stop stop-color="#FFD110" stop-opacity="0"/>
<stop offset="0.286458" stop-color="#109BFF"/>
<stop offset="0.614583" stop-color="#FF0469"/>
<stop offset="1" stop-color="#04DA00" stop-opacity="0"/>
</linearGradient>
<linearGradient id="paint14_linear" x1="132.665" y1="35.5347" x2="12.5623" y2="483.766" gradientUnits="userSpaceOnUse">
<stop stop-color="#FFD110" stop-opacity="0"/>
<stop offset="0.286458" stop-color="#109BFF"/>
<stop offset="0.614583" stop-color="#FF0469"/>
<stop offset="1" stop-color="#04DA00" stop-opacity="0"/>
</linearGradient>
<linearGradient id="paint15_linear" x1="133.739" y1="35.2037" x2="12.4947" y2="487.695" gradientUnits="userSpaceOnUse">
<stop stop-color="#FFD110" stop-opacity="0"/>
<stop offset="0.286458" stop-color="#109BFF"/>
<stop offset="0.614583" stop-color="#FF0469"/>
<stop offset="1" stop-color="#04DA00" stop-opacity="0"/>
</linearGradient>
<linearGradient id="paint16_linear" x1="134.675" y1="35.1443" x2="12.1619" y2="492.369" gradientUnits="userSpaceOnUse">
<stop stop-color="#FFD110" stop-opacity="0"/>
<stop offset="0.286458" stop-color="#109BFF"/>
<stop offset="0.614583" stop-color="#FF0469"/>
<stop offset="1" stop-color="#04DA00" stop-opacity="0"/>
</linearGradient>
<linearGradient id="paint17_linear" x1="135.279" y1="34.8423" x2="11.5144" y2="496.739" gradientUnits="userSpaceOnUse">
<stop stop-color="#FFD110" stop-opacity="0"/>
<stop offset="0.286458" stop-color="#109BFF"/>
<stop offset="0.614583" stop-color="#FF0469"/>
<stop offset="1" stop-color="#04DA00" stop-opacity="0"/>
</linearGradient>
<linearGradient id="paint18_linear" x1="136.179" y1="34.619" x2="11.0893" y2="501.459" gradientUnits="userSpaceOnUse">
<stop stop-color="#FFD110" stop-opacity="0"/>
<stop offset="0.286458" stop-color="#109BFF"/>
<stop offset="0.614583" stop-color="#FF0469"/>
<stop offset="1" stop-color="#04DA00" stop-opacity="0"/>
</linearGradient>
<linearGradient id="paint19_linear" x1="136.982" y1="34.3701" x2="10.4998" y2="506.408" gradientUnits="userSpaceOnUse">
<stop stop-color="#FFD110" stop-opacity="0"/>
<stop offset="0.286458" stop-color="#109BFF"/>
<stop offset="0.614583" stop-color="#FF0469"/>
<stop offset="1" stop-color="#04DA00" stop-opacity="0"/>
</linearGradient>
<linearGradient id="paint20_linear" x1="137.938" y1="34.0074" x2="10.0536" y2="511.28" gradientUnits="userSpaceOnUse">
<stop stop-color="#FFD110" stop-opacity="0"/>
<stop offset="0.286458" stop-color="#109BFF"/>
<stop offset="0.614583" stop-color="#FF0469"/>
<stop offset="1" stop-color="#04DA00" stop-opacity="0"/>
</linearGradient>
<linearGradient id="paint21_linear" x1="138.438" y1="33.8313" x2="8.86378" y2="517.41" gradientUnits="userSpaceOnUse">
<stop stop-color="#FFD110" stop-opacity="0"/>
<stop offset="0.286458" stop-color="#109BFF"/>
<stop offset="0.614583" stop-color="#FF0469"/>
<stop offset="1" stop-color="#04DA00" stop-opacity="0"/>
</linearGradient>
<linearGradient id="paint22_linear" x1="139.026" y1="33.5246" x2="7.88727" y2="522.94" gradientUnits="userSpaceOnUse">
<stop stop-color="#FFD110" stop-opacity="0"/>
<stop offset="0.286458" stop-color="#109BFF"/>
<stop offset="0.614583" stop-color="#FF0469"/>
<stop offset="1" stop-color="#04DA00" stop-opacity="0"/>
</linearGradient>
<linearGradient id="paint23_linear" x1="139.454" y1="33.175" x2="6.56693" y2="529.117" gradientUnits="userSpaceOnUse">
<stop stop-color="#FFD110" stop-opacity="0"/>
<stop offset="0.286458" stop-color="#109BFF"/>
<stop offset="0.614583" stop-color="#FF0469"/>
<stop offset="1" stop-color="#04DA00" stop-opacity="0"/>
</linearGradient>
<linearGradient id="paint24_linear" x1="139.648" y1="32.7627" x2="5.16313" y2="534.668" gradientUnits="userSpaceOnUse">
<stop stop-color="#FFD110" stop-opacity="0"/>
<stop offset="0.286458" stop-color="#109BFF"/>
<stop offset="0.614583" stop-color="#FF0469"/>
<stop offset="1" stop-color="#04DA00" stop-opacity="0"/>
</linearGradient>
</defs>
</svg>
