<svg width="874" height="945" viewBox="0 0 874 945" fill="none" xmlns="http://www.w3.org/2000/svg">
<g opacity="0.33">
<path d="M227.776 635.331C319.786 635.331 346.036 924.451 531.679 924.451C601.769 924.451 649.397 848.852 649.397 792.491C649.397 755.91 619.9 710.388 619.9 656.195C619.9 546.725 835.311 604.712 835.311 447.822C835.311 358.946 762.244 284.159 691.613 284.159C642.361 284.159 583.096 324.533 546.292 324.533C493.522 324.533 516.795 213.979 514.089 183.902C507.594 112.096 429.115 49.5029 359.025 49.5029C264.309 49.5029 268.91 181.734 268.91 244.869C268.91 486.571 80.29 331.578 80.29 535.615C80.29 576.802 97.8801 676.247 154.168 676.247C187.454 676.247 175.818 635.331 227.776 635.331Z" stroke="url(#paint0_linear)" stroke-miterlimit="10"/>
<path d="M154.71 682.479C186.914 683.563 175.818 643.731 225.612 644.544C314.645 645.898 341.707 925.264 521.667 925.264C558.2 925.264 585.262 903.587 609.076 879.742C633.161 855.355 649.939 825.007 652.916 796.826C656.975 761.872 629.102 716.621 629.643 662.698C629.914 645.357 635.326 632.079 644.256 620.97C691.885 561.086 830.982 581.409 830.982 448.906C830.982 357.862 766.575 280.637 698.65 278.469C651.563 277.114 592.839 312.611 553.6 311.798C530.056 311.256 521.126 290.391 517.337 264.65C512.736 232.405 517.066 192.844 514.36 177.399C503.535 111.012 427.763 56.2771 356.861 56.2771C263.769 56.2771 264.581 179.837 262.145 240.263C259.439 308.546 242.12 346.481 219.658 370.868C167.159 428.042 81.9143 394.713 84.6205 537.512C84.8911 549.435 86.5148 566.235 89.7622 584.118C96.257 621.783 109.247 661.615 136.038 677.331C141.721 680.311 147.945 682.208 154.71 682.479Z" stroke="url(#paint1_linear)" stroke-miterlimit="10"/>
<path d="M155.792 688.982C186.642 691.421 176.088 652.402 223.988 654.028C309.773 656.737 337.647 926.077 511.653 926.077C550.893 926.077 576.601 900.335 603.934 876.49C629.642 853.729 650.209 828.529 656.704 800.891C664.552 767.833 638.573 722.853 639.926 668.66C640.196 651.318 645.879 638.041 653.998 626.389C700.544 561.357 826.651 583.035 826.651 449.448C826.651 356.236 770.634 276.572 705.686 272.508C660.763 269.798 602.581 300.417 561.176 298.792C537.632 297.708 527.89 277.927 522.749 253.269C516.254 222.379 518.689 185.257 514.901 171.167C499.205 110.47 425.868 62.7804 354.425 62.7804C262.686 62.7804 259.709 177.399 255.108 235.386C249.967 300.688 231.294 339.707 209.645 367.075C160.122 429.397 83.5374 397.694 88.9497 539.138C89.4909 551.603 91.1146 568.402 94.362 586.557C100.857 625.576 111.411 664.595 137.39 682.479C143.073 686.002 149.027 688.44 155.792 688.982Z" stroke="url(#paint2_linear)" stroke-miterlimit="10"/>
<path d="M156.605 695.485C185.831 699.007 176.089 661.343 222.094 663.511C304.903 667.575 333.317 926.89 501.912 926.89C544.128 926.89 568.213 897.083 599.063 873.238C626.395 852.103 650.751 832.052 660.764 805.226C672.13 774.336 648.315 729.085 650.48 675.162C651.022 657.821 656.704 644.543 664.282 632.621C709.475 562.712 823.134 585.202 823.134 450.532C823.134 355.152 775.505 272.778 713.805 266.817C670.777 262.482 613.406 288.494 569.836 285.785C546.293 284.43 535.739 265.191 529.244 241.888C521.125 212.353 521.396 177.669 516.525 164.934C496.229 109.928 425.327 69.825 353.343 69.825C262.957 69.825 256.462 175.773 249.426 231.05C241.578 293.372 221.823 333.204 200.986 363.823C154.44 431.293 86.7854 401.216 94.3627 541.305C95.1745 554.041 97.0688 571.112 100.046 589.808C106.27 629.911 114.659 667.846 139.826 688.44C144.427 691.962 150.38 694.672 156.605 695.485Z" stroke="url(#paint3_linear)" stroke-miterlimit="10"/>
<path d="M157.686 701.989C185.56 706.595 176.359 670.015 220.199 672.724C300.031 678.144 329.257 927.703 492.169 927.703C537.362 927.703 559.552 893.561 594.191 869.987C622.877 850.478 651.291 835.846 664.822 809.291C679.436 780.569 658.328 735.317 660.763 681.124C661.575 663.782 666.987 650.234 674.294 638.041C718.404 562.712 819.074 586.557 819.074 451.074C819.074 353.527 779.834 268.714 721.111 260.585C680.247 254.895 623.418 276.031 577.413 272.508C553.869 270.611 542.504 252.186 534.926 229.966C525.184 201.786 523.29 169.541 517.336 157.889C492.439 108.845 423.973 75.7869 351.448 75.7869C262.686 75.7869 252.402 172.793 242.931 225.631C232.377 284.701 211.81 325.888 191.513 359.217C147.674 431.565 88.9497 403.384 98.9626 542.119C99.7744 555.125 102.21 572.467 104.916 591.435C110.328 633.434 116.553 670.015 141.179 693.318C145.779 697.653 151.462 700.905 157.686 701.989Z" stroke="url(#paint4_linear)" stroke-miterlimit="10"/>
<path d="M158.499 708.22C184.748 713.911 176.63 678.414 218.305 681.937C294.89 688.711 324.928 928.516 482.156 928.516C530.056 928.516 550.622 890.038 589.05 866.735C618.818 848.852 651.021 839.639 668.341 813.626C685.931 787.071 667.529 741.82 670.776 687.627C671.859 670.556 677.271 656.737 684.037 644.002C726.794 563.254 815.015 588.725 815.015 452.158C815.015 352.443 784.165 265.192 728.418 254.895C689.449 247.85 633.431 264.108 585.261 259.501C561.718 257.334 549.54 239.45 540.61 218.585C528.973 191.76 525.184 161.954 518.148 151.657C488.651 108.573 422.621 82.5607 349.554 82.5607C262.145 82.5607 248.343 170.624 236.436 221.024C223.447 276.843 201.527 319.114 181.772 355.694C140.638 432.919 91.3857 406.636 103.563 544.286C104.646 557.564 107.081 575.176 109.788 594.415C115.471 637.227 119.259 672.724 143.073 698.466C147.133 703.343 152.545 707.137 158.499 708.22Z" stroke="url(#paint5_linear)" stroke-miterlimit="10"/>
<path d="M159.311 714.724C183.937 721.227 176.631 687.085 216.141 691.421C290.019 699.55 320.599 929.329 472.144 929.329C523.02 929.329 541.422 886.516 583.909 863.484C614.759 846.955 650.751 843.432 672.13 817.691C692.426 793.033 677.001 747.782 680.79 693.588C681.872 676.518 687.285 662.698 693.509 649.692C734.913 563.525 810.415 590.351 810.415 452.971C810.415 351.088 787.954 261.127 735.184 248.934C698.109 240.534 642.903 251.915 592.298 246.495C568.754 243.786 555.765 226.986 545.481 206.934C532.221 181.192 526.268 154.096 518.149 145.154C484.593 108.303 420.456 89.0641 346.578 89.0641C260.792 89.0641 243.202 167.915 228.86 216.147C213.434 268.985 190.161 312.069 171.218 351.63C132.52 433.461 92.7393 409.346 107.082 545.641C108.435 559.19 111.141 577.073 113.577 596.854C118.989 641.021 120.342 675.163 143.615 703.614C148.486 709.034 153.628 713.098 159.311 714.724Z" stroke="url(#paint6_linear)" stroke-miterlimit="10"/>
<path d="M160.393 721.227C184.478 724.208 176.901 695.756 214.516 700.905C285.418 710.388 316.539 930.142 462.672 930.142C516.254 930.142 532.762 882.723 579.308 860.503C611.241 845.058 650.751 847.497 676.459 822.297C699.462 799.807 687.284 754.556 691.614 700.363C692.967 683.292 698.379 669.202 704.062 655.924C744.114 564.338 807.167 592.518 807.167 454.326C807.167 350.275 793.366 257.876 743.302 243.514C708.392 233.489 653.728 240.534 600.957 234.031C577.143 231.05 563.612 214.792 551.976 196.095C536.821 171.709 529.244 147.051 519.772 139.193C482.427 108.303 419.915 96.38 345.495 96.38C261.062 96.38 239.954 166.289 223.447 212.082C205.586 261.669 180.689 305.837 162.829 348.649C126.566 435.358 96.5274 413.139 112.764 548.08C114.388 562.17 117.094 580.054 119.53 600.105C124.672 645.628 123.86 678.143 146.321 709.576C149.839 714.453 154.981 718.246 160.393 721.227Z" stroke="url(#paint7_linear)" stroke-miterlimit="10"/>
<path d="M161.205 727.73C183.937 730.982 177.171 704.698 212.622 710.118C280.547 720.956 312.48 930.955 452.659 930.955C509.218 930.955 523.561 878.929 574.166 857.252C606.911 843.162 649.939 851.02 680.248 826.362C705.686 805.768 696.756 760.517 701.627 706.595C703.25 689.795 708.392 675.434 713.804 661.886C752.232 564.609 802.837 594.415 802.837 455.139C802.837 348.92 797.425 254.082 750.338 237.824C717.322 226.444 663.199 228.611 608.534 221.024C584.72 217.773 570.377 202.057 557.388 184.715C540.61 161.683 530.867 139.464 520.313 132.961C479.45 108.032 418.291 103.154 343.33 103.154C260.25 103.154 235.624 163.851 216.681 207.476C196.385 253.811 170.135 299.063 153.086 345.127C119.259 436.442 98.9629 416.391 117.094 549.977C118.989 564.338 121.965 582.493 124.13 603.086C129.001 649.963 126.025 680.853 147.674 715.537C151.192 720.143 156.334 724.208 161.205 727.73Z" stroke="url(#paint8_linear)" stroke-miterlimit="10"/>
<path d="M162.288 734.234C183.666 738.027 177.442 713.369 210.728 719.601C275.676 731.795 308.15 931.768 442.917 931.768C502.453 931.768 514.631 875.136 569.295 854C603.122 840.994 649.398 854.271 684.037 830.426C711.64 811.459 706.227 766.749 711.91 712.556C713.805 695.756 718.676 681.124 723.817 667.305C760.351 564.338 799.049 596.041 799.049 455.681C799.049 347.294 802.026 249.747 757.915 231.592C727.065 218.857 673.483 216.418 616.383 207.747C592.568 204.225 577.143 189.05 563.071 172.792C544.398 151.115 533.033 131.335 520.855 125.915C476.474 106.677 416.938 109.116 341.165 109.116C259.71 109.116 231.565 160.87 209.916 202.057C187.455 244.869 159.311 291.475 143.344 340.52C111.953 436.442 101.399 418.558 121.695 550.79C123.86 565.422 126.837 583.848 129.002 604.712C133.602 652.944 128.731 682.208 149.298 719.872C152.816 725.834 157.416 730.44 162.288 734.234Z" stroke="url(#paint9_linear)" stroke-miterlimit="10"/>
<path d="M163.099 740.466C183.125 744.53 177.713 722.04 208.834 728.814C271.076 742.363 304.091 932.31 432.904 932.31C495.146 932.31 505.159 870.8 564.154 850.478C598.793 838.555 648.586 857.252 687.826 834.491C717.864 817.149 715.699 772.711 722.194 718.789C724.088 701.989 729.23 687.356 733.56 672.995C768.469 564.338 794.719 597.667 794.719 456.494C794.719 345.94 806.085 245.953 765.222 225.631C736.266 211.27 683.496 204.225 624.231 194.741C600.416 190.947 584.179 176.315 569.025 161.412C548.458 141.09 535.468 123.477 521.937 119.683C474.309 106.135 415.856 115.89 339.542 115.89C259.439 115.89 228.047 158.431 203.692 197.451C179.066 237.012 149.298 284.701 134.143 336.998C104.917 437.526 104.646 421.81 126.566 552.958C129.002 567.861 132.249 586.557 134.143 607.693C138.473 657.008 131.437 684.918 151.192 725.563C154.169 731.524 158.499 736.401 163.099 740.466Z" stroke="url(#paint10_linear)" stroke-miterlimit="10"/>
<path d="M163.911 746.969C182.583 751.575 177.712 730.711 206.939 738.298C266.475 753.472 299.76 933.393 423.162 933.393C488.38 933.393 496.228 867.006 559.553 847.497C595.274 836.658 648.315 860.503 692.155 838.826C724.358 822.839 725.711 779.214 732.747 725.02C734.912 708.492 739.783 693.588 743.843 678.956C776.858 564.609 791.201 599.563 791.201 457.577C791.201 344.856 810.956 242.159 773.069 219.94C746.278 204.224 694.049 192.573 632.349 181.734C608.534 177.399 591.215 163.85 574.978 149.76C552.516 130.793 537.903 115.618 523.019 113.18C471.873 104.78 414.773 122.664 337.917 122.664C259.438 122.664 224.529 155.992 197.467 192.844C170.676 228.882 139.014 277.656 124.671 333.204C97.8802 438.61 107.622 424.79 131.166 554.583C133.872 569.757 137.12 588.725 139.014 610.402C143.073 661.073 134.143 687.356 152.815 730.982C155.522 737.214 159.852 742.362 163.911 746.969Z" stroke="url(#paint11_linear)" stroke-miterlimit="10"/>
<path d="M164.994 753.472C182.042 758.35 178.254 739.653 205.045 747.782C261.874 764.582 295.702 934.207 413.42 934.207C481.345 934.207 487.028 862.672 554.682 844.246C591.215 834.22 647.503 863.484 695.944 843.162C730.583 828.801 735.183 785.717 743.031 731.524C745.467 714.995 750.067 699.821 753.856 684.918C784.706 564.88 787.142 601.461 787.142 458.391C787.142 343.501 815.286 238.367 780.376 213.98C755.48 196.638 704.062 180.651 640.197 168.728C616.112 164.122 598.251 151.116 580.661 138.38C556.306 120.767 540.069 107.761 523.832 106.677C469.438 103.426 413.42 129.167 336.023 129.167C258.898 129.167 221.011 153.554 190.973 187.967C162.287 221.025 128.46 270.882 115.471 329.411C90.8446 439.423 110.87 427.772 136.308 556.209C139.285 571.654 142.803 590.893 144.427 612.841C148.215 664.867 137.661 689.524 154.981 736.131C157.146 742.634 160.934 748.324 164.994 753.472Z" stroke="url(#paint12_linear)" stroke-miterlimit="10"/>
<path d="M165.805 759.975C181.501 765.394 178.254 748.595 203.151 756.995C257.274 775.42 291.372 935.019 403.407 935.019C474.309 935.019 477.827 858.336 549.54 841.265C587.156 832.323 646.692 866.465 699.733 847.497C736.536 834.22 744.926 791.949 753.044 737.756C755.48 721.227 760.08 706.053 763.598 690.608C792.283 564.88 783.082 603.357 783.082 459.203C783.082 342.146 819.616 234.302 787.683 208.289C764.681 189.592 714.075 168.999 648.045 155.722C623.96 150.844 605.017 138.38 586.344 126.999C560.094 110.741 542.233 99.9027 524.643 100.445C466.461 102.341 412.067 135.941 334.129 135.941C258.356 135.941 217.493 151.115 184.478 183.36C153.898 213.166 117.906 264.108 105.999 325.888C83.5379 440.507 113.847 431.023 140.909 558.106C144.427 574.093 147.674 593.331 149.298 615.55C152.816 668.931 140.367 691.963 156.334 741.55C158.499 748.324 162.287 754.285 165.805 759.975Z" stroke="url(#paint13_linear)" stroke-miterlimit="10"/>
<path d="M166.887 766.207C181.23 771.898 178.794 757.537 201.256 766.207C252.673 786.259 287.312 935.561 393.664 935.561C467.542 935.561 468.625 853.729 544.668 837.742C583.096 829.613 646.15 868.903 703.791 851.562C743.03 839.639 754.667 798.181 763.597 743.988C766.303 727.459 770.633 712.014 773.881 696.569C800.401 565.151 779.293 605.254 779.293 460.287C779.293 341.062 824.215 230.508 795.259 202.599C774.422 182.276 724.358 157.347 655.892 142.986C631.807 137.838 612.052 126.186 592.026 115.619C563.882 100.715 544.398 92.0446 525.454 93.9413C463.754 100.715 410.713 142.444 332.234 142.444C258.085 142.444 213.974 148.676 177.982 178.483C145.508 205.308 107.351 256.792 96.2562 321.824C75.9599 441.049 116.823 433.732 145.238 559.732C149.026 575.989 152.544 595.499 153.898 618.26C157.145 672.995 143.073 694.402 157.686 746.969C159.851 754.014 163.369 760.517 166.887 766.207Z" stroke="url(#paint14_linear)" stroke-miterlimit="10"/>
<path d="M167.7 772.71C180.69 778.942 178.795 766.478 199.362 775.691C248.344 797.368 282.983 936.645 383.652 936.645C460.237 936.645 459.425 849.394 539.528 834.761C579.038 827.445 645.339 871.884 707.581 855.897C749.256 845.329 764.14 804.413 773.611 750.22C776.588 733.962 780.647 718.246 783.353 702.259C807.438 565.151 774.964 606.879 774.964 461.1C774.964 339.707 828.276 226.443 802.296 196.637C783.353 174.689 734.101 145.425 663.47 129.98C639.385 124.56 618.548 113.451 597.71 104.238C567.401 90.6896 546.293 84.1864 526.267 87.7089C460.778 99.6314 409.361 149.218 330.341 149.218C257.545 149.218 210.728 146.508 171.489 173.876C137.391 197.721 96.7983 250.017 86.7855 318.301C68.3835 442.403 119.801 436.984 150.11 561.628C154.169 578.157 157.958 597.937 159.04 620.969C161.746 677.059 146.051 696.84 159.581 752.388C161.476 759.704 164.453 766.478 167.7 772.71Z" stroke="url(#paint15_linear)" stroke-miterlimit="10"/>
<path d="M168.782 779.214C180.419 785.717 179.336 775.691 197.738 785.175C244.014 808.749 278.923 937.187 373.91 937.187C453.471 937.187 450.224 844.517 534.656 831.239C574.978 825.007 645.068 874.052 711.369 859.962C755.75 850.478 773.611 810.646 783.894 756.453C786.871 740.195 790.93 724.208 793.366 707.95C815.015 565.151 770.905 608.506 770.905 461.642C770.905 338.082 832.605 222.108 809.603 190.405C792.825 167.102 743.843 133.232 671.047 116.432C646.691 110.742 625.313 100.445 603.122 92.0449C570.919 79.8515 548.187 75.245 526.808 80.6643C457.26 97.4642 408.007 155.451 328.175 155.451C256.733 155.451 206.939 144.07 164.723 168.728C129.001 189.593 85.9733 242.702 77.0429 313.966C60.8059 442.675 122.777 439.152 154.439 562.712C158.769 579.512 162.558 599.564 163.64 623.138C166.076 680.582 148.756 698.737 160.934 757.266C162.829 765.395 165.805 772.44 168.782 779.214Z" stroke="url(#paint16_linear)" stroke-miterlimit="10"/>
<path d="M169.594 785.717C179.878 792.762 179.607 784.904 195.573 794.388C239.413 820.129 274.594 938 364.168 937.999C446.435 937.999 441.293 839.91 529.785 827.987C571.19 822.568 644.527 876.49 715.428 864.026C762.245 855.897 783.353 816.607 794.448 762.414C797.696 746.156 801.484 730.169 803.649 713.64C822.863 565.151 767.387 610.402 767.387 462.455C767.387 336.727 837.476 218.044 817.721 184.444C802.838 159.515 754.668 121.58 679.707 103.425C655.351 97.4639 632.89 87.9801 609.617 80.664C575.519 70.0964 550.893 67.3867 528.161 74.1609C454.824 96.1091 407.196 161.954 326.552 161.954C256.733 161.954 203.962 141.902 158.499 163.851C120.883 182.005 75.6901 235.656 67.8422 310.172C53.7701 443.487 126.295 442.132 159.311 564.338C163.911 581.409 167.97 601.731 168.782 625.576C170.947 684.376 152.275 700.905 162.829 762.414C164.452 770.814 166.888 778.401 169.594 785.717Z" stroke="url(#paint17_linear)" stroke-miterlimit="10"/>
<path d="M170.406 791.949C179.337 799.265 179.607 793.846 193.679 803.601C234.813 831.781 270.534 938.812 354.426 938.812C439.67 938.812 432.363 835.033 524.914 825.007C567.401 820.4 644.256 879.2 719.488 868.632C768.74 861.587 793.095 823.381 804.732 769.188C808.25 753.201 811.768 736.672 813.662 719.872C830.441 565.693 763.328 612.57 763.328 463.81C763.328 335.914 842.077 214.521 825.028 179.025C812.309 152.47 764.681 110.199 687.284 90.6898C662.929 84.4576 639.656 75.5157 615.03 69.2835C579.038 60.0707 552.788 59.5287 528.703 67.9287C451.306 94.7543 405.572 168.728 324.387 168.728C255.921 168.728 200.445 140.277 151.734 159.244C112.494 174.418 64.8655 228.882 58.1001 306.379C45.9224 444.571 129.272 445.113 163.911 566.235C168.782 583.576 172.842 604.17 173.654 628.286C175.548 688.169 155.252 703.343 164.453 767.833C165.806 776.504 168.241 784.633 170.406 791.949Z" stroke="url(#paint18_linear)" stroke-miterlimit="10"/>
<path d="M171.488 798.452C179.066 806.31 179.878 803.33 192.055 813.085C230.212 843.704 266.475 939.625 344.413 939.625C432.634 939.625 422.892 830.426 519.772 821.755C563.071 817.962 643.444 881.639 723.006 872.697C774.964 867.007 802.296 829.342 814.745 775.149C818.263 759.162 821.781 742.633 823.134 725.292C837.206 565.422 758.998 613.925 758.998 464.352C758.998 334.288 846.136 210.186 832.064 173.064C821.51 145.154 774.152 98.5479 694.861 77.6836C670.506 71.1804 646.15 63.0515 620.442 57.9031C582.555 50.3161 554.411 51.6709 529.244 61.4256C447.788 93.1286 403.948 175.231 322.222 175.231C255.38 175.231 196.926 138.38 145.239 154.367C104.646 167.373 54.582 222.379 48.899 303.127C38.8862 445.926 132.79 448.365 168.782 568.402C174.195 586.286 178.254 607.151 178.795 631.537C180.419 692.776 158.499 706.324 166.347 774.065C167.429 782.194 169.324 790.594 171.488 798.452Z" stroke="url(#paint19_linear)" stroke-miterlimit="10"/>
<path d="M172.3 804.955C178.524 813.355 179.878 812.813 189.89 822.568C225.071 855.897 262.145 940.709 334.4 940.709C425.327 940.709 413.69 825.82 514.631 818.774C559.012 815.794 642.903 884.348 726.794 877.303C781.459 872.697 811.768 836.116 824.757 781.923C828.546 765.936 831.794 749.136 832.876 731.794C844.242 566.234 754.668 616.634 754.668 465.977C754.668 333.746 850.466 207.205 839.1 167.915C830.44 138.38 783.894 87.438 702.439 65.4898C677.812 58.7156 652.916 51.3996 626.125 47.3351C586.344 41.1029 556.306 44.6254 530.056 56.006C444.541 92.8573 402.595 183.089 320.328 183.089C254.838 183.089 193.408 138.109 138.744 150.844C95.9863 160.87 43.7572 216.147 39.1568 300.146C31.0383 447.822 135.767 452.158 173.112 570.841C178.795 588.996 182.854 610.131 183.396 634.789C184.749 697.382 161.476 709.304 167.7 780.026C168.782 787.884 170.406 796.555 172.3 804.955Z" stroke="url(#paint20_linear)" stroke-miterlimit="10"/>
<path d="M173.383 811.459C176.63 820.943 179.878 822.297 188.267 831.781C219.929 868.362 258.086 941.251 324.658 941.251C418.562 941.251 404.76 820.672 509.76 815.252C555.223 812.814 642.633 886.516 730.854 881.097C788.225 877.574 821.51 841.807 835.312 787.614C839.371 771.627 842.348 754.827 843.16 736.943C851.82 565.693 751.15 617.718 751.15 465.977C751.15 331.578 855.338 202.328 846.948 161.141C840.454 129.98 794.449 74.9739 710.557 51.3999C685.931 44.6257 660.223 37.8516 632.079 34.6C590.404 29.9935 558.741 35.4129 531.139 48.4192C441.564 90.4189 401.513 188.508 318.704 188.509C254.568 188.509 190.161 135.128 132.52 144.883C87.8681 152.47 33.2035 208.289 29.9561 294.998C24.0026 447.281 139.556 453.513 178.254 571.112C184.208 589.538 188.267 610.944 188.808 635.873C189.62 699.821 164.994 710.389 169.865 783.82C170.406 793.575 170.136 803.059 173.383 811.459Z" stroke="url(#paint21_linear)" stroke-miterlimit="10"/>
<path d="M174.194 817.962C176.63 827.445 179.877 831.781 186.372 841.265C213.975 881.097 254.026 942.064 315.186 942.064C411.796 942.064 396.1 815.523 505.159 812C551.705 810.375 642.632 888.955 735.183 885.432C795.26 882.993 831.523 848.31 845.865 794.117C849.925 778.401 852.901 761.33 853.443 742.904C859.126 566.234 747.361 619.615 747.361 467.061C747.361 330.494 860.208 198.534 854.525 155.45C850.195 122.935 804.461 63.5931 718.676 38.6642C694.049 31.6191 667.258 25.3869 638.032 23.4901C594.733 20.5095 560.906 27.8256 532.221 42.1868C438.587 89.0638 400.43 195.282 317.08 195.282C254.568 195.282 186.913 133.773 126.295 140.276C79.4786 145.154 22.9197 201.515 20.7547 291.475C16.6955 448.635 143.074 456.493 183.125 573.009C189.62 591.705 193.679 613.383 193.95 638.853C194.491 704.156 168.512 713.098 171.759 789.51C171.759 799.265 171.759 808.749 174.194 817.962Z" stroke="url(#paint22_linear)" stroke-miterlimit="10"/>
<path d="M175.006 824.194C176.63 833.949 179.336 840.994 184.207 850.478C206.939 893.832 249.696 942.877 305.173 942.877C404.76 942.877 386.899 810.646 500.017 808.749C547.646 807.936 642.091 891.393 738.701 889.497C801.214 888.413 840.724 854.271 855.878 800.078C860.208 784.362 862.644 767.02 863.185 748.595C866.162 566.235 743.302 621.241 743.302 467.874C743.302 328.869 864.809 194.47 861.832 149.489C859.667 115.348 814.474 51.6707 726.253 25.387C701.356 18.0709 674.024 12.6516 643.444 11.5677C598.251 9.94192 562.53 19.4257 532.762 35.4127C435.069 87.4381 398.806 201.515 314.915 201.515C253.756 201.515 182.854 131.877 119.53 135.128C70.8187 137.567 11.8242 194.199 11.0123 287.14C8.57679 448.906 146.321 458.661 187.455 574.364C194.22 593.331 198.279 615.279 198.55 641.021C198.82 707.679 171.488 714.995 173.112 794.388C173.382 804.955 173.382 814.71 175.006 824.194Z" stroke="url(#paint23_linear)" stroke-miterlimit="10"/>
<path d="M176.089 830.697C180.69 889.497 235.354 943.69 295.16 943.69C397.724 943.69 377.699 805.768 494.876 805.768C543.587 805.768 641.55 894.103 742.49 894.103C826.652 894.103 872.927 839.097 872.927 754.827C872.927 567.048 738.972 623.679 738.972 469.229C738.972 328.056 868.868 191.218 868.868 144.341C868.868 99.0898 795.802 1.00019 648.857 1.00019C447.518 1.0002 423.162 209.102 312.751 209.102C253.215 209.102 179.066 131.335 112.765 131.335C61.8887 131.335 0.999967 188.238 0.999971 284.43C0.99998 478.984 203.151 462.184 203.151 644.815C203.151 712.827 174.465 718.788 174.465 800.891C174.736 810.646 175.277 820.671 176.089 830.697Z" stroke="url(#paint24_linear)" stroke-miterlimit="10"/>
</g>
<g opacity="0.33">
<path d="M227.776 635.331C319.786 635.331 346.036 924.451 531.679 924.451C601.769 924.451 649.397 848.852 649.397 792.491C649.397 755.91 619.9 710.388 619.9 656.195C619.9 546.725 835.311 604.712 835.311 447.822C835.311 358.946 762.244 284.159 691.613 284.159C642.361 284.159 583.096 324.533 546.292 324.533C493.522 324.533 516.795 213.979 514.089 183.902C507.594 112.096 429.115 49.5029 359.025 49.5029C264.309 49.5029 268.91 181.734 268.91 244.869C268.91 486.571 80.29 331.578 80.29 535.615C80.29 576.802 97.8801 676.247 154.168 676.247C187.454 676.247 175.818 635.331 227.776 635.331Z" stroke="url(#paint25_linear)" stroke-miterlimit="10"/>
<path d="M154.71 682.479C186.914 683.563 175.818 643.731 225.612 644.544C314.645 645.898 341.707 925.264 521.667 925.264C558.2 925.264 585.262 903.587 609.076 879.742C633.161 855.355 649.939 825.007 652.916 796.826C656.975 761.872 629.102 716.621 629.643 662.698C629.914 645.357 635.326 632.079 644.256 620.97C691.885 561.086 830.982 581.409 830.982 448.906C830.982 357.862 766.575 280.637 698.65 278.469C651.563 277.114 592.839 312.611 553.6 311.798C530.056 311.256 521.126 290.391 517.337 264.65C512.736 232.405 517.066 192.844 514.36 177.399C503.535 111.012 427.763 56.2771 356.861 56.2771C263.769 56.2771 264.581 179.837 262.145 240.263C259.439 308.546 242.12 346.481 219.658 370.868C167.159 428.042 81.9143 394.713 84.6205 537.512C84.8911 549.435 86.5148 566.235 89.7622 584.118C96.257 621.783 109.247 661.615 136.038 677.331C141.721 680.311 147.945 682.208 154.71 682.479Z" stroke="url(#paint26_linear)" stroke-miterlimit="10"/>
<path d="M155.792 688.982C186.642 691.421 176.088 652.402 223.988 654.028C309.773 656.737 337.647 926.077 511.653 926.077C550.893 926.077 576.601 900.335 603.934 876.49C629.642 853.729 650.209 828.529 656.704 800.891C664.552 767.833 638.573 722.853 639.926 668.66C640.196 651.318 645.879 638.041 653.998 626.389C700.544 561.357 826.651 583.035 826.651 449.448C826.651 356.236 770.634 276.572 705.686 272.508C660.763 269.798 602.581 300.417 561.176 298.792C537.632 297.708 527.89 277.927 522.749 253.269C516.254 222.379 518.689 185.257 514.901 171.167C499.205 110.47 425.868 62.7804 354.425 62.7804C262.686 62.7804 259.709 177.399 255.108 235.386C249.967 300.688 231.294 339.707 209.645 367.075C160.122 429.397 83.5374 397.694 88.9497 539.138C89.4909 551.603 91.1146 568.402 94.362 586.557C100.857 625.576 111.411 664.595 137.39 682.479C143.073 686.002 149.027 688.44 155.792 688.982Z" stroke="url(#paint27_linear)" stroke-miterlimit="10"/>
<path d="M156.605 695.485C185.831 699.007 176.089 661.343 222.094 663.511C304.903 667.575 333.317 926.89 501.912 926.89C544.128 926.89 568.213 897.083 599.063 873.238C626.395 852.103 650.751 832.052 660.764 805.226C672.13 774.336 648.315 729.085 650.48 675.162C651.022 657.821 656.704 644.543 664.282 632.621C709.475 562.712 823.134 585.202 823.134 450.532C823.134 355.152 775.505 272.778 713.805 266.817C670.777 262.482 613.406 288.494 569.836 285.785C546.293 284.43 535.739 265.191 529.244 241.888C521.125 212.353 521.396 177.669 516.525 164.934C496.229 109.928 425.327 69.825 353.343 69.825C262.957 69.825 256.462 175.773 249.426 231.05C241.578 293.372 221.823 333.204 200.986 363.823C154.44 431.293 86.7854 401.216 94.3627 541.305C95.1745 554.041 97.0688 571.112 100.046 589.808C106.27 629.911 114.659 667.846 139.826 688.44C144.427 691.962 150.38 694.672 156.605 695.485Z" stroke="url(#paint28_linear)" stroke-miterlimit="10"/>
<path d="M157.686 701.989C185.56 706.595 176.359 670.015 220.199 672.724C300.031 678.144 329.257 927.703 492.169 927.703C537.362 927.703 559.552 893.561 594.191 869.987C622.877 850.478 651.291 835.846 664.822 809.291C679.436 780.569 658.328 735.317 660.763 681.124C661.575 663.782 666.987 650.234 674.294 638.041C718.404 562.712 819.074 586.557 819.074 451.074C819.074 353.527 779.834 268.714 721.111 260.585C680.247 254.895 623.418 276.031 577.413 272.508C553.869 270.611 542.504 252.186 534.926 229.966C525.184 201.786 523.29 169.541 517.336 157.889C492.439 108.845 423.973 75.7869 351.448 75.7869C262.686 75.7869 252.402 172.793 242.931 225.631C232.377 284.701 211.81 325.888 191.513 359.217C147.674 431.565 88.9497 403.384 98.9626 542.119C99.7744 555.125 102.21 572.467 104.916 591.435C110.328 633.434 116.553 670.015 141.179 693.318C145.779 697.653 151.462 700.905 157.686 701.989Z" stroke="url(#paint29_linear)" stroke-miterlimit="10"/>
<path d="M158.499 708.22C184.748 713.911 176.63 678.414 218.305 681.937C294.89 688.711 324.928 928.516 482.156 928.516C530.056 928.516 550.622 890.038 589.05 866.735C618.818 848.852 651.021 839.639 668.341 813.626C685.931 787.071 667.529 741.82 670.776 687.627C671.859 670.556 677.271 656.737 684.037 644.002C726.794 563.254 815.015 588.725 815.015 452.158C815.015 352.443 784.165 265.192 728.418 254.895C689.449 247.85 633.431 264.108 585.261 259.501C561.718 257.334 549.54 239.45 540.61 218.585C528.973 191.76 525.184 161.954 518.148 151.657C488.651 108.573 422.621 82.5607 349.554 82.5607C262.145 82.5607 248.343 170.624 236.436 221.024C223.447 276.843 201.527 319.114 181.772 355.694C140.638 432.919 91.3857 406.636 103.563 544.286C104.646 557.564 107.081 575.176 109.788 594.415C115.471 637.227 119.259 672.724 143.073 698.466C147.133 703.343 152.545 707.137 158.499 708.22Z" stroke="url(#paint30_linear)" stroke-miterlimit="10"/>
<path d="M159.311 714.724C183.937 721.227 176.631 687.085 216.141 691.421C290.019 699.55 320.599 929.329 472.144 929.329C523.02 929.329 541.422 886.516 583.909 863.484C614.759 846.955 650.751 843.432 672.13 817.691C692.426 793.033 677.001 747.782 680.79 693.588C681.872 676.518 687.285 662.698 693.509 649.692C734.913 563.525 810.415 590.351 810.415 452.971C810.415 351.088 787.954 261.127 735.184 248.934C698.109 240.534 642.903 251.915 592.298 246.495C568.754 243.786 555.765 226.986 545.481 206.934C532.221 181.192 526.268 154.096 518.149 145.154C484.593 108.303 420.456 89.0641 346.578 89.0641C260.792 89.0641 243.202 167.915 228.86 216.147C213.434 268.985 190.161 312.069 171.218 351.63C132.52 433.461 92.7393 409.346 107.082 545.641C108.435 559.19 111.141 577.073 113.577 596.854C118.989 641.021 120.342 675.163 143.615 703.614C148.486 709.034 153.628 713.098 159.311 714.724Z" stroke="url(#paint31_linear)" stroke-miterlimit="10"/>
<path d="M160.393 721.227C184.478 724.208 176.901 695.756 214.516 700.905C285.418 710.388 316.539 930.142 462.672 930.142C516.254 930.142 532.762 882.723 579.308 860.503C611.241 845.058 650.751 847.497 676.459 822.297C699.462 799.807 687.284 754.556 691.614 700.363C692.967 683.292 698.379 669.202 704.062 655.924C744.114 564.338 807.167 592.518 807.167 454.326C807.167 350.275 793.366 257.876 743.302 243.514C708.392 233.489 653.728 240.534 600.957 234.031C577.143 231.05 563.612 214.792 551.976 196.095C536.821 171.709 529.244 147.051 519.772 139.193C482.427 108.303 419.915 96.38 345.495 96.38C261.062 96.38 239.954 166.289 223.447 212.082C205.586 261.669 180.689 305.837 162.829 348.649C126.566 435.358 96.5274 413.139 112.764 548.08C114.388 562.17 117.094 580.054 119.53 600.105C124.672 645.628 123.86 678.143 146.321 709.576C149.839 714.453 154.981 718.246 160.393 721.227Z" stroke="url(#paint32_linear)" stroke-miterlimit="10"/>
<path d="M161.205 727.73C183.937 730.982 177.171 704.698 212.622 710.118C280.547 720.956 312.48 930.955 452.659 930.955C509.218 930.955 523.561 878.929 574.166 857.252C606.911 843.162 649.939 851.02 680.248 826.362C705.686 805.768 696.756 760.517 701.627 706.595C703.25 689.795 708.392 675.434 713.804 661.886C752.232 564.609 802.837 594.415 802.837 455.139C802.837 348.92 797.425 254.082 750.338 237.824C717.322 226.444 663.199 228.611 608.534 221.024C584.72 217.773 570.377 202.057 557.388 184.715C540.61 161.683 530.867 139.464 520.313 132.961C479.45 108.032 418.291 103.154 343.33 103.154C260.25 103.154 235.624 163.851 216.681 207.476C196.385 253.811 170.135 299.063 153.086 345.127C119.259 436.442 98.9629 416.391 117.094 549.977C118.989 564.338 121.965 582.493 124.13 603.086C129.001 649.963 126.025 680.853 147.674 715.537C151.192 720.143 156.334 724.208 161.205 727.73Z" stroke="url(#paint33_linear)" stroke-miterlimit="10"/>
<path d="M162.288 734.234C183.666 738.027 177.442 713.369 210.728 719.601C275.676 731.795 308.15 931.768 442.917 931.768C502.453 931.768 514.631 875.136 569.295 854C603.122 840.994 649.398 854.271 684.037 830.426C711.64 811.459 706.227 766.749 711.91 712.556C713.805 695.756 718.676 681.124 723.817 667.305C760.351 564.338 799.049 596.041 799.049 455.681C799.049 347.294 802.026 249.747 757.915 231.592C727.065 218.857 673.483 216.418 616.383 207.747C592.568 204.225 577.143 189.05 563.071 172.792C544.398 151.115 533.033 131.335 520.855 125.915C476.474 106.677 416.938 109.116 341.165 109.116C259.71 109.116 231.565 160.87 209.916 202.057C187.455 244.869 159.311 291.475 143.344 340.52C111.953 436.442 101.399 418.558 121.695 550.79C123.86 565.422 126.837 583.848 129.002 604.712C133.602 652.944 128.731 682.208 149.298 719.872C152.816 725.834 157.416 730.44 162.288 734.234Z" stroke="url(#paint34_linear)" stroke-miterlimit="10"/>
<path d="M163.099 740.466C183.125 744.53 177.713 722.04 208.834 728.814C271.076 742.363 304.091 932.31 432.904 932.31C495.146 932.31 505.159 870.8 564.154 850.478C598.793 838.555 648.586 857.252 687.826 834.491C717.864 817.149 715.699 772.711 722.194 718.789C724.088 701.989 729.23 687.356 733.56 672.995C768.469 564.338 794.719 597.667 794.719 456.494C794.719 345.94 806.085 245.953 765.222 225.631C736.266 211.27 683.496 204.225 624.231 194.741C600.416 190.947 584.179 176.315 569.025 161.412C548.458 141.09 535.468 123.477 521.937 119.683C474.309 106.135 415.856 115.89 339.542 115.89C259.439 115.89 228.047 158.431 203.692 197.451C179.066 237.012 149.298 284.701 134.143 336.998C104.917 437.526 104.646 421.81 126.566 552.958C129.002 567.861 132.249 586.557 134.143 607.693C138.473 657.008 131.437 684.918 151.192 725.563C154.169 731.524 158.499 736.401 163.099 740.466Z" stroke="url(#paint35_linear)" stroke-miterlimit="10"/>
<path d="M163.911 746.969C182.583 751.575 177.712 730.711 206.939 738.298C266.475 753.472 299.76 933.393 423.162 933.393C488.38 933.393 496.228 867.006 559.553 847.497C595.274 836.658 648.315 860.503 692.155 838.826C724.358 822.839 725.711 779.214 732.747 725.02C734.912 708.492 739.783 693.588 743.843 678.956C776.858 564.609 791.201 599.563 791.201 457.577C791.201 344.856 810.956 242.159 773.069 219.94C746.278 204.224 694.049 192.573 632.349 181.734C608.534 177.399 591.215 163.85 574.978 149.76C552.516 130.793 537.903 115.618 523.019 113.18C471.873 104.78 414.773 122.664 337.917 122.664C259.438 122.664 224.529 155.992 197.467 192.844C170.676 228.882 139.014 277.656 124.671 333.204C97.8802 438.61 107.622 424.79 131.166 554.583C133.872 569.757 137.12 588.725 139.014 610.402C143.073 661.073 134.143 687.356 152.815 730.982C155.522 737.214 159.852 742.362 163.911 746.969Z" stroke="url(#paint36_linear)" stroke-miterlimit="10"/>
<path d="M164.994 753.472C182.042 758.35 178.254 739.653 205.045 747.782C261.874 764.582 295.702 934.207 413.42 934.207C481.345 934.207 487.028 862.672 554.682 844.246C591.215 834.22 647.503 863.484 695.944 843.162C730.583 828.801 735.183 785.717 743.031 731.524C745.467 714.995 750.067 699.821 753.856 684.918C784.706 564.88 787.142 601.461 787.142 458.391C787.142 343.501 815.286 238.367 780.376 213.98C755.48 196.638 704.062 180.651 640.197 168.728C616.112 164.122 598.251 151.116 580.661 138.38C556.306 120.767 540.069 107.761 523.832 106.677C469.438 103.426 413.42 129.167 336.023 129.167C258.898 129.167 221.011 153.554 190.973 187.967C162.287 221.025 128.46 270.882 115.471 329.411C90.8446 439.423 110.87 427.772 136.308 556.209C139.285 571.654 142.803 590.893 144.427 612.841C148.215 664.867 137.661 689.524 154.981 736.131C157.146 742.634 160.934 748.324 164.994 753.472Z" stroke="url(#paint37_linear)" stroke-miterlimit="10"/>
<path d="M165.805 759.975C181.501 765.394 178.254 748.595 203.151 756.995C257.274 775.42 291.372 935.019 403.407 935.019C474.309 935.019 477.827 858.336 549.54 841.265C587.156 832.323 646.692 866.465 699.733 847.497C736.536 834.22 744.926 791.949 753.044 737.756C755.48 721.227 760.08 706.053 763.598 690.608C792.283 564.88 783.082 603.357 783.082 459.203C783.082 342.146 819.616 234.302 787.683 208.289C764.681 189.592 714.075 168.999 648.045 155.722C623.96 150.844 605.017 138.38 586.344 126.999C560.094 110.741 542.233 99.9027 524.643 100.445C466.461 102.341 412.067 135.941 334.129 135.941C258.356 135.941 217.493 151.115 184.478 183.36C153.898 213.166 117.906 264.108 105.999 325.888C83.5379 440.507 113.847 431.023 140.909 558.106C144.427 574.093 147.674 593.331 149.298 615.55C152.816 668.931 140.367 691.963 156.334 741.55C158.499 748.324 162.287 754.285 165.805 759.975Z" stroke="url(#paint38_linear)" stroke-miterlimit="10"/>
<path d="M166.887 766.207C181.23 771.898 178.794 757.537 201.256 766.207C252.673 786.259 287.312 935.561 393.664 935.561C467.542 935.561 468.625 853.729 544.668 837.742C583.096 829.613 646.15 868.903 703.791 851.562C743.03 839.639 754.667 798.181 763.597 743.988C766.303 727.459 770.633 712.014 773.881 696.569C800.401 565.151 779.293 605.254 779.293 460.287C779.293 341.062 824.215 230.508 795.259 202.599C774.422 182.276 724.358 157.347 655.892 142.986C631.807 137.838 612.052 126.186 592.026 115.619C563.882 100.715 544.398 92.0446 525.454 93.9413C463.754 100.715 410.713 142.444 332.234 142.444C258.085 142.444 213.974 148.676 177.982 178.483C145.508 205.308 107.351 256.792 96.2562 321.824C75.9599 441.049 116.823 433.732 145.238 559.732C149.026 575.989 152.544 595.499 153.898 618.26C157.145 672.995 143.073 694.402 157.686 746.969C159.851 754.014 163.369 760.517 166.887 766.207Z" stroke="url(#paint39_linear)" stroke-miterlimit="10"/>
<path d="M167.7 772.71C180.69 778.942 178.795 766.478 199.362 775.691C248.344 797.368 282.983 936.645 383.652 936.645C460.237 936.645 459.425 849.394 539.528 834.761C579.038 827.445 645.339 871.884 707.581 855.897C749.256 845.329 764.14 804.413 773.611 750.22C776.588 733.962 780.647 718.246 783.353 702.259C807.438 565.151 774.964 606.879 774.964 461.1C774.964 339.707 828.276 226.443 802.296 196.637C783.353 174.689 734.101 145.425 663.47 129.98C639.385 124.56 618.548 113.451 597.71 104.238C567.401 90.6896 546.293 84.1864 526.267 87.7089C460.778 99.6314 409.361 149.218 330.341 149.218C257.545 149.218 210.728 146.508 171.489 173.876C137.391 197.721 96.7983 250.017 86.7855 318.301C68.3835 442.403 119.801 436.984 150.11 561.628C154.169 578.157 157.958 597.937 159.04 620.969C161.746 677.059 146.051 696.84 159.581 752.388C161.476 759.704 164.453 766.478 167.7 772.71Z" stroke="url(#paint40_linear)" stroke-miterlimit="10"/>
<path d="M168.782 779.214C180.419 785.717 179.336 775.691 197.738 785.175C244.014 808.749 278.923 937.187 373.91 937.187C453.471 937.187 450.224 844.517 534.656 831.239C574.978 825.007 645.068 874.052 711.369 859.962C755.75 850.478 773.611 810.646 783.894 756.453C786.871 740.195 790.93 724.208 793.366 707.95C815.015 565.151 770.905 608.506 770.905 461.642C770.905 338.082 832.605 222.108 809.603 190.405C792.825 167.102 743.843 133.232 671.047 116.432C646.691 110.742 625.313 100.445 603.122 92.0449C570.919 79.8515 548.187 75.245 526.808 80.6643C457.26 97.4642 408.007 155.451 328.175 155.451C256.733 155.451 206.939 144.07 164.723 168.728C129.001 189.593 85.9733 242.702 77.0429 313.966C60.8059 442.675 122.777 439.152 154.439 562.712C158.769 579.512 162.558 599.564 163.64 623.138C166.076 680.582 148.756 698.737 160.934 757.266C162.829 765.395 165.805 772.44 168.782 779.214Z" stroke="url(#paint41_linear)" stroke-miterlimit="10"/>
<path d="M169.594 785.717C179.878 792.762 179.607 784.904 195.573 794.388C239.413 820.129 274.594 938 364.168 937.999C446.435 937.999 441.293 839.91 529.785 827.987C571.19 822.568 644.527 876.49 715.428 864.026C762.245 855.897 783.353 816.607 794.448 762.414C797.696 746.156 801.484 730.169 803.649 713.64C822.863 565.151 767.387 610.402 767.387 462.455C767.387 336.727 837.476 218.044 817.721 184.444C802.838 159.515 754.668 121.58 679.707 103.425C655.351 97.4639 632.89 87.9801 609.617 80.664C575.519 70.0964 550.893 67.3867 528.161 74.1609C454.824 96.1091 407.196 161.954 326.552 161.954C256.733 161.954 203.962 141.902 158.499 163.851C120.883 182.005 75.6901 235.656 67.8422 310.172C53.7701 443.487 126.295 442.132 159.311 564.338C163.911 581.409 167.97 601.731 168.782 625.576C170.947 684.376 152.275 700.905 162.829 762.414C164.452 770.814 166.888 778.401 169.594 785.717Z" stroke="url(#paint42_linear)" stroke-miterlimit="10"/>
<path d="M170.406 791.949C179.337 799.265 179.607 793.846 193.679 803.601C234.813 831.781 270.534 938.812 354.426 938.812C439.67 938.812 432.363 835.033 524.914 825.007C567.401 820.4 644.256 879.2 719.488 868.632C768.74 861.587 793.095 823.381 804.732 769.188C808.25 753.201 811.768 736.672 813.662 719.872C830.441 565.693 763.328 612.57 763.328 463.81C763.328 335.914 842.077 214.521 825.028 179.025C812.309 152.47 764.681 110.199 687.284 90.6898C662.929 84.4576 639.656 75.5157 615.03 69.2835C579.038 60.0707 552.788 59.5287 528.703 67.9287C451.306 94.7543 405.572 168.728 324.387 168.728C255.921 168.728 200.445 140.277 151.734 159.244C112.494 174.418 64.8655 228.882 58.1001 306.379C45.9224 444.571 129.272 445.113 163.911 566.235C168.782 583.576 172.842 604.17 173.654 628.286C175.548 688.169 155.252 703.343 164.453 767.833C165.806 776.504 168.241 784.633 170.406 791.949Z" stroke="url(#paint43_linear)" stroke-miterlimit="10"/>
<path d="M171.488 798.452C179.066 806.31 179.878 803.33 192.055 813.085C230.212 843.704 266.475 939.625 344.413 939.625C432.634 939.625 422.892 830.426 519.772 821.755C563.071 817.962 643.444 881.639 723.006 872.697C774.964 867.007 802.296 829.342 814.745 775.149C818.263 759.162 821.781 742.633 823.134 725.292C837.206 565.422 758.998 613.925 758.998 464.352C758.998 334.288 846.136 210.186 832.064 173.064C821.51 145.154 774.152 98.5479 694.861 77.6836C670.506 71.1804 646.15 63.0515 620.442 57.9031C582.555 50.3161 554.411 51.6709 529.244 61.4256C447.788 93.1286 403.948 175.231 322.222 175.231C255.38 175.231 196.926 138.38 145.239 154.367C104.646 167.373 54.582 222.379 48.899 303.127C38.8862 445.926 132.79 448.365 168.782 568.402C174.195 586.286 178.254 607.151 178.795 631.537C180.419 692.776 158.499 706.324 166.347 774.065C167.429 782.194 169.324 790.594 171.488 798.452Z" stroke="url(#paint44_linear)" stroke-miterlimit="10"/>
<path d="M172.3 804.955C178.524 813.355 179.878 812.813 189.89 822.568C225.071 855.897 262.145 940.709 334.4 940.709C425.327 940.709 413.69 825.82 514.631 818.774C559.012 815.794 642.903 884.348 726.794 877.303C781.459 872.697 811.768 836.116 824.757 781.923C828.546 765.936 831.794 749.136 832.876 731.794C844.242 566.234 754.668 616.634 754.668 465.977C754.668 333.746 850.466 207.205 839.1 167.915C830.44 138.38 783.894 87.438 702.439 65.4898C677.812 58.7156 652.916 51.3996 626.125 47.3351C586.344 41.1029 556.306 44.6254 530.056 56.006C444.541 92.8573 402.595 183.089 320.328 183.089C254.838 183.089 193.408 138.109 138.744 150.844C95.9863 160.87 43.7572 216.147 39.1568 300.146C31.0383 447.822 135.767 452.158 173.112 570.841C178.795 588.996 182.854 610.131 183.396 634.789C184.749 697.382 161.476 709.304 167.7 780.026C168.782 787.884 170.406 796.555 172.3 804.955Z" stroke="url(#paint45_linear)" stroke-miterlimit="10"/>
<path d="M173.383 811.459C176.63 820.943 179.878 822.297 188.267 831.781C219.929 868.362 258.086 941.251 324.658 941.251C418.562 941.251 404.76 820.672 509.76 815.252C555.223 812.814 642.633 886.516 730.854 881.097C788.225 877.574 821.51 841.807 835.312 787.614C839.371 771.627 842.348 754.827 843.16 736.943C851.82 565.693 751.15 617.718 751.15 465.977C751.15 331.578 855.338 202.328 846.948 161.141C840.454 129.98 794.449 74.9739 710.557 51.3999C685.931 44.6257 660.223 37.8516 632.079 34.6C590.404 29.9935 558.741 35.4129 531.139 48.4192C441.564 90.4189 401.513 188.508 318.704 188.509C254.568 188.509 190.161 135.128 132.52 144.883C87.8681 152.47 33.2035 208.289 29.9561 294.998C24.0026 447.281 139.556 453.513 178.254 571.112C184.208 589.538 188.267 610.944 188.808 635.873C189.62 699.821 164.994 710.389 169.865 783.82C170.406 793.575 170.136 803.059 173.383 811.459Z" stroke="url(#paint46_linear)" stroke-miterlimit="10"/>
<path d="M174.194 817.962C176.63 827.445 179.877 831.781 186.372 841.265C213.975 881.097 254.026 942.064 315.186 942.064C411.796 942.064 396.1 815.523 505.159 812C551.705 810.375 642.632 888.955 735.183 885.432C795.26 882.993 831.523 848.31 845.865 794.117C849.925 778.401 852.901 761.33 853.443 742.904C859.126 566.234 747.361 619.615 747.361 467.061C747.361 330.494 860.208 198.534 854.525 155.45C850.195 122.935 804.461 63.5931 718.676 38.6642C694.049 31.6191 667.258 25.3869 638.032 23.4901C594.733 20.5095 560.906 27.8256 532.221 42.1868C438.587 89.0638 400.43 195.282 317.08 195.282C254.568 195.282 186.913 133.773 126.295 140.276C79.4786 145.154 22.9197 201.515 20.7547 291.475C16.6955 448.635 143.074 456.493 183.125 573.009C189.62 591.705 193.679 613.383 193.95 638.853C194.491 704.156 168.512 713.098 171.759 789.51C171.759 799.265 171.759 808.749 174.194 817.962Z" stroke="url(#paint47_linear)" stroke-miterlimit="10"/>
<path d="M175.006 824.194C176.63 833.949 179.336 840.994 184.207 850.478C206.939 893.832 249.696 942.877 305.173 942.877C404.76 942.877 386.899 810.646 500.017 808.749C547.646 807.936 642.091 891.393 738.701 889.497C801.214 888.413 840.724 854.271 855.878 800.078C860.208 784.362 862.644 767.02 863.185 748.595C866.162 566.235 743.302 621.241 743.302 467.874C743.302 328.869 864.809 194.47 861.832 149.489C859.667 115.348 814.474 51.6707 726.253 25.387C701.356 18.0709 674.024 12.6516 643.444 11.5677C598.251 9.94192 562.53 19.4257 532.762 35.4127C435.069 87.4381 398.806 201.515 314.915 201.515C253.756 201.515 182.854 131.877 119.53 135.128C70.8187 137.567 11.8242 194.199 11.0123 287.14C8.57679 448.906 146.321 458.661 187.455 574.364C194.22 593.331 198.279 615.279 198.55 641.021C198.82 707.679 171.488 714.995 173.112 794.388C173.382 804.955 173.382 814.71 175.006 824.194Z" stroke="url(#paint48_linear)" stroke-miterlimit="10"/>
<path d="M176.089 830.697C180.69 889.497 235.354 943.69 295.16 943.69C397.724 943.69 377.699 805.768 494.876 805.768C543.587 805.768 641.55 894.103 742.49 894.103C826.652 894.103 872.927 839.097 872.927 754.827C872.927 567.048 738.972 623.679 738.972 469.229C738.972 328.056 868.868 191.218 868.868 144.341C868.868 99.0898 795.802 1.00019 648.857 1.00019C447.518 1.0002 423.162 209.102 312.751 209.102C253.215 209.102 179.066 131.335 112.765 131.335C61.8887 131.335 0.999967 188.238 0.999971 284.43C0.99998 478.984 203.151 462.184 203.151 644.815C203.151 712.827 174.465 718.788 174.465 800.891C174.736 810.646 175.277 820.671 176.089 830.697Z" stroke="url(#paint49_linear)" stroke-miterlimit="10"/>
</g>
<defs>
<linearGradient id="paint0_linear" x1="457.797" y1="924.508" x2="457.797" y2="49.6479" gradientUnits="userSpaceOnUse">
<stop stop-color="#FFD110" stop-opacity="0"/>
<stop offset="0.286458" stop-color="#109BFF"/>
<stop offset="0.614583" stop-color="#FF0469"/>
<stop offset="1" stop-color="#04DA00" stop-opacity="0"/>
</linearGradient>
<linearGradient id="paint1_linear" x1="457.766" y1="925.32" x2="457.766" y2="56.4209" gradientUnits="userSpaceOnUse">
<stop stop-color="#FFD110" stop-opacity="0"/>
<stop offset="0.286458" stop-color="#109BFF"/>
<stop offset="0.614583" stop-color="#FF0469"/>
<stop offset="1" stop-color="#04DA00" stop-opacity="0"/>
</linearGradient>
<linearGradient id="paint2_linear" x1="457.661" y1="926.133" x2="457.661" y2="62.9234" gradientUnits="userSpaceOnUse">
<stop stop-color="#FFD110" stop-opacity="0"/>
<stop offset="0.286458" stop-color="#109BFF"/>
<stop offset="0.614583" stop-color="#FF0469"/>
<stop offset="1" stop-color="#04DA00" stop-opacity="0"/>
</linearGradient>
<linearGradient id="paint3_linear" x1="458.452" y1="926.945" x2="458.452" y2="69.967" gradientUnits="userSpaceOnUse">
<stop stop-color="#FFD110" stop-opacity="0"/>
<stop offset="0.286458" stop-color="#109BFF"/>
<stop offset="0.614583" stop-color="#FF0469"/>
<stop offset="1" stop-color="#04DA00" stop-opacity="0"/>
</linearGradient>
<linearGradient id="paint4_linear" x1="458.45" y1="927.758" x2="458.45" y2="75.928" gradientUnits="userSpaceOnUse">
<stop stop-color="#FFD110" stop-opacity="0"/>
<stop offset="0.286458" stop-color="#109BFF"/>
<stop offset="0.614583" stop-color="#FF0469"/>
<stop offset="1" stop-color="#04DA00" stop-opacity="0"/>
</linearGradient>
<linearGradient id="paint5_linear" x1="458.343" y1="928.57" x2="458.343" y2="82.7008" gradientUnits="userSpaceOnUse">
<stop stop-color="#FFD110" stop-opacity="0"/>
<stop offset="0.286458" stop-color="#109BFF"/>
<stop offset="0.614583" stop-color="#FF0469"/>
<stop offset="1" stop-color="#04DA00" stop-opacity="0"/>
</linearGradient>
<linearGradient id="paint6_linear" x1="457.248" y1="929.383" x2="457.248" y2="89.2032" gradientUnits="userSpaceOnUse">
<stop stop-color="#FFD110" stop-opacity="0"/>
<stop offset="0.286458" stop-color="#109BFF"/>
<stop offset="0.614583" stop-color="#FF0469"/>
<stop offset="1" stop-color="#04DA00" stop-opacity="0"/>
</linearGradient>
<linearGradient id="paint7_linear" x1="457.703" y1="930.195" x2="457.703" y2="96.5181" gradientUnits="userSpaceOnUse">
<stop stop-color="#FFD110" stop-opacity="0"/>
<stop offset="0.286458" stop-color="#109BFF"/>
<stop offset="0.614583" stop-color="#FF0469"/>
<stop offset="1" stop-color="#04DA00" stop-opacity="0"/>
</linearGradient>
<linearGradient id="paint8_linear" x1="456.568" y1="931.008" x2="456.568" y2="103.291" gradientUnits="userSpaceOnUse">
<stop stop-color="#FFD110" stop-opacity="0"/>
<stop offset="0.286458" stop-color="#109BFF"/>
<stop offset="0.614583" stop-color="#FF0469"/>
<stop offset="1" stop-color="#04DA00" stop-opacity="0"/>
</linearGradient>
<linearGradient id="paint9_linear" x1="455.188" y1="931.821" x2="455.188" y2="109.152" gradientUnits="userSpaceOnUse">
<stop stop-color="#FFD110" stop-opacity="0"/>
<stop offset="0.286458" stop-color="#109BFF"/>
<stop offset="0.614583" stop-color="#FF0469"/>
<stop offset="1" stop-color="#04DA00" stop-opacity="0"/>
</linearGradient>
<linearGradient id="paint10_linear" x1="453.613" y1="932.362" x2="453.613" y2="112.628" gradientUnits="userSpaceOnUse">
<stop stop-color="#FFD110" stop-opacity="0"/>
<stop offset="0.286458" stop-color="#109BFF"/>
<stop offset="0.614583" stop-color="#FF0469"/>
<stop offset="1" stop-color="#04DA00" stop-opacity="0"/>
</linearGradient>
<linearGradient id="paint11_linear" x1="452.453" y1="933.446" x2="452.453" y2="111.072" gradientUnits="userSpaceOnUse">
<stop stop-color="#FFD110" stop-opacity="0"/>
<stop offset="0.286458" stop-color="#109BFF"/>
<stop offset="0.614583" stop-color="#FF0469"/>
<stop offset="1" stop-color="#04DA00" stop-opacity="0"/>
</linearGradient>
<linearGradient id="paint12_linear" x1="451.058" y1="934.26" x2="451.058" y2="106.53" gradientUnits="userSpaceOnUse">
<stop stop-color="#FFD110" stop-opacity="0"/>
<stop offset="0.286458" stop-color="#109BFF"/>
<stop offset="0.614583" stop-color="#FF0469"/>
<stop offset="1" stop-color="#04DA00" stop-opacity="0"/>
</linearGradient>
<linearGradient id="paint13_linear" x1="449.468" y1="935.073" x2="449.468" y2="100.563" gradientUnits="userSpaceOnUse">
<stop stop-color="#FFD110" stop-opacity="0"/>
<stop offset="0.286458" stop-color="#109BFF"/>
<stop offset="0.614583" stop-color="#FF0469"/>
<stop offset="1" stop-color="#04DA00" stop-opacity="0"/>
</linearGradient>
<linearGradient id="paint14_linear" x1="447.892" y1="935.615" x2="447.892" y2="93.8222" gradientUnits="userSpaceOnUse">
<stop stop-color="#FFD110" stop-opacity="0"/>
<stop offset="0.286458" stop-color="#109BFF"/>
<stop offset="0.614583" stop-color="#FF0469"/>
<stop offset="1" stop-color="#04DA00" stop-opacity="0"/>
</linearGradient>
<linearGradient id="paint15_linear" x1="446.166" y1="936.699" x2="446.166" y2="86.9046" gradientUnits="userSpaceOnUse">
<stop stop-color="#FFD110" stop-opacity="0"/>
<stop offset="0.286458" stop-color="#109BFF"/>
<stop offset="0.614583" stop-color="#FF0469"/>
<stop offset="1" stop-color="#04DA00" stop-opacity="0"/>
</linearGradient>
<linearGradient id="paint16_linear" x1="444.555" y1="937.242" x2="444.555" y2="78.5589" gradientUnits="userSpaceOnUse">
<stop stop-color="#FFD110" stop-opacity="0"/>
<stop offset="0.286458" stop-color="#109BFF"/>
<stop offset="0.614583" stop-color="#FF0469"/>
<stop offset="1" stop-color="#04DA00" stop-opacity="0"/>
</linearGradient>
<linearGradient id="paint17_linear" x1="443.638" y1="938.055" x2="443.638" y2="70.5979" gradientUnits="userSpaceOnUse">
<stop stop-color="#FFD110" stop-opacity="0"/>
<stop offset="0.286458" stop-color="#109BFF"/>
<stop offset="0.614583" stop-color="#FF0469"/>
<stop offset="1" stop-color="#04DA00" stop-opacity="0"/>
</linearGradient>
<linearGradient id="paint18_linear" x1="442.166" y1="938.869" x2="442.166" y2="62.1274" gradientUnits="userSpaceOnUse">
<stop stop-color="#FFD110" stop-opacity="0"/>
<stop offset="0.286458" stop-color="#109BFF"/>
<stop offset="0.614583" stop-color="#FF0469"/>
<stop offset="1" stop-color="#04DA00" stop-opacity="0"/>
</linearGradient>
<linearGradient id="paint19_linear" x1="440.875" y1="939.683" x2="440.875" y2="53.1796" gradientUnits="userSpaceOnUse">
<stop stop-color="#FFD110" stop-opacity="0"/>
<stop offset="0.286458" stop-color="#109BFF"/>
<stop offset="0.614583" stop-color="#FF0469"/>
<stop offset="1" stop-color="#04DA00" stop-opacity="0"/>
</linearGradient>
<linearGradient id="paint20_linear" x1="439.369" y1="940.767" x2="439.369" y2="44.4324" gradientUnits="userSpaceOnUse">
<stop stop-color="#FFD110" stop-opacity="0"/>
<stop offset="0.286458" stop-color="#109BFF"/>
<stop offset="0.614583" stop-color="#FF0469"/>
<stop offset="1" stop-color="#04DA00" stop-opacity="0"/>
</linearGradient>
<linearGradient id="paint21_linear" x1="438.578" y1="941.31" x2="438.578" y2="33.1322" gradientUnits="userSpaceOnUse">
<stop stop-color="#FFD110" stop-opacity="0"/>
<stop offset="0.286458" stop-color="#109BFF"/>
<stop offset="0.614583" stop-color="#FF0469"/>
<stop offset="1" stop-color="#04DA00" stop-opacity="0"/>
</linearGradient>
<linearGradient id="paint22_linear" x1="437.692" y1="942.123" x2="437.692" y2="22.9851" gradientUnits="userSpaceOnUse">
<stop stop-color="#FFD110" stop-opacity="0"/>
<stop offset="0.286458" stop-color="#109BFF"/>
<stop offset="0.614583" stop-color="#FF0469"/>
<stop offset="1" stop-color="#04DA00" stop-opacity="0"/>
</linearGradient>
<linearGradient id="paint23_linear" x1="437.105" y1="942.937" x2="437.105" y2="11.5417" gradientUnits="userSpaceOnUse">
<stop stop-color="#FFD110" stop-opacity="0"/>
<stop offset="0.286458" stop-color="#109BFF"/>
<stop offset="0.614583" stop-color="#FF0469"/>
<stop offset="1" stop-color="#04DA00" stop-opacity="0"/>
</linearGradient>
<linearGradient id="paint24_linear" x1="436.959" y1="943.751" x2="436.959" y2="1.15635" gradientUnits="userSpaceOnUse">
<stop stop-color="#FFD110" stop-opacity="0"/>
<stop offset="0.286458" stop-color="#109BFF"/>
<stop offset="0.614583" stop-color="#FF0469"/>
<stop offset="1" stop-color="#04DA00" stop-opacity="0"/>
</linearGradient>
<linearGradient id="paint25_linear" x1="457.797" y1="924.508" x2="457.797" y2="49.6479" gradientUnits="userSpaceOnUse">
<stop stop-color="#FFD110" stop-opacity="0"/>
<stop offset="0.286458" stop-color="#109BFF"/>
<stop offset="0.614583" stop-color="#FF0469"/>
<stop offset="1" stop-color="#04DA00" stop-opacity="0"/>
</linearGradient>
<linearGradient id="paint26_linear" x1="457.766" y1="925.32" x2="457.766" y2="56.4209" gradientUnits="userSpaceOnUse">
<stop stop-color="#FFD110" stop-opacity="0"/>
<stop offset="0.286458" stop-color="#109BFF"/>
<stop offset="0.614583" stop-color="#FF0469"/>
<stop offset="1" stop-color="#04DA00" stop-opacity="0"/>
</linearGradient>
<linearGradient id="paint27_linear" x1="457.661" y1="926.133" x2="457.661" y2="62.9234" gradientUnits="userSpaceOnUse">
<stop stop-color="#FFD110" stop-opacity="0"/>
<stop offset="0.286458" stop-color="#109BFF"/>
<stop offset="0.614583" stop-color="#FF0469"/>
<stop offset="1" stop-color="#04DA00" stop-opacity="0"/>
</linearGradient>
<linearGradient id="paint28_linear" x1="458.452" y1="926.945" x2="458.452" y2="69.967" gradientUnits="userSpaceOnUse">
<stop stop-color="#FFD110" stop-opacity="0"/>
<stop offset="0.286458" stop-color="#109BFF"/>
<stop offset="0.614583" stop-color="#FF0469"/>
<stop offset="1" stop-color="#04DA00" stop-opacity="0"/>
</linearGradient>
<linearGradient id="paint29_linear" x1="458.45" y1="927.758" x2="458.45" y2="75.928" gradientUnits="userSpaceOnUse">
<stop stop-color="#FFD110" stop-opacity="0"/>
<stop offset="0.286458" stop-color="#109BFF"/>
<stop offset="0.614583" stop-color="#FF0469"/>
<stop offset="1" stop-color="#04DA00" stop-opacity="0"/>
</linearGradient>
<linearGradient id="paint30_linear" x1="458.343" y1="928.57" x2="458.343" y2="82.7008" gradientUnits="userSpaceOnUse">
<stop stop-color="#FFD110" stop-opacity="0"/>
<stop offset="0.286458" stop-color="#109BFF"/>
<stop offset="0.614583" stop-color="#FF0469"/>
<stop offset="1" stop-color="#04DA00" stop-opacity="0"/>
</linearGradient>
<linearGradient id="paint31_linear" x1="457.248" y1="929.383" x2="457.248" y2="89.2032" gradientUnits="userSpaceOnUse">
<stop stop-color="#FFD110" stop-opacity="0"/>
<stop offset="0.286458" stop-color="#109BFF"/>
<stop offset="0.614583" stop-color="#FF0469"/>
<stop offset="1" stop-color="#04DA00" stop-opacity="0"/>
</linearGradient>
<linearGradient id="paint32_linear" x1="457.703" y1="930.195" x2="457.703" y2="96.5181" gradientUnits="userSpaceOnUse">
<stop stop-color="#FFD110" stop-opacity="0"/>
<stop offset="0.286458" stop-color="#109BFF"/>
<stop offset="0.614583" stop-color="#FF0469"/>
<stop offset="1" stop-color="#04DA00" stop-opacity="0"/>
</linearGradient>
<linearGradient id="paint33_linear" x1="456.568" y1="931.008" x2="456.568" y2="103.291" gradientUnits="userSpaceOnUse">
<stop stop-color="#FFD110" stop-opacity="0"/>
<stop offset="0.286458" stop-color="#109BFF"/>
<stop offset="0.614583" stop-color="#FF0469"/>
<stop offset="1" stop-color="#04DA00" stop-opacity="0"/>
</linearGradient>
<linearGradient id="paint34_linear" x1="455.188" y1="931.821" x2="455.188" y2="109.152" gradientUnits="userSpaceOnUse">
<stop stop-color="#FFD110" stop-opacity="0"/>
<stop offset="0.286458" stop-color="#109BFF"/>
<stop offset="0.614583" stop-color="#FF0469"/>
<stop offset="1" stop-color="#04DA00" stop-opacity="0"/>
</linearGradient>
<linearGradient id="paint35_linear" x1="453.613" y1="932.362" x2="453.613" y2="112.628" gradientUnits="userSpaceOnUse">
<stop stop-color="#FFD110" stop-opacity="0"/>
<stop offset="0.286458" stop-color="#109BFF"/>
<stop offset="0.614583" stop-color="#FF0469"/>
<stop offset="1" stop-color="#04DA00" stop-opacity="0"/>
</linearGradient>
<linearGradient id="paint36_linear" x1="452.453" y1="933.446" x2="452.453" y2="111.072" gradientUnits="userSpaceOnUse">
<stop stop-color="#FFD110" stop-opacity="0"/>
<stop offset="0.286458" stop-color="#109BFF"/>
<stop offset="0.614583" stop-color="#FF0469"/>
<stop offset="1" stop-color="#04DA00" stop-opacity="0"/>
</linearGradient>
<linearGradient id="paint37_linear" x1="451.058" y1="934.26" x2="451.058" y2="106.53" gradientUnits="userSpaceOnUse">
<stop stop-color="#FFD110" stop-opacity="0"/>
<stop offset="0.286458" stop-color="#109BFF"/>
<stop offset="0.614583" stop-color="#FF0469"/>
<stop offset="1" stop-color="#04DA00" stop-opacity="0"/>
</linearGradient>
<linearGradient id="paint38_linear" x1="449.468" y1="935.073" x2="449.468" y2="100.563" gradientUnits="userSpaceOnUse">
<stop stop-color="#FFD110" stop-opacity="0"/>
<stop offset="0.286458" stop-color="#109BFF"/>
<stop offset="0.614583" stop-color="#FF0469"/>
<stop offset="1" stop-color="#04DA00" stop-opacity="0"/>
</linearGradient>
<linearGradient id="paint39_linear" x1="447.892" y1="935.615" x2="447.892" y2="93.8222" gradientUnits="userSpaceOnUse">
<stop stop-color="#FFD110" stop-opacity="0"/>
<stop offset="0.286458" stop-color="#109BFF"/>
<stop offset="0.614583" stop-color="#FF0469"/>
<stop offset="1" stop-color="#04DA00" stop-opacity="0"/>
</linearGradient>
<linearGradient id="paint40_linear" x1="446.166" y1="936.699" x2="446.166" y2="86.9046" gradientUnits="userSpaceOnUse">
<stop stop-color="#FFD110" stop-opacity="0"/>
<stop offset="0.286458" stop-color="#109BFF"/>
<stop offset="0.614583" stop-color="#FF0469"/>
<stop offset="1" stop-color="#04DA00" stop-opacity="0"/>
</linearGradient>
<linearGradient id="paint41_linear" x1="444.555" y1="937.242" x2="444.555" y2="78.5589" gradientUnits="userSpaceOnUse">
<stop stop-color="#FFD110" stop-opacity="0"/>
<stop offset="0.286458" stop-color="#109BFF"/>
<stop offset="0.614583" stop-color="#FF0469"/>
<stop offset="1" stop-color="#04DA00" stop-opacity="0"/>
</linearGradient>
<linearGradient id="paint42_linear" x1="443.638" y1="938.055" x2="443.638" y2="70.5979" gradientUnits="userSpaceOnUse">
<stop stop-color="#FFD110" stop-opacity="0"/>
<stop offset="0.286458" stop-color="#109BFF"/>
<stop offset="0.614583" stop-color="#FF0469"/>
<stop offset="1" stop-color="#04DA00" stop-opacity="0"/>
</linearGradient>
<linearGradient id="paint43_linear" x1="442.166" y1="938.869" x2="442.166" y2="62.1274" gradientUnits="userSpaceOnUse">
<stop stop-color="#FFD110" stop-opacity="0"/>
<stop offset="0.286458" stop-color="#109BFF"/>
<stop offset="0.614583" stop-color="#FF0469"/>
<stop offset="1" stop-color="#04DA00" stop-opacity="0"/>
</linearGradient>
<linearGradient id="paint44_linear" x1="440.875" y1="939.683" x2="440.875" y2="53.1796" gradientUnits="userSpaceOnUse">
<stop stop-color="#FFD110" stop-opacity="0"/>
<stop offset="0.286458" stop-color="#109BFF"/>
<stop offset="0.614583" stop-color="#FF0469"/>
<stop offset="1" stop-color="#04DA00" stop-opacity="0"/>
</linearGradient>
<linearGradient id="paint45_linear" x1="439.369" y1="940.767" x2="439.369" y2="44.4324" gradientUnits="userSpaceOnUse">
<stop stop-color="#FFD110" stop-opacity="0"/>
<stop offset="0.286458" stop-color="#109BFF"/>
<stop offset="0.614583" stop-color="#FF0469"/>
<stop offset="1" stop-color="#04DA00" stop-opacity="0"/>
</linearGradient>
<linearGradient id="paint46_linear" x1="438.578" y1="941.31" x2="438.578" y2="33.1322" gradientUnits="userSpaceOnUse">
<stop stop-color="#FFD110" stop-opacity="0"/>
<stop offset="0.286458" stop-color="#109BFF"/>
<stop offset="0.614583" stop-color="#FF0469"/>
<stop offset="1" stop-color="#04DA00" stop-opacity="0"/>
</linearGradient>
<linearGradient id="paint47_linear" x1="437.692" y1="942.123" x2="437.692" y2="22.9851" gradientUnits="userSpaceOnUse">
<stop stop-color="#FFD110" stop-opacity="0"/>
<stop offset="0.286458" stop-color="#109BFF"/>
<stop offset="0.614583" stop-color="#FF0469"/>
<stop offset="1" stop-color="#04DA00" stop-opacity="0"/>
</linearGradient>
<linearGradient id="paint48_linear" x1="437.105" y1="942.937" x2="437.105" y2="11.5417" gradientUnits="userSpaceOnUse">
<stop stop-color="#FFD110" stop-opacity="0"/>
<stop offset="0.286458" stop-color="#109BFF"/>
<stop offset="0.614583" stop-color="#FF0469"/>
<stop offset="1" stop-color="#04DA00" stop-opacity="0"/>
</linearGradient>
<linearGradient id="paint49_linear" x1="436.959" y1="943.751" x2="436.959" y2="1.15635" gradientUnits="userSpaceOnUse">
<stop stop-color="#FFD110" stop-opacity="0"/>
<stop offset="0.286458" stop-color="#109BFF"/>
<stop offset="0.614583" stop-color="#FF0469"/>
<stop offset="1" stop-color="#04DA00" stop-opacity="0"/>
</linearGradient>
</defs>
</svg>
