<svg width="1131" height="1183" viewBox="0 0 1131 1183" fill="none" xmlns="http://www.w3.org/2000/svg">
<g opacity="0.33">
<path d="M819.468 484.203C727.08 459.448 778.51 162.077 592.104 112.13C521.726 93.2723 453.562 156.368 438.398 212.96C428.556 249.691 445.927 303.336 431.346 357.752C401.893 467.672 201.198 351.491 158.987 509.025C135.075 598.267 188.321 693.019 259.242 712.022C308.696 725.274 379.068 700.679 416.023 710.581C469.01 724.779 415.897 829.526 410.522 860.455C397.724 934.303 459.684 1018.27 530.062 1037.13C625.167 1062.61 656.125 928.597 673.111 865.202C738.141 622.508 885.835 828.885 940.731 624.01C951.813 582.654 960.906 478.068 904.386 462.924C870.964 453.968 871.64 498.183 819.468 484.203Z" stroke="url(#paint0_linear)" stroke-miterlimit="10"/>
<path d="M905.52 456.521C873.476 446.768 873.9 489.749 824.12 475.536C735.086 450.221 783.077 162.427 602.377 114.009C565.694 104.179 532.689 118.665 502.361 136.2C471.616 154.207 446.603 180.166 436.032 207.661C422.552 241.667 438.365 294.604 423.314 348.602C418.376 365.942 409.37 377.818 397.413 386.571C333.478 433.886 199.277 376.056 163.627 509.102C139.131 600.521 183.025 695.392 250.646 715.844C297.562 729.873 366.078 710.03 405.26 721.404C428.754 728.283 432.108 751.635 428.986 778.502C424.93 812.117 409.939 850.676 408.5 866.913C401.508 936.484 462.866 1011.83 534.059 1030.91C627.534 1055.95 659.962 931.667 678.665 871.649C699.754 803.813 727.351 770.382 756.466 751.938C824.564 708.654 901.192 765.055 936.894 620.941C939.83 608.897 942.72 591.591 944.271 572.76C947.883 533.194 945.557 489.703 922.884 466.714C917.98 462.193 912.24 458.613 905.52 456.521Z" stroke="url(#paint1_linear)" stroke-miterlimit="10"/>
<path d="M906.183 449.7C875.862 438.951 875.961 480.97 828.303 466.45C742.894 440.649 787.371 162.703 612.65 115.886C573.249 105.329 540.509 124.26 506.649 140.849C474.711 156.787 447.279 176.556 433.322 202.561C416.548 233.643 430.532 285.798 414.592 339.85C409.655 357.19 400.376 368.993 389.089 378.508C324.855 431.284 204.062 375.588 168.121 509.723C143.042 603.318 177.856 698.381 241.977 719.937C286.355 734.744 353.015 719.653 394.152 732.425C417.501 739.848 421.961 762.331 420.49 788.474C418.7 821.238 406.267 857.858 406.28 873.025C405.71 938.194 466.518 1005.81 538.254 1025.03C630.37 1049.72 664.197 935.426 684.418 878.439C707.151 814.252 736.398 780.096 765.499 758.441C831.994 709.187 900.363 761.625 932.984 618.144C935.794 605.482 938.684 588.177 940.308 569.074C944.284 528.147 944.185 486.128 922.911 461.181C918.152 456.115 912.83 452.064 906.183 449.7Z" stroke="url(#paint2_linear)" stroke-miterlimit="10"/>
<path d="M907.117 442.951C878.718 431.55 878.367 471.991 832.756 457.436C750.701 431.075 791.938 163.051 622.651 117.69C580.261 106.332 548.058 129.781 510.665 145.423C477.534 159.292 447.684 172.873 430.412 197.115C410.689 225.074 422.426 276.918 405.744 330.48C400.535 347.747 391.256 359.55 380.44 369.483C316.253 427.52 208.177 374.357 171.944 509.581C146.282 605.352 171.944 700.879 232.294 723.465C274.333 739.395 338.938 728.711 381.957 743.154C405.233 750.849 410.655 773.006 410.906 798.153C411.112 829.994 401.508 864.747 402.973 878.845C408.553 939.538 468.957 998.882 541.236 1018.25C631.994 1042.57 667.021 937.932 688.958 884.321C713.606 823.854 744.159 789.174 773.32 764.035C838.21 708.811 898.05 757.214 928.133 614.51C930.744 601.504 933.435 583.853 935.476 564.279C940.016 522.337 941.799 481.988 922.069 454.539C918.397 449.764 913.148 445.442 907.117 442.951Z" stroke="url(#paint3_linear)" stroke-miterlimit="10"/>
<path d="M907.781 436.13C881.032 424.005 880.429 463.211 837.138 448.695C758.436 421.775 796.233 163.327 632.652 119.495C587.274 107.336 555.806 135.648 514.682 149.999C480.63 161.871 448.162 168.918 427.431 191.942C405.03 216.85 414.049 267.967 397.023 321.727C391.542 338.922 382.463 351.07 371.845 361.347C307.286 425.117 212.619 374.089 176.167 510.129C149.922 608.077 166.504 703.795 223.282 727.757C262.782 744.465 325.531 738.533 370.777 754.448C393.908 762.687 400.363 784.246 401.993 808.595C404.193 839.513 397.42 872.4 400.263 885.701C412.067 941.646 471.92 993.26 544.743 1012.77C633.87 1036.65 670.295 942.017 694.022 891.51C720.512 835.036 752.245 799.214 781.592 771.209C845.077 710.359 896.46 754.455 923.733 612.456C926.417 599.178 928.637 581.11 931.023 561.336C936.889 517.708 940.481 479.302 922.023 449.278C918.57 443.687 913.739 438.893 907.781 436.13Z" stroke="url(#paint4_linear)" stroke-miterlimit="10"/>
<path d="M908.641 429.654C883.814 416.878 882.416 454.705 841.517 439.955C766.441 412.548 800.798 163.676 642.924 121.374C594.828 108.486 563.824 141.588 518.969 154.648C484.267 164.596 449.453 165.182 425.063 186.642C400.257 208.573 406.559 258.962 388.718 312.504C383.038 329.354 373.885 341.773 363.666 352.741C299.007 422.317 217.277 373.005 180.533 510.133C153.705 610.258 161.207 706.168 214.413 731.506C251.646 749.064 312.268 747.811 359.397 765.397C382.454 773.908 389.87 795.141 393.224 818.494C397.691 848.561 393.475 879.509 397.77 891.741C415.797 942.938 475.1 986.823 548.467 1006.48C636.235 1030 673.787 945.286 699.303 897.883C727.364 845.33 760.747 808.783 790.425 777.367C852.505 710.892 894.888 750.535 919.695 609.042C922.181 595.419 924.474 577.079 926.933 557.033C932.745 512.516 938.491 475.854 921.505 443.599C918.741 437.61 914.327 432.344 908.641 429.654Z" stroke="url(#paint5_linear)" stroke-miterlimit="10"/>
<path d="M909.576 422.906C886.598 409.75 884.749 445.998 846.243 431.014C774.248 402.975 805.365 164.025 653.197 123.251C602.112 109.563 572.116 147.601 523.258 159.296C487.833 167.593 450.746 161.446 422.353 181.542C395.339 200.84 398.653 250.427 380.268 303.824C374.588 320.674 365.436 333.093 355.687 344.479C290.929 419.86 222.334 372.61 185.372 510.554C157.96 612.856 156.31 709.229 206.016 735.671C240.983 754.08 299.478 757.506 348.833 776.563C371.744 785.618 380.267 805.982 385.198 828.883C391.587 858.298 390.275 887.108 396.021 898.27C419.8 944.302 479.024 980.875 553.206 1000.75C639.344 1023.83 678.221 949.39 705.6 904.819C735.304 855.914 770.265 818.915 799.93 784.288C860.804 712.532 894.259 747.45 916.528 606.735C918.815 592.767 920.909 574.082 923.785 553.565C930.234 507.76 938.061 473.114 922.347 438.284C918.914 431.532 914.845 426.067 909.576 422.906Z" stroke="url(#paint6_linear)" stroke-miterlimit="10"/>
<path d="M910.239 416.085C886.857 406.612 886.811 437.219 850.425 421.929C781.784 393.33 809.66 164.301 662.926 124.983C609.124 110.567 579.79 153.74 527.075 163.527C490.856 170.444 451.839 157.365 419.245 175.751C390.097 192.145 390.15 240.859 371.222 294.11C365.27 310.887 356.045 323.579 346.766 335.381C281.909 416.568 226.178 371.308 188.997 510.068C161.002 614.546 150 711.038 196.406 738.928C228.762 758.388 285.547 766.021 336.784 786.749C359.894 796.149 369.107 816.114 375.761 838.019C384.416 866.583 385.39 893.381 392.787 903.82C421.974 944.884 481.536 973.675 556.261 993.697C641.041 1016.41 681.045 951.897 709.941 910.357C741.216 865.372 778.098 827.721 807.551 789.538C867.292 712.229 891.476 742.622 911.478 602.758C913.639 588.173 915.733 569.487 918.682 548.698C925.767 501.606 935.331 469.175 921.234 431.57C919.014 425.726 914.872 420.534 910.239 416.085Z" stroke="url(#paint7_linear)" stroke-miterlimit="10"/>
<path d="M911.173 409.336C889.223 399.955 888.944 428.167 854.806 413.188C789.518 384.029 813.954 164.577 673.199 126.861C616.408 111.644 588.008 160.024 531.363 168.175C494.693 173.513 453.602 154.046 416.534 170.651C385.451 184.485 382.243 232.325 362.844 285.158C356.694 301.59 347.667 314.627 338.588 326.775C273.83 414.112 231.036 370.568 193.564 510.417C164.985 617.072 144.904 713.755 187.81 742.749C217.899 763.059 272.828 775.444 325.676 797.77C348.714 807.442 358.887 827.082 367.264 847.99C377.914 875.631 381.719 900.562 390.566 909.932C424.89 945.957 484.989 967.309 560.258 987.478C643.678 1009.83 684.736 955.51 715.494 916.802C748.341 875.737 786.873 837.363 816.386 795.696C874.92 713.107 889.905 738.701 907.64 599.688C909.602 584.758 911.498 565.728 914.865 544.468C922.586 496.087 933.886 465.871 921.479 425.22C919.186 419.648 915.117 414.184 911.173 409.336Z" stroke="url(#paint8_linear)" stroke-miterlimit="10"/>
<path d="M911.837 402.515C891.391 392.954 891.006 419.388 859.261 404.174C797.326 374.456 818.522 164.925 683.201 128.666C623.42 112.648 595.956 166.236 535.38 172.75C497.915 176.709 455.021 150.927 413.824 165.55C381.005 177.169 374.41 223.518 354.123 276.405C347.701 292.764 338.873 306.146 329.992 318.639C265.606 412.2 235.278 369.955 197.514 510.891C168.353 619.723 139.119 716.871 178.526 746.968C206.077 768.056 259.223 784.921 314.225 808.99C337.189 818.935 348.595 838.321 358.351 858.432C371.268 885.222 377.358 908.142 388.128 916.86C427.516 948.118 487.952 961.688 564.036 982.074C645.826 1003.99 688.011 959.595 720.83 924.064C754.903 887.119 795.702 847.893 824.929 802.943C882.258 715.072 888.043 735.869 903.241 597.634C905.004 582.359 906.972 563.057 910.412 541.524C918.769 491.856 931.534 463.782 921.016 420.43C919.087 413.498 915.707 407.635 911.837 402.515Z" stroke="url(#paint9_linear)" stroke-miterlimit="10"/>
<path d="M912.697 396.038C893.683 386.569 893.066 410.608 863.64 395.433C804.788 365.083 822.742 165.473 693.399 130.815C630.902 114.069 604.299 173.137 539.594 177.671C501.605 180.322 456.637 148.152 411.113 160.449C376.285 169.781 366.503 214.984 345.473 267.38C339.051 283.74 329.951 297.048 321.74 310.304C257.453 410.015 240.062 369.487 202.079 511.24C172.335 622.248 134.021 719.587 169.584 750.987C194.795 773.198 245.887 794.47 302.844 819.938C325.735 830.155 338.102 849.215 349.31 868.257C364.493 894.197 372.797 915.377 385.363 922.826C429.542 949.245 490.86 955.177 567.488 975.709C647.919 997.26 690.886 962.99 725.84 930.363C761.211 897.265 803.932 857.389 833.219 808.955C889.613 715.877 885.656 731.73 898.931 594.146C900.496 578.527 902.265 558.88 906.05 537.148C914.97 486.464 929.544 460.333 920.644 414.206C919.258 407.42 916.223 401.357 912.697 396.038Z" stroke="url(#paint10_linear)" stroke-miterlimit="10"/>
<path d="M913.632 389.29C896.122 379.641 895.4 401.901 868.094 386.42C812.397 355.165 827.382 165.549 703.473 132.348C637.987 114.801 612.245 179.349 543.412 181.901C504.627 183.173 457.784 144.96 407.932 154.931C371.295 162.319 358.199 205.76 336.553 258.283C329.932 274.297 321.031 287.951 313.019 301.551C249.102 407.486 244.105 368.529 205.904 511.098C175.576 624.283 128.11 722.086 160.174 754.59C182.846 777.578 232.155 803.33 291.193 830.814C313.939 841.574 327.684 859.838 340.197 878.355C357.647 903.443 368.238 922.612 382.527 929.065C431.624 951.26 493.77 948.666 570.941 969.344C649.742 990.458 693.763 966.385 730.85 936.663C767.448 907.685 812.362 867.229 841.709 815.312C896.97 716.681 883.47 727.936 894.75 591.276C896.115 575.312 897.958 555.392 901.888 533.116C911.445 481.145 927.483 457.156 920.472 408.328C919.431 401.342 916.469 395.007 913.632 389.29Z" stroke="url(#paint11_linear)" stroke-miterlimit="10"/>
<path d="M914.295 382.469C898.489 372.985 897.263 392.777 872.549 377.407C820.005 345.248 831.677 165.825 713.475 134.153C645.271 115.878 620.318 186.178 547.429 186.477C508.048 186.715 459.402 142.186 405.294 149.559C366.649 154.659 350.438 196.682 327.978 248.986C321.085 264.928 312.383 278.927 304.569 292.872C241.296 405.102 248.692 367.716 210.199 511.374C179.288 626.736 122.742 724.73 151.234 758.61C171.567 782.721 218.894 812.608 279.814 841.762C302.759 852.868 317.193 870.733 331.429 888.253C351.146 912.491 363.951 929.92 379.963 935.376C433.705 953.276 496.879 942.5 574.593 963.324C652.036 984.074 696.639 969.781 736.06 943.308C773.758 917.833 821.138 876.871 849.928 821.597C904.254 717.759 881.011 724.07 890.025 588.26C891.191 571.951 892.835 551.687 897.11 529.212C907.303 475.953 924.535 454.034 919.684 402.576C919.259 395.464 916.986 388.731 914.295 382.469Z" stroke="url(#paint12_linear)" stroke-miterlimit="10"/>
<path d="M915.23 375.721C900.928 366.057 899.669 383.799 876.93 368.666C827.541 335.603 836.244 166.175 723.748 136.031C652.555 116.955 628.391 193.007 551.79 190.854C511.614 189.712 461.019 139.412 402.657 144.187C362.13 147.616 342.333 187.804 319.601 240.035C312.708 255.977 304.006 269.975 296.318 284.537C233.688 403.064 253.279 366.904 214.494 511.651C183 629.189 117.301 727.647 142.366 762.358C160.433 787.32 205.706 821.614 268.435 852.711C291.307 864.088 306.974 881.701 322.661 898.152C344.645 921.539 359.663 937.228 377.471 941.416C436.403 955.166 500.061 936.063 578.318 957.032C654.403 977.419 699.516 973.176 741.343 949.682C780.067 927.98 829.913 886.513 858.491 827.683C911.883 718.637 878.897 720.005 885.916 585.119C886.685 568.119 888.6 547.928 892.948 525.181C903.778 470.635 922.474 450.857 919.783 396.771C919.432 389.386 917.232 382.381 915.23 375.721Z" stroke="url(#paint13_linear)" stroke-miterlimit="10"/>
<path d="M915.819 369.171C902.948 359.599 901.53 374.674 881.309 359.924C835.075 325.957 840.464 166.722 733.675 138.107C659.493 118.23 636.389 200.107 555.732 195.7C514.959 193.524 462.217 137.108 399.673 139.012C357.065 140.426 334.226 178.924 310.679 230.937C303.514 246.805 295.011 261.149 287.595 275.784C225.607 400.607 257.592 366.018 218.589 511.581C186.511 631.295 111.66 730.217 133.225 766.032C148.681 792.044 192.244 830.545 257.127 863.386C279.926 875.036 296.627 892.05 313.892 908.049C338.142 930.586 355.373 944.535 374.905 947.727C438.681 957.525 503.167 929.896 581.969 951.011C656.422 970.961 702.391 976.571 746.55 956.326C786.375 938.127 838.541 896.698 867.178 834.384C919.635 720.13 876.636 716.482 882.005 582.32C882.575 564.976 884.291 544.44 889.056 521.221C900.522 465.388 920.411 447.679 919.881 390.964C919.603 383.308 917.82 375.831 915.819 369.171Z" stroke="url(#paint14_linear)" stroke-miterlimit="10"/>
<path d="M916.753 362.424C905.387 352.671 903.936 365.696 885.763 350.912C842.412 315.967 845.103 166.799 744.02 139.714C667.121 119.109 644.461 206.937 560.093 200.077C518.452 196.793 463.835 134.334 397.036 133.641C352.346 133.039 326.393 170.118 302.302 221.986C294.938 237.51 286.634 252.198 279.616 267.523C218.543 398.715 262.377 365.552 223.155 511.93C190.494 633.822 106.49 733.207 124.557 770.126C137.673 797.261 179.254 839.896 246.019 874.408C268.745 886.33 286.679 903.091 305.124 917.949C331.912 939.707 351.357 951.916 372.413 953.767C441.379 959.415 506.349 923.459 585.694 944.719C658.789 964.305 705.069 979.622 751.833 962.699C792.486 947.93 847.316 906.34 875.741 840.47C927.609 720.809 874.522 712.417 877.624 579.106C877.995 561.417 879.513 540.536 884.623 517.118C896.996 460.069 918.079 444.431 919.437 385.014C919.504 377.158 918.337 369.555 916.753 362.424Z" stroke="url(#paint15_linear)" stroke-miterlimit="10"/>
<path d="M917.417 355.602C907.483 345.941 905.872 356.299 889.946 341.825C849.823 305.704 849.326 167.346 753.949 141.79C674.061 120.384 652.389 214.309 564.037 204.924C521.873 200.333 464.691 132.229 394.326 128.539C347.211 126.121 318.56 161.311 293.654 212.96C286.291 228.484 277.913 243.445 271.094 259.114C210.935 396.675 266.892 365.01 227.378 512.477C194.134 636.545 100.977 736.394 115.544 774.416C126.122 802.329 166.192 849.518 234.767 885.972C257.692 898.239 276.388 914.33 296.41 928.735C325.465 949.643 347.051 960.384 369.975 960.694C444.33 962.537 509.385 917.564 589.545 939.043C661.282 958.264 708.218 983.089 757.242 969.688C798.724 958.349 856.218 916.598 884.358 847.444C935.291 722.575 872.117 709.438 873.569 576.852C873.741 558.818 875.332 537.665 880.588 513.702C893.598 455.366 915.873 441.797 919.392 379.751C919.677 371.079 918.584 363.204 917.417 355.602Z" stroke="url(#paint16_linear)" stroke-miterlimit="10"/>
<path d="M918.35 348.854C909.92 339.014 908.078 346.977 894.597 333.158C857.503 295.515 853.891 167.696 763.949 143.596C681.344 121.462 660.115 221.338 568.052 209.501C525.02 203.802 465.889 129.927 391.343 123.367C342.147 118.933 310.381 152.705 284.659 204.136C277.024 219.587 268.919 234.62 262.298 250.635C203.054 394.565 270.933 364.053 231.128 512.608C197.301 638.853 94.9914 739.166 105.788 778.219C114.026 807.255 152.187 858.306 222.571 896.704C245.423 909.242 265.425 924.808 286.825 938.416C318.22 958.201 342.218 967.547 366.866 966.861C446.409 964.554 511.949 911.254 592.924 932.951C663.03 951.736 710.623 986.067 762.178 976.261C804.833 968.152 864.647 926.44 892.575 853.729C942.573 723.653 869.386 705.5 869.114 573.91C869.088 555.531 870.479 534.033 876.08 509.871C889.726 450.248 912.922 438.675 918.874 374.073C919.504 365.202 919.099 356.929 918.35 348.854Z" stroke="url(#paint17_linear)" stroke-miterlimit="10"/>
<path d="M919.212 342.377C912.214 332.629 910.484 337.997 898.979 324.416C865.258 285.053 858.186 167.971 773.95 145.4C688.356 122.465 667.771 228.637 572.142 213.803C528.241 206.998 466.89 127.279 388.506 117.649C337.156 111.471 302.421 143.282 276.156 194.567C268.323 209.673 260.343 225.323 253.921 241.682C195.592 391.981 275.593 362.968 235.569 512.34C201.158 640.761 89.4246 741.465 96.9931 781.694C102.62 811.78 139.071 867.039 211.537 907.452C234.315 920.263 255.278 935.503 278.329 948.386C311.99 967.321 338.202 974.927 364.646 972.973C449.578 966.861 515.402 904.888 596.921 926.731C665.668 945.151 713.718 988.646 767.732 982.706C811.216 978.027 873.694 936.153 901.337 860.159C950.746 724.675 867.199 701.706 865.005 570.767C864.78 552.043 866.245 530.273 871.918 505.839C886.128 445.2 910.59 435.425 918.702 368.194C919.676 359.124 919.418 350.306 919.212 342.377Z" stroke="url(#paint18_linear)" stroke-miterlimit="10"/>
<path d="M919.876 335.556C914.381 325.628 912.764 328.402 903.161 315.331C873.085 274.32 862.482 168.247 784.224 147.278C695.64 123.542 676.042 235.811 576.43 218.452C531.933 210.611 468.362 125.048 386.068 112.621C332.365 104.355 294.787 134.821 267.707 185.887C259.873 200.993 251.893 216.644 245.869 233.693C188.726 390.433 280.305 362.773 240.063 512.961C205.069 643.559 84.1827 744.726 88.3249 785.787C91.4132 816.651 126.426 876.19 200.429 918.473C223.135 931.556 245.404 946.271 269.833 958.358C305.834 976.169 334.458 982.381 362.353 979.357C452.673 969.44 518.783 898.795 600.845 920.784C667.962 938.767 716.741 991.497 772.942 989.351C817.201 987.213 882.27 945.45 909.701 865.9C958.175 725.208 864.542 697.494 860.698 567.28C860.075 547.866 861.613 525.824 867.631 501.191C882.476 439.265 908.131 431.558 918.477 361.427C919.577 352.973 919.935 344.029 919.876 335.556Z" stroke="url(#paint19_linear)" stroke-miterlimit="10"/>
<path d="M920.81 328.808C916.82 318.699 915.316 318.879 907.886 306.39C881.529 263.459 867.12 168.324 794.569 148.884C703.268 124.42 684.041 242.912 580.791 222.828C535.426 213.88 469.634 122.473 383.503 106.976C327.374 96.8941 287.099 125.47 259.475 176.391C251.369 191.424 243.589 207.42 237.836 224.541C181.879 387.724 285.382 361.217 244.847 512.493C209.271 645.268 79.0328 746.554 79.8744 789.063C80.6233 821.05 113.655 884.724 189.54 928.678C212.445 942.106 235.475 956.15 261.283 967.44C299.55 984.4 330.66 988.945 360.08 984.58C455.861 970.586 522.255 891.269 604.861 913.403C670.619 931.023 720.2 992.716 778.515 994.635C824.146 996.072 891.462 954.62 918.681 871.514C966.566 725.415 862.573 692.884 857.006 563.666C856.184 543.908 857.795 521.593 863.886 496.689C879.368 433.474 905.944 427.764 918.722 355.077C919.749 346.896 920.452 337.752 920.81 328.808Z" stroke="url(#paint20_linear)" stroke-miterlimit="10"/>
<path d="M921.472 321.987C920.763 311.591 917.867 309.357 911.995 297.577C890.045 252.327 871.342 168.872 804.497 150.961C710.207 125.696 691.623 250.484 584.734 227.676C538.427 217.893 470.489 120.37 380.447 102.075C321.893 90.1768 278.847 117.136 250.408 167.838C242.031 182.799 234.522 198.867 228.895 216.605C174.125 386.23 289.205 361.076 248.379 513.44C212.219 648.391 72.829 750.141 70.1713 793.754C68.3089 826.791 99.7034 894.4 177.597 940.642C200.501 954.07 224.493 967.789 251.878 978.626C292.485 994.464 325.735 997.541 356.951 991.908C458.193 973.835 524.8 886.119 607.949 908.398C672.349 925.654 722.658 996.582 783.161 1002.3C830.037 1006.69 899.945 965.351 926.535 879.159C973.484 727.852 859.133 690.505 851.916 562.011C850.895 541.908 852.579 519.321 858.742 494.144C875.132 429.715 902.703 425.73 917.569 350.686C919.65 340.745 922.473 331.295 921.472 321.987Z" stroke="url(#paint21_linear)" stroke-miterlimit="10"/>
<path d="M922.408 315.24C922.514 305.062 920.42 299.835 916.45 288.564C899.45 241.142 875.638 169.149 814.227 152.694C717.22 126.701 698.934 257.984 588.48 232.179C541.305 221.289 471.146 117.922 377.267 96.5578C316.287 82.8428 270.544 107.912 241.562 158.469C233.257 173.158 225.676 189.498 220.175 207.854C166.935 383.72 293.521 360.191 252.477 513.371C215.733 650.499 66.9185 752.64 61.0332 797.43C56.6325 831.244 86.5888 903.134 166.02 951.246C188.852 964.946 214.076 978.412 242.912 988.18C285.587 1002.82 321.521 1004.58 354.189 997.875C460.819 975.997 527.711 879.609 611.403 902.034C674.173 918.853 725.556 998.817 788.173 1008.6C836.494 1016.3 908.449 974.92 934.827 885.172C981.187 728.458 856.404 686.566 847.536 558.796C846.045 538.275 847.801 515.417 854.383 489.769C871.409 424.052 899.901 422.063 917.199 344.463C919.823 334.668 922.375 325.146 922.408 315.24Z" stroke="url(#paint22_linear)" stroke-miterlimit="10"/>
<path d="M923.269 308.763C924.263 298.531 923.441 290.729 921.102 279.896C909.941 230.247 880.204 169.497 824.499 154.571C724.503 127.777 706.86 265.357 592.767 236.827C544.724 224.829 472.345 115.618 374.828 91.5299C311.767 75.7992 262.908 99.451 233.111 149.789C224.535 164.405 217.424 181.163 211.923 199.519C159.87 381.827 298.034 359.65 256.771 513.647C219.371 653.224 61.205 755.484 52.092 801.45C45.08 836.314 73.3265 912.412 154.838 962.539C177.869 976.584 203.856 989.379 234.269 998.695C279.211 1012.49 317.63 1012.57 351.822 1004.53C463.913 978.576 531.017 873.787 615.253 896.358C676.664 912.813 729.121 1001.81 793.58 1015.59C843.147 1026.24 917.621 985.251 943.442 892.146C989.411 730.371 853.726 683.516 843.553 556.271C841.863 535.405 843.692 512.274 850.346 486.354C868.008 419.35 897.421 419.358 917.152 339.201C919.723 328.518 922.348 318.723 923.269 308.763Z" stroke="url(#paint23_linear)" stroke-miterlimit="10"/>
<path d="M923.931 301.942C935.132 241.663 894.824 172.539 834.771 156.448C731.786 128.854 714.786 272.73 597.128 241.203C548.217 228.098 473.617 113.043 372.263 85.8847C287.755 63.241 226.49 106.023 203.817 190.639C153.295 379.19 303.037 358.366 261.483 513.451C223.5 655.204 56.2539 757.656 43.6416 804.725C31.4667 850.163 78.4425 968.314 225.991 1007.85C428.157 1062.02 508.603 859.616 619.468 889.322C679.248 905.34 732.779 1003.38 799.352 1021.21C850.437 1034.9 926.886 994.149 952.767 897.561C1005.11 702.208 797.61 664.688 846.747 481.307C865.046 413.015 895.453 414.747 917.542 332.307C919.895 322.439 922.049 312.227 923.931 301.942Z" stroke="url(#paint24_linear)" stroke-miterlimit="10"/>
</g>
<defs>
<linearGradient id="paint0_linear" x1="666.305" y1="131.951" x2="430.924" y2="1010.41" gradientUnits="userSpaceOnUse">
<stop stop-color="#FFD110" stop-opacity="0"/>
<stop offset="0.286458" stop-color="#109BFF"/>
<stop offset="0.614583" stop-color="#FF0469"/>
<stop offset="1" stop-color="#04DA00" stop-opacity="0"/>
</linearGradient>
<linearGradient id="paint1_linear" x1="666.556" y1="131.145" x2="432.778" y2="1003.61" gradientUnits="userSpaceOnUse">
<stop stop-color="#FFD110" stop-opacity="0"/>
<stop offset="0.286458" stop-color="#109BFF"/>
<stop offset="0.614583" stop-color="#FF0469"/>
<stop offset="1" stop-color="#04DA00" stop-opacity="0"/>
</linearGradient>
<linearGradient id="paint2_linear" x1="666.879" y1="130.357" x2="434.633" y2="997.113" gradientUnits="userSpaceOnUse">
<stop stop-color="#FFD110" stop-opacity="0"/>
<stop offset="0.286458" stop-color="#109BFF"/>
<stop offset="0.614583" stop-color="#FF0469"/>
<stop offset="1" stop-color="#04DA00" stop-opacity="0"/>
</linearGradient>
<linearGradient id="paint3_linear" x1="666.304" y1="129.328" x2="435.734" y2="989.827" gradientUnits="userSpaceOnUse">
<stop stop-color="#FFD110" stop-opacity="0"/>
<stop offset="0.286458" stop-color="#109BFF"/>
<stop offset="0.614583" stop-color="#FF0469"/>
<stop offset="1" stop-color="#04DA00" stop-opacity="0"/>
</linearGradient>
<linearGradient id="paint4_linear" x1="666.524" y1="128.512" x2="437.339" y2="983.842" gradientUnits="userSpaceOnUse">
<stop stop-color="#FFD110" stop-opacity="0"/>
<stop offset="0.286458" stop-color="#109BFF"/>
<stop offset="0.614583" stop-color="#FF0469"/>
<stop offset="1" stop-color="#04DA00" stop-opacity="0"/>
</linearGradient>
<linearGradient id="paint5_linear" x1="666.849" y1="127.726" x2="439.268" y2="977.071" gradientUnits="userSpaceOnUse">
<stop stop-color="#FFD110" stop-opacity="0"/>
<stop offset="0.286458" stop-color="#109BFF"/>
<stop offset="0.614583" stop-color="#FF0469"/>
<stop offset="1" stop-color="#04DA00" stop-opacity="0"/>
</linearGradient>
<linearGradient id="paint6_linear" x1="668.169" y1="127.205" x2="442.119" y2="970.836" gradientUnits="userSpaceOnUse">
<stop stop-color="#FFD110" stop-opacity="0"/>
<stop offset="0.286458" stop-color="#109BFF"/>
<stop offset="0.614583" stop-color="#FF0469"/>
<stop offset="1" stop-color="#04DA00" stop-opacity="0"/>
</linearGradient>
<linearGradient id="paint7_linear" x1="667.93" y1="126.266" x2="443.629" y2="963.369" gradientUnits="userSpaceOnUse">
<stop stop-color="#FFD110" stop-opacity="0"/>
<stop offset="0.286458" stop-color="#109BFF"/>
<stop offset="0.614583" stop-color="#FF0469"/>
<stop offset="1" stop-color="#04DA00" stop-opacity="0"/>
</linearGradient>
<linearGradient id="paint8_linear" x1="669.288" y1="125.756" x2="446.591" y2="956.873" gradientUnits="userSpaceOnUse">
<stop stop-color="#FFD110" stop-opacity="0"/>
<stop offset="0.286458" stop-color="#109BFF"/>
<stop offset="0.614583" stop-color="#FF0469"/>
<stop offset="1" stop-color="#04DA00" stop-opacity="0"/>
</linearGradient>
<linearGradient id="paint9_linear" x1="670.894" y1="125.311" x2="449.555" y2="951.36" gradientUnits="userSpaceOnUse">
<stop stop-color="#FFD110" stop-opacity="0"/>
<stop offset="0.286458" stop-color="#109BFF"/>
<stop offset="0.614583" stop-color="#FF0469"/>
<stop offset="1" stop-color="#04DA00" stop-opacity="0"/>
</linearGradient>
<linearGradient id="paint10_linear" x1="672.62" y1="125.191" x2="452.07" y2="948.293" gradientUnits="userSpaceOnUse">
<stop stop-color="#FFD110" stop-opacity="0"/>
<stop offset="0.286458" stop-color="#109BFF"/>
<stop offset="0.614583" stop-color="#FF0469"/>
<stop offset="1" stop-color="#04DA00" stop-opacity="0"/>
</linearGradient>
<linearGradient id="paint11_linear" x1="674.076" y1="124.414" x2="452.816" y2="950.167" gradientUnits="userSpaceOnUse">
<stop stop-color="#FFD110" stop-opacity="0"/>
<stop offset="0.286458" stop-color="#109BFF"/>
<stop offset="0.614583" stop-color="#FF0469"/>
<stop offset="1" stop-color="#04DA00" stop-opacity="0"/>
</linearGradient>
<linearGradient id="paint12_linear" x1="675.696" y1="123.973" x2="452.995" y2="955.104" gradientUnits="userSpaceOnUse">
<stop stop-color="#FFD110" stop-opacity="0"/>
<stop offset="0.286458" stop-color="#109BFF"/>
<stop offset="0.614583" stop-color="#FF0469"/>
<stop offset="1" stop-color="#04DA00" stop-opacity="0"/>
</linearGradient>
<linearGradient id="paint13_linear" x1="677.513" y1="123.585" x2="452.988" y2="961.523" gradientUnits="userSpaceOnUse">
<stop stop-color="#FFD110" stop-opacity="0"/>
<stop offset="0.286458" stop-color="#109BFF"/>
<stop offset="0.614583" stop-color="#FF0469"/>
<stop offset="1" stop-color="#04DA00" stop-opacity="0"/>
</linearGradient>
<linearGradient id="paint14_linear" x1="679.239" y1="123.463" x2="452.754" y2="968.715" gradientUnits="userSpaceOnUse">
<stop stop-color="#FFD110" stop-opacity="0"/>
<stop offset="0.286458" stop-color="#109BFF"/>
<stop offset="0.614583" stop-color="#FF0469"/>
<stop offset="1" stop-color="#04DA00" stop-opacity="0"/>
</linearGradient>
<linearGradient id="paint15_linear" x1="681.264" y1="122.839" x2="452.627" y2="976.126" gradientUnits="userSpaceOnUse">
<stop stop-color="#FFD110" stop-opacity="0"/>
<stop offset="0.286458" stop-color="#109BFF"/>
<stop offset="0.614583" stop-color="#FF0469"/>
<stop offset="1" stop-color="#04DA00" stop-opacity="0"/>
</linearGradient>
<linearGradient id="paint16_linear" x1="683.029" y1="122.727" x2="452" y2="984.939" gradientUnits="userSpaceOnUse">
<stop stop-color="#FFD110" stop-opacity="0"/>
<stop offset="0.286458" stop-color="#109BFF"/>
<stop offset="0.614583" stop-color="#FF0469"/>
<stop offset="1" stop-color="#04DA00" stop-opacity="0"/>
</linearGradient>
<linearGradient id="paint17_linear" x1="684.167" y1="122.158" x2="450.778" y2="993.18" gradientUnits="userSpaceOnUse">
<stop stop-color="#FFD110" stop-opacity="0"/>
<stop offset="0.286458" stop-color="#109BFF"/>
<stop offset="0.614583" stop-color="#FF0469"/>
<stop offset="1" stop-color="#04DA00" stop-opacity="0"/>
</linearGradient>
<linearGradient id="paint18_linear" x1="685.865" y1="121.737" x2="449.977" y2="1002.08" gradientUnits="userSpaceOnUse">
<stop stop-color="#FFD110" stop-opacity="0"/>
<stop offset="0.286458" stop-color="#109BFF"/>
<stop offset="0.614583" stop-color="#FF0469"/>
<stop offset="1" stop-color="#04DA00" stop-opacity="0"/>
</linearGradient>
<linearGradient id="paint19_linear" x1="687.38" y1="121.267" x2="448.866" y2="1011.41" gradientUnits="userSpaceOnUse">
<stop stop-color="#FFD110" stop-opacity="0"/>
<stop offset="0.286458" stop-color="#109BFF"/>
<stop offset="0.614583" stop-color="#FF0469"/>
<stop offset="1" stop-color="#04DA00" stop-opacity="0"/>
</linearGradient>
<linearGradient id="paint20_linear" x1="689.183" y1="120.583" x2="448.025" y2="1020.6" gradientUnits="userSpaceOnUse">
<stop stop-color="#FFD110" stop-opacity="0"/>
<stop offset="0.286458" stop-color="#109BFF"/>
<stop offset="0.614583" stop-color="#FF0469"/>
<stop offset="1" stop-color="#04DA00" stop-opacity="0"/>
</linearGradient>
<linearGradient id="paint21_linear" x1="690.125" y1="120.252" x2="445.779" y2="1032.16" gradientUnits="userSpaceOnUse">
<stop stop-color="#FFD110" stop-opacity="0"/>
<stop offset="0.286458" stop-color="#109BFF"/>
<stop offset="0.614583" stop-color="#FF0469"/>
<stop offset="1" stop-color="#04DA00" stop-opacity="0"/>
</linearGradient>
<linearGradient id="paint22_linear" x1="691.234" y1="119.674" x2="443.939" y2="1042.59" gradientUnits="userSpaceOnUse">
<stop stop-color="#FFD110" stop-opacity="0"/>
<stop offset="0.286458" stop-color="#109BFF"/>
<stop offset="0.614583" stop-color="#FF0469"/>
<stop offset="1" stop-color="#04DA00" stop-opacity="0"/>
</linearGradient>
<linearGradient id="paint23_linear" x1="692.041" y1="119.014" x2="441.449" y2="1054.24" gradientUnits="userSpaceOnUse">
<stop stop-color="#FFD110" stop-opacity="0"/>
<stop offset="0.286458" stop-color="#109BFF"/>
<stop offset="0.614583" stop-color="#FF0469"/>
<stop offset="1" stop-color="#04DA00" stop-opacity="0"/>
</linearGradient>
<linearGradient id="paint24_linear" x1="692.406" y1="118.236" x2="438.801" y2="1064.7" gradientUnits="userSpaceOnUse">
<stop stop-color="#FFD110" stop-opacity="0"/>
<stop offset="0.286458" stop-color="#109BFF"/>
<stop offset="0.614583" stop-color="#FF0469"/>
<stop offset="1" stop-color="#04DA00" stop-opacity="0"/>
</linearGradient>
</defs>
</svg>
