<svg width="946" height="1099" viewBox="0 0 946 1099" fill="none" xmlns="http://www.w3.org/2000/svg">
<path opacity="0.33" fill-rule="evenodd" clip-rule="evenodd" d="M417.171 46.4008L419.648 47.0647C445.262 54.1694 469.159 65.883 491.008 81.6344C513.862 98.1381 532.807 118.422 547.288 141.854C580.386 194.898 588.283 260.016 569.905 330.406C531.68 477.558 610.074 616.608 673.298 728.749L673.869 729.762C702.601 780.187 729.623 827.981 741.604 868.848C755.037 914.208 749.275 947.424 723.215 973.512C695.892 1000.71 658.653 1018.97 611.902 1027.69C574.736 1034.87 531.735 1035.9 483.799 1031.02C406.539 1023.13 341.798 1001.68 334.463 999.254C334.058 999.12 333.828 999.044 333.781 999.031C291.043 981.062 253.642 958.488 222.809 932.122C193.927 907.486 169.75 878.8 151.285 846.817L151.284 846.815C150.13 844.816 148.976 842.818 148.048 840.88C183.732 904.996 242.646 959.887 333.962 998.356C334.026 998.373 334.307 998.465 334.795 998.624C342.84 1001.25 407.155 1022.28 483.755 1030.29C558.902 1038.11 661.278 1034.4 722.885 972.941C748.599 947.243 754.586 914.087 741.093 868.953C728.887 828.025 702.09 780.291 673.584 729.927C641.615 673.566 605.646 609.615 582.792 542.661C557.964 469.649 552.793 403.422 566.949 340.603C531.121 481.636 606.444 614.956 667.106 722.326L667.106 722.326L667.315 722.695L668.79 725.321L669.807 727.132C696.184 774.076 721.055 818.34 732.367 856.476C745.036 900.183 739.35 932.212 714.554 957.19C688.269 983.218 652.397 1000.88 607.689 1009.18C571.83 1015.99 530.526 1016.99 484.453 1012.37C409.87 1004.59 347.08 983.933 340.852 981.885L340.851 981.884C340.55 981.785 340.381 981.73 340.35 981.721C299.353 964.46 263.408 942.759 233.746 917.431C206.034 893.833 182.802 866.124 164.936 835.508C158.671 824.657 152.977 813.475 147.915 801.739C180.103 875.298 239.668 938.571 340.531 981.046C340.596 981.063 340.875 981.154 341.357 981.311C349.202 983.869 410.953 1004 484.409 1011.63C556.507 1019.12 654.977 1015.58 713.999 956.559C738.735 931.806 744.36 900.002 731.571 856.745C719.903 817.41 694.035 771.615 666.683 723.25C636.034 669.173 601.323 607.732 579.503 543.228C556.825 476.191 551.147 415.093 562.472 357.25C532.754 489.743 603.521 614.882 660.699 715.854C687.062 762.506 711.776 806.302 723.13 844.104C735.546 886.053 730.222 916.732 706.238 940.479C681.156 965.622 646.711 982.463 603.762 990.507C569.435 996.999 529.603 997.913 485.677 993.385C414.052 985.927 354.04 966.23 347.987 964.243L347.987 964.243C347.689 964.146 347.522 964.091 347.49 964.082C333.743 958.262 320.629 951.957 308.16 945.174C320.412 951.77 333.316 957.935 346.875 963.676C346.981 963.705 347.362 963.825 348.004 964.027C351.439 965.109 362.354 968.548 378.675 972.921C404.124 979.74 442.548 988.587 485.062 992.979C554.112 1000.14 648.452 996.688 705.112 940.177C728.871 916.37 734.134 885.917 721.823 844.478C711.044 807.922 687.309 765.63 662.077 720.672L662.077 720.672L660.959 718.679L659.617 716.288L657.856 713.157C629.02 661.922 596.638 604.387 575.987 543.735C553.897 478.616 548.752 419.656 559.96 363.549C530.192 491.209 598.414 611.953 653.573 709.116L655.067 711.781L655.972 713.396L656.031 713.501C680.115 756.47 702.854 797.039 713.097 832.001C725.034 872.133 719.847 901.399 696.78 924.427C672.736 948.399 639.659 964.641 598.467 972.432C565.672 978.611 527.477 979.722 485.248 975.166C416.28 968.036 358.349 948.749 353.381 947.095C353.172 947.025 353.056 946.987 353.038 946.982C280.202 916.12 225.932 870.922 192.013 812.831C162.936 762.797 147.96 701.574 147.625 630.757C146.864 501.168 193.815 362.88 228.15 261.765C229.234 258.529 230.31 255.319 231.377 252.14L231.378 252.136L231.379 252.133L231.38 252.129L231.382 252.125C238.637 230.494 245.424 210.258 250.747 192.747C262.418 154.597 286.873 126.389 321.51 111.531C352.556 98.3663 389.746 96.5032 426.681 106.4L428.933 107.003C475.372 120.171 516.488 150.499 541.432 190.736C568.057 233.544 576.273 285.08 565.252 340.907C597.498 203.171 516.126 113.208 425.412 87.7145L423.16 87.111C370.587 73.0242 308.73 80.8135 269.954 123.17C282.133 109.643 297.096 98.9802 314.55 91.5624C346.002 77.782 384.829 76.1161 423.566 86.4957L426.043 87.1595C474.734 100.93 517.636 132.703 543.629 174.428C571.73 219.463 579.978 273.87 568.237 332.546C602.402 188.47 517.391 94.4788 422.522 67.8699L420.27 67.2664C347.525 47.7745 257.475 68.5442 229.684 160.55C223.804 180.084 216.114 202.785 207.929 226.947L207.928 226.948L207.928 226.949C206.941 229.864 205.946 232.799 204.947 235.753C169.213 340.897 122.454 479.243 117.275 611.416C122.221 478.921 169.033 340.499 203.887 237.434L203.887 237.434L203.888 237.432L204.497 235.633C205.487 232.706 206.472 229.798 207.45 226.91L207.476 226.832C215.662 202.668 223.353 179.965 229.233 160.43C241.87 118.676 268.4 88.1276 306.223 72.192C339.613 57.4827 379.972 55.5032 420.286 66.3052L422.763 66.9691C473.481 81.283 518.168 114.499 545.376 157.998C575.658 206.671 583.957 265.953 569.535 329.977C609.366 176.249 519.77 75.8225 419.467 47.7403L416.99 47.0765C341.317 26.8001 247.631 48.5267 218.589 144.301C211.758 167.093 202.594 194.087 192.782 222.597L192.414 223.686L192.414 223.686C156.453 330.004 109.615 468.478 101.955 602.106C109.389 467.786 156.255 328.764 191.488 224.249L192.106 222.416C193.422 218.496 194.729 214.605 196.024 210.752C204.168 186.518 211.825 163.732 217.913 144.12C230.972 100.79 258.766 69.1317 298.076 52.1465C332.999 37.1236 375.281 35.1764 417.171 46.4008ZM116.824 640.132C116.741 630.603 116.898 621.026 117.275 611.416C116.949 620.133 116.805 628.825 116.857 637.479C116.842 638.363 116.831 639.247 116.824 640.132ZM117.253 657.621C117.017 651.812 116.875 645.981 116.824 640.132C116.778 645.988 116.908 651.866 117.253 657.621ZM240.389 176.454C246.999 154.675 257.235 137.063 269.954 123.17C256.853 137.721 246.972 155.585 240.674 176.289C234.326 197.279 225.99 222.081 217.007 248.4C181.24 353.959 132.374 498.493 133.037 633.849C133.489 707.836 148.987 771.612 179.383 823.931C208.34 873.816 251.615 914.413 308.16 945.174C191.32 882.271 133.778 780.211 132.812 633.789C132.088 498.658 180.954 354.124 216.722 248.564C225.705 222.246 234.04 197.444 240.389 176.454ZM485.49 974.265C444.838 970.131 407.991 961.706 383.667 955.189C371.777 952.003 362.881 949.219 357.976 947.684C355.263 946.835 353.771 946.368 353.67 946.427C216.644 888.468 149.662 785.31 148.811 630.834C148.215 501.53 194.941 363.182 229.277 262.067C230.096 259.624 230.913 257.191 231.725 254.772L231.726 254.769C239.234 232.407 246.363 211.176 251.873 193.049C277.387 108.64 360.001 89.4987 426.665 107.361L428.692 107.904C514.298 132.011 590.952 215.698 563.886 344.085C572.539 293.297 564.323 246.293 539.97 207C515.955 168.702 476.746 139.367 432.273 126.968L430.021 126.365C394.662 116.89 358.945 118.665 329.942 131.412C296.733 145.446 273.376 172.258 262.353 208.892C257.266 225.531 250.777 244.697 243.825 265.228L243.824 265.229L243.824 265.23L243.824 265.231C242.759 268.376 241.684 271.552 240.601 274.756L240.266 275.747L240.265 275.748C207.677 372.168 163.114 504.014 163.744 627.352C163.805 635.422 164.061 643.365 164.514 651.178C170.873 771.313 222.444 856.695 321.206 910.752C333.474 917.551 346.447 923.826 360.118 929.567C360.151 929.576 360.321 929.633 360.623 929.732C366.456 931.655 421.414 949.778 486.638 956.468C527.004 960.767 563.217 959.849 594.764 953.818C634.138 946.506 665.562 931.028 688.629 908.001C710.433 886.083 715.544 858.003 704.085 819.69C693.977 785.641 671.758 746.245 648.142 704.373L646.958 702.274C595.496 611.555 532.143 499.633 555.764 380.827C547.202 431.78 552.773 485.577 572.697 544.301C592.797 603.517 624.54 659.818 652.717 709.611L653.871 711.656C678.649 755.542 701.872 796.674 712.301 832.271C724.073 872.117 718.946 901.158 696.225 923.795C642.151 977.861 551.716 981.148 485.49 974.265ZM359.503 929.161C346.031 923.488 333.267 917.354 321.206 910.752C270.78 882.809 232.275 846.031 206.235 801.193C181.796 759.153 167.845 708.697 164.514 651.178C164.11 643.547 163.888 635.775 163.849 627.863C163.159 504.75 207.721 372.904 240.31 276.484L240.31 276.484L240.645 275.492C249.025 251.426 256.592 228.591 262.457 209.403C286.72 128.762 365.698 110.578 429.434 127.656L431.461 128.199C513.078 151.001 586.18 230.835 560.711 353.161C568.799 304.945 561.109 260.238 537.833 223.083C515.033 186.559 477.608 158.668 435.163 146.812L433.136 146.269C399.354 137.217 365.559 139.024 337.023 150.931C305.406 164.426 283.087 190.067 272.546 224.9C266.862 243.412 259.657 264.896 251.804 287.897L251.801 287.905C220.616 379.966 177.888 506.105 178.617 624.095C179.17 688.695 192.711 744.463 219.15 789.929C250.041 843.104 299.344 884.316 365.951 912.302C365.972 912.307 366.041 912.33 366.158 912.368C366.235 912.393 366.333 912.426 366.451 912.464C372.097 914.322 424.284 931.492 486.555 937.859C524.834 941.839 559.575 941.01 589.59 935.293C626.981 928.173 656.977 913.52 679.007 891.663C700.059 870.751 704.582 843.962 693.887 807.301C684.314 774.836 663.236 737.422 640.768 697.539L639.607 695.477L639.47 695.235C590.632 608.745 530.417 502.108 552.828 389.019C544.77 437.571 550.212 488.959 569.122 545.033C588.137 601.245 618.379 654.739 645.121 702.043L645.121 702.044L645.121 702.044L645.122 702.045L645.122 702.046L645.59 702.874C669.705 745.302 692.216 785.611 702.553 820.003C713.846 858.031 709.082 885.721 687.338 907.413C635.625 958.974 549.321 962.16 486.143 955.611C447.413 951.51 412.143 943.507 388.946 937.292C380.564 935.046 373.71 933.045 368.723 931.588L368.723 931.588L368.723 931.588L368.723 931.588L368.722 931.588L368.721 931.588L368.72 931.588L368.72 931.587L368.719 931.587C363.257 929.992 360.037 929.052 359.503 929.161ZM393.938 919.56C416.235 925.534 449.703 933.054 486.796 936.958C547.151 943.233 629.325 940.147 678.737 890.867C699.443 870.345 703.906 843.781 693.316 807.631C683.518 774.832 661.936 736.462 638.975 696.032L638.486 695.165L638.485 695.165L638.485 695.165C613.065 650.15 584.155 598.957 566.118 545.435C546.256 486.722 542.115 433.73 553.317 383.302C553.308 383.336 553.299 383.371 553.29 383.405C524.078 496.031 584.327 602.696 632.826 688.35L633.995 690.426C655.309 728.31 675.39 764.001 684.425 794.869C694.641 829.712 690.255 855.089 670.405 875.117C623.233 922.342 544.739 925.207 486.983 919.145C427.409 913.112 377.332 896.37 372.702 894.822C372.491 894.751 372.375 894.712 372.355 894.707C309.006 868.077 262.043 828.94 232.861 778.395C207.801 734.989 194.723 682 194.512 620.63C193.91 508.464 234.501 388.507 264.255 300.889C265.353 297.599 266.444 294.34 267.522 291.118L267.524 291.111C273.635 272.848 279.352 255.762 283.927 240.985C294.044 207.729 315.266 183.482 345.29 170.526C371.947 159.324 404.271 157.605 436.251 166.174L438.278 166.717C478.696 178.03 514.335 204.477 535.921 239.227C559.9 277.639 566.511 324.373 555.353 374.817C555.375 374.732 555.397 374.646 555.419 374.561C587.528 251.124 515.473 170.504 435.147 147.774L433.12 147.23C372.312 130.937 297.195 148.225 273.958 225.037C268.334 243.324 261.069 265.033 253.216 288.034L253.213 288.042C222.028 380.103 179.3 506.242 179.864 623.947C180.776 764.68 241.746 858.745 366.418 911.461C366.481 911.478 366.743 911.563 367.192 911.708L367.193 911.709C369.931 912.593 379.625 915.725 393.938 919.56ZM487.449 918.305C452.219 914.658 420.387 907.336 399.216 901.663C389.693 899.111 382.391 896.898 377.934 895.547L377.934 895.547C374.907 894.629 373.193 894.11 372.987 894.152C254.38 844.026 196.498 754.651 195.638 620.932C195.036 508.766 235.567 389.034 265.32 301.416C265.914 299.639 266.505 297.871 267.093 296.113C267.579 294.659 268.063 293.213 268.545 291.773L268.586 291.65L268.589 291.641C274.7 273.377 280.417 256.289 284.992 241.512C307.203 168.529 378.52 151.912 436.4 167.421L438.202 167.904C513.781 189.108 581.288 264.142 553.675 378.971C562.583 333.139 555.76 290.672 533.949 255.596C513.518 222.845 479.725 197.617 441.333 186.847L439.532 186.364C409.127 178.217 378.336 179.623 353.107 190.001C324.45 202.358 304.492 225.494 294.857 256.949C290.328 272.189 284.268 290.091 277.897 308.907L277.895 308.915L277.002 311.551L276.255 313.76L275.676 315.473C247.69 398.332 209.488 511.436 210.181 617.104C210.502 675.365 222.607 725.68 246.573 766.862C274.271 814.837 318.833 852.123 378.925 877.398C378.944 877.403 379.057 877.44 379.258 877.506C383.678 878.962 431.049 894.564 487.636 900.492C542.119 906.159 616.708 903.455 661.519 858.735C680.33 839.878 684.64 815.687 674.902 782.662C666.584 754.004 648.061 721.052 628.364 686.013L628.364 686.012L628.346 685.98L627.179 683.904C626.762 683.161 626.344 682.418 625.926 681.673C580.811 601.909 524.806 502.643 549.307 397.793C540.327 443.907 544.775 492.637 562.828 546.002C580.233 597.254 607.69 646.13 632.134 689.13C677.172 768.787 712.707 831.656 669.85 874.485C622.964 921.545 544.755 924.246 487.449 918.305ZM404.209 883.931C424.253 889.302 454.509 896.202 487.877 899.591C542.135 905.198 616.438 902.658 660.964 858.104C701.519 817.554 667.798 757.827 625.009 682.393C582.732 607.652 530.96 515.907 544.321 418.362C527.866 513.07 578.282 602.538 619.25 675.056C638.914 709.775 657.423 742.494 665.605 770.515C674.864 801.722 670.856 824.787 652.797 842.638C610.572 884.913 539.889 887.457 488.229 882.063C432.334 876.259 385.659 860.373 385.269 860.027C328.435 836.109 286.438 800.958 259.999 755.493C237.351 716.595 225.769 668.835 225.504 613.968C224.996 513.535 261.268 406.421 287.846 327.932L288.134 327.081C294.796 307.624 300.991 289.007 305.666 273.362C314.653 243.424 333.739 221.744 360.742 210.151C384.95 199.981 413.819 198.544 442.647 206.268L444.448 206.751C480.813 216.978 512.595 240.701 532.202 272.025C551.413 302.799 558.237 339.507 552.491 379.069C573.104 275.257 510.626 207.548 441.032 187.973L439.23 187.49C384.502 172.826 316.822 188.486 295.862 257.701C291.49 272.416 285.736 289.436 279.575 307.66L279.537 307.772C278.976 309.433 278.411 311.103 277.844 312.782L277.26 314.512L276.646 316.329C248.664 399.176 210.554 512.007 211.247 617.631C211.995 744.562 267.014 829.307 379.331 876.782C379.538 876.74 381.189 877.244 384.087 878.127L384.088 878.127L384.089 878.128C388.331 879.421 395.245 881.529 404.209 883.931ZM488.305 880.877C456.859 877.52 428.18 871.043 409.262 865.974C395.074 862.172 386.186 859.307 386.021 859.022C279.543 814.077 227.613 734.021 226.916 614.105C226.348 513.897 262.619 406.784 289.197 328.295L289.485 327.443C291.307 321.919 293.128 316.471 294.908 311.145C299.416 297.654 303.665 284.941 307.017 273.724C326.726 208.278 390.77 193.575 442.57 207.455L444.147 207.877C509.89 226.421 569.026 290.402 549.426 388.837C554.777 351.526 548.29 317.129 530.291 288.169C511.898 258.619 481.676 236.279 447.564 226.656L445.987 226.233C418.736 218.931 391.339 220.281 368.663 230.136C343.313 240.965 325.205 261.7 316.7 289.837C313.529 300.382 309.496 312.302 305.212 324.965C303.506 330.006 301.76 335.165 300.013 340.402C274.842 414.524 240.446 515.864 241.053 610.893C241.366 662.876 252.261 707.797 273.59 744.41C298.545 787.305 338.201 820.38 391.778 842.943C391.798 842.949 391.911 842.986 392.113 843.053L392.119 843.055C396.336 844.452 438.648 858.477 488.822 863.635C537.658 868.755 604.211 866.311 644.136 826.317C681.007 789.608 650.748 735.878 612.41 668.154C573.538 599.573 525.52 514.855 541.859 425.039C528.897 517.486 577.997 604.389 618.103 675.375L618.168 675.49C658.649 746.926 690.332 803.452 652.077 841.721C609.913 883.771 539.965 886.271 488.305 880.877ZM414.48 848.302C432.272 853.069 459.314 859.35 489.184 862.284C537.57 867.283 603.612 864.944 643.416 825.4C679.423 789.479 649.826 736.932 612.223 670.171L611.493 668.874C573.049 601.053 525.929 517.629 540.244 428.917C522.767 514.677 568.473 595.728 605.569 661.252L605.63 661.36C641.631 725.035 670.085 775.361 635.474 809.996C597.911 847.484 535.488 849.828 489.7 845.042C442.485 840.208 402.951 827.14 398.908 825.804L398.907 825.803L398.906 825.803L398.767 825.757L398.677 825.727C398.618 825.708 398.583 825.697 398.572 825.694C348.253 804.486 310.998 773.262 287.466 733.162C267.516 698.608 257.084 656.466 256.887 607.652C256.411 518.84 288.444 423.902 311.871 354.468L312.178 353.559C312.537 352.495 312.896 351.434 313.254 350.376L313.955 348.302L313.984 348.215L313.985 348.214C319.157 332.924 324.038 318.492 327.795 306.086C345.528 247.111 402.933 233.767 449.327 246.198L450.904 246.621C482.989 255.701 511.425 276.597 528.604 304.373C546.263 332.663 552.023 366.377 545.965 402.825C567.175 307.7 510.504 245.675 447.652 228.128L446.075 227.705C397.204 214.61 336.96 228.642 318.277 290.259C313.843 305.003 307.95 322.494 301.59 340.825C276.419 414.946 242.023 516.286 242.69 611.09C243.275 724.217 292.342 799.643 392.53 841.938C392.644 841.872 394.017 842.297 396.488 843.064C400.195 844.213 406.372 846.13 414.48 848.302ZM489.612 843.57C461.665 840.668 436.199 834.81 419.533 830.345C409.13 827.557 401.831 825.261 399.492 824.525L399.492 824.525L399.491 824.525L399.488 824.524C399.045 824.384 398.781 824.301 398.709 824.282C304.811 784.639 258.667 713.617 258.134 607.504C257.822 519.024 289.76 424.365 313.184 354.944L313.184 354.944L313.529 353.921C313.803 353.11 314.077 352.301 314.349 351.494L315.336 348.577L315.336 348.576C320.508 333.286 325.389 318.854 329.146 306.448C346.578 248.599 403.186 235.524 448.905 247.775L450.256 248.137C508.265 264.373 560.424 320.588 543.58 407.05C547.896 374.937 542.078 345.322 526.467 320.457C510.442 294.679 483.852 275.002 453.794 266.465L452.442 266.103C408.976 254.456 355.432 266.903 339.01 321.885C335.06 334.827 329.995 350.126 324.463 366.265L323.933 367.831C301.958 432.759 272.046 521.135 272.617 603.902C272.922 649.606 282.607 689.134 301.237 721.403C323 759.098 357.915 788.247 404.976 808.099C405.141 808.384 443.83 821.648 490.128 826.329C532.868 830.781 591.385 828.597 626.422 793.328C658.735 760.972 632.253 714.068 598.558 654.386L598.503 654.29C564.537 594.213 522.857 520.484 536.339 442.264C525.733 523.582 568.83 599.71 604.141 662.077L604.582 662.857C640.074 725.641 668.103 775.224 634.304 808.958C597.086 846.057 535.174 848.296 489.612 843.57ZM625.417 792.576C572.666 845.307 466.416 823.837 423.625 812.372C414.444 809.912 408.152 807.892 406.038 807.213L406.037 807.212L406.036 807.212L406.034 807.212C405.917 807.174 405.813 807.14 405.722 807.111C405.612 807.076 405.522 807.048 405.451 807.025C405.365 806.998 405.308 806.981 405.278 806.973C317.28 769.635 274.164 703.528 273.743 604.203C273.332 521.07 303.437 432.117 325.457 367.052L325.469 367.018C331.06 350.653 336.125 335.354 340.076 322.412C356.482 268.392 409.229 256.214 452.02 267.68L453.371 268.042C506.1 282.845 553.711 333.184 541.625 410.493C543.917 383.373 538.269 358.273 524.945 336.946C509.91 312.882 485.105 294.649 457.074 286.655L455.722 286.293C415.184 275.43 365.051 286.861 349.594 338.239C347.058 347.05 343.723 356.927 340.166 367.465C338.838 371.4 337.478 375.428 336.117 379.526C315.589 439.925 287.493 523.159 287.94 600.765C288.19 643.076 297.127 679.989 314.663 710.034C334.942 745.159 367.516 772.232 411.32 790.729C411.333 790.732 411.36 790.74 411.401 790.753C411.48 790.778 411.612 790.821 411.793 790.879C420.914 793.828 556.943 837.811 617.761 777.007C648.076 746.749 623.362 702.952 591.888 647.448C561.873 594.274 525.246 529.381 532.732 460.4C527.816 532.277 565.965 599.751 597.301 655.175L597.36 655.28C630.724 714.387 657.037 761.002 625.417 792.576ZM616.591 775.969C567.464 825.084 468.766 805.156 428.903 794.474C420.331 792.177 414.617 790.316 412.645 789.673C412.234 789.539 411.985 789.458 411.907 789.438C330.139 754.976 290.172 693.333 289.577 600.963C289.069 523.582 317.105 440.573 337.634 380.174C338.215 378.422 338.794 376.679 339.37 374.948C343.744 361.785 347.893 349.303 351.171 338.661C366.325 288.409 415.497 276.963 455.36 287.644L456.712 288.006C507.295 302.257 552.932 351.682 537.476 427.706C541.127 400.177 536.218 374.692 522.747 353.254C508.762 330.678 486.028 313.724 459.963 306.499L458.837 306.197C421.226 296.119 374.894 306.878 360.628 354.713C357.588 364.479 353.738 375.883 349.667 387.944L349.647 388.002L349.51 388.407C348.989 389.952 348.463 391.508 347.936 393.073C328.839 449.027 302.719 525.791 303.203 597.855C303.501 637.281 311.751 671.355 327.968 699.116C346.823 731.445 376.997 756.669 417.543 773.809C417.584 773.82 417.744 773.872 418.017 773.96C426.787 776.793 552.462 817.393 608.753 761.075C636.768 733.097 613.867 692.442 584.701 640.936L584.417 640.432C555.171 588.528 519.336 524.931 531.395 457.323C522.364 527.648 559.652 593.699 590.172 647.761L590.46 648.272L590.526 648.39C621.414 703.207 645.907 746.677 616.591 775.969ZM434.181 776.577C471.116 786.474 562.486 804.922 607.704 759.587C634.801 732.329 612.23 692.245 583.334 641.535C556.102 593.502 523.164 535.081 527.858 472.559C520.433 531.903 552.036 587.738 577.93 633.486L578.147 633.869L578.291 634.125C604.916 681.228 626.104 718.713 600.152 744.529C548.299 796.288 432.201 758.861 424.561 756.398L424.556 756.396C424.334 756.325 424.205 756.283 424.173 756.274C354.759 727.054 319.424 672.446 319.097 594.389C318.743 528.481 342.485 458.273 359.902 406.77L360.161 406.004C364.562 393.183 368.557 380.977 371.783 370.737C384.798 326.671 427.494 316.869 461.952 326.102L463.078 326.403C487.116 333.086 508.004 348.821 520.836 369.398C532.37 387.859 537.094 409.467 535.031 432.92C546.774 365.02 505.536 320.855 459.541 308.075C422.501 297.668 376.289 307.976 362.04 354.85C358.572 365.99 354.276 379.322 349.348 393.21L348.761 394.952C329.94 450.81 304.36 526.727 304.735 597.541C305.278 682.898 342.322 740.136 418.026 772.007C418.168 772.045 418.546 772.157 419.143 772.334L419.148 772.336L419.149 772.336L419.15 772.336L419.152 772.337C421.399 773.002 426.721 774.578 434.181 776.577ZM599.042 743.266C557.224 784.925 473.407 768.018 439.399 758.906C432.238 756.987 427.253 755.33 425.412 754.718L425.411 754.718C424.994 754.58 424.739 754.495 424.655 754.472C355.077 724.966 321.061 672.643 320.63 594.076C320.155 528.616 343.897 458.411 361.313 406.909L361.573 406.141C361.927 405.109 362.28 404.082 362.631 403.059L362.631 403.059L362.632 403.058C366.645 391.376 370.435 380.345 373.195 370.874C386.073 328.219 427.747 318.626 461.53 327.678L462.656 327.98C505.361 340.112 543.786 381.283 531.893 444.572C537.292 391.46 503.448 356.723 466.194 346.308L465.293 346.067C433.762 337.618 394.642 346.688 382.202 386.806C380.336 393.161 377.941 400.257 375.387 407.82L375.386 407.822C374.164 411.444 372.905 415.173 371.65 418.98C355.704 465.882 334.028 530.56 334.256 590.968C334.696 662.296 366.942 712.214 430.292 738.844C430.325 738.853 430.456 738.895 430.68 738.967C437.97 741.315 543.713 775.359 591.04 728.087C614.694 704.549 595.478 670.486 571.159 627.378L571.021 627.132L570.441 626.099C546.399 583.23 516.975 530.768 525.971 475.238C519.966 534.094 551.066 589.375 576.719 634.693L576.864 634.951C603.159 681.481 624.018 718.394 599.042 743.266ZM444.452 740.949C475.307 749.216 552.021 764.703 589.991 726.598C612.668 704.005 593.781 670.515 569.793 627.978L569.653 627.731C546.993 587.626 519.69 539.233 522.983 487.465C517.106 536.296 543.042 582.359 564.466 620.065C585.778 657.639 604.122 690.073 582.664 711.6C539.736 754.514 443.692 723.483 437.459 721.469L437.266 721.407C437.23 721.396 437.201 721.386 437.181 721.38C437.164 721.375 437.153 721.371 437.146 721.37C379.922 697.105 350.704 652.102 350.15 587.503C349.826 532.861 369.586 474.429 384.161 431.746C384.547 430.599 384.93 429.459 385.311 428.328C388.455 418.984 391.396 410.245 393.643 402.665C404.485 366.706 439.805 358.307 468.408 365.971L469.309 366.213C502.465 375.521 532.601 405.847 529.213 452.298C538.964 395.61 504.269 358.655 465.771 347.885C434.812 339.106 396.037 347.786 384.29 387.124C382.424 393.479 380.028 400.575 377.475 408.138L377.474 408.14C376.251 411.762 374.992 415.491 373.738 419.298C357.791 466.199 335.951 530.592 336.239 590.775C336.618 662.328 367.711 710.247 431.06 736.877C431.675 737.284 436.57 738.837 444.452 740.949ZM581.043 710.442C546.758 744.705 477.597 730.76 449.67 723.277C444.152 721.799 440.254 720.613 438.427 720.057L438.426 720.056C437.867 719.886 437.502 719.775 437.343 719.733C306.772 664.711 355.88 519.276 385.392 432.559C385.778 431.409 386.162 430.267 386.543 429.134L386.545 429.13C389.688 419.79 392.628 411.055 394.874 403.477C405.474 368.42 439.938 360.515 467.639 367.938L468.54 368.179C502.307 377.67 532.938 409.471 526.439 458.384C527.094 419.47 501.064 394.199 472.649 386.177L471.748 385.936C446.074 379.056 414.164 386.438 404.738 418.914C404.023 421.067 403.279 423.329 402.504 425.685L402.502 425.692L402.488 425.734L402.488 425.735C400.554 431.615 398.43 438.072 396.101 444.842C383.183 483.142 365.563 535.388 365.76 584.202C365.976 641.952 392.106 682.265 443.49 704C443.517 704.007 443.621 704.04 443.799 704.098L443.802 704.099L443.803 704.099C449.692 705.999 535.377 733.644 573.778 695.218C593.16 676.032 576.629 646.739 557.625 613.163C539.822 581.767 518.383 543.835 519.982 503.272C520.44 546.662 543.225 587.083 562.25 620.835L562.467 621.219C584.274 659.65 601.464 690.085 581.043 710.442ZM454.948 705.38C479.947 712.079 541.781 724.543 572.442 693.895C590.623 675.593 575.411 648.585 555.912 614.152L555.411 613.262C537.186 580.842 515.265 541.85 518.067 500.048C512.292 539.219 533.211 576.197 550.294 606.395L550.439 606.651C567.3 636.515 581.687 662.095 564.77 679.287C530.893 713.229 455.55 688.959 450.027 687.18C449.848 687.122 449.742 687.088 449.714 687.08C404.393 667.937 381.352 632.313 381.023 581.291C380.73 538.421 396.366 492.397 407.779 458.802L407.779 458.801L407.919 458.389C409.065 454.868 410.217 451.474 411.32 448.228L411.32 448.227C412.859 443.697 414.301 439.454 415.487 435.554C424.007 406.456 452.056 399.971 474.803 406.066L475.479 406.247C501.366 413.602 524.938 437.059 522.863 473.047C531.187 426.845 503.217 396.757 471.941 387.919L471.265 387.738C446.492 381.1 415.889 388.107 406.539 419.397C404.366 426.649 401.397 435.227 398.339 444.062L397.902 445.325C371.54 522.989 327.618 652.675 444.259 702.033C444.423 702.319 448.417 703.63 454.948 705.38ZM563.495 677.739C536.519 704.546 482.237 693.623 460.166 687.709C457.881 687.096 455.94 686.537 454.421 686.098C452.197 685.457 450.877 685.076 450.707 685.174C347.992 641.979 386.647 527.8 409.808 459.387L409.886 459.157C412.855 450.78 415.478 442.793 417.513 436.097C425.958 408.186 453.15 402.195 475.161 408.334C502.778 415.964 527.456 442.739 519.848 483.716C521.361 452.647 501.131 432.399 478.594 426.151L477.918 425.97C458.324 420.72 433.911 426.248 426.477 451.292C425.037 455.943 423.296 461.136 421.402 466.785L421.402 466.786C420.936 468.175 420.462 469.592 419.98 471.035C409.987 500.221 396.647 540.096 396.752 577.54C396.969 621.773 417.148 652.767 456.403 669.32C459.271 670.33 525.914 692.773 556.229 662.515C570.985 647.75 558.583 625.708 544.138 600.035L543.884 599.584C529.238 573.915 511.365 542.385 515.549 509.042C513.803 545.457 533.032 579.566 548.951 607.701C565.976 637.85 579.375 661.717 563.495 677.739ZM465.219 669.751C484.137 674.82 531.316 684.324 554.444 661.071C568.248 647.39 556.438 626.604 541.66 600.678L541.519 600.429C528.567 577.466 513.154 550.144 512.599 520.767C511.088 547.121 525.085 572.054 536.609 592.58L536.609 592.581L536.758 592.846C549.228 614.775 559.884 633.562 547.057 646.298C522.672 670.668 470.685 654.644 463.266 652.357L463.262 652.356C462.86 652.232 462.589 652.149 462.462 652.115C385.692 619.716 414.436 534.966 431.634 484.296C433.344 479.351 434.834 474.656 436.125 470.586L436.128 470.579L436.129 470.576L436.138 470.547C436.336 469.923 436.529 469.313 436.718 468.72C436.834 468.356 436.948 467.997 437.061 467.646C443.755 446.266 464.367 441.409 481.258 445.935L481.709 446.056C499.862 451.119 516.409 467.082 516.733 491.381C522.399 457.04 501.19 434.605 477.825 428.118L477.15 427.937C458.457 422.928 435.291 428.308 427.993 451.939C426.468 456.866 424.562 462.562 422.525 468.65L422.524 468.651L422.508 468.699C422.154 469.757 421.796 470.828 421.435 471.908L421.358 472.139C401.407 531.273 368.103 629.988 456.661 667.458L465.219 669.751ZM545.782 644.749C526.054 664.326 486.427 656.364 470.437 652.079C467.157 651.2 464.801 650.411 463.902 650.11L463.901 650.11L463.896 650.108C463.806 650.078 463.731 650.053 463.671 650.033C463.638 650.022 463.609 650.012 463.585 650.004C463.553 649.994 463.53 649.987 463.516 649.983C388.713 618.353 416.929 534.668 433.886 484.899C435.679 479.718 437.229 474.81 438.598 470.476L438.856 469.659L439.104 468.871L439.231 468.472L439.373 468.024C445.48 447.935 465.236 443.573 481.166 448.083C501.244 453.692 519.145 473.131 513.615 502.781C512.97 483.616 499.964 470.213 484.824 465.96L484.373 465.84C470.635 462.159 453.598 466.284 448.216 483.67C447.545 486.172 446.634 488.886 445.655 491.801L445.655 491.802L445.655 491.803C445.048 493.61 444.416 495.494 443.798 497.452L443.795 497.461C429.747 539.08 406.362 608.358 469.256 634.866C469.324 634.884 469.442 634.919 469.606 634.97C469.695 634.997 469.798 635.029 469.915 635.065C475.994 636.94 518.599 650.082 538.621 630.037C549.147 619.581 540.304 603.935 530.143 586.005C520.584 569.162 508.95 548.474 510.391 526.728C511.027 551.501 524.063 574.551 535.045 593.836L535.267 594.232C547.571 616.196 557.217 633.416 545.782 644.749ZM536.896 628.368C521.076 644.164 488.778 637.683 475.715 634.183L475.714 634.182C472.336 633.277 470.31 632.734 470.145 632.449C409.213 606.708 432.244 538.772 446.051 498.056C447.664 492.936 449.156 488.267 450.468 484.273C455.263 468.178 470.933 464.652 483.77 468.092L484.22 468.213C501.276 473.024 516.485 490.134 509.71 516.32C503.017 542.182 516.473 566.268 527.448 585.913C527.681 586.33 527.913 586.746 528.144 587.159L528.734 588.221C538.395 605.584 545.974 619.208 536.896 628.368Z" fill="url(#paint0_linear)"/>
<defs>
<linearGradient id="paint0_linear" x1="823.976" y1="643.41" x2="122.115" y2="455.347" gradientUnits="userSpaceOnUse">
<stop stop-color="#04DA00" stop-opacity="0"/>
<stop offset="0.3125" stop-color="#FF0469"/>
<stop offset="0.703125" stop-color="#109BFF"/>
<stop offset="1" stop-color="#FFD110" stop-opacity="0"/>
</linearGradient>
</defs>
</svg>
