<svg width="1273" height="1572" viewBox="0 0 1273 1572" fill="none" xmlns="http://www.w3.org/2000/svg">
<path opacity="0.33" fill-rule="evenodd" clip-rule="evenodd" d="M276.537 88.0102L280.494 87.5979C321.531 83.6842 362.637 87.3981 403.016 98.0955C445.268 109.325 483.955 128.197 517.921 154.105C595.273 212.575 642.82 302.51 655.235 414.648C681.471 648.969 872.119 806.887 1025.87 934.245L1027.26 935.396C1096.84 992.496 1162.48 1046.73 1202.49 1099.28C1247.1 1157.52 1257.17 1208.83 1233.9 1261.06C1209.41 1315.6 1165.6 1362.71 1102.72 1401.26C1052.87 1432.26 991.165 1457.6 919.034 1477.12C802.759 1508.53 697.1 1513.37 685.13 1513.92C684.469 1513.95 684.093 1513.97 684.018 1513.97C612.155 1511.65 545.469 1499.69 486.192 1478.6C430.699 1458.94 379.777 1430.8 335.297 1394.72C332.517 1392.46 329.737 1390.2 327.317 1387.91C414.553 1460.99 530.319 1507.82 683.906 1512.89C684.008 1512.88 684.466 1512.86 685.261 1512.82C698.371 1512.17 803.178 1506.96 918.562 1476.08C1031.74 1445.74 1177.96 1383.6 1233.1 1260.42C1256.09 1208.94 1246.38 1157.6 1201.81 1099.71C1161.43 1047.2 1096.15 992.93 1026.94 935.793C949.385 871.891 861.828 799.215 791.6 714.917C715.153 622.937 670.938 529.885 656.606 431.049C682.921 655.182 865.944 806.506 1013.34 928.376L1013.85 928.795C1015.54 930.196 1017.22 931.595 1018.9 932.992L1019.76 933.703L1019.92 933.838L1019.92 933.839C1084.15 987.202 1144.72 1037.52 1182.25 1086.48C1224.84 1142.76 1234.36 1192.3 1212.3 1242.23C1188.66 1294.5 1146.51 1339.97 1086.36 1376.78C1038.19 1406.53 978.928 1430.88 909.636 1449.74C797.3 1479.83 694.908 1484.73 684.751 1485.22C684.259 1485.24 683.984 1485.25 683.934 1485.26C614.985 1482.99 550.891 1471.5 493.885 1451.26C440.663 1432.45 391.651 1405.2 348.798 1370.77C333.707 1358.52 319.259 1345.49 305.419 1331.3C392.828 1419.98 514.185 1478.59 683.821 1484.18C683.925 1484.17 684.379 1484.15 685.165 1484.11C697.946 1483.46 798.544 1478.38 909.164 1448.7C1017.74 1419.56 1158.39 1359.82 1211.15 1241.62C1233.25 1192.05 1223.76 1142.87 1181.25 1087.31C1142.54 1036.81 1079.68 984.83 1013.24 929.949C938.865 868.624 854.522 798.885 787.15 717.561C717.136 633.05 675.033 547.714 659.357 457.665C689.793 666.028 861.675 808.025 1000.47 922.555C1064.53 975.503 1124.61 1025.23 1162.01 1073.68C1203.26 1127.56 1212.56 1174.94 1190.99 1222.63C1168.61 1272.96 1128.06 1316.45 1070.31 1351.92C1024.2 1380.35 967.013 1403.77 900.883 1421.57C793.011 1450.48 695.171 1455.23 685.303 1455.71C684.818 1455.74 684.545 1455.75 684.495 1455.75C661.356 1454.95 638.867 1453.09 617.047 1450.18C638.449 1452.94 660.557 1454.71 683.378 1455.51C683.548 1455.49 684.165 1455.45 685.206 1455.39L685.207 1455.39C690.783 1455.05 708.499 1453.98 734.561 1451.26C775.201 1447.03 835.757 1438.53 899.767 1421.32C1003.74 1393.39 1138.47 1336.09 1189.19 1222.82C1210.4 1175.17 1201.14 1128.14 1160.33 1074.95C1124.44 1027.98 1066.62 979.891 1005.14 928.769L1003.58 927.468L1001.3 925.574L999.149 923.784C997.723 922.601 996.294 921.415 994.861 920.227L994.86 920.226L994.86 920.226C924.686 862.011 845.882 796.637 782.34 720.245C714.235 638.181 674.089 555.639 659.209 468.162C686.885 669.564 852.649 806.612 986.418 916.749C988.418 918.415 990.415 920.077 992.408 921.737C1051.12 970.615 1106.55 1016.76 1140.77 1061.72C1180.31 1113.22 1189.03 1158.49 1168.39 1204.63C1146.86 1252.68 1107.96 1294.55 1052.62 1328.67C1008.55 1355.81 953.847 1378.6 890.159 1395.42C786.317 1423.33 691.718 1427.52 683.606 1427.88C683.381 1427.89 683.223 1427.9 683.132 1427.91C683.085 1427.91 683.056 1427.91 683.046 1427.91C560.442 1423.6 456.778 1388.23 375.439 1322.91C305.581 1266.57 249.942 1186.2 210.186 1083.82C137.224 896.555 128.541 670.232 122.199 504.744C121.976 499.517 121.758 494.33 121.542 489.191L121.536 489.058L121.534 489.015L121.534 488.996C120.046 453.643 118.655 420.569 116.654 392.254C112.402 330.528 132.179 276.113 174.106 235.387C211.77 199.104 264.6 175.783 323.583 169.635L327.179 169.26C401.739 162.579 478.107 183.705 536.546 228.149C598.846 275.385 639.323 345.471 654.319 432.438C624.645 215.07 456.903 129.895 311.383 143.275L307.787 143.65C223.831 152.401 138.561 197.985 105.888 280.836C116.027 254.489 131.785 230.747 152.953 210.324C190.864 172.925 246.174 148.982 308.034 142.534L311.99 142.122C390.146 135.066 469.901 157.293 530.685 203.31C596.355 252.952 638.469 327.172 654.004 418.659C623.587 191.053 448.347 102.068 296.193 116.136L292.596 116.511C176.429 128.619 57.5242 208.636 68.2933 357.302C70.6088 388.855 72.0595 425.999 73.6036 465.533L73.6211 465.98C73.8015 470.602 73.9833 475.256 74.168 479.938C80.7179 652.049 89.7143 878.372 155.519 1072.68C89.1975 878.033 80.2368 651.571 73.5651 482.958L73.5651 482.955L73.4488 480.013C73.2582 475.183 73.0706 470.382 72.8845 465.616C71.3404 426.078 69.8896 388.932 67.574 357.377C62.7218 289.896 84.2072 230.94 130.15 186.887C170.354 147.067 227.709 121.82 292.087 115.11L296.043 114.698C377.436 107.305 460.577 130.633 524.104 178.546C594.953 232.249 639.846 313.509 654.461 414.236C626.906 169.497 441.451 73.7286 280.606 88.6769L276.65 89.0892C155.807 101.685 32.1672 185.103 43.2139 339.921C45.9586 376.718 47.6549 420.896 49.2539 467.629L49.3242 469.411L49.3244 469.412C56.1967 643.337 65.1476 869.864 128.154 1067.65C64.4364 868.989 55.2229 641.651 48.2963 470.742L48.2964 470.739L48.175 467.742C47.9064 461.339 47.6427 454.983 47.3816 448.687C45.7383 409.069 44.1931 371.817 42.1351 340.033C37.0206 270.035 59.7197 208.771 107.236 162.372C149.485 121.249 209.642 94.9827 276.537 88.0102ZM170.774 1114.47C165.376 1100.73 160.298 1086.79 155.519 1072.68C159.877 1085.47 164.483 1098.13 169.352 1110.62C169.82 1111.9 170.294 1113.19 170.774 1114.47ZM181.095 1139.57C177.53 1131.28 174.092 1122.92 170.774 1114.47C173.955 1122.98 177.403 1131.42 181.095 1139.57ZM92.6168 374.4C90.1144 339.193 95.1722 308.01 105.888 280.836C94.9836 309.174 90.58 340.525 92.9389 374.002C95.3838 407.923 97.0647 448.467 98.6486 491.566C105.381 664.284 114.754 900.714 190.774 1096.39C232.455 1203.29 290.267 1287.07 363.303 1345.99C432.905 1402.18 518.094 1436.98 617.047 1450.18C412.942 1423.86 273.008 1307.96 190.414 1096.42C114.432 901.111 105.059 664.681 98.3263 491.963C96.7426 448.864 95.0617 408.32 92.6168 374.4ZM890.009 1393.98C828.839 1410.53 770.801 1418.76 731.959 1422.81C712.971 1424.79 698.542 1425.69 690.587 1426.19C686.187 1426.46 683.768 1426.61 683.653 1426.76C453.056 1418.8 298.84 1306.53 211.947 1083.27C139.382 896.33 130.339 670.045 123.997 504.557L123.901 502.261L123.713 497.789L123.498 492.639C121.972 456.085 120.524 421.379 118.453 392.066C108.598 255.666 217.636 182.132 324.092 171.036L327.329 170.699C464.683 158.142 622.11 236.843 654.103 437.797C638.471 359.441 600.507 295.92 543.448 252.515C487.429 210.363 414.373 189.62 343.088 196.323L339.491 196.697C283.026 202.583 232.279 224.96 197.343 259.504C157.027 298.245 138.066 350.029 142.415 409.201C144.275 436.122 145.505 467.483 146.821 501.076L146.828 501.252C147.028 506.338 147.229 511.476 147.435 516.656L147.499 518.276C153.767 675.995 162.338 891.664 231.644 1069.95C236.206 1081.6 240.981 1092.96 245.968 1104.02C321.796 1274.5 443.836 1369.56 616.854 1393.09C638.392 1396.13 660.66 1398.03 683.644 1398.76C683.673 1398.76 683.77 1398.75 683.933 1398.75C684.062 1398.74 684.234 1398.73 684.446 1398.72L684.463 1398.72L684.467 1398.72C693.981 1398.27 783.629 1394.04 881.803 1367.56C942.65 1351.41 994.589 1330 1036.94 1303.77C1089.91 1271.34 1126.84 1231.5 1147.48 1185.36C1166.9 1141.52 1158.73 1098.02 1120.89 1048.88C1087.37 1005.18 1033.34 960.439 975.921 912.891L973.043 910.507C848.202 807.653 694.383 680.683 662.714 495.515C678.568 574.059 716.468 648.886 777.889 722.89C839.837 797.508 917.031 861.448 985.451 917.94L988.258 920.262L988.259 920.263C1048.48 970.083 1104.92 1016.78 1139.77 1062.55C1178.91 1113.73 1187.59 1158.64 1167.24 1204.02C1118.9 1312.31 989.744 1367.22 890.009 1393.98ZM682.527 1398.51C659.87 1397.77 637.982 1395.96 616.854 1393.09C528.325 1380.58 452.162 1348.67 389.584 1298.17C330.875 1250.83 282.69 1185.49 245.968 1104.02C241.153 1093.2 236.523 1082.07 232.079 1070.63C162.81 892.705 154.239 677.038 147.971 519.319L147.907 517.697C146.698 478.195 144.995 440.925 142.85 409.882C133.273 279.634 237.576 209.502 339.357 198.893L342.593 198.556C473.449 186.322 623.596 261.413 654.539 452.71C639.516 378.389 603.586 317.901 549.271 276.994C495.995 236.738 426.326 217.096 358.277 223.461L355.04 223.799C301.093 229.422 253.148 250.779 218.421 283.848C180.113 320.925 162.006 370.439 166.056 426.733C168.088 456.697 169.567 491.809 170.948 529.475L170.948 529.489C176.832 680.117 184.894 886.501 251.379 1056.99C288.002 1150.24 338.538 1223.5 402.042 1274.69C476.27 1334.58 570.531 1366.92 682.518 1370.52C682.539 1370.52 682.593 1370.52 682.679 1370.51C682.816 1370.5 683.034 1370.49 683.331 1370.48C692.54 1370.04 777.645 1365.97 871.363 1340.66C929.012 1325.2 978.867 1304.73 1019.17 1279.81C1069.38 1248.76 1104.69 1210.91 1124.48 1167.03C1143.37 1125.07 1135.07 1083.76 1099.25 1036.6C1067.38 994.886 1016.11 952.386 961.453 907.082L958.626 904.739L958.295 904.465C839.598 806.28 693.25 685.221 663.002 508.999C678.254 583.789 714.632 655.201 773.116 725.932C831.828 796.802 905.293 857.51 970.257 911.194L971.394 912.134C1029.85 960.212 1084.8 1006.11 1118.85 1050.19C1156.29 1099 1164.74 1141.75 1145.28 1185.22C1098.98 1288.58 975.745 1341.05 880.611 1366.6C822.244 1382.13 766.723 1390.1 729.679 1393.96C716.293 1395.36 705.256 1396.26 697.226 1396.92C688.428 1397.64 683.24 1398.06 682.527 1398.51ZM727.077 1365.51C762.682 1361.8 815.326 1354.13 871.213 1339.22C962.107 1314.84 1079.41 1264.8 1123.65 1166.03C1142.26 1124.82 1133.99 1083.88 1098.61 1037.39C1066.23 995.322 1013.69 951.716 958.019 905.893L956.831 904.91C895.051 853.81 824.792 795.697 768.988 728.181C707.663 654.157 672.28 579.704 660.541 500.454C660.548 500.509 660.554 500.565 660.56 500.62C680.705 679.939 827.114 801.015 944.854 898.176L947.696 900.535C999.575 943.584 1048.45 984.141 1078.65 1023.84C1112.77 1068.64 1120.49 1107.82 1102.85 1147.84C1060.71 1242.39 948.618 1290.07 861.606 1313.32C771.978 1337.61 690.166 1341.13 682.601 1341.46C682.258 1341.48 682.067 1341.48 682.036 1341.49C575.519 1338.05 485.798 1307.41 415.505 1250.38C355.14 1201.41 306.815 1131.92 272.477 1043.15C209.408 881.032 201.678 684.786 196.184 541.387C195.951 536.016 195.723 530.692 195.498 525.429L195.497 525.416C194.22 495.575 193.025 467.657 191.457 443.718C187.67 389.941 204.96 343.057 241.26 307.643C273.657 276.636 319.519 256.223 370.589 250.9L373.826 250.562C438.638 244.534 504.92 263.075 555.454 301.435C611.484 343.772 646.974 407.793 658.785 487.042C658.77 486.905 658.754 486.768 658.739 486.631C636.795 290.049 487.729 213.241 358.787 224.863L355.55 225.2C258.444 235.321 159.237 302.014 168.176 426.148C170.171 455.753 171.687 491.224 173.068 528.891L173.069 528.904L173.069 528.905C178.953 679.533 187.015 885.917 253.102 1056.08C332.464 1259.4 472.93 1361.83 682.727 1369.05C682.829 1369.04 683.255 1369.01 683.988 1368.97C688.443 1368.74 704.22 1367.9 727.077 1365.51ZM861.815 1311.84C808.768 1326.1 758.604 1333.14 724.797 1336.67C709.589 1338.25 697.785 1339.09 690.581 1339.61C685.689 1339.96 682.919 1340.16 682.643 1340.33C483.065 1333.5 349.673 1236.16 274.276 1042.96C211.206 880.844 203.514 684.958 198.02 541.559C197.787 536.192 197.559 530.873 197.334 525.613C196.057 495.764 194.862 467.836 193.293 443.89C184.991 325.87 279.066 262.257 371.496 252.623L374.373 252.323C495.593 241.124 634.972 312.361 658.657 493.977C646.143 422.661 612.713 364.942 561.675 326.236C513.921 290.131 450.989 272.332 389.414 278.022L386.536 278.322C337.984 283.383 294.167 302.492 263.381 331.514C228.729 365.302 212.653 409.878 216.14 460.777C218.033 485.364 219.182 514.655 220.39 545.443L220.39 545.448C220.493 548.08 220.597 550.723 220.702 553.374L220.814 556.175C226.227 691.702 233.617 876.697 293.217 1029.36C325.989 1113.56 371.421 1179.72 428.969 1226.07C495.688 1280.2 580.905 1309.49 681.952 1312.77C681.971 1312.77 682.039 1312.77 682.157 1312.76C682.244 1312.76 682.357 1312.75 682.496 1312.75C689.705 1312.4 766.965 1308.73 852.209 1285.94C934.26 1263.93 1040.79 1218.66 1080.89 1129.04C1097.68 1091.3 1090.51 1053.87 1058.09 1011.44C1030.15 974.545 985.054 937.091 937.097 897.266L937.096 897.265L937.096 897.265C935.121 895.625 933.141 893.981 931.157 892.332C821.588 801.827 685.43 689.115 662.771 523.676C675.337 595.441 708.801 663.549 764.537 730.826C818.167 795.404 885.036 850.967 944.284 899.69C1053.68 990.085 1140.01 1061.43 1101.69 1147.23C1059.88 1241.39 948.108 1288.67 861.815 1311.84ZM722.196 1308.22C754.205 1304.88 801.851 1298.1 852.059 1284.5C933.751 1262.53 1039.96 1217.65 1079.74 1128.43C1115.99 1047.21 1034.03 979.409 930.228 893.883C827.553 809.078 701.695 704.91 666.954 556.226C695.642 702.517 818.271 804.14 917.819 886.451C965.551 925.831 1010.5 962.955 1037.89 999.002C1068.61 1039.06 1075.59 1074.69 1059.33 1110.56C1021.62 1195.2 920.659 1238.09 842.848 1258.92C758.676 1281.51 682.265 1284.38 681.508 1284.1C585.931 1280.97 505.614 1253.35 442.109 1202.16C387.739 1158.39 344.479 1095.64 313.672 1016.32C257.243 871.139 250.378 695.889 245.348 567.472L245.294 566.081C244.153 534.206 242.802 503.807 240.897 478.556C237.313 430.212 252.932 388.229 285.614 356.464C315.036 328.312 356.05 310.221 402.085 305.423L404.962 305.123C463.301 299.77 522.487 316.505 568.255 351C613.142 384.917 643.382 434.298 656.999 494.782C629.286 332.998 501.25 269.579 389.601 279.821L386.724 280.121C299.329 289.23 209.989 349.441 218.013 461.309C219.841 485.047 220.946 512.886 222.129 542.697L222.129 542.699L222.129 542.7L222.196 544.391L222.361 548.543C222.432 550.324 222.503 552.112 222.575 553.906L222.694 556.877C228.106 692.384 235.478 876.933 295.053 1029.53C366.523 1212.95 493.202 1305.18 682.2 1311.66C682.476 1311.48 685.147 1311.29 689.833 1310.97C696.695 1310.49 707.878 1309.71 722.196 1308.22ZM842.301 1257.16C794.895 1269.74 749.767 1276.26 719.556 1279.41C696.898 1281.77 682.437 1282.55 682.04 1282.23C502.903 1276.17 383.298 1189.02 315.792 1015.73C259.401 870.913 252.537 695.666 247.506 567.249L247.506 567.248L247.506 567.248L247.451 565.856C247.028 556.875 246.645 548.006 246.271 539.334L246.27 539.302L246.269 539.284L246.268 539.271L246.267 539.239L246.267 539.238L246.267 539.237C245.316 517.2 244.421 496.433 243.055 478.331C235.308 372.615 319.913 315.806 402.632 307.184L405.15 306.922C510.651 297.322 631.779 357.196 657.976 510.631C645.036 453.624 616.567 407.404 574.439 375.442C531.413 342.843 475.254 327.246 420.512 332.224L417.995 332.487C374.477 337.023 335.546 354.169 308.169 381.017C277.458 410.759 262.73 450.832 266.015 496.298C267.27 513.328 268.038 532.827 268.854 553.541L268.855 553.548L268.855 553.569L268.855 553.572L268.856 553.574L268.856 553.585C269.181 561.82 269.513 570.247 269.886 578.787C274.532 700.097 280.911 865.944 334.486 1003.24C363.765 1078.36 404.455 1137.37 455.648 1178.57C515.578 1226.86 591.354 1252.78 681.462 1255.75C681.496 1255.74 681.683 1255.73 682.019 1255.72C688.901 1255.4 757.959 1252.25 833.489 1231.9C907.059 1212.24 1002.09 1171.79 1037.74 1091.73C1070.79 1018.11 997.165 957.075 904.085 880.248C809.756 802.476 693.233 706.403 667.091 567.26C699.582 708.34 818.885 806.978 916.335 887.549L916.493 887.68C1014.74 968.695 1091.97 1032.99 1057.78 1109.63C1020.03 1193.92 920.112 1236.32 842.301 1257.16ZM717.315 1250.92C745.727 1247.96 788.375 1242.06 833.264 1229.74C906.115 1210.15 1000.47 1170.14 1036.19 1090.8C1068.42 1018.81 996.415 959.113 904.933 883.273L903.156 881.799C809.866 804.889 695.356 710.189 666.9 573.761C689.14 707.667 800.286 799.713 890.35 874.045L890.498 874.167C977.948 946.425 1047.07 1003.54 1016.14 1072.89C982.528 1148.02 893.419 1186.03 824.45 1204.49C753.386 1223.67 688.881 1226.66 682.285 1226.97C681.956 1226.98 681.771 1226.99 681.737 1227C597.098 1224.18 525.825 1199.62 469.507 1154.59C421.453 1115.61 382.975 1060.36 355.621 989.767C305.683 861.402 299.431 706.138 294.859 592.585L294.859 592.584L294.799 591.096L294.72 589.088L294.559 585.036L294.453 582.356L294.453 582.354C293.464 557.34 292.531 533.732 291.093 513.68C284.074 418.431 359.815 367.272 433.903 359.55L436.42 359.288C487.925 354.646 540.698 369.142 580.981 399.846C622.247 431.027 649.285 476.666 660.72 532.817C638.694 383.278 522.218 324.869 421.456 334.307L418.939 334.57C340.895 342.704 261.423 396.433 268.532 496.036C270.287 519.848 271.45 548.448 272.404 578.525C277.049 699.835 283.429 865.682 336.966 1002.62C400.545 1166.14 513.436 1248.17 681.994 1253.87C682.123 1253.71 684.347 1253.57 688.351 1253.31L688.352 1253.31L688.353 1253.31C694.359 1252.92 704.368 1252.27 717.315 1250.92ZM823.505 1202.4C781.419 1213.7 741.288 1219.33 714.674 1222.11C698.062 1223.84 686.216 1224.56 682.421 1224.79C681.698 1224.84 681.267 1224.86 681.152 1224.87C523.174 1219.53 416.96 1142.25 357.345 988.861C307.828 860.885 301.596 706.078 297.025 592.545L296.957 590.872C296.84 587.94 296.725 585.024 296.611 582.126C295.622 557.114 294.689 533.506 293.251 513.455C286.419 420.004 361.156 369.677 434.165 362.068L436.323 361.843C529.343 353.191 636.059 405.686 659.609 540.253C648.052 491.349 623.203 451.683 586.804 424.325C549.301 395.877 499.878 382.123 451.61 386.427L449.452 386.652C380.04 393.887 309.394 441.606 316.098 530.344C317.553 551.279 318.701 576.245 319.639 602.687L319.74 605.248C323.916 711.471 329.6 856.056 376.323 975.613C402.11 1041.64 438.056 1093.52 482.933 1129.92C535.355 1172.45 602.087 1195.31 681.255 1197.96C681.653 1198.28 745.041 1196.04 814.693 1177.15C879.062 1159.89 962.604 1124.28 993.792 1053.77C1022.65 988.991 958.285 935.743 876.388 867.989L876.256 867.88C793.746 799.703 692.495 716.031 668.647 595.266C698.379 718.924 803.013 805.284 888.739 876.03L889.81 876.916C976.03 948.168 1044.12 1004.44 1013.87 1072.04C980.543 1146.41 892.115 1183.98 823.505 1202.4ZM991.918 1053.24C944.758 1158.86 778.968 1186.69 710.634 1193.81C695.973 1195.34 685.741 1195.9 682.301 1196.09C681.607 1196.13 681.189 1196.15 681.068 1196.16C532.913 1190.88 433.809 1119.05 378.122 975.425C331.427 855.248 325.702 709.721 321.514 603.275L321.512 603.219C320.536 576.417 319.388 551.451 317.933 530.516C311.739 443.179 381.381 396.292 449.715 389.169L451.872 388.945C536.449 381.146 633.319 427.651 658.684 546.319C646.966 505.771 624.866 472.55 593.744 449.051C558.624 422.535 512.588 409.883 467.556 413.849L465.399 414.074C400.662 420.821 334.391 465.176 340.495 548.159C341.707 562.327 342.356 578.481 343.047 595.716L343.047 595.717C343.305 602.153 343.57 608.74 343.871 615.43C347.632 714.292 353.095 850.422 396.778 962.573C420.601 1023.71 454.014 1072.22 496.073 1106.01C544.921 1145.64 607.113 1166.79 680.812 1169.28C680.874 1169.28 681.134 1169.26 681.58 1169.24C696.426 1168.45 917.83 1156.72 972.196 1034.93C999.324 974.3 939.244 924.574 862.881 861.638C789.924 801.269 700.893 727.595 673.482 623.54C706.221 730.365 798.888 806.934 875.005 869.828L875.149 869.948C956.247 937.052 1020.21 989.975 991.918 1053.24ZM969.926 1034.08C926.01 1132.46 772.013 1158.32 708.355 1164.96C694.665 1166.39 685.357 1166.86 682.145 1167.02L682.136 1167.02C681.472 1167.06 681.07 1167.08 680.946 1167.09C543.409 1162.52 451.341 1095.4 399.258 961.951C355.613 850.16 350.187 714.389 346.426 615.528C346.366 614.198 346.307 612.872 346.247 611.55L346.043 607L346.043 606.987C345.079 585.5 344.166 565.125 343.013 547.897C337.096 466.712 401.965 422.867 465.623 416.232L467.781 416.007C548.945 408.598 642.45 454.874 662.221 573.552C652.243 531.656 631.003 497.469 599.605 473.889C566.83 448.947 524.502 436.998 482.745 440.987L480.947 441.175C420.886 447.435 359.747 488.709 365.612 565.901C366.624 581.729 367.372 600.378 368.163 620.101L368.323 624.108C368.382 625.566 368.441 627.029 368.5 628.496C371.871 720.127 376.607 845.79 417.269 949.894C439.564 1006.83 470.407 1051.61 509.289 1082.82C554.525 1119.19 612.213 1138.99 680.442 1141.33C680.507 1141.32 680.767 1141.31 681.212 1141.28C695.485 1140.52 900.017 1129.64 950.316 1016.86C975.375 960.799 919.664 914.617 848.861 856.191L848.17 855.619C777.03 796.663 689.863 724.425 669.838 619.821C695.755 726.682 786.387 801.668 860.568 863.043L861.27 863.624L861.431 863.757C936.564 926.023 996.143 975.399 969.926 1034.08ZM706.074 1136.11C765.057 1129.96 907.62 1106.02 947.97 1015.28C972.101 960.777 917.184 915.239 847.213 857.817C781.136 803.35 701.035 737.002 673.164 643.847C695.318 733.914 772.052 797.257 834.922 849.156L835.449 849.591L835.8 849.881C900.481 903.338 951.955 945.879 928.683 997.66C882.284 1101.38 693.383 1111.55 680.951 1112.22C680.585 1112.24 680.372 1112.25 680.32 1112.26C563.583 1108.43 482.125 1048.93 438.368 936.061C401.307 840.799 396.761 725.95 393.427 641.699L393.377 640.446C392.642 619.436 391.659 599.542 390.654 582.923C385.067 511.883 441.47 474.011 496.496 468.275L498.295 468.088C536.815 464.437 575.793 475.644 605.788 498.33C632.73 518.671 651.555 547.347 661.572 582.46C640.928 477.607 556.711 436.509 483.008 443.505C423.591 448.971 362.377 489.526 367.732 565.316C368.887 583.374 370.057 605.066 370.621 627.912L370.737 630.76C374.452 722.098 379.502 846.236 419.314 948.59C467.433 1071.91 552.825 1134.27 680.142 1138.45C680.37 1138.43 680.983 1138.38 681.95 1138.3L681.951 1138.3C685.572 1138.02 694.156 1137.35 706.074 1136.11ZM926.375 996.446C888.909 1079.97 758.14 1101.96 703.832 1107.62C692.396 1108.82 684.257 1109.18 681.251 1109.32L681.251 1109.32C680.57 1109.35 680.153 1109.37 680.02 1109.38C562.886 1105.23 484.605 1048.31 440.413 934.757C403.427 840.213 398.882 725.369 395.547 641.118L395.547 641.118L395.498 639.861C395.46 638.801 395.424 637.744 395.387 636.69L395.322 634.817L395.322 634.816L395.322 634.814C394.657 615.667 394.029 597.587 392.774 582.339C387.772 513.419 442.811 476.416 496.759 470.793L498.557 470.606C567.136 464.496 645.618 502.818 663.488 601.076C641.856 521.159 573.577 489.616 513.844 495.19L512.406 495.34C462.055 500.588 410.424 535.418 414.655 600.419C415.476 610.658 415.941 622.265 416.437 634.637L416.437 634.638L416.438 634.657L416.438 634.664L416.439 634.673L416.439 634.685L416.44 634.705C416.677 640.608 416.92 646.684 417.213 652.869C420.125 729.641 424.598 835.335 458.426 922.7C498.616 1025.76 573 1080.18 679.517 1083.62C679.571 1083.61 679.784 1083.6 680.148 1083.58C692.009 1082.94 864.038 1073.61 906.369 978.9C927.575 931.693 880.856 893.015 821.729 844.065L821.392 843.786L819.98 842.611C761.387 793.855 689.68 734.189 671.916 648.774C695.856 737.347 771.553 800.166 833.838 851.577L834.192 851.869C898.077 904.68 948.757 946.574 926.375 996.446ZM701.194 1078.82C750.466 1073.68 870.161 1053.57 904.023 977.327C924.339 932.029 878.414 893.997 820.083 845.693L819.744 845.412C764.685 799.892 698.306 744.943 674.369 668.139C692.935 742.121 756.042 794.455 807.98 837.185C859.682 879.787 904.237 916.589 885.095 959.667C846.718 1045.62 690.408 1053.94 680.263 1054.48L680.081 1054.49L679.925 1054.5C679.875 1054.5 679.836 1054.5 679.807 1054.51C679.782 1054.51 679.765 1054.51 679.755 1054.51C583.42 1051.1 516.147 1002.12 479.524 908.867C448.754 829.909 444.971 734.323 442.412 664.421C442.339 662.681 442.268 660.952 442.198 659.235L442.182 658.834C441.555 643.557 440.968 629.269 440.018 617.044C435.781 558.952 482.279 527.202 527.955 522.441L529.393 522.291C582.576 517.387 643.04 544.598 663.89 613.752C646.58 526.242 575.837 491.958 514.107 497.708C464.4 502.161 413.054 536.235 417.854 599.722C418.675 609.961 419.141 621.568 419.636 633.939L419.636 633.941C419.874 639.865 420.118 645.964 420.412 652.172C423.324 728.944 427.4 834.316 461.19 921.322C501.418 1024.74 573.022 1076.9 679.54 1080.35C680.656 1080.59 688.606 1080.13 701.194 1078.82ZM882.106 958.888C851.45 1027.52 743.548 1045.68 698.951 1050.33C690.14 1051.25 683.837 1051.69 680.882 1051.9C679.977 1051.96 679.386 1052 679.133 1052.03C459.512 1044.74 449.988 806.876 444.644 664.916C444.602 663.888 444.56 662.864 444.518 661.844L444.414 659.33L444.414 659.321C443.787 644.047 443.201 629.761 442.251 617.538C438.164 560.885 483.696 530.326 527.933 525.715L529.371 525.565C583.539 520.586 645.537 549.658 663.248 624.104C642.617 567.381 590.905 545.214 545.302 549.354L543.864 549.504C502.864 553.777 460.741 582.163 465.098 634.425C465.257 637.961 465.436 641.675 465.621 645.543L465.621 645.55L465.622 645.56C466.082 655.145 466.587 665.673 466.966 676.768C469.495 739.401 472.948 824.842 500.301 895.431C532.637 978.952 592.837 1022.85 679.311 1025.83C679.354 1025.83 679.526 1025.82 679.82 1025.8C689.401 1025.29 828.832 1017.82 863.141 940.868C880.574 902.331 840.388 869.073 794.245 830.982C751.051 795.382 698.967 752.335 678.789 692.7C703.514 755.288 758.927 801.196 805.197 839.529L805.724 839.966C858.619 883.533 900.393 918.081 882.106 958.888ZM696.672 1021.48C736.593 1017.32 833.061 1001.08 860.473 939.692C876.655 903.103 839.646 872.422 792.312 833.364L791.093 832.352C746.72 795.505 693.35 751.188 674.227 689.093C687.585 749.026 738.387 790.982 779.875 825.245L780.226 825.535C821.206 859.438 856.229 888.509 841.261 922.79C811.017 990.734 688.437 997.363 679.451 997.848C679.289 997.857 679.163 997.864 679.076 997.869L679.003 997.874L678.966 997.876L678.953 997.877L678.942 997.878C602.688 995.283 549.562 956.465 520.793 882.752C496.596 820.824 493.721 745.494 491.622 690.509L491.622 690.508L491.596 689.834C491.302 684.101 491.09 678.549 490.887 673.24L490.887 673.236L490.887 673.233L490.887 673.231L490.887 673.229C490.604 665.815 490.338 658.872 489.893 652.564C486.098 605.697 523.126 580.75 559.451 576.964L560.53 576.852C602.101 573.15 649.248 594.051 666.2 647.323C652.635 575.792 595.442 547.726 545.243 552.268L544.164 552.381C504.602 556.504 464.165 583.623 467.975 634.125C468.848 645.833 469.305 659.903 469.776 674.393L469.776 674.395L469.844 676.468C474.729 803.569 483.03 1015.75 679.333 1022.56C679.731 1022.88 686.242 1022.57 696.672 1021.48ZM838.556 921.254C814.35 975.039 729.675 989.318 694.43 992.992C690.787 993.372 687.669 993.637 685.228 993.844L685.223 993.845L685.216 993.846L685.216 993.846L685.214 993.846C681.638 994.15 679.516 994.33 679.324 994.566C506.607 988.963 499.277 802.159 494.885 690.233L494.87 689.856C494.525 676.077 493.895 663.054 493.13 652.227C489.882 607.12 525.944 583.365 561.227 580.051C605.457 575.788 656.046 600.881 667.75 664.448C652.712 618.611 612.185 600.503 576.079 603.952L575 604.065C543.71 607.326 511.418 628.87 514.537 669.264C515.031 676.799 515.389 685.284 515.779 694.514L515.779 694.517L515.779 694.518L515.783 694.59L515.887 697.07L515.948 698.495L516.009 699.909C516.031 700.424 516.053 700.942 516.075 701.461C517.787 749.273 520.578 814.424 541.494 868.596C566.337 932.539 612.749 966.239 678.783 968.445C683.496 968.318 792.463 963.868 819.59 903.234C832.773 873.667 802.589 848.62 767.432 819.448L766.813 818.934C731.366 789.879 687.997 754.125 675.568 703.512C693.231 757.222 739.996 795.96 778.653 827.881C820.03 862.106 852.67 889.243 838.556 921.254ZM691.79 964.181C722.001 961.032 795.601 948.635 816.203 902.133C828.61 874.663 799.978 851.107 764.198 821.752L763.857 821.469C732.364 795.394 694.89 764.368 677.796 722.128C690.22 761.136 724.32 789.486 752.393 812.826L752.756 813.128C782.976 837.972 808.827 859.273 797.313 884.832C775.509 933.65 691.329 939.27 679.316 940.073L679.307 940.073C678.657 940.117 678.22 940.146 678.017 940.167C548.863 935.814 543.497 797.128 540.308 714.205C540.043 706.088 539.597 698.457 539.21 691.842L539.209 691.834C539.113 690.184 539.02 688.596 538.935 687.08C536.774 652.403 563.935 633.939 590.908 631.128L591.628 631.053C620.728 628.32 653.545 642.263 667.488 677.278C656.653 624.398 613.493 603.665 576.056 607.227L574.977 607.339C545.126 610.45 514.557 631.088 517.092 669.361C517.615 677.342 518.013 686.649 518.439 696.596L518.439 696.601L518.439 696.602L518.44 696.623C518.515 698.369 518.591 700.136 518.668 701.918L518.683 702.296C522.58 799.005 529.084 960.444 678.123 965.606L691.79 964.181ZM794.608 883.296C776.89 922.59 715.083 933.031 689.548 935.693C684.309 936.239 680.458 936.402 678.989 936.464L678.982 936.465C678.64 936.479 678.429 936.488 678.361 936.495C552.482 932.165 546.944 795.315 543.904 713.83C543.627 705.332 543.151 697.365 542.73 690.33L542.73 690.325L542.63 688.649C542.583 687.869 542.538 687.101 542.494 686.346C540.199 653.864 566.392 636.592 591.965 634.29C624.155 631.28 660.862 649.507 669.295 695.516C657.733 668.118 631.463 655.919 607.177 658.155L606.458 658.23C584.519 660.516 562.132 675.938 563.977 704.104C564.393 708.096 564.579 712.528 564.778 717.287L564.778 717.299L564.778 717.3L564.778 717.304C564.901 720.257 565.03 723.336 565.222 726.515L565.223 726.53C567.955 794.597 572.502 907.903 678.293 911.418C678.459 911.4 678.815 911.377 679.346 911.341L679.357 911.341C689.201 910.685 758.196 906.094 776.078 865.96C785.525 844.979 764.042 827.222 739.382 806.888C716.199 787.795 687.876 764.283 677.905 731.989C692.563 767.515 724.224 793.671 750.823 815.511L751.364 815.962C781.364 840.95 804.885 860.542 794.608 883.296ZM772.653 864.499C758.502 896.15 708.128 904.672 687.269 906.847L687.267 906.847C681.873 907.409 678.637 907.746 678.24 907.424C575.716 903.931 571.401 792.767 568.819 726.14C568.316 717.83 567.889 710.24 567.574 703.729C565.594 677.759 586.333 663.963 606.833 661.826L607.552 661.751C634.923 659.262 666.439 675.61 671.147 717.292C675.794 758.46 708.638 785.882 735.428 808.25C735.997 808.725 736.563 809.198 737.127 809.668L737.717 810.163L738.571 810.878C762.19 830.669 780.723 846.198 772.653 864.499Z" fill="url(#paint0_linear)"/>
<defs>
<linearGradient id="paint0_linear" x1="1176.88" y1="1423.2" x2="428.422" y2="175.329" gradientUnits="userSpaceOnUse">
<stop stop-color="#04DA00" stop-opacity="0"/>
<stop offset="0.3125" stop-color="#FF0469"/>
<stop offset="0.703125" stop-color="#109BFF"/>
<stop offset="1" stop-color="#FFD110" stop-opacity="0"/>
</linearGradient>
</defs>
</svg>
