<svg width="780" height="816" viewBox="0 0 780 816" fill="none" xmlns="http://www.w3.org/2000/svg">
<g opacity="0.33">
<path d="M564.837 334.267C501.191 317.213 536.621 112.357 408.208 77.9484C359.725 64.9575 312.767 108.424 302.321 147.41C295.541 172.713 307.507 209.669 297.463 247.156C277.173 322.879 138.915 242.842 109.837 351.366C93.3636 412.844 130.044 478.119 178.901 491.21C212.97 500.339 261.448 483.396 286.906 490.217C323.409 499.998 286.819 572.157 283.117 593.464C274.3 644.338 316.985 702.18 365.467 715.171C430.984 732.727 452.311 640.406 464.013 596.734C508.811 429.544 610.557 571.716 648.374 430.579C656.008 402.089 662.272 330.04 623.337 319.608C600.312 313.438 600.778 343.897 564.837 334.267Z" stroke="url(#paint0_linear)" stroke-miterlimit="10"/>
<path d="M624.117 315.196C602.042 308.477 602.335 338.087 568.042 328.295C506.707 310.856 539.767 112.597 415.284 79.2416C390.014 72.4702 367.277 82.4491 346.384 94.5293C325.204 106.934 307.973 124.817 300.691 143.758C291.404 167.185 302.298 203.653 291.929 240.851C288.528 252.797 282.323 260.978 274.086 267.008C230.041 299.603 137.591 259.764 113.033 351.419C96.1578 414.396 126.396 479.753 172.979 493.842C205.3 503.506 252.5 489.837 279.492 497.672C295.677 502.411 297.987 518.498 295.837 537.007C293.043 560.164 282.715 586.727 281.724 597.912C276.907 645.839 319.176 697.745 368.22 710.886C432.615 728.141 454.954 642.521 467.839 601.175C482.367 554.443 501.378 531.412 521.435 518.706C568.348 488.889 621.136 527.743 645.731 428.464C647.754 420.167 649.744 408.245 650.813 395.272C653.301 368.015 651.698 338.055 636.079 322.218C632.701 319.103 628.747 316.637 624.117 315.196Z" stroke="url(#paint1_linear)" stroke-miterlimit="10"/>
<path d="M624.574 310.497C603.686 303.092 603.755 332.039 570.923 322.036C512.085 304.262 542.726 112.787 422.361 80.535C395.218 73.2621 372.664 86.3033 349.338 97.7314C327.336 108.711 308.439 122.33 298.824 140.245C287.268 161.657 296.901 197.586 285.921 234.822C282.519 246.767 276.127 254.898 268.352 261.453C224.102 297.81 140.888 259.442 116.128 351.846C98.8517 416.323 122.835 481.812 167.008 496.661C197.579 506.861 243.501 496.465 271.84 505.264C287.925 510.378 290.997 525.866 289.984 543.875C288.751 566.447 280.186 591.674 280.195 602.122C279.802 647.017 321.692 693.598 371.111 706.839C434.569 723.843 457.872 645.11 471.802 605.852C487.462 561.634 507.61 538.104 527.658 523.186C573.466 489.255 620.565 525.38 643.037 426.537C644.973 417.814 646.964 405.892 648.082 392.733C650.822 364.538 650.753 335.592 636.098 318.406C632.82 314.916 629.153 312.126 624.574 310.497Z" stroke="url(#paint2_linear)" stroke-miterlimit="10"/>
<path d="M625.218 305.848C605.654 297.994 605.412 325.853 573.991 315.827C517.464 297.667 545.871 113.027 429.251 81.7785C400.049 73.9538 377.864 90.1074 352.105 100.884C329.281 110.437 308.717 119.793 296.819 136.493C283.232 155.754 291.317 191.469 279.826 228.367C276.237 240.263 269.845 248.394 262.394 255.236C218.175 295.218 143.723 258.594 118.763 351.749C101.084 417.725 118.762 483.533 160.337 499.092C189.297 510.066 233.803 502.706 263.439 512.656C279.474 517.957 283.208 533.221 283.382 550.544C283.523 572.479 276.908 596.42 277.916 606.132C281.761 647.943 323.372 688.825 373.165 702.167C435.687 718.92 459.817 646.837 474.929 609.905C491.909 568.25 512.957 544.358 533.046 527.041C577.748 488.997 618.972 522.341 639.695 424.034C641.494 415.074 643.348 402.915 644.754 389.43C647.882 360.536 649.11 332.741 635.518 313.831C632.988 310.542 629.372 307.564 625.218 305.848Z" stroke="url(#paint3_linear)" stroke-miterlimit="10"/>
<path d="M625.674 301.149C607.247 292.796 606.832 319.805 577.009 309.805C522.792 291.26 548.83 113.217 436.141 83.0217C404.879 74.6453 383.202 94.149 354.872 104.035C331.413 112.214 309.046 117.069 294.765 132.929C279.333 150.089 285.547 185.302 273.817 222.338C270.041 234.183 263.787 242.551 256.472 249.632C211.998 293.562 146.782 258.409 121.671 352.126C103.591 419.602 115.014 485.542 154.128 502.049C181.339 513.559 224.567 509.472 255.737 520.436C271.671 526.112 276.118 540.964 277.241 557.738C278.757 579.036 274.091 601.692 276.049 610.855C284.181 649.395 325.413 684.952 375.58 698.394C436.979 714.846 462.072 649.651 478.418 614.857C496.667 575.953 518.527 551.275 538.744 531.982C582.478 490.063 617.876 520.441 636.664 422.619C638.513 413.472 640.042 401.024 641.686 387.402C645.727 357.347 648.201 330.89 635.486 310.206C633.107 306.355 629.779 303.052 625.674 301.149Z" stroke="url(#paint4_linear)" stroke-miterlimit="10"/>
<path d="M626.268 296.688C609.165 287.886 608.201 313.945 580.027 303.784C528.307 284.903 551.976 113.457 443.217 84.3156C410.084 75.4377 388.726 98.2412 357.825 107.238C333.92 114.091 309.936 114.495 293.135 129.279C276.045 144.387 280.387 179.099 268.096 215.984C264.183 227.591 257.878 236.147 250.838 243.703C206.295 291.633 149.992 257.663 124.68 352.129C106.198 421.105 111.366 487.176 148.019 504.631C173.669 516.727 215.431 515.864 247.897 527.978C263.781 533.842 268.89 548.469 271.2 564.557C274.278 585.27 271.374 606.589 274.332 615.016C286.751 650.285 327.604 680.517 378.146 694.06C438.609 710.261 464.478 651.903 482.056 619.248C501.387 583.044 524.384 557.867 544.83 536.225C587.596 490.431 616.794 517.74 633.883 420.267C635.595 410.882 637.175 398.248 638.869 384.438C642.873 353.771 646.831 328.515 635.13 306.294C633.226 302.168 630.185 298.541 626.268 296.688Z" stroke="url(#paint5_linear)" stroke-miterlimit="10"/>
<path d="M626.912 292.039C611.083 282.976 609.809 307.947 583.282 297.625C533.686 278.309 555.122 113.698 450.294 85.6091C415.102 76.1794 394.438 102.383 360.78 110.44C336.376 116.156 310.827 111.921 291.267 125.765C272.658 139.06 274.941 173.22 262.275 210.004C258.363 221.612 252.057 230.168 245.341 238.011C200.73 289.941 153.476 257.391 128.013 352.419C109.129 422.894 107.992 489.285 142.234 507.501C166.323 520.183 206.619 522.543 240.62 535.671C256.403 541.909 262.275 555.937 265.672 571.714C270.073 591.977 269.169 611.824 273.127 619.514C289.509 651.225 330.307 676.42 381.411 690.113C440.751 706.013 467.533 654.73 486.394 624.026C506.857 590.335 530.941 564.847 551.377 540.993C593.313 491.56 616.36 515.615 631.701 418.678C633.276 409.055 634.719 396.183 636.7 382.049C641.143 350.494 646.535 326.627 635.71 302.633C633.345 297.981 630.541 294.217 626.912 292.039Z" stroke="url(#paint6_linear)" stroke-miterlimit="10"/>
<path d="M627.368 287.34C611.261 280.814 611.229 301.899 586.163 291.366C538.877 271.664 558.08 113.888 456.996 86.8024C419.932 76.8712 399.725 106.612 363.409 113.355C338.458 118.12 311.58 109.11 289.126 121.776C269.046 133.07 269.083 166.628 256.043 203.312C251.943 214.87 245.588 223.613 239.196 231.744C194.516 287.673 156.124 256.493 130.51 352.084C111.225 424.059 103.645 490.532 135.614 509.745C157.904 523.15 197.022 528.409 232.319 542.688C248.24 549.164 254.586 562.918 259.17 578.007C265.133 597.685 265.804 616.146 270.899 623.337C291.006 651.626 332.038 671.46 383.516 685.253C441.919 700.903 469.478 656.457 489.384 627.84C510.93 596.851 536.338 570.913 556.627 544.609C597.782 491.352 614.442 512.289 628.222 415.938C629.71 405.89 631.153 393.018 633.185 378.697C638.065 346.255 644.654 323.913 634.943 298.008C633.413 293.982 630.56 290.405 627.368 287.34Z" stroke="url(#paint7_linear)" stroke-miterlimit="10"/>
<path d="M628.012 282.691C612.89 276.229 612.699 295.664 589.181 285.344C544.205 265.257 561.038 114.078 464.073 88.0959C424.95 77.6129 405.386 110.942 366.363 116.557C341.101 120.234 312.794 106.824 287.259 118.262C265.846 127.792 263.636 160.749 250.272 197.145C246.035 208.465 239.817 217.446 233.562 225.815C188.95 285.981 159.47 255.984 133.656 352.324C113.968 425.798 100.134 492.403 129.692 512.377C150.42 526.368 188.261 534.9 224.667 550.28C240.537 556.943 247.546 570.473 253.317 584.876C260.654 603.918 263.274 621.093 269.369 627.548C293.015 652.365 334.416 667.075 386.269 680.969C443.736 696.367 472.021 658.946 493.21 632.281C515.838 603.991 542.382 577.555 562.713 548.852C603.037 491.956 613.36 509.588 625.578 413.823C626.93 403.538 628.235 390.428 630.555 375.782C635.874 342.453 643.658 321.637 635.111 293.633C633.532 289.795 630.728 286.03 628.012 282.691Z" stroke="url(#paint8_linear)" stroke-miterlimit="10"/>
<path d="M628.469 277.992C614.384 271.405 614.119 289.615 592.249 279.135C549.583 258.662 564.185 114.318 470.963 89.339C429.781 78.3043 410.861 115.221 369.13 119.709C343.321 122.436 313.772 104.674 285.392 114.748C262.782 122.753 258.24 154.682 244.264 191.116C239.84 202.385 233.758 211.604 227.64 220.21C183.285 284.663 162.392 255.561 136.377 352.652C116.288 427.625 96.1489 494.549 123.296 515.283C142.276 529.81 178.888 541.429 216.778 558.01C232.598 564.86 240.456 578.216 247.176 592.07C256.075 610.525 260.27 626.315 267.69 632.32C294.823 653.854 336.458 663.202 388.871 677.246C445.216 692.344 474.277 661.76 496.886 637.283C520.358 611.832 548.464 584.81 568.599 553.843C608.092 493.31 612.078 507.637 622.547 412.408C623.761 401.885 625.117 388.588 627.487 373.754C633.244 339.538 642.038 320.199 634.792 290.333C633.464 285.558 631.135 281.519 628.469 277.992Z" stroke="url(#paint9_linear)" stroke-miterlimit="10"/>
<path d="M629.062 273.53C615.963 267.007 615.538 283.567 595.267 273.113C554.724 252.205 567.092 114.695 477.989 90.8201C434.935 79.2838 416.608 119.975 372.034 123.098C345.863 124.925 314.885 102.763 283.524 111.235C259.531 117.663 252.792 148.803 238.305 184.899C233.881 196.169 227.612 205.337 221.956 214.468C177.669 283.159 165.688 255.239 139.522 352.892C119.031 429.365 92.6373 496.421 117.137 518.052C134.504 533.353 169.701 548.007 208.938 565.552C224.708 572.59 233.228 585.721 240.948 598.839C251.408 616.708 257.129 631.299 265.785 636.431C296.22 654.63 338.461 658.717 391.249 672.861C446.658 687.708 476.258 664.099 500.337 641.623C524.704 618.822 554.134 591.351 574.31 557.986C613.159 493.865 610.433 504.786 619.579 410.006C620.656 399.245 621.875 385.711 624.482 370.74C630.628 335.824 640.668 317.823 634.536 286.046C633.582 281.371 631.491 277.195 629.062 273.53Z" stroke="url(#paint10_linear)" stroke-miterlimit="10"/>
<path d="M629.706 268.882C617.643 262.234 617.146 277.57 598.335 266.904C559.965 245.373 570.289 114.748 484.929 91.8763C439.816 79.7882 422.083 124.255 374.664 126.013C347.945 126.89 315.675 100.564 281.332 107.434C256.093 112.523 247.072 142.449 232.16 178.632C227.599 189.664 221.467 199.07 215.947 208.439C171.916 281.417 168.474 254.579 142.157 352.794C121.264 430.767 88.5649 498.142 110.654 520.534C126.273 536.371 160.241 554.111 200.912 573.044C216.581 580.457 226.051 593.039 234.67 605.795C246.692 623.078 253.988 636.283 263.831 640.729C297.654 656.019 340.466 654.232 393.628 668.477C447.914 683.022 478.239 666.438 503.789 645.963C529 626 559.942 598.131 580.159 562.365C618.227 494.419 608.927 502.173 616.698 408.029C617.638 397.031 618.908 383.308 621.615 367.963C628.199 332.16 639.248 315.634 634.418 281.997C633.701 277.184 631.66 272.82 629.706 268.882Z" stroke="url(#paint11_linear)" stroke-miterlimit="10"/>
<path d="M630.163 264.182C619.273 257.649 618.429 271.284 601.403 260.695C565.207 238.541 573.247 114.938 491.819 93.1193C444.834 80.5296 427.644 128.959 377.431 129.165C350.301 129.328 316.79 98.6527 279.516 103.732C252.893 107.246 241.725 136.195 226.252 172.227C221.504 183.209 215.509 192.853 210.126 202.459C166.538 279.774 171.633 254.019 145.116 352.984C123.821 432.456 84.867 499.964 104.495 523.303C118.502 539.913 151.105 560.502 193.073 580.586C208.879 588.237 218.823 600.544 228.63 612.613C242.213 629.311 251.034 641.317 262.065 645.076C299.088 657.407 342.607 649.984 396.144 664.329C449.494 678.624 480.221 668.777 507.378 650.54C533.347 632.99 565.987 604.772 585.82 566.694C623.245 495.161 607.233 499.509 613.443 405.951C614.246 394.715 615.379 380.755 618.324 365.272C625.346 328.583 637.216 313.483 633.874 278.034C633.582 273.134 632.016 268.496 630.163 264.182Z" stroke="url(#paint12_linear)" stroke-miterlimit="10"/>
<path d="M630.807 259.534C620.954 252.876 620.086 265.098 604.422 254.674C570.398 231.896 576.393 115.178 498.896 94.4129C449.851 81.2715 433.205 133.663 380.435 132.18C352.758 131.393 317.904 96.7415 277.699 100.031C249.78 102.394 236.142 130.078 220.482 166.06C215.733 177.042 209.739 186.686 204.442 196.718C161.297 278.37 174.793 253.46 148.074 353.174C126.378 434.145 81.1188 501.973 98.386 525.885C110.832 543.081 142.02 566.706 185.234 588.128C200.99 595.966 211.783 608.099 222.59 619.432C237.734 635.544 248.08 646.351 260.348 649.237C300.946 658.709 344.799 645.549 398.71 659.994C451.124 674.038 482.203 671.116 511.017 654.931C537.694 639.981 572.032 611.415 591.719 570.887C628.5 495.765 605.777 496.708 610.612 403.786C611.142 392.075 612.462 378.166 615.457 362.495C622.917 324.919 635.797 311.294 633.943 274.035C633.701 268.947 632.185 264.122 630.807 259.534Z" stroke="url(#paint13_linear)" stroke-miterlimit="10"/>
<path d="M631.212 255.022C622.346 248.428 621.369 258.813 607.439 248.652C575.589 225.252 579.301 115.556 505.735 95.844C454.631 82.1509 438.715 138.555 383.151 135.519C355.063 134.02 318.73 95.1553 275.644 96.4674C246.291 97.4415 230.558 123.962 214.336 159.793C209.4 170.725 203.542 180.607 198.433 190.688C155.731 276.678 177.765 252.85 150.896 353.127C128.798 435.598 77.2329 503.744 92.0895 528.417C102.737 546.336 132.747 572.86 177.444 595.483C193.15 603.509 204.656 615.23 216.549 626.252C233.255 641.777 245.126 651.386 258.581 653.585C302.516 660.335 346.94 641.301 401.226 655.847C452.516 669.591 484.184 673.455 514.605 659.509C542.04 646.972 577.976 618.432 597.704 575.504C633.842 496.795 604.22 494.282 607.918 401.859C608.311 389.911 609.493 375.764 612.776 359.768C620.675 321.305 634.376 309.106 634.011 270.035C633.819 264.761 632.591 259.61 631.212 255.022Z" stroke="url(#paint14_linear)" stroke-miterlimit="10"/>
<path d="M631.856 250.374C624.026 243.655 623.026 252.628 610.507 242.443C580.643 218.37 582.497 115.609 512.862 96.9503C459.886 82.7556 444.276 143.26 386.155 138.534C357.469 136.272 319.844 93.2441 273.827 92.7664C243.04 92.3519 225.161 117.896 208.565 153.627C203.492 164.321 197.772 174.44 192.937 184.997C150.864 275.374 181.061 252.528 154.041 353.367C131.542 437.338 73.6718 505.804 86.1177 531.236C95.1531 549.93 123.798 579.301 169.792 603.076C185.448 611.289 197.803 622.836 210.509 633.071C228.963 648.06 242.359 656.471 256.864 657.746C304.374 661.637 349.132 636.867 403.792 651.513C454.146 665.005 486.028 675.557 518.244 663.899C546.249 653.725 584.021 625.074 603.603 579.696C639.334 497.263 602.763 491.481 604.9 399.644C605.156 387.459 606.202 373.074 609.722 356.941C618.246 317.641 632.769 306.867 633.705 265.936C633.751 260.524 632.947 255.286 631.856 250.374Z" stroke="url(#paint15_linear)" stroke-miterlimit="10"/>
<path d="M632.313 245.674C625.469 239.019 624.36 246.155 613.389 236.184C585.748 211.3 585.406 115.986 519.701 98.3807C464.667 83.6343 449.737 148.338 388.872 141.873C359.826 138.711 320.433 91.7944 271.96 89.2523C239.502 87.5865 219.765 111.829 202.607 147.409C197.535 158.104 191.764 168.41 187.065 179.204C145.623 273.969 184.171 252.156 156.95 353.744C134.049 439.214 69.8735 508 79.9087 534.193C87.1955 553.422 114.799 585.929 162.04 611.043C177.833 619.493 190.713 630.578 204.505 640.501C224.521 654.905 239.392 662.304 255.184 662.518C306.406 663.788 351.223 632.806 406.445 647.603C455.863 660.844 488.197 677.946 521.97 668.714C550.546 660.902 590.153 632.14 609.539 584.501C644.626 498.479 601.106 489.43 602.106 398.092C602.225 385.668 603.321 371.096 606.942 354.589C615.904 314.401 631.249 305.053 633.674 262.311C633.87 256.337 633.117 250.912 632.313 245.674Z" stroke="url(#paint16_linear)" stroke-miterlimit="10"/>
<path d="M632.957 241.025C627.149 234.246 625.88 239.732 616.593 230.212C591.039 204.281 588.551 116.227 526.591 99.6243C469.684 84.3763 455.06 153.18 391.639 145.026C361.994 141.1 321.259 90.208 269.905 85.6886C236.014 82.6342 214.13 105.9 196.411 141.33C191.151 151.974 185.568 162.33 181.007 173.363C140.194 272.515 186.955 251.496 159.534 353.834C136.231 440.804 65.7503 509.908 73.1878 536.812C78.8628 556.814 105.152 591.983 153.639 618.435C169.381 627.073 183.161 637.796 197.903 647.17C219.531 660.8 236.063 667.239 253.043 666.766C307.84 665.177 352.99 628.458 408.773 643.405C457.068 656.346 489.854 679.997 525.371 673.241C554.755 667.655 595.96 638.92 615.2 588.83C649.644 499.221 599.225 486.716 599.038 396.064C599.02 383.403 599.979 368.594 603.837 351.949C613.237 310.875 629.217 302.902 633.317 258.399C633.751 252.287 633.472 246.588 632.957 241.025Z" stroke="url(#paint17_linear)" stroke-miterlimit="10"/>
<path d="M633.55 236.564C628.729 229.848 627.537 233.546 619.611 224.19C596.381 197.073 591.51 116.416 533.48 100.867C474.515 85.0677 460.333 158.209 394.456 147.99C364.213 143.301 321.948 88.3836 267.95 81.7496C232.576 77.4941 208.647 99.408 190.553 134.738C185.157 145.144 179.659 155.926 175.235 167.196C135.053 270.735 190.165 250.748 162.593 353.649C138.888 442.118 61.915 511.492 67.1289 539.206C71.0051 559.932 96.1162 597.999 146.037 625.839C161.729 634.665 176.17 645.164 192.05 654.039C215.239 667.083 233.296 672.323 251.513 670.976C310.022 666.766 355.368 624.073 411.526 639.12C458.885 651.81 491.986 681.773 529.196 677.681C559.152 674.458 602.192 645.612 621.236 593.26C655.273 499.926 597.718 484.102 596.207 393.899C596.052 381.001 597.061 366.004 600.969 349.172C610.758 307.398 627.61 300.663 633.198 254.349C633.87 248.1 633.691 242.026 633.55 236.564Z" stroke="url(#paint18_linear)" stroke-miterlimit="10"/>
<path d="M634.007 231.865C630.222 225.025 629.108 226.936 622.492 217.931C601.773 189.679 594.468 116.607 540.557 102.161C479.532 85.8097 466.032 163.151 397.41 151.192C366.756 145.791 322.962 86.8473 266.27 78.2862C229.275 72.592 203.387 93.5793 184.732 128.759C179.335 139.165 173.838 149.947 169.688 161.691C130.323 269.669 193.411 250.614 165.688 354.077C141.581 444.045 58.3037 513.739 61.1572 542.025C63.2847 563.287 87.405 604.303 138.385 633.432C154.027 642.445 169.368 652.582 186.197 660.908C210.997 673.178 230.716 677.458 249.933 675.375C312.154 668.543 357.697 619.876 414.229 635.024C460.465 647.413 494.068 683.738 532.785 682.259C563.275 680.786 608.1 652.016 626.998 597.215C660.391 500.293 595.887 481.201 593.24 391.497C592.81 378.124 593.87 362.939 598.015 345.97C608.242 303.309 625.916 298 633.043 249.687C633.801 243.863 634.048 237.702 634.007 231.865Z" stroke="url(#paint19_linear)" stroke-miterlimit="10"/>
<path d="M634.651 227.216C631.902 220.252 630.866 220.376 625.748 211.772C607.59 182.198 597.664 116.659 547.684 103.267C484.788 86.4141 471.543 168.043 400.414 154.207C369.162 148.043 323.839 85.0732 264.504 74.3975C225.837 67.452 198.091 87.1378 179.062 122.217C173.478 132.573 168.118 143.592 164.155 155.387C125.607 267.802 196.909 249.542 168.985 353.755C144.476 445.222 54.7564 514.998 55.3362 544.282C55.8521 566.318 78.6072 610.182 130.884 640.462C146.663 649.712 162.529 659.387 180.307 667.164C206.669 678.849 228.101 681.98 248.368 678.973C314.35 669.332 360.089 614.691 416.996 629.939C462.296 642.077 496.452 684.577 536.625 685.899C568.06 686.889 614.433 658.333 633.184 601.082C666.171 500.435 594.532 478.025 590.697 389.008C590.131 375.396 591.24 360.024 595.436 342.867C606.101 299.32 624.41 295.386 633.212 245.312C633.92 239.676 634.404 233.377 634.651 227.216Z" stroke="url(#paint20_linear)" stroke-miterlimit="10"/>
<path d="M635.107 222.517C634.618 215.355 632.623 213.816 628.578 205.701C613.457 174.529 600.573 117.037 554.523 104.698C489.568 87.2934 476.765 173.259 403.13 157.547C371.23 150.807 324.428 83.6242 262.399 71.0214C222.061 62.8245 192.407 81.3963 172.816 116.325C167.045 126.631 161.872 137.7 157.996 149.92C120.265 266.773 199.543 249.445 171.418 354.407C146.508 447.374 50.4828 517.469 48.6519 547.514C47.3689 570.273 68.9964 616.848 122.656 648.704C138.435 657.954 154.963 667.405 173.828 674.871C201.802 685.781 224.708 687.901 246.212 684.021C315.957 671.571 361.842 611.143 419.123 626.492C463.488 638.379 498.145 687.241 539.825 691.177C572.118 694.205 620.277 665.726 638.594 606.349C670.938 502.115 592.162 476.386 587.19 387.868C586.487 374.019 587.647 358.459 591.893 341.115C603.184 296.73 622.177 293.985 632.418 242.287C633.851 235.439 635.796 228.929 635.107 222.517Z" stroke="url(#paint21_linear)" stroke-miterlimit="10"/>
<path d="M635.751 217.868C635.824 210.857 634.381 207.256 631.647 199.492C619.936 166.823 603.531 117.227 561.226 105.891C494.398 87.985 481.802 178.426 405.71 160.649C373.212 153.146 324.88 81.9372 260.208 67.2198C218.199 57.7717 186.687 75.042 166.721 109.87C161 119.989 155.777 131.246 151.988 143.891C115.311 265.044 202.516 248.835 174.24 354.36C148.928 448.826 46.4105 519.19 42.3561 550.046C39.3245 573.34 59.9612 622.865 114.681 656.009C130.409 665.446 147.786 674.723 167.651 681.452C197.05 691.539 221.805 692.748 244.309 688.131C317.766 673.059 363.847 606.658 421.502 622.107C464.744 633.693 500.141 688.78 543.277 695.517C576.566 700.82 626.135 672.317 644.306 610.491C676.243 502.532 590.281 473.672 584.173 385.653C583.145 371.516 584.355 355.769 588.889 338.1C600.618 292.828 620.246 291.458 632.162 238C633.97 231.252 635.728 224.692 635.751 217.868Z" stroke="url(#paint22_linear)" stroke-miterlimit="10"/>
<path d="M636.344 213.407C637.029 206.358 636.463 200.983 634.851 193.52C627.163 159.318 606.677 117.467 568.302 107.185C499.416 88.7267 487.262 183.505 408.664 163.851C375.568 155.585 325.706 80.3505 258.527 63.7561C215.085 52.9194 181.427 69.2129 160.899 103.891C154.991 113.959 150.092 125.504 146.303 138.149C110.444 263.74 205.624 248.462 177.198 354.55C151.434 450.703 42.4745 521.149 36.1967 552.815C31.3661 576.833 50.8249 629.256 106.978 663.788C122.844 673.464 140.746 682.278 161.697 688.696C192.657 698.197 219.124 698.257 242.678 692.716C319.897 674.836 366.125 602.648 424.154 618.197C466.46 629.532 502.597 690.844 547.003 700.332C581.149 707.673 632.454 679.434 650.241 615.295C681.909 503.849 588.436 471.571 581.428 383.913C580.264 369.539 581.524 353.604 586.108 335.748C598.276 289.589 618.538 289.594 632.13 234.375C633.902 227.015 635.71 220.268 636.344 213.407Z" stroke="url(#paint23_linear)" stroke-miterlimit="10"/>
<path d="M636.801 208.708C644.517 167.182 616.749 119.563 575.379 108.478C504.433 89.4685 492.722 188.584 411.668 166.865C377.974 157.837 326.583 78.5765 256.76 59.8675C198.543 44.2684 156.338 73.7404 140.719 132.032C105.915 261.923 209.071 247.578 180.445 354.415C154.279 452.068 39.064 522.646 30.3755 555.072C21.9883 586.373 54.3496 667.767 155.995 695.002C295.266 732.32 350.684 592.885 427.058 613.35C468.241 624.385 505.117 691.921 550.979 704.21C586.171 713.64 638.836 685.564 656.665 619.025C692.725 484.448 549.779 458.601 583.629 332.271C596.235 285.225 617.182 286.418 632.4 229.626C634.02 222.828 635.504 215.793 636.801 208.708Z" stroke="url(#paint24_linear)" stroke-miterlimit="10"/>
</g>
<defs>
<linearGradient id="paint0_linear" x1="459.324" y1="91.6031" x2="297.172" y2="696.764" gradientUnits="userSpaceOnUse">
<stop stop-color="#FFD110" stop-opacity="0"/>
<stop offset="0.286458" stop-color="#109BFF"/>
<stop offset="0.614583" stop-color="#FF0469"/>
<stop offset="1" stop-color="#04DA00" stop-opacity="0"/>
</linearGradient>
<linearGradient id="paint1_linear" x1="459.497" y1="91.0466" x2="298.449" y2="692.085" gradientUnits="userSpaceOnUse">
<stop stop-color="#FFD110" stop-opacity="0"/>
<stop offset="0.286458" stop-color="#109BFF"/>
<stop offset="0.614583" stop-color="#FF0469"/>
<stop offset="1" stop-color="#04DA00" stop-opacity="0"/>
</linearGradient>
<linearGradient id="paint2_linear" x1="459.719" y1="90.5038" x2="299.726" y2="687.606" gradientUnits="userSpaceOnUse">
<stop stop-color="#FFD110" stop-opacity="0"/>
<stop offset="0.286458" stop-color="#109BFF"/>
<stop offset="0.614583" stop-color="#FF0469"/>
<stop offset="1" stop-color="#04DA00" stop-opacity="0"/>
</linearGradient>
<linearGradient id="paint3_linear" x1="459.323" y1="89.7953" x2="300.485" y2="682.587" gradientUnits="userSpaceOnUse">
<stop stop-color="#FFD110" stop-opacity="0"/>
<stop offset="0.286458" stop-color="#109BFF"/>
<stop offset="0.614583" stop-color="#FF0469"/>
<stop offset="1" stop-color="#04DA00" stop-opacity="0"/>
</linearGradient>
<linearGradient id="paint4_linear" x1="459.475" y1="89.2333" x2="301.591" y2="678.464" gradientUnits="userSpaceOnUse">
<stop stop-color="#FFD110" stop-opacity="0"/>
<stop offset="0.286458" stop-color="#109BFF"/>
<stop offset="0.614583" stop-color="#FF0469"/>
<stop offset="1" stop-color="#04DA00" stop-opacity="0"/>
</linearGradient>
<linearGradient id="paint5_linear" x1="459.699" y1="88.6916" x2="302.92" y2="673.799" gradientUnits="userSpaceOnUse">
<stop stop-color="#FFD110" stop-opacity="0"/>
<stop offset="0.286458" stop-color="#109BFF"/>
<stop offset="0.614583" stop-color="#FF0469"/>
<stop offset="1" stop-color="#04DA00" stop-opacity="0"/>
</linearGradient>
<linearGradient id="paint6_linear" x1="460.608" y1="88.3326" x2="304.884" y2="669.505" gradientUnits="userSpaceOnUse">
<stop stop-color="#FFD110" stop-opacity="0"/>
<stop offset="0.286458" stop-color="#109BFF"/>
<stop offset="0.614583" stop-color="#FF0469"/>
<stop offset="1" stop-color="#04DA00" stop-opacity="0"/>
</linearGradient>
<linearGradient id="paint7_linear" x1="460.443" y1="87.6862" x2="305.924" y2="664.36" gradientUnits="userSpaceOnUse">
<stop stop-color="#FFD110" stop-opacity="0"/>
<stop offset="0.286458" stop-color="#109BFF"/>
<stop offset="0.614583" stop-color="#FF0469"/>
<stop offset="1" stop-color="#04DA00" stop-opacity="0"/>
</linearGradient>
<linearGradient id="paint8_linear" x1="461.379" y1="87.3344" x2="307.964" y2="659.885" gradientUnits="userSpaceOnUse">
<stop stop-color="#FFD110" stop-opacity="0"/>
<stop offset="0.286458" stop-color="#109BFF"/>
<stop offset="0.614583" stop-color="#FF0469"/>
<stop offset="1" stop-color="#04DA00" stop-opacity="0"/>
</linearGradient>
<linearGradient id="paint9_linear" x1="462.485" y1="87.0279" x2="310.006" y2="656.087" gradientUnits="userSpaceOnUse">
<stop stop-color="#FFD110" stop-opacity="0"/>
<stop offset="0.286458" stop-color="#109BFF"/>
<stop offset="0.614583" stop-color="#FF0469"/>
<stop offset="1" stop-color="#04DA00" stop-opacity="0"/>
</linearGradient>
<linearGradient id="paint10_linear" x1="463.674" y1="86.9453" x2="311.739" y2="653.975" gradientUnits="userSpaceOnUse">
<stop stop-color="#FFD110" stop-opacity="0"/>
<stop offset="0.286458" stop-color="#109BFF"/>
<stop offset="0.614583" stop-color="#FF0469"/>
<stop offset="1" stop-color="#04DA00" stop-opacity="0"/>
</linearGradient>
<linearGradient id="paint11_linear" x1="464.678" y1="86.4106" x2="312.253" y2="655.266" gradientUnits="userSpaceOnUse">
<stop stop-color="#FFD110" stop-opacity="0"/>
<stop offset="0.286458" stop-color="#109BFF"/>
<stop offset="0.614583" stop-color="#FF0469"/>
<stop offset="1" stop-color="#04DA00" stop-opacity="0"/>
</linearGradient>
<linearGradient id="paint12_linear" x1="465.793" y1="86.1061" x2="312.376" y2="658.666" gradientUnits="userSpaceOnUse">
<stop stop-color="#FFD110" stop-opacity="0"/>
<stop offset="0.286458" stop-color="#109BFF"/>
<stop offset="0.614583" stop-color="#FF0469"/>
<stop offset="1" stop-color="#04DA00" stop-opacity="0"/>
</linearGradient>
<linearGradient id="paint13_linear" x1="467.045" y1="85.8385" x2="312.371" y2="663.088" gradientUnits="userSpaceOnUse">
<stop stop-color="#FFD110" stop-opacity="0"/>
<stop offset="0.286458" stop-color="#109BFF"/>
<stop offset="0.614583" stop-color="#FF0469"/>
<stop offset="1" stop-color="#04DA00" stop-opacity="0"/>
</linearGradient>
<linearGradient id="paint14_linear" x1="468.234" y1="85.7555" x2="312.211" y2="668.044" gradientUnits="userSpaceOnUse">
<stop stop-color="#FFD110" stop-opacity="0"/>
<stop offset="0.286458" stop-color="#109BFF"/>
<stop offset="0.614583" stop-color="#FF0469"/>
<stop offset="1" stop-color="#04DA00" stop-opacity="0"/>
</linearGradient>
<linearGradient id="paint15_linear" x1="469.629" y1="85.3256" x2="312.123" y2="673.149" gradientUnits="userSpaceOnUse">
<stop stop-color="#FFD110" stop-opacity="0"/>
<stop offset="0.286458" stop-color="#109BFF"/>
<stop offset="0.614583" stop-color="#FF0469"/>
<stop offset="1" stop-color="#04DA00" stop-opacity="0"/>
</linearGradient>
<linearGradient id="paint16_linear" x1="470.845" y1="85.2485" x2="311.69" y2="679.22" gradientUnits="userSpaceOnUse">
<stop stop-color="#FFD110" stop-opacity="0"/>
<stop offset="0.286458" stop-color="#109BFF"/>
<stop offset="0.614583" stop-color="#FF0469"/>
<stop offset="1" stop-color="#04DA00" stop-opacity="0"/>
</linearGradient>
<linearGradient id="paint17_linear" x1="471.629" y1="84.856" x2="310.849" y2="684.897" gradientUnits="userSpaceOnUse">
<stop stop-color="#FFD110" stop-opacity="0"/>
<stop offset="0.286458" stop-color="#109BFF"/>
<stop offset="0.614583" stop-color="#FF0469"/>
<stop offset="1" stop-color="#04DA00" stop-opacity="0"/>
</linearGradient>
<linearGradient id="paint18_linear" x1="472.798" y1="84.5659" x2="310.297" y2="691.029" gradientUnits="userSpaceOnUse">
<stop stop-color="#FFD110" stop-opacity="0"/>
<stop offset="0.286458" stop-color="#109BFF"/>
<stop offset="0.614583" stop-color="#FF0469"/>
<stop offset="1" stop-color="#04DA00" stop-opacity="0"/>
</linearGradient>
<linearGradient id="paint19_linear" x1="473.842" y1="84.2426" x2="309.532" y2="697.458" gradientUnits="userSpaceOnUse">
<stop stop-color="#FFD110" stop-opacity="0"/>
<stop offset="0.286458" stop-color="#109BFF"/>
<stop offset="0.614583" stop-color="#FF0469"/>
<stop offset="1" stop-color="#04DA00" stop-opacity="0"/>
</linearGradient>
<linearGradient id="paint20_linear" x1="475.085" y1="83.7713" x2="308.952" y2="703.787" gradientUnits="userSpaceOnUse">
<stop stop-color="#FFD110" stop-opacity="0"/>
<stop offset="0.286458" stop-color="#109BFF"/>
<stop offset="0.614583" stop-color="#FF0469"/>
<stop offset="1" stop-color="#04DA00" stop-opacity="0"/>
</linearGradient>
<linearGradient id="paint21_linear" x1="475.733" y1="83.543" x2="307.405" y2="711.751" gradientUnits="userSpaceOnUse">
<stop stop-color="#FFD110" stop-opacity="0"/>
<stop offset="0.286458" stop-color="#109BFF"/>
<stop offset="0.614583" stop-color="#FF0469"/>
<stop offset="1" stop-color="#04DA00" stop-opacity="0"/>
</linearGradient>
<linearGradient id="paint22_linear" x1="476.497" y1="83.1443" x2="306.138" y2="718.934" gradientUnits="userSpaceOnUse">
<stop stop-color="#FFD110" stop-opacity="0"/>
<stop offset="0.286458" stop-color="#109BFF"/>
<stop offset="0.614583" stop-color="#FF0469"/>
<stop offset="1" stop-color="#04DA00" stop-opacity="0"/>
</linearGradient>
<linearGradient id="paint23_linear" x1="477.053" y1="82.69" x2="304.422" y2="726.958" gradientUnits="userSpaceOnUse">
<stop stop-color="#FFD110" stop-opacity="0"/>
<stop offset="0.286458" stop-color="#109BFF"/>
<stop offset="0.614583" stop-color="#FF0469"/>
<stop offset="1" stop-color="#04DA00" stop-opacity="0"/>
</linearGradient>
<linearGradient id="paint24_linear" x1="477.305" y1="82.1543" x2="302.598" y2="734.169" gradientUnits="userSpaceOnUse">
<stop stop-color="#FFD110" stop-opacity="0"/>
<stop offset="0.286458" stop-color="#109BFF"/>
<stop offset="0.614583" stop-color="#FF0469"/>
<stop offset="1" stop-color="#04DA00" stop-opacity="0"/>
</linearGradient>
</defs>
</svg>
