<svg width="916" height="1115" viewBox="0 0 916 1115" fill="none" xmlns="http://www.w3.org/2000/svg">
<path opacity="0.5" fill-rule="evenodd" clip-rule="evenodd" d="M724.013 1034.14L721.272 1034.52C692.825 1038.19 664.155 1036.55 635.83 1030.04C606.19 1023.2 578.853 1010.97 554.637 993.734C499.503 954.855 464.369 893.41 453.155 815.716C429.519 653.376 293.311 547.949 183.462 462.924L182.469 462.156C132.774 424.051 85.881 387.845 56.846 352.227C24.4857 312.749 16.3001 277.305 31.2843 240.447C47.0595 201.955 76.4385 168.192 119.275 139.94C153.225 117.23 195.553 98.1905 245.263 82.9596C325.396 58.4397 398.759 52.6425 407.07 51.9857L407.071 51.9856C407.53 51.9494 407.79 51.9288 407.842 51.9216C457.868 51.8853 504.516 58.6638 546.222 71.9647C585.263 84.3628 621.322 102.759 653.082 126.827C655.068 128.332 657.053 129.836 658.788 131.375C596.444 82.5681 514.864 52.6664 407.945 52.6693C407.874 52.6791 407.556 52.7055 407.004 52.7513C397.903 53.5065 325.141 59.5444 245.616 83.6729C167.613 107.374 67.3649 153.95 31.8515 240.876C17.0478 277.202 24.9842 312.68 57.3102 351.909C86.5943 387.493 133.238 423.733 182.684 461.872C238.085 504.524 300.644 553.047 351.419 610.051C406.694 672.251 439.582 735.939 451.823 804.336C428.365 649.086 297.612 548.07 192.31 466.717L192.31 466.717L191.948 466.437C190.5 465.312 189.054 464.19 187.61 463.069C141.715 427.439 98.4391 393.842 71.2142 360.66C40.3061 322.506 32.5414 288.274 46.7348 253.048C61.9683 216.155 90.2385 183.561 131.219 156.58C164.025 134.789 204.678 116.489 252.428 101.782C329.853 78.2746 400.942 72.5065 407.994 71.9343C408.335 71.9066 408.527 71.8911 408.561 71.8864C456.559 71.8756 501.394 78.396 541.501 91.1552C578.944 103.012 613.653 120.832 644.245 143.792C655.021 151.958 665.368 160.691 675.318 170.24C612.494 110.579 526.756 72.6154 408.664 72.6341C408.592 72.644 408.277 72.6704 407.732 72.7161C398.859 73.4592 329.021 79.3086 252.781 102.495C177.949 125.252 81.5172 170.032 47.5512 253.443C33.3234 288.42 41.0538 322.403 71.8932 360.058C99.9743 394.285 144.883 428.986 192.343 465.621C245.475 506.554 305.731 553.108 354.453 608.109C405.089 665.272 436.332 723.651 449.303 785.916C423.35 641.713 300.552 546.921 201.392 470.469C155.633 435.123 112.71 401.926 85.5826 369.093C55.6626 332.58 48.104 299.844 62.005 266.182C76.4132 230.672 103.609 199.496 142.948 173.504C174.362 152.667 213.587 135.071 259.164 121.171C333.511 98.5811 401.438 93.026 408.29 92.4657C408.627 92.4381 408.816 92.4227 408.851 92.4178C424.965 92.4464 440.651 93.2224 455.896 94.7447C440.945 93.3177 425.526 92.5923 409.633 92.564C409.515 92.5802 409.087 92.6204 408.366 92.6881L408.364 92.6882L408.364 92.6883C404.494 93.0513 392.2 94.2044 374.139 96.6932C345.975 100.574 304.061 107.874 259.946 121.318C188.285 143.129 95.919 186.079 63.2511 266.01C49.5994 299.638 57.1236 332.125 86.7257 368.173C112.759 400.008 154.079 432.12 198.003 466.255C199.428 467.362 200.856 468.472 202.286 469.584L205.35 471.959C255.488 510.826 311.791 554.473 357.736 606.133C406.981 661.629 436.797 718.101 449.159 778.585C425.275 639.175 306.854 547.691 211.301 474.183C209.916 473.105 208.533 472.029 207.153 470.955L207.02 470.852L207.02 470.852C165.069 438.214 125.462 407.399 100.63 376.924C71.947 342.019 64.8437 310.744 78.1344 278.182C92.001 244.271 118.088 214.263 155.785 189.259C185.807 169.376 223.322 152.269 267.223 139.109C338.791 117.305 404.477 112.215 410.11 111.778C410.348 111.76 410.478 111.749 410.498 111.747C495.855 111.921 568.756 134.13 626.821 177.685C676.696 215.257 717.236 269.862 747.238 340.141C802.284 468.684 813.53 625.866 821.749 740.798C822.027 744.467 822.301 748.107 822.572 751.712C824.42 776.27 826.15 799.246 828.193 818.895C832.57 861.721 820.07 900.015 791.851 929.301C766.495 955.398 730.295 972.831 689.42 978.463L686.928 978.807C635.234 985.168 581.643 972.235 539.982 942.674C495.574 911.262 465.815 863.46 453.384 803.333C479.024 953.799 597.628 1009.17 698.511 996.512L701.003 996.169C759.182 988.152 817.428 954.492 838.243 896.128C831.799 914.682 821.387 931.553 807.138 946.242C781.636 973.121 743.725 991.044 700.857 996.951L698.115 997.329C643.929 1004.03 587.957 990.413 544.629 959.811C497.817 926.8 466.823 876.152 453.916 812.883C480.301 970.469 604.212 1028.32 709.698 1015.03L712.19 1014.69C792.693 1003.6 873.536 945.219 862.626 842.087C860.29 820.199 858.427 794.403 856.443 766.947L856.434 766.813C856.198 763.545 855.96 760.254 855.719 756.943C847.204 637.412 835.74 480.242 785.512 346.637C836.108 480.467 847.55 637.735 856.069 754.83L856.069 754.831L856.218 756.874C856.458 760.182 856.695 763.471 856.931 766.736L856.941 766.87L856.942 766.881C858.925 794.336 860.789 820.131 863.125 842.018C868.052 888.832 854.468 930.323 823.534 962.015C796.493 990.63 757.19 1009.51 712.577 1015.65L709.835 1016.03C653.405 1023.05 595.053 1008.74 549.775 976.88C499.273 941.167 466.185 885.695 453.704 815.989C478.499 985.54 609.665 1047.87 721.169 1033.77L723.91 1033.39C807.653 1021.85 891.711 961.001 880.467 853.597C877.711 828.072 875.515 797.39 873.328 764.929L873.238 763.692C864.456 642.906 853.019 485.586 804.654 349.499C853.534 486.179 865.172 644.057 873.922 762.745L874.075 764.826C874.405 769.217 874.731 773.575 875.053 777.894L875.066 778.067L875.067 778.076C877.121 805.581 879.052 831.444 881.214 853.494C886.382 902.052 872.007 945.176 840.032 978.535C811.599 1008.1 770.371 1027.75 724.013 1034.14ZM773.938 317.917C778.01 327.351 781.863 336.932 785.512 346.637C782.186 337.84 778.691 329.144 775.016 320.567C774.661 319.683 774.302 318.8 773.938 317.917ZM766.184 300.705C768.854 306.383 771.437 312.122 773.938 317.917C771.531 312.075 768.939 306.283 766.184 300.705ZM845.319 830.757C847.87 855.183 845.07 876.985 838.243 896.128C845.174 876.171 847.515 854.267 845.104 831.041C842.624 807.509 840.522 779.354 838.429 749.42C829.773 629.469 817.814 465.274 760.448 330.955C729.003 257.573 686.873 200.648 634.729 161.357C585.039 123.885 525.004 101.646 455.896 94.7447C598.425 108.349 698.397 185.73 760.697 330.921C818.029 464.991 829.988 629.185 838.644 749.137C840.737 779.071 842.839 807.226 845.319 830.757ZM267.36 140.106C309.516 127.186 349.685 120.127 376.603 116.417C389.761 114.604 399.774 113.646 405.294 113.117C408.347 112.825 410.026 112.664 410.103 112.563C570.641 112.791 680.464 187.309 746.026 340.562C800.788 468.89 812.284 626.038 820.502 740.97C820.711 743.74 820.918 746.499 821.123 749.243C823.026 774.628 824.832 798.73 826.947 819.067C836.938 913.691 762.807 967.335 689.034 977.501L686.791 977.81C591.565 989.702 480.28 938.597 453.409 799.589C466.082 853.719 493.944 897.018 534.622 925.889C574.546 953.911 625.826 966.655 675.243 960.353L677.735 960.01C716.865 954.618 751.639 937.89 775.138 913.064C802.282 885.196 814.275 848.75 809.889 807.703C807.976 789.024 806.399 767.243 804.711 743.912L804.7 743.77C804.445 740.245 804.188 736.685 803.926 733.095L803.844 731.97L803.844 731.969L803.843 731.968C795.855 622.437 784.933 472.662 732.635 350.28C729.194 342.28 725.611 334.489 721.887 326.909C665.235 210.113 578.183 146.815 457.328 134.437C442.282 132.816 426.753 132.011 410.754 132.029C410.717 132.034 410.525 132.05 410.185 132.077L410.184 132.077L410.182 132.077C403.577 132.608 341.334 137.611 273.675 158.284C231.734 170.92 196.109 187.004 167.265 206.217C131.175 229.984 106.412 258.539 93.1211 291.101C80.6213 322.03 87.3037 352.094 114.749 385.391C139.064 415.014 177.664 444.881 218.689 476.624L220.745 478.215C309.925 546.867 419.812 631.621 446.095 759.658C433.263 705.403 405.185 654.24 360.77 604.191C315.975 553.728 260.824 511.042 211.945 473.332L209.94 471.782C166.916 438.523 126.591 407.351 101.309 376.323C72.9096 341.632 65.8407 310.606 78.9508 278.577C110.071 202.161 198.622 161.007 267.36 140.106ZM411.536 132.175C427.308 132.173 442.57 132.925 457.328 134.437C519.179 141.099 572.876 161.539 617.554 195.216C659.467 226.781 694.478 271.109 721.887 326.909C725.486 334.328 728.963 341.964 732.317 349.816C784.581 471.95 795.503 621.724 803.491 731.256L803.573 732.382C805.323 759.824 807.365 785.701 809.571 807.239C819.228 897.591 748.311 948.761 677.778 958.48L675.535 958.789C584.823 970.307 478.686 921.547 452.765 789.238C464.922 840.571 491.299 881.805 530.009 909C567.983 935.768 616.882 947.824 664.056 941.831L666.299 941.522C703.684 936.37 736.532 920.415 759.92 896.621C785.706 869.956 797.158 835.108 793.046 796.055C790.943 775.266 789.107 750.883 787.28 724.722L787.279 724.713C779.721 620.103 769.366 476.772 719.21 359.749C691.597 295.744 654.769 245.961 609.431 211.828C556.436 171.892 490.144 151.566 412.187 151.641C412.149 151.647 411.959 151.662 411.622 151.689C405.228 152.208 346.141 156.997 281.553 176.754C241.821 188.832 207.623 204.211 180.171 222.47C145.972 245.215 122.283 272.352 109.534 303.316C97.3612 332.93 104.087 361.464 130.08 393.438C153.2 421.71 189.834 450.085 228.884 480.331L230.903 481.895L231.14 482.078C315.938 547.622 420.49 628.435 445.582 750.278C433.254 698.623 406.314 649.803 364.019 601.966C321.561 554.035 269.078 513.51 222.667 477.674L222.667 477.674L221.854 477.046C180.1 444.958 140.828 414.306 116.141 384.438C88.9796 351.355 82.1167 321.824 94.6509 291.144C124.473 218.209 208.958 178.884 274.525 158.928C314.756 146.781 353.181 139.963 378.852 136.425C388.127 135.147 395.78 134.266 401.349 133.625L401.349 133.625L401.35 133.625L401.35 133.625L401.351 133.625C407.453 132.922 411.051 132.508 411.536 132.175ZM381.316 156.149C356.642 159.549 320.211 166.093 281.69 177.751C219.045 196.796 138.626 234.29 110.136 303.995C98.1432 333.076 104.834 361.361 130.51 392.87C153.994 421.381 191.529 450.495 231.298 481.078L232.148 481.735C276.285 515.848 326.479 554.642 366.838 600.307C411.184 650.369 437.502 701.327 447.49 756.165C447.484 756.128 447.479 756.091 447.474 756.054C429.339 631.822 324.742 550.996 240.631 486.141L238.6 484.566L238.6 484.566L238.599 484.566C201.533 455.824 166.613 428.746 144.697 401.836C119.942 371.469 113.671 344.396 125.019 316.166C152.142 249.444 228.995 213.71 288.967 195.542C350.734 176.584 407.544 172.252 412.797 171.852C413.036 171.834 413.168 171.824 413.189 171.821C487.339 171.762 550.435 191.004 600.628 229.041C643.732 261.704 678.936 308.917 704.856 369.854C752.445 481.139 762.336 617.428 769.457 717.019C769.742 720.748 770.023 724.444 770.301 728.098C771.876 748.824 773.35 768.214 774.991 784.829C778.862 822.137 767.918 855.137 743.49 880.599C721.675 902.907 690.253 918.157 654.862 923.034L652.619 923.343C607.688 929.027 561.17 917.659 525.147 892.146C485.211 863.996 459.059 820.295 449.021 765.46C449.035 765.554 449.049 765.647 449.062 765.741C468.846 901.936 574.272 951.917 663.669 940.868L665.912 940.559C733.205 931.287 800.658 882.626 791.585 796.511C789.516 775.97 787.646 751.339 785.819 725.178L785.818 725.169C778.26 620.559 767.905 477.227 718.033 360.42C658.167 220.858 558.131 152.864 412.075 152.673C412.004 152.682 411.708 152.708 411.2 152.752C408.107 153.02 397.155 153.967 381.316 156.149ZM288.855 196.573C325.416 185.44 360.137 179.385 383.565 176.157C394.104 174.705 402.292 173.847 407.29 173.323L407.291 173.323C410.684 172.967 412.606 172.766 412.794 172.637C551.735 172.793 646.734 237.417 703.61 370.026C751.199 481.311 761.056 617.35 768.176 716.942C768.461 720.667 768.742 724.359 769.019 728.009L769.02 728.011C770.595 748.74 772.069 768.134 773.711 784.751C782.2 866.63 718.245 913.03 654.192 921.857L652.198 922.131C568.159 932.709 469.595 886.376 448.949 760.621C459.291 809.929 483.867 849.301 520.25 875.043C554.288 899.051 598.461 909.98 641.148 904.606L643.142 904.331C676.789 899.695 706.818 885.398 727.558 864.508C750.877 840.215 761.031 808.848 757.435 773.533C755.553 756.479 754.079 736.135 752.531 714.753L752.332 712.013L752.132 709.248L751.989 707.303C745.106 613.183 735.71 484.71 690.752 379.925C666.026 322.125 632.91 277.164 591.825 246.253C544.184 210.151 484.251 191.743 413.909 191.785C413.887 191.788 413.761 191.798 413.535 191.816L413.532 191.817L413.531 191.817C408.526 192.221 354.885 196.552 296.132 214.364C239.581 231.553 166.544 265.491 140.719 328.733C129.913 355.365 135.762 381.226 159.28 409.985C179.558 434.998 211.782 460.005 246.047 486.596L246.047 486.596L248.401 488.423L250.29 489.889C328.568 550.306 425.848 625.554 445.408 740.083C435.019 690.464 410.181 643.869 369.872 598.365C331.092 554.693 283.314 517.593 240.992 485.076C162.836 424.733 101.163 377.104 125.836 316.561C152.744 250.123 229.382 214.673 288.855 196.573ZM386.029 195.881C363.847 198.937 330.871 204.751 296.269 215.361C239.967 232.516 167.145 266.17 141.535 329.128C118.195 386.44 176.749 431.705 250.9 488.789C324.251 545.399 414.167 614.939 441.747 717.532C418.431 616.464 330.818 548.619 259.7 493.673C225.602 467.387 193.489 442.605 173.614 418.169C151.333 391.017 145.656 366.402 156.135 341.085C180.413 281.358 249.634 249.216 303.263 232.937C361.275 215.292 414.344 211.535 414.877 211.716C481.413 211.69 537.9 229.05 583.238 263.183C622.054 292.375 653.58 335.015 676.829 389.463C719.409 489.12 728.215 610.828 734.669 700.012L734.739 700.978C736.265 723.117 737.904 744.225 739.81 761.74C743.415 795.275 733.519 824.83 711.524 847.67C691.712 867.924 663.608 881.448 631.706 885.844L629.712 886.119C589.267 891.184 547.725 880.908 515.105 857.974C483.11 835.422 460.946 801.78 450.085 760.034C473.08 871.897 563.573 913.051 640.977 903.36L642.97 903.085C703.534 894.739 764.274 850.814 756.12 773.206C754.303 756.743 752.894 737.41 751.386 716.709L751.368 716.466C751.186 713.97 751.003 711.454 750.817 708.921L750.666 706.857C743.784 612.753 734.411 484.589 689.472 379.847C635.551 253.943 545.338 192.722 413.762 192.567C413.574 192.696 411.721 192.887 408.47 193.223C403.709 193.714 395.951 194.514 386.029 195.881ZM303.684 234.149C336.36 224.313 367.592 218.74 388.527 215.855C404.229 213.691 414.267 212.816 414.551 213.031C539.26 213.116 624.437 270.967 675.367 389.918C717.913 489.326 726.72 611.033 733.173 700.217L733.243 701.184C733.746 707.442 734.218 713.622 734.679 719.665L734.68 719.673C735.848 734.973 736.948 749.391 738.314 761.946C746.134 835.282 688.609 876.733 631.285 884.632L629.54 884.872C556.396 893.976 470.787 855.126 449.04 749.03C459.35 788.376 480.211 819.863 510.242 841.12C540.912 862.799 580.323 872.353 618.276 867.631L620.02 867.39C650.177 863.235 676.855 850.416 695.275 831.115C715.946 809.727 725.266 781.522 721.936 749.981C720.671 738.166 719.688 724.624 718.643 710.238L718.643 710.235L718.642 710.218L718.64 710.19L718.636 710.135C718.222 704.44 717.799 698.612 717.345 692.708C711.323 608.458 703.07 493.276 662.656 399.035C640.567 347.475 610.914 307.37 574.366 279.898C531.581 247.698 478.291 231.422 415.562 231.431C415.556 231.432 415.544 231.433 415.524 231.435C415.499 231.437 415.463 231.44 415.415 231.444C415.354 231.449 415.274 231.455 415.176 231.463C410.397 231.84 362.447 235.62 310.394 251.51C259.686 266.879 194.531 297.191 171.586 353.686C150.3 405.636 202.899 446.388 269.394 497.67C336.78 549.582 420.021 613.71 441.4 709.869C415.561 612.508 330.328 546.661 260.707 492.875L260.594 492.787C190.413 438.712 135.227 395.776 157.235 341.695C181.547 282.218 250.055 250.428 303.684 234.149ZM390.742 235.613C371.052 238.326 341.531 243.41 310.6 253.006C260.391 268.305 195.699 298.299 172.686 354.296C151.93 405.101 203.374 444.954 268.734 495.587L270.004 496.57C336.644 547.904 418.447 611.118 441.379 705.326C422.828 612.728 343.424 551.282 279.087 501.668L278.981 501.586C216.507 453.351 167.129 415.227 187.036 366.287C208.683 313.272 269.774 284.79 317.309 270.367C366.285 255.394 411.072 251.826 415.652 251.462L415.653 251.461L415.814 251.449L415.904 251.441L415.98 251.435L416.011 251.432L416.026 251.431L416.032 251.43C474.953 251.438 525.081 266.88 565.28 296.896C599.593 322.898 627.622 360.433 648.268 408.89C685.948 497.005 693.869 604.83 699.661 683.688L699.737 684.721C699.883 686.72 700.027 688.709 700.171 690.685L700.179 690.792L700.179 690.796L700.179 690.799C701.442 708.168 702.634 724.561 704.096 738.47C711.169 804.544 659.677 841.862 608.335 848.937L606.59 849.177C570.881 853.59 533.85 844.724 505.131 824.3C475.72 803.569 455.869 772.458 446.623 733.679C465.385 837.152 547.722 875.086 617.571 866.204L619.316 865.964C673.399 858.511 727.427 819.32 720.191 750.221C718.423 733.703 716.956 713.841 715.6 692.948C709.578 608.698 701.325 493.517 660.945 399.524C612.97 287.277 532.579 232.83 415.235 232.746C415.149 232.859 413.606 233.011 410.828 233.284L410.827 233.284L410.826 233.284C406.658 233.694 399.713 234.377 390.742 235.613ZM318.014 271.794C347.02 262.971 374.797 258.128 393.24 255.586C404.753 254 412.974 253.226 415.607 252.977C416.109 252.93 416.408 252.902 416.488 252.891C526.466 252.974 602.105 304.266 647.09 409.561C684.469 497.414 692.365 604.922 698.156 683.766L698.241 684.927L698.35 686.419L698.482 688.226L698.676 690.891L698.683 690.998C699.946 708.37 701.139 724.766 702.6 738.677C709.502 803.504 658.689 840.22 608.094 847.192L606.599 847.398C542.113 855.555 466.696 821.506 447.223 728.473C456.385 762.214 474.578 789.226 500.518 807.412C527.252 826.332 561.937 834.759 595.403 830.655L596.898 830.449C645 823.821 693.028 789.012 686.324 727.459C684.831 712.934 683.458 695.599 682.197 677.233L682.068 675.455C676.72 601.685 669.44 501.273 634.198 419.21C614.747 373.89 588.556 338.641 556.512 314.358C519.08 285.992 472.149 271.634 417.035 271.609C416.752 271.394 372.724 274.414 324.724 289.155C280.359 302.633 223.085 329.319 203.02 379.069C184.443 424.78 230.426 460.327 288.936 505.558L289.03 505.631C347.975 551.141 420.309 606.995 439.672 690.424C416.151 605.119 341.402 547.473 280.162 500.25L279.397 499.659C217.801 452.095 169.158 414.533 188.635 366.829C210.101 314.347 270.727 286.183 318.014 271.794ZM204.334 379.396C234.698 304.862 349.347 281.698 396.701 275.173C406.861 273.773 413.963 273.146 416.351 272.935C416.833 272.892 417.123 272.867 417.207 272.855C520.353 273.118 590.922 320.792 632.952 419.382C668.188 501.877 675.518 602.942 680.879 676.867L680.879 676.868L680.882 676.906C682.177 695.522 683.55 712.857 685.044 727.381C691.361 787.971 644.012 822.179 596.658 828.704L595.162 828.91C536.527 836.28 468.094 806.169 447.726 724.23C456.807 752.158 472.94 774.752 495.123 790.378C520.156 808.008 552.46 815.747 583.683 811.953L585.178 811.747C630.04 805.565 675.103 773.196 668.949 715.631C667.78 705.806 666.957 694.588 666.08 682.618L666.079 682.603C665.752 678.138 665.417 673.569 665.053 668.929C660.163 600.269 653.231 505.731 620.274 428.748C602.301 386.78 577.949 353.818 547.924 331.288C513.044 304.856 469.311 291.581 418.004 291.54C417.96 291.546 417.78 291.561 417.47 291.588C407.165 292.476 253.473 305.728 218.47 391.671C201.001 434.459 243.925 467.656 298.475 509.663C350.599 549.965 414.207 599.15 435.661 670.881C410.438 597.346 344.235 546.232 289.855 504.247L289.752 504.168C231.814 459.37 186.12 424.04 204.334 379.396ZM220.069 392.212C248.344 322.792 354.836 301.26 398.95 295.181C408.436 293.874 414.898 293.331 417.128 293.144L417.129 293.144C417.594 293.105 417.875 293.081 417.961 293.069C513.708 293.082 579.275 337.635 618.564 429.238C651.487 505.972 658.384 600.26 663.274 668.92C663.349 669.884 663.425 670.844 663.499 671.802C663.579 672.82 663.658 673.834 663.737 674.845L663.737 674.846L663.737 674.848C664.902 689.768 666.006 703.917 667.204 715.871C673.187 772.19 629.087 804.172 584.972 810.251L583.477 810.457C527.207 817.477 461.121 787.449 444.641 705.377C452.543 734.281 468.1 757.566 490.476 773.24C513.842 789.83 543.551 797.165 572.496 793.43L573.742 793.259C615.364 787.523 656.929 757.415 651.075 703.872C650.006 692.888 649.057 679.936 648.053 666.238L648.037 666.01L647.829 663.172C647.761 662.254 647.694 661.333 647.626 660.41C643.173 596.769 636.988 509.493 606.317 438.037C589.503 398.956 567.025 368.53 539.268 347.719C506.975 323.471 466.404 311.029 418.904 310.971C418.859 310.978 418.68 310.993 418.374 311.02L418.37 311.02C408.462 311.877 266.484 324.155 234.102 403.739C217.965 443.296 257.769 474.129 308.349 513.128L308.843 513.51C359.669 552.87 421.946 601.097 438.279 673.376C417.797 599.663 353.047 549.605 300.051 508.633L299.549 508.245L299.435 508.156C245.755 466.586 203.188 433.622 220.069 392.212ZM401.2 315.189C360.325 320.821 261.74 340.755 235.769 404.779C220.243 443.236 259.48 473.639 309.458 511.959C356.66 548.314 413.888 592.608 435.413 656.745C417.935 594.625 363.117 552.342 318.204 517.699L317.828 517.409L317.577 517.215C271.368 481.531 234.595 453.133 249.586 416.589C279.465 343.397 410.591 331.977 419.22 331.225C419.474 331.203 419.622 331.19 419.658 331.185C500.923 331.162 558.937 370.66 591.963 448.142C619.927 513.532 625.73 593.291 629.988 651.801L629.988 651.802L630.051 652.673C631.047 667.266 632.188 681.077 633.269 692.611C638.789 741.882 600.438 769.516 562.306 774.771L561.059 774.943C534.357 778.368 506.994 771.472 485.614 756.386C466.411 742.861 452.661 723.354 444.887 699.168C461.656 771.606 521.165 798.247 572.256 791.686C613.448 786.518 655.081 756.907 649.614 704.327C648.395 691.796 647.082 676.739 646.165 660.865L646.018 658.887C641.333 595.458 634.965 509.25 604.924 438.99C568.625 354.341 507.81 312.943 419.179 312.965C419.021 312.987 418.597 313.034 417.927 313.109L417.925 313.109L417.923 313.109C415.411 313.389 409.458 314.051 401.2 315.189ZM251.219 417.38C275.35 358.435 365.78 340.133 403.414 334.947C411.34 333.855 416.991 333.414 419.078 333.251C419.55 333.214 419.84 333.192 419.932 333.179C501.482 333.37 557.227 371.15 590.571 449.095C618.466 513.989 624.269 593.746 628.527 652.256L628.59 653.128L628.669 654.278L628.829 656.634L628.829 656.635C629.732 669.934 630.585 682.492 631.808 693.066C636.872 740.877 599.45 767.875 562.065 773.026L560.819 773.198C513.27 779.025 457.812 754.181 443.125 686.264C460.006 741.342 508.213 761.706 549.623 756.455L550.62 756.317C585.513 751.509 620.614 726.101 616.177 680.998C615.37 673.895 614.779 665.834 614.15 657.242L614.15 657.24L614.15 657.24C613.848 653.127 613.538 648.892 613.191 644.583C609.399 591.264 603.857 517.868 578.323 457.894C548.003 387.151 495.025 351.022 420.875 351.081C420.838 351.086 420.69 351.099 420.438 351.121L420.437 351.121C412.205 351.841 292.793 362.287 265.536 429.122C251.875 462.437 285.253 488.258 327.496 520.937L327.736 521.123L328.745 521.908C370.613 554.464 421.851 594.306 436.168 653.295C417.484 592.252 363.398 550.309 318.902 515.991L318.65 515.796C273.009 480.542 236.803 452.576 251.219 417.38ZM405.913 354.921C371.768 359.626 288.996 376.365 267.203 430.162C254.118 462.129 286.929 487.519 328.603 519.767L328.845 519.954C368.18 550.341 415.602 587.023 434.016 639.879C419.402 588.862 374.314 553.923 337.215 525.404C300.281 496.969 268.452 472.403 280.771 442.007C305.48 381.35 413.985 371.97 421.027 371.361C421.233 371.343 421.352 371.333 421.38 371.329C488.448 371.484 536.356 403.994 563.969 467.999C587.184 522.198 592.014 588.58 595.402 637.13C595.494 638.364 595.585 639.59 595.676 640.808L595.687 640.962L595.691 641.011L595.691 641.013L595.691 641.015C596.478 651.622 597.215 661.542 598.157 670.02C602.44 710.319 570.836 733.468 539.184 737.83L538.187 737.967C501.317 742.601 458.646 725.07 442.555 677.463C456.607 737.917 506.589 760.129 549.383 754.71C583.846 750.469 618.767 725.593 613.968 681.556C613.161 674.454 612.571 666.394 611.941 657.802L611.941 657.801C611.64 653.687 611.329 649.452 610.982 645.142C607.19 591.822 601.932 518.642 576.432 458.917C546.078 387.924 495.085 353.3 420.935 353.358C420.153 353.212 414.636 353.719 405.913 354.921ZM282.868 442.48C302.606 394.045 377.222 378.938 408.127 374.679C414.228 373.838 418.598 373.385 420.651 373.172L420.655 373.171L420.656 373.171L420.657 373.171L420.661 373.171C421.286 373.106 421.695 373.063 421.869 373.039C574.759 373.051 586.855 538.243 593.838 636.837C593.932 638.091 594.024 639.337 594.116 640.574L594.124 640.689L594.127 640.724L594.127 640.728C594.915 651.333 595.651 661.251 596.592 669.728C600.738 709.03 569.78 731.328 539.124 735.552L538.127 735.69C500.573 740.398 456.791 721.608 442.762 670.245C458.414 709.217 494.885 723.442 526.501 719.514L527.498 719.376C555.911 715.461 584.549 694.753 580.317 658.51C580.124 656.053 579.915 653.473 579.697 650.786L579.697 650.784C579.156 644.128 578.563 636.817 578.043 629.109C574.843 585.613 570.476 526.278 549.831 477.821C525.422 420.485 482.55 391.345 422.348 391.259C422.319 391.263 422.2 391.274 421.996 391.291C415.344 391.869 318.558 400.276 296.471 454.574C285.235 481.773 313.945 503.976 346.909 529.402C377.766 553.164 414.977 581.902 430.38 622.909C411.747 579.953 372.155 549.303 339.096 523.711L338.719 523.419C300.935 494.34 271.091 471.277 282.868 442.48ZM410.376 394.687C382.712 398.499 316.002 412.009 298.353 455.33C287.942 481.146 314.384 501.63 348.198 527.7L349.069 528.376L349.069 528.376C380.774 552.978 418.906 582.568 433.633 625.308C422.965 583.939 386.672 555.932 357.034 533.06L356.783 532.866C327.506 510.234 302.482 490.825 312.102 466.642C331.569 418.698 416.657 411.268 422.895 410.723L422.897 410.723L422.899 410.723C423.099 410.705 423.217 410.695 423.248 410.691C476.334 410.741 514.17 436.511 535.873 487.109C554.124 529.616 557.857 581.933 560.582 620.121L560.615 620.589C560.952 624.572 561.227 628.429 561.491 632.119C561.858 637.269 562.202 642.091 562.657 646.467C566.374 678.971 541.2 697.17 516.027 700.639L515.28 700.742C486.456 704.273 453.19 690.823 440.176 654.169C451.255 703.598 491.672 721.8 526.476 717.485L527.223 717.382C554.639 713.605 582.134 693.816 578.323 658.785C577.446 650.663 576.805 640.889 576.144 630.823L576.049 629.384C569.727 541.111 559.072 393.753 422.408 393.537C422.125 393.322 417.604 393.691 410.376 394.687ZM314.018 467.648C329.613 429.689 388.166 417.811 412.591 414.445C415.119 414.097 417.284 413.84 418.978 413.639L418.979 413.639L418.979 413.639C421.46 413.345 422.931 413.171 423.059 413.003C543.293 412.924 552.689 542.657 558.319 620.388L558.338 620.649C558.895 630.223 559.633 639.265 560.414 646.776C563.71 678.068 539.181 695.417 514.721 698.533C484.063 702.516 448.306 686.23 438.704 642.297C450.217 673.825 478.815 685.484 503.843 682.255L504.591 682.151C526.274 679.164 548.234 663.439 545.135 635.421C544.619 630.194 544.174 624.302 543.691 617.892L543.69 617.887C543.612 616.847 543.532 615.794 543.451 614.728C543.41 614.178 543.367 613.624 543.325 613.067C541.034 579.859 537.594 534.618 521.803 497.429C503.056 453.535 470.006 431.169 424.036 431.154C420.762 431.351 345.09 436.953 327.621 479.742C319.134 500.606 340.701 517.328 365.82 536.805L366.262 537.148C391.579 556.537 422.56 580.401 432.368 615.31C418.849 578.368 385.439 552.507 357.823 531.199C328.262 508.352 304.94 490.232 314.018 467.648ZM415.089 434.419C394.154 437.304 343.258 447.618 330.002 480.43C322.007 499.817 342.459 515.539 368.015 535.129L368.259 535.317C390.759 552.724 417.53 573.436 430.39 602.415C420.852 575.576 396.488 556.647 376.43 541.064L376.17 540.862C354.584 524.281 336.117 510.064 343.536 492.025C357.575 457.576 415.983 451.731 424.318 450.897C424.562 450.872 424.762 450.852 424.918 450.836C425.053 450.821 425.154 450.81 425.22 450.801C515.131 450.856 522.054 547.173 526.181 604.763C526.551 610.401 527.037 615.698 527.459 620.288L527.459 620.289C527.564 621.436 527.665 622.54 527.76 623.594C530.06 647.658 511.598 661.122 492.905 663.698L492.407 663.767C472.234 666.337 449.093 657.396 438.591 633.369C447.343 669.891 477.833 683.315 503.783 679.977L504.531 679.874C525.217 677.023 546 661.969 543.356 635.412C542.809 629.874 542.318 623.41 541.793 616.501L541.789 616.453L541.775 616.264L541.76 616.072C541.678 614.995 541.595 613.906 541.512 612.809L541.492 612.547C536.557 545.386 528.319 433.273 424.56 433.114L415.089 434.419ZM345.452 493.031C356.869 465.299 399.609 456.616 417.304 454.177C420.93 453.678 423.602 453.476 424.625 453.398L424.627 453.398L424.628 453.398L424.628 453.398L424.629 453.398C424.869 453.38 425.017 453.369 425.065 453.362C512.699 453.477 519.699 548.513 523.688 605.107C524.076 611.01 524.591 616.54 525.046 621.423C525.098 621.986 525.15 622.541 525.2 623.086C525.234 623.457 525.268 623.824 525.302 624.186C527.645 646.721 509.828 659.335 492.098 661.524C469.782 664.357 443.837 652.527 436.915 620.726C445.585 639.514 464.134 647.393 480.97 645.279L481.469 645.21C496.672 643.115 511.885 631.876 509.954 612.332C509.572 609.563 509.342 606.483 509.094 603.175L509.093 603.174L509.093 603.173L509.093 603.171C508.94 601.12 508.779 598.982 508.572 596.777L508.572 596.766C505.106 549.496 499.336 470.809 425.69 470.8C425.616 470.81 425.487 470.824 425.307 470.842C425.205 470.852 425.087 470.864 424.952 470.878L424.951 470.878C418.121 471.56 370.249 476.34 358.737 504.661C352.651 519.468 367.998 531.321 385.615 544.894C402.176 557.638 422.413 573.337 430.089 595.566C419.079 571.197 396.459 553.737 377.46 539.161L377.073 538.86C355.636 522.173 338.83 509.091 345.452 493.031ZM361.152 505.598C370.265 483.262 405.098 476.177 419.553 474.185L419.554 474.185C423.292 473.67 425.535 473.361 425.818 473.575C497.192 473.645 502.751 550.848 506.08 597.12C506.621 602.887 507.093 608.155 507.462 612.676C509.436 630.69 495.332 640.76 481.125 642.718L480.627 642.786C461.651 645.147 439.359 634.505 435.126 605.627C430.947 577.107 407.477 558.793 388.333 543.856C387.926 543.539 387.521 543.223 387.119 542.909L386.087 542.101C369.207 528.882 355.962 518.51 361.152 505.598Z" fill="url(#paint0_linear)"/>
<defs>
<linearGradient id="paint0_linear" x1="20.3976" y1="276.602" x2="770.434" y2="237.122" gradientUnits="userSpaceOnUse">
<stop stop-color="#FFD110"/>
<stop offset="0.286458" stop-color="#109BFF"/>
<stop offset="0.420739"/>
<stop offset="0.591812" stop-color="#011A00"/>
<stop offset="0.920015" stop-color="#04DA00"/>
</linearGradient>
</defs>
</svg>
