<?xml version="1.0" encoding="utf-8"?>
<!-- Generator: Adobe Illustrator 24.0.1, SVG Export Plug-In . SVG Version: 6.00 Build 0)  -->
<!DOCTYPE svg PUBLIC "-//W3C//DTD SVG 1.1//EN" "http://www.w3.org/Graphics/SVG/1.1/DTD/svg11.dtd" [
	<!ENTITY ns_extend "http://ns.adobe.com/Extensibility/1.0/">
	<!ENTITY ns_ai "http://ns.adobe.com/AdobeIllustrator/10.0/">
	<!ENTITY ns_graphs "http://ns.adobe.com/Graphs/1.0/">
	<!ENTITY ns_vars "http://ns.adobe.com/Variables/1.0/">
	<!ENTITY ns_imrep "http://ns.adobe.com/ImageReplacement/1.0/">
	<!ENTITY ns_sfw "http://ns.adobe.com/SaveForWeb/1.0/">
	<!ENTITY ns_custom "http://ns.adobe.com/GenericCustomNamespace/1.0/">
	<!ENTITY ns_adobe_xpath "http://ns.adobe.com/XPath/1.0/">
]>
<svg version="1.1" id="layer_1" xmlns:x="&ns_extend;" xmlns:i="&ns_ai;" xmlns:graph="&ns_graphs;"
	 xmlns="http://www.w3.org/2000/svg" xmlns:xlink="http://www.w3.org/1999/xlink" x="0px" y="0px" viewBox="0 0 225.3 42.1"
	 style="enable-background:new 0 0 225.3 42.1;" xml:space="preserve">
<style type="text/css">
	.st0{fill:#3ABB94;}
</style>
<metadata>
	<sfw  xmlns="&ns_sfw;">
		<slices></slices>
		<sliceSourceBounds  bottomLeftOrigin="true" height="42.1" width="225.3" x="54.7" y="0"></sliceSourceBounds>
	</sfw>
</metadata>
<title>logo</title>
<path class="st0" d="M85.2,12.8c1.1,1.1,1.8,2.6,1.7,4.1c0,1.6-0.6,3.1-1.7,4.2c-1.1,1.1-2.6,1.7-4.1,1.7c-1.6,0-3.1-0.6-4.2-1.7
	c-1.1-1.1-1.8-2.6-1.7-4.2c0-1.6,0.6-3.1,1.7-4.1C79.2,10.5,82.9,10.5,85.2,12.8C85.2,12.7,85.2,12.8,85.2,12.8z"/>
<path d="M15,33.7c-4.2-0.4-8.1-2.4-10.8-5.6C1.5,25,0,21,0,16.9C-0.1,12.4,1.7,8.1,4.9,5c3.3-3.3,7.8-5.1,12.5-5
	c4.7-0.1,9.2,1.7,12.5,5c3.2,3.1,5,7.5,4.9,12c0,3.2-0.9,6.3-2.6,9s-4.1,4.8-6.9,6.1c1,1.2,2.5,1.8,4,1.7c1.4,0,2.7-0.3,3.9-1V41
	c-1.7,0.7-3.6,1.1-5.5,1.1c-4.2,0-8.2-2-10.6-5.5L15,33.7z M17.4,24.8c2,0.1,3.8-0.7,5.2-2.2c1.4-1.6,2.1-3.6,2-5.6
	c0.1-2-0.6-4.1-2-5.6c-2.7-2.9-7.1-3-10-0.3c-0.1,0.1-0.2,0.2-0.3,0.3c-1.4,1.5-2.1,3.5-2,5.6c-0.1,2.1,0.6,4.1,2,5.6
	C13.6,24,15.5,24.8,17.4,24.8z"/>
<path d="M35.6,33.2L49,0.4h9.5l13.4,32.8H61.3L59,27.1H48.3l-2.4,6.1H35.6z M51.2,19.6H56l-2.4-7.7L51.2,19.6z"/>
<path d="M97.8,29.1c-3.5-3.1-5.4-7.6-5.2-12.2c-0.1-4.6,1.8-9.1,5.3-12.2c3.6-3.2,8.4-4.9,13.3-4.7c1.3,0,2.7,0.1,4,0.3
	c0.9,0.2,1.8,0.4,2.7,0.7c0.6,0.2,1.5,0.6,2.6,1v9.2c-8.7-4.5-17.7-1.5-17.4,5.9c-0.3,4.2,2.9,7.8,7,8.1c0.3,0,0.5,0,0.8,0
	c1.4,0.1,2.7-0.2,3.9-0.9v-10h10.1V29c-1.6,1.6-3.6,2.8-5.7,3.5c-2.6,1-5.4,1.5-8.2,1.4C105.9,34,101.3,32.3,97.8,29.1z"/>
<path d="M128.4,0.6h10v19.1c0,3.5,2.1,5,4.9,5s4.8-1.5,4.8-5V0.6h10v19.1c0,4.5-1.4,8-4.2,10.5c-2.9,2.5-6.7,3.8-10.6,3.7
	c-3.9,0.1-7.7-1.2-10.6-3.7c-2.8-2.5-4.2-6-4.2-10.5L128.4,0.6z"/>
<path d="M194.9,33.2h-11.7l-8.7-11.6h-1.4v11.6h-10V0.6h15.7c3.2-0.2,6.4,0.9,8.9,3c2.2,1.9,3.4,4.6,3.4,7.5c0,4-2.3,7.7-6,9.4
	L194.9,33.2z M177.7,14.3c1.9,0,3.1-1,3.1-2.7S179.5,9,177.7,9h-4.6v5.3H177.7z"/>
<path d="M195.6,0.6h10v19.1c0,3.5,2.1,5,4.9,5s4.8-1.5,4.8-5V0.6h10v19.1c0,4.5-1.4,8-4.2,10.5c-3,2.5-6.7,3.8-10.6,3.7
	c-3.9,0.1-7.7-1.2-10.6-3.7c-2.8-2.5-4.2-6-4.2-10.5L195.6,0.6L195.6,0.6z"/>
</svg>
